<svg width="32" height="32" viewBox="0 0 32 32" fill="none" xmlns="http://www.w3.org/2000/svg">
<rect x="2" y="2" width="28" height="28" rx="14" fill="#1F3745"/>
<path d="M15.2529 16.7953L14.8794 17.3348L14.8794 17.3348L15.2529 16.7953ZM16.7471 16.7953L17.1206 17.3348L17.1206 17.3348L16.7471 16.7953ZM8.78125 10.75H23.2188V9.4375H8.78125V10.75ZM23.875 11.4062V20.5938H25.1875V11.4062H23.875ZM23.2188 21.25H8.78125V22.5625H23.2188V21.25ZM8.125 20.5938V11.4062H6.8125V20.5938H8.125ZM8.78125 21.25C8.41881 21.25 8.125 20.9562 8.125 20.5938H6.8125C6.8125 21.6811 7.69394 22.5625 8.78125 22.5625V21.25ZM23.875 20.5938C23.875 20.9562 23.5812 21.25 23.2188 21.25V22.5625C24.3061 22.5625 25.1875 21.6811 25.1875 20.5938H23.875ZM23.2188 10.75C23.5812 10.75 23.875 11.0438 23.875 11.4062H25.1875C25.1875 10.3189 24.3061 9.4375 23.2188 9.4375V10.75ZM8.78125 9.4375C7.69394 9.4375 6.8125 10.3189 6.8125 11.4062H8.125C8.125 11.0438 8.41881 10.75 8.78125 10.75V9.4375ZM7.09521 11.9458L14.8794 17.3348L15.6265 16.2557L7.84229 10.8667L7.09521 11.9458ZM17.1206 17.3348L24.9048 11.9458L24.1577 10.8667L16.3735 16.2557L17.1206 17.3348ZM14.8794 17.3348C15.5536 17.8016 16.4464 17.8016 17.1206 17.3348L16.3735 16.2557C16.1488 16.4113 15.8512 16.4113 15.6265 16.2557L14.8794 17.3348Z" fill="white"/>
</svg>
