<svg width="54" height="70" viewBox="0 0 54 70" fill="none" xmlns="http://www.w3.org/2000/svg">
<path d="M10.3972 42.9654C9.63077 43.28 9.26444 44.1562 9.57895 44.9226C9.89346 45.689 10.7697 46.0553 11.5361 45.7408L10.3972 42.9654ZM27.5356 33.2384L26.4533 32.1997L26.4533 32.1997L27.5356 33.2384ZM34.8148 4.15827L36.0632 3.32672L36.0632 3.32672L34.8148 4.15827ZM25.8652 3.00219L24.9234 1.8347L24.9234 1.8347L25.8652 3.00219ZM20.5119 13.3324L19.0471 13.0095L20.5119 13.3324ZM30.1699 66.303L29.1049 65.2467L29.1049 65.2467L30.1699 66.303ZM24.4852 44.3531L25.6663 45.2778L25.6663 45.2778L24.4852 44.3531ZM36.4093 42.3259L35.3161 43.353L35.3161 43.353L36.4093 42.3259ZM39.7369 41.5569L38.7608 40.418L38.7147 40.4576L38.6719 40.5007L39.7369 41.5569ZM43.6885 41.5569L43.058 42.918L43.058 42.918L43.6885 41.5569ZM52.0076 41.4492C52.8361 41.4492 53.5076 40.7776 53.5076 39.9492C53.5076 39.1207 52.8361 38.4492 52.0077 38.4492L52.0076 41.4492ZM11.5361 45.7408C13.6888 44.8574 17.4329 42.5321 20.8056 40.2368C24.1668 37.9494 27.4506 35.4932 28.6178 34.277L26.4533 32.1997C25.5408 33.1505 22.5275 35.4362 19.1178 37.7566C15.7197 40.0692 12.2191 42.2178 10.3972 42.9654L11.5361 45.7408ZM28.6178 34.277C30.8314 31.9705 32.352 30.3708 33.5781 28.5935C34.8238 26.7879 35.7336 24.8498 36.8438 21.8799L34.0337 20.8294C32.9602 23.7011 32.152 25.3777 31.1087 26.8899C30.0459 28.4305 28.7067 29.8518 26.4533 32.1997L28.6178 34.277ZM36.8438 21.8799C38.0142 18.7488 38.4938 15.1691 38.3649 11.8888C38.2373 8.6425 37.505 5.49135 36.0632 3.32672L33.5664 4.98982C34.579 6.51006 35.2505 9.03629 35.3672 12.0066C35.4826 14.9429 35.0469 18.1189 34.0337 20.8294L36.8438 21.8799ZM36.0632 3.32672C35.118 1.90773 33.354 0.753367 31.385 0.320592C29.3586 -0.124814 26.99 0.167613 24.9234 1.8347L26.807 4.16969C28.068 3.15245 29.4744 2.97226 30.741 3.25065C32.065 3.54167 33.1119 4.3075 33.5664 4.98982L36.0632 3.32672ZM24.9234 1.8347C20.2896 5.57267 19.6266 10.3797 19.0471 13.0095L21.9768 13.6552C22.5978 10.8374 23.1217 7.14251 26.807 4.16969L24.9234 1.8347ZM19.0471 13.0095C18.3525 16.1612 17.3459 22.7486 17.2262 25.7652L20.2239 25.8842C20.3341 23.106 21.3044 16.7061 21.9768 13.6552L19.0471 13.0095ZM17.2262 25.7652C17.1702 27.1773 16.7771 32.1814 16.3835 37.3102C15.9945 42.3791 15.6035 47.5879 15.5677 49.2847L18.567 49.3479C18.6005 47.7592 18.9809 42.671 19.3747 37.5398C19.7639 32.4685 20.1649 27.3696 20.2239 25.8842L17.2262 25.7652ZM15.5677 49.2847C15.5355 50.8072 15.289 54.0749 15.4668 57.2833C15.5568 58.9065 15.7565 60.592 16.1649 62.1295C16.5695 63.6526 17.2086 65.1451 18.2549 66.274L20.4553 64.2348C19.874 63.6077 19.4047 62.6405 19.0643 61.3593C18.7278 60.0924 18.546 58.629 18.4622 57.1173C18.2926 54.0561 18.5298 51.1109 18.567 49.3479L15.5677 49.2847ZM18.2549 66.274C20.0572 68.2187 22.2573 69.5241 24.5875 69.8087C26.9672 70.0993 29.31 69.3003 31.235 67.3592L29.1049 65.2467C27.793 66.5696 26.3559 67.0024 24.9512 66.8308C23.497 66.6532 21.9081 65.8025 20.4553 64.2348L18.2549 66.274ZM31.235 67.3592C33.0597 65.5194 33.7309 63.1654 33.756 60.7834C33.7809 58.4238 33.1773 55.9475 32.3585 53.6696C30.7199 49.1109 28.0852 44.9891 27.1159 43.5251L24.6145 45.1812C25.5538 46.6 28.023 50.477 29.5354 54.6844C30.2921 56.7896 30.7758 58.8882 30.7562 60.7518C30.7368 62.5929 30.2318 64.1105 29.1049 65.2467L31.235 67.3592ZM27.1159 43.5251C26.6563 42.8309 26.2446 42.1454 25.8181 41.4538C25.403 40.7808 24.9714 40.0978 24.5135 39.4967C23.6241 38.3291 22.3738 37.1202 20.5119 37.1202V40.1202C20.9098 40.1202 21.3818 40.3364 22.127 41.3146C22.4864 41.7863 22.8501 42.3564 23.2646 43.0285C23.6677 43.6822 24.1198 44.434 24.6145 45.1812L27.1159 43.5251ZM20.5119 37.1202C18.1189 37.1202 14.9434 38.9147 14.9434 42.7453L17.9434 42.7453C17.9434 40.9836 19.3312 40.1202 20.5119 40.1202V37.1202ZM14.9434 42.7453C14.9434 44.2319 15.138 45.7335 15.7714 46.9145C16.0997 47.5266 16.5622 48.0823 17.1981 48.48C17.8391 48.881 18.5726 49.0687 19.3551 49.0687V46.0687C19.063 46.0687 18.8952 46.003 18.7889 45.9365C18.6774 45.8668 18.5462 45.7408 18.4152 45.4966C18.13 44.9649 17.9434 44.0549 17.9434 42.7453L14.9434 42.7453ZM19.3551 49.0687C22.2414 49.0687 24.1237 47.2481 25.6663 45.2778L23.3041 43.4284C21.8691 45.2614 20.767 46.0687 19.3551 46.0687V49.0687ZM25.6663 45.2778C26.2075 44.5866 26.6833 43.9255 27.0907 43.3588C27.5099 42.7758 27.8351 42.3238 28.1133 41.9856C28.4338 41.5961 28.5208 41.5781 28.4238 41.6233C28.3273 41.6683 28.0809 41.7512 27.7637 41.6705C27.4541 41.5917 27.2938 41.412 27.2536 41.3604L29.62 39.5165C29.3892 39.2203 29.0274 38.8964 28.503 38.763C27.971 38.6277 27.4967 38.7456 27.1564 38.9041C26.572 39.1765 26.1087 39.7003 25.7966 40.0797C25.4422 40.5105 25.0525 41.0546 24.6549 41.6075C24.2456 42.1768 23.8028 42.7915 23.3041 43.4284L25.6663 45.2778ZM27.2536 41.3604C27.3659 41.5045 27.502 41.7537 27.8051 42.2666C28.0622 42.7017 28.4102 43.2676 28.8433 43.761C29.2667 44.2434 29.8989 44.8057 30.7692 45.0136C31.7183 45.2403 32.6492 44.979 33.4766 44.3793L31.7161 41.9502C31.4343 42.1544 31.386 42.0765 31.4663 42.0957C31.4678 42.0961 31.3418 42.0598 31.098 41.782C30.8638 41.5153 30.6355 41.1593 30.3878 40.7403C30.1861 40.399 29.889 39.8617 29.62 39.5165L27.2536 41.3604ZM33.4766 44.3793C34.0988 43.9284 34.4437 43.6589 34.8195 43.3927C34.9856 43.275 35.1088 43.1941 35.2051 43.1379C35.2517 43.1106 35.2863 43.0926 35.3108 43.0809C35.3353 43.0692 35.346 43.0657 35.3447 43.0662C35.2829 43.0869 35.1191 43.0994 34.9833 43.0383C34.9455 43.0213 35.0348 43.0536 35.3161 43.353L37.5025 41.2988C37.1598 40.9341 36.7379 40.5382 36.2148 40.3027C35.5937 40.0232 34.9706 40.027 34.3889 40.2225C33.9008 40.3865 33.4537 40.6838 33.0856 40.9445C32.7335 41.1939 32.2032 41.5972 31.7161 41.9502L33.4766 44.3793ZM35.3161 43.353C36.4115 44.5189 37.8273 44.3463 38.7241 44.0028C39.6068 43.6646 40.3625 43.0564 40.802 42.6132L38.6719 40.5007C38.4181 40.7566 38.0092 41.064 37.6509 41.2013C37.4809 41.2664 37.407 41.2602 37.4112 41.2607C37.4191 41.2615 37.4421 41.2657 37.4702 41.2794C37.4989 41.2935 37.5093 41.306 37.5025 41.2988L35.3161 43.353ZM40.7131 42.6959C40.6682 42.7343 41.4617 42.1784 43.058 42.918L44.3191 40.1959C41.8113 39.0341 39.73 39.5873 38.7608 40.418L40.7131 42.6959ZM43.058 42.918C44.0618 43.383 45.215 43.4049 46.2104 43.2986C47.2372 43.1889 48.2892 42.92 49.21 42.629C50.1382 42.3356 50.9775 42.0054 51.5857 41.7526C51.89 41.6261 52.1409 41.5171 52.3098 41.4442C52.3986 41.4059 52.4537 41.3824 52.4873 41.3687C52.5059 41.3611 52.5002 41.3638 52.4816 41.3704C52.4736 41.3732 52.4428 41.3841 52.3997 41.3962C52.378 41.4022 52.3387 41.4126 52.2883 41.4224C52.2489 41.43 52.144 41.4492 52.0076 41.4492L52.0077 38.4492C51.7805 38.4491 51.6014 38.5043 51.5946 38.5062C51.5419 38.5209 51.4989 38.5358 51.4761 38.5439C51.428 38.561 51.3826 38.5793 51.3518 38.5919C51.2867 38.6185 51.2044 38.6539 51.1213 38.6897C50.9466 38.7651 50.716 38.8653 50.4343 38.9824C49.8704 39.2167 49.1195 39.5113 48.306 39.7684C47.485 40.0279 46.6435 40.2352 45.8917 40.3156C45.1084 40.3992 44.5978 40.325 44.3191 40.1959L43.058 42.918Z" fill="black"/>
</svg>
