<svg width="50" height="50" viewBox="0 0 50 50" fill="none" xmlns="http://www.w3.org/2000/svg">
<g clip-path="url(#clip0_3:15543)">
<path d="M28.3439 3.52221C30.8169 3.00218 33.3765 3.873 35.0193 5.79326L44.6033 16.9961C46.1903 18.851 46.6812 21.4054 45.8949 23.7164L40.9479 38.2576C40.1617 40.5687 38.2148 42.2937 35.826 42.796L21.3985 45.8299C18.9255 46.3499 16.3658 45.4791 14.723 43.5589L5.13898 32.356C3.55208 30.5011 3.06115 27.9467 3.84739 25.6357L8.79443 11.0945C9.58067 8.78346 11.5275 7.05843 13.9164 6.55608L28.3439 3.52221Z" fill="#DE6461"/>
<circle cx="14.9187" cy="23.9106" r="2.16027" fill="#613532"/>
<circle cx="34.076" cy="20.1915" r="2.16027" fill="#613532"/>
<path d="M30.3201 27.3588C32.0899 27.0015 33.8857 28.1927 33.5089 29.9584C32.8551 33.0227 30.4234 35.5674 27.1273 36.2329C23.8312 36.8983 20.6027 35.4964 18.8112 32.9258C17.7789 31.4445 18.9719 29.6499 20.7416 29.2926L30.3201 27.3588Z" fill="#633134"/>
<ellipse cx="26.5306" cy="33.4482" rx="6.10624" ry="2.87547" transform="rotate(-10.8849 26.5306 33.4482)" fill="#AA504F"/>
<path d="M33.6846 29.9919C33.0166 33.1223 30.5317 35.7235 27.1618 36.4038C23.7919 37.0842 20.4924 35.6508 18.6623 33.0248C18.1876 32.3436 18.2214 31.5989 18.5852 30.9668C18.9541 30.3257 19.6645 29.804 20.5241 29.6304L30.6517 27.5857C31.5113 27.4122 32.3684 27.6174 32.9572 28.0652C33.5377 28.5067 33.8578 29.1799 33.6846 29.9919Z" stroke="#653231" stroke-width="0.576072"/>
</g>
<defs>
<clipPath id="clip0_3:15543">
<rect width="50" height="50" fill="white"/>
</clipPath>
</defs>
</svg>
