<svg width="335" height="267" viewBox="0 0 335 267" fill="none" xmlns="http://www.w3.org/2000/svg">
<rect x="0.5" y="0.5" width="334" height="266" rx="19.5" fill="#F3FBFF"/>
<path d="M86.368 27.832V39H84.128V34.248H79.344V39H77.104V27.832H79.344V32.424H84.128V27.832H86.368ZM96.9008 30.136V39H94.6448V37.88C94.3568 38.264 93.9781 38.568 93.5088 38.792C93.0501 39.0053 92.5488 39.112 92.0048 39.112C91.3114 39.112 90.6981 38.968 90.1648 38.68C89.6314 38.3813 89.2101 37.9493 88.9008 37.384C88.6021 36.808 88.4528 36.1253 88.4528 35.336V30.136H90.6928V35.016C90.6928 35.72 90.8688 36.264 91.2208 36.648C91.5728 37.0213 92.0528 37.208 92.6608 37.208C93.2794 37.208 93.7648 37.0213 94.1168 36.648C94.4688 36.264 94.6448 35.72 94.6448 35.016V30.136H96.9008ZM101.311 27.16V39H99.0709V27.16H101.311ZM111.852 30.136V39H109.596V37.88C109.308 38.264 108.929 38.568 108.46 38.792C108.001 39.0053 107.5 39.112 106.956 39.112C106.263 39.112 105.649 38.968 105.116 38.68C104.583 38.3813 104.161 37.9493 103.852 37.384C103.553 36.808 103.404 36.1253 103.404 35.336V30.136H105.644V35.016C105.644 35.72 105.82 36.264 106.172 36.648C106.524 37.0213 107.004 37.208 107.612 37.208C108.231 37.208 108.716 37.0213 109.068 36.648C109.42 36.264 109.596 35.72 109.596 35.016V30.136H111.852Z" fill="#154C6B"/>
<path d="M187.288 24.66V25.776H185.068V33H183.7V25.776H181.468V24.66H187.288ZM193.005 33L191.085 29.664H190.041V33H188.673V24.66H191.553C192.193 24.66 192.733 24.772 193.173 24.996C193.621 25.22 193.953 25.52 194.169 25.896C194.393 26.272 194.505 26.692 194.505 27.156C194.505 27.7 194.345 28.196 194.025 28.644C193.713 29.084 193.229 29.384 192.573 29.544L194.637 33H193.005ZM190.041 28.572H191.553C192.065 28.572 192.449 28.444 192.705 28.188C192.969 27.932 193.101 27.588 193.101 27.156C193.101 26.724 192.973 26.388 192.717 26.148C192.461 25.9 192.073 25.776 191.553 25.776H190.041V28.572ZM201.283 31.296H197.791L197.191 33H195.763L198.751 24.648H200.335L203.323 33H201.883L201.283 31.296ZM200.899 30.18L199.543 26.304L198.175 30.18H200.899ZM211.475 33H210.107L205.991 26.772V33H204.623V24.648H205.991L210.107 30.864V24.648H211.475V33ZM216.019 33.084C215.459 33.084 214.955 32.988 214.507 32.796C214.059 32.596 213.707 32.316 213.451 31.956C213.195 31.596 213.067 31.176 213.067 30.696H214.531C214.563 31.056 214.703 31.352 214.951 31.584C215.207 31.816 215.563 31.932 216.019 31.932C216.491 31.932 216.859 31.82 217.123 31.596C217.387 31.364 217.519 31.068 217.519 30.708C217.519 30.428 217.435 30.2 217.267 30.024C217.107 29.848 216.903 29.712 216.655 29.616C216.415 29.52 216.079 29.416 215.647 29.304C215.103 29.16 214.659 29.016 214.315 28.872C213.979 28.72 213.691 28.488 213.451 28.176C213.211 27.864 213.091 27.448 213.091 26.928C213.091 26.448 213.211 26.028 213.451 25.668C213.691 25.308 214.027 25.032 214.459 24.84C214.891 24.648 215.391 24.552 215.959 24.552C216.767 24.552 217.427 24.756 217.939 25.164C218.459 25.564 218.747 26.116 218.803 26.82H217.291C217.267 26.516 217.123 26.256 216.859 26.04C216.595 25.824 216.247 25.716 215.815 25.716C215.423 25.716 215.103 25.816 214.855 26.016C214.607 26.216 214.483 26.504 214.483 26.88C214.483 27.136 214.559 27.348 214.711 27.516C214.871 27.676 215.071 27.804 215.311 27.9C215.551 27.996 215.879 28.1 216.295 28.212C216.847 28.364 217.295 28.516 217.639 28.668C217.991 28.82 218.287 29.056 218.527 29.376C218.775 29.688 218.899 30.108 218.899 30.636C218.899 31.06 218.783 31.46 218.551 31.836C218.327 32.212 217.995 32.516 217.555 32.748C217.123 32.972 216.611 33.084 216.019 33.084ZM225.541 31.296H222.049L221.449 33H220.021L223.009 24.648H224.593L227.581 33H226.141L225.541 31.296ZM225.157 30.18L223.801 26.304L222.433 30.18H225.157ZM228.424 28.812C228.424 27.996 228.612 27.264 228.988 26.616C229.372 25.968 229.888 25.464 230.536 25.104C231.192 24.736 231.908 24.552 232.684 24.552C233.572 24.552 234.36 24.772 235.048 25.212C235.744 25.644 236.248 26.26 236.56 27.06H234.916C234.7 26.62 234.4 26.292 234.016 26.076C233.632 25.86 233.188 25.752 232.684 25.752C232.132 25.752 231.64 25.876 231.208 26.124C230.776 26.372 230.436 26.728 230.188 27.192C229.948 27.656 229.828 28.196 229.828 28.812C229.828 29.428 229.948 29.968 230.188 30.432C230.436 30.896 230.776 31.256 231.208 31.512C231.64 31.76 232.132 31.884 232.684 31.884C233.188 31.884 233.632 31.776 234.016 31.56C234.4 31.344 234.7 31.016 234.916 30.576H236.56C236.248 31.376 235.744 31.992 235.048 32.424C234.36 32.856 233.572 33.072 232.684 33.072C231.9 33.072 231.184 32.892 230.536 32.532C229.888 32.164 229.372 31.656 228.988 31.008C228.612 30.36 228.424 29.628 228.424 28.812ZM243.55 24.66V25.776H241.33V33H239.962V25.776H237.73V24.66H243.55ZM246.303 24.66V33H244.935V24.66H246.303ZM251.903 33.084C251.127 33.084 250.411 32.904 249.755 32.544C249.107 32.176 248.591 31.668 248.207 31.02C247.831 30.364 247.643 29.628 247.643 28.812C247.643 27.996 247.831 27.264 248.207 26.616C248.591 25.968 249.107 25.464 249.755 25.104C250.411 24.736 251.127 24.552 251.903 24.552C252.687 24.552 253.403 24.736 254.051 25.104C254.707 25.464 255.223 25.968 255.599 26.616C255.975 27.264 256.163 27.996 256.163 28.812C256.163 29.628 255.975 30.364 255.599 31.02C255.223 31.668 254.707 32.176 254.051 32.544C253.403 32.904 252.687 33.084 251.903 33.084ZM251.903 31.896C252.455 31.896 252.947 31.772 253.379 31.524C253.811 31.268 254.147 30.908 254.387 30.444C254.635 29.972 254.759 29.428 254.759 28.812C254.759 28.196 254.635 27.656 254.387 27.192C254.147 26.728 253.811 26.372 253.379 26.124C252.947 25.876 252.455 25.752 251.903 25.752C251.351 25.752 250.859 25.876 250.427 26.124C249.995 26.372 249.655 26.728 249.407 27.192C249.167 27.656 249.047 28.196 249.047 28.812C249.047 29.428 249.167 29.972 249.407 30.444C249.655 30.908 249.995 31.268 250.427 31.524C250.859 31.772 251.351 31.896 251.903 31.896ZM264.361 33H262.993L258.877 26.772V33H257.509V24.648H258.877L262.993 30.864V24.648H264.361V33ZM268.906 33.084C268.346 33.084 267.842 32.988 267.394 32.796C266.946 32.596 266.594 32.316 266.338 31.956C266.082 31.596 265.954 31.176 265.954 30.696H267.418C267.45 31.056 267.59 31.352 267.838 31.584C268.094 31.816 268.45 31.932 268.906 31.932C269.378 31.932 269.746 31.82 270.01 31.596C270.274 31.364 270.406 31.068 270.406 30.708C270.406 30.428 270.322 30.2 270.154 30.024C269.994 29.848 269.79 29.712 269.542 29.616C269.302 29.52 268.966 29.416 268.534 29.304C267.99 29.16 267.546 29.016 267.202 28.872C266.866 28.72 266.578 28.488 266.338 28.176C266.098 27.864 265.978 27.448 265.978 26.928C265.978 26.448 266.098 26.028 266.338 25.668C266.578 25.308 266.914 25.032 267.346 24.84C267.778 24.648 268.278 24.552 268.846 24.552C269.654 24.552 270.314 24.756 270.826 25.164C271.346 25.564 271.634 26.116 271.69 26.82H270.178C270.154 26.516 270.01 26.256 269.746 26.04C269.482 25.824 269.134 25.716 268.702 25.716C268.31 25.716 267.99 25.816 267.742 26.016C267.494 26.216 267.37 26.504 267.37 26.88C267.37 27.136 267.446 27.348 267.598 27.516C267.758 27.676 267.958 27.804 268.198 27.9C268.438 27.996 268.766 28.1 269.182 28.212C269.734 28.364 270.182 28.516 270.526 28.668C270.878 28.82 271.174 29.056 271.414 29.376C271.662 29.688 271.786 30.108 271.786 30.636C271.786 31.06 271.67 31.46 271.438 31.836C271.214 32.212 270.882 32.516 270.442 32.748C270.01 32.972 269.498 33.084 268.906 33.084Z" fill="#154C6B"/>
<rect x="322.304" y="43" width="3" height="38" rx="1.5" fill="#154C6B"/>
<path d="M187.916 58.012H183.842L183.142 60H181.476L184.962 50.256H186.81L190.296 60H188.616L187.916 58.012ZM187.468 56.71L185.886 52.188L184.29 56.71H187.468ZM198.548 52.286V60H196.952V59.09C196.7 59.4073 196.368 59.6593 195.958 59.846C195.556 60.0233 195.127 60.112 194.67 60.112C194.063 60.112 193.517 59.986 193.032 59.734C192.556 59.482 192.178 59.1087 191.898 58.614C191.627 58.1193 191.492 57.522 191.492 56.822V52.286H193.074V56.584C193.074 57.2747 193.246 57.8067 193.592 58.18C193.937 58.544 194.408 58.726 195.006 58.726C195.603 58.726 196.074 58.544 196.42 58.18C196.774 57.8067 196.952 57.2747 196.952 56.584V52.286H198.548ZM203.512 52.16C204.109 52.16 204.636 52.2813 205.094 52.524C205.56 52.7573 205.924 53.0513 206.186 53.406V52.286H207.796V60.126C207.796 60.8353 207.646 61.4653 207.348 62.016C207.049 62.576 206.615 63.0147 206.046 63.332C205.486 63.6493 204.814 63.808 204.03 63.808C202.984 63.808 202.116 63.5607 201.426 63.066C200.735 62.5807 200.343 61.918 200.25 61.078H201.832C201.953 61.4793 202.21 61.8013 202.602 62.044C203.003 62.296 203.479 62.422 204.03 62.422C204.674 62.422 205.192 62.226 205.584 61.834C205.985 61.442 206.186 60.8727 206.186 60.126V58.838C205.915 59.202 205.546 59.51 205.08 59.762C204.622 60.0047 204.1 60.126 203.512 60.126C202.84 60.126 202.224 59.958 201.664 59.622C201.113 59.2767 200.674 58.8007 200.348 58.194C200.03 57.578 199.872 56.8827 199.872 56.108C199.872 55.3333 200.03 54.6473 200.348 54.05C200.674 53.4527 201.113 52.9907 201.664 52.664C202.224 52.328 202.84 52.16 203.512 52.16ZM206.186 56.136C206.186 55.604 206.074 55.142 205.85 54.75C205.635 54.358 205.35 54.0593 204.996 53.854C204.641 53.6487 204.258 53.546 203.848 53.546C203.437 53.546 203.054 53.6487 202.7 53.854C202.345 54.05 202.056 54.344 201.832 54.736C201.617 55.1187 201.51 55.576 201.51 56.108C201.51 56.64 201.617 57.1067 201.832 57.508C202.056 57.9093 202.345 58.2173 202.7 58.432C203.064 58.6373 203.446 58.74 203.848 58.74C204.258 58.74 204.641 58.6373 204.996 58.432C205.35 58.2267 205.635 57.928 205.85 57.536C206.074 57.1347 206.186 56.668 206.186 56.136ZM213.701 57.83C214.597 57.0553 215.301 56.4207 215.815 55.926C216.337 55.422 216.771 54.8993 217.117 54.358C217.462 53.8167 217.635 53.2753 217.635 52.734C217.635 52.174 217.499 51.7353 217.229 51.418C216.967 51.1007 216.552 50.942 215.983 50.942C215.432 50.942 215.003 51.1193 214.695 51.474C214.396 51.8193 214.237 52.286 214.219 52.874H212.679C212.707 51.81 213.024 50.998 213.631 50.438C214.247 49.8687 215.026 49.584 215.969 49.584C216.986 49.584 217.779 49.864 218.349 50.424C218.927 50.984 219.217 51.7307 219.217 52.664C219.217 53.336 219.044 53.9847 218.699 54.61C218.363 55.226 217.957 55.7813 217.481 56.276C217.014 56.7613 216.417 57.326 215.689 57.97L215.059 58.53H219.497V59.86H212.693V58.698L213.701 57.83ZM227.117 51.026L223.225 60H221.615L225.549 51.194H220.369V49.836H227.117V51.026Z" fill="#154C6B"/>
<path d="M268.386 57.228C268.386 57.6947 268.269 58.1333 268.036 58.544C267.812 58.9547 267.476 59.3 267.028 59.58C266.589 59.86 266.066 60.028 265.46 60.084V61.218H264.55V60.084C263.672 60 262.963 59.7247 262.422 59.258C261.88 58.7913 261.61 58.1753 261.61 57.41H263.318C263.346 57.774 263.462 58.0773 263.668 58.32C263.873 58.5533 264.167 58.7027 264.55 58.768V55.688C263.924 55.5293 263.416 55.3707 263.024 55.212C262.632 55.044 262.296 54.7827 262.016 54.428C261.745 54.0733 261.61 53.588 261.61 52.972C261.61 52.1973 261.88 51.558 262.422 51.054C262.963 50.5407 263.672 50.242 264.55 50.158V49.024H265.46V50.158C266.281 50.2327 266.939 50.494 267.434 50.942C267.938 51.3807 268.222 51.9873 268.288 52.762H266.58C266.552 52.4727 266.44 52.216 266.244 51.992C266.048 51.7587 265.786 51.6 265.46 51.516V54.54C266.085 54.6893 266.594 54.848 266.986 55.016C267.378 55.1747 267.709 55.4313 267.98 55.786C268.25 56.1313 268.386 56.612 268.386 57.228ZM263.234 52.888C263.234 53.2707 263.346 53.5693 263.57 53.784C263.803 53.9987 264.13 54.1713 264.55 54.302V51.474C264.148 51.5207 263.826 51.6653 263.584 51.908C263.35 52.1507 263.234 52.4773 263.234 52.888ZM265.46 58.768C265.87 58.7027 266.192 58.5393 266.426 58.278C266.659 58.0073 266.776 57.6853 266.776 57.312C266.776 56.9387 266.659 56.6493 266.426 56.444C266.202 56.2293 265.88 56.0567 265.46 55.926V58.768ZM270.505 51.25V49.794H273.417V60H271.807V51.25H270.505ZM276.492 57.83C277.388 57.0553 278.092 56.4207 278.606 55.926C279.128 55.422 279.562 54.8993 279.908 54.358C280.253 53.8167 280.426 53.2753 280.426 52.734C280.426 52.174 280.29 51.7353 280.02 51.418C279.758 51.1007 279.343 50.942 278.774 50.942C278.223 50.942 277.794 51.1193 277.486 51.474C277.187 51.8193 277.028 52.286 277.01 52.874H275.47C275.498 51.81 275.815 50.998 276.422 50.438C277.038 49.8687 277.817 49.584 278.76 49.584C279.777 49.584 280.57 49.864 281.14 50.424C281.718 50.984 282.008 51.7307 282.008 52.664C282.008 53.336 281.835 53.9847 281.49 54.61C281.154 55.226 280.748 55.7813 280.272 56.276C279.805 56.7613 279.208 57.326 278.48 57.97L277.85 58.53H282.288V59.86H275.484V58.698L276.492 57.83ZM284.544 60.098C284.254 60.098 284.012 60 283.816 59.804C283.62 59.608 283.522 59.3653 283.522 59.076C283.522 58.7867 283.62 58.544 283.816 58.348C284.012 58.152 284.254 58.054 284.544 58.054C284.824 58.054 285.062 58.152 285.258 58.348C285.454 58.544 285.552 58.7867 285.552 59.076C285.552 59.3653 285.454 59.608 285.258 59.804C285.062 60 284.824 60.098 284.544 60.098ZM289.055 57.228C289.148 57.6947 289.349 58.0493 289.657 58.292C289.965 58.5347 290.38 58.656 290.903 58.656C291.565 58.656 292.051 58.3947 292.359 57.872C292.667 57.3493 292.821 56.458 292.821 55.198C292.597 55.5153 292.279 55.7627 291.869 55.94C291.467 56.108 291.029 56.192 290.553 56.192C289.946 56.192 289.395 56.0707 288.901 55.828C288.406 55.576 288.014 55.2073 287.725 54.722C287.445 54.2273 287.305 53.63 287.305 52.93C287.305 51.9033 287.603 51.0867 288.201 50.48C288.807 49.864 289.638 49.556 290.693 49.556C291.962 49.556 292.863 49.9807 293.395 50.83C293.936 51.67 294.207 52.9627 294.207 54.708C294.207 55.912 294.104 56.8967 293.899 57.662C293.703 58.4273 293.357 59.006 292.863 59.398C292.368 59.79 291.682 59.986 290.805 59.986C289.806 59.986 289.036 59.7247 288.495 59.202C287.953 58.6793 287.65 58.0213 287.585 57.228H289.055ZM290.833 54.848C291.393 54.848 291.831 54.6753 292.149 54.33C292.475 53.9753 292.639 53.5087 292.639 52.93C292.639 52.286 292.466 51.7867 292.121 51.432C291.785 51.068 291.323 50.886 290.735 50.886C290.147 50.886 289.68 51.0727 289.335 51.446C288.999 51.81 288.831 52.2907 288.831 52.888C288.831 53.4573 288.994 53.9287 289.321 54.302C289.657 54.666 290.161 54.848 290.833 54.848ZM297.941 57.228C298.035 57.6947 298.235 58.0493 298.543 58.292C298.851 58.5347 299.267 58.656 299.789 58.656C300.452 58.656 300.937 58.3947 301.245 57.872C301.553 57.3493 301.707 56.458 301.707 55.198C301.483 55.5153 301.166 55.7627 300.755 55.94C300.354 56.108 299.915 56.192 299.439 56.192C298.833 56.192 298.282 56.0707 297.787 55.828C297.293 55.576 296.901 55.2073 296.611 54.722C296.331 54.2273 296.191 53.63 296.191 52.93C296.191 51.9033 296.49 51.0867 297.087 50.48C297.694 49.864 298.525 49.556 299.579 49.556C300.849 49.556 301.749 49.9807 302.281 50.83C302.823 51.67 303.093 52.9627 303.093 54.708C303.093 55.912 302.991 56.8967 302.785 57.662C302.589 58.4273 302.244 59.006 301.749 59.398C301.255 59.79 300.569 59.986 299.691 59.986C298.693 59.986 297.923 59.7247 297.381 59.202C296.84 58.6793 296.537 58.0213 296.471 57.228H297.941ZM299.719 54.848C300.279 54.848 300.718 54.6753 301.035 54.33C301.362 53.9753 301.525 53.5087 301.525 52.93C301.525 52.286 301.353 51.7867 301.007 51.432C300.671 51.068 300.209 50.886 299.621 50.886C299.033 50.886 298.567 51.0727 298.221 51.446C297.885 51.81 297.717 52.2907 297.717 52.888C297.717 53.4573 297.881 53.9287 298.207 54.302C298.543 54.666 299.047 54.848 299.719 54.848Z" fill="#154C6B"/>
<path d="M187.356 99.27V106.284C187.356 107.152 187.09 107.838 186.558 108.342C186.035 108.846 185.345 109.098 184.486 109.098C183.627 109.098 182.932 108.846 182.4 108.342C181.877 107.838 181.616 107.152 181.616 106.284H183.226C183.235 106.713 183.343 107.054 183.548 107.306C183.763 107.558 184.075 107.684 184.486 107.684C184.897 107.684 185.209 107.558 185.424 107.306C185.639 107.045 185.746 106.704 185.746 106.284V99.27H187.356ZM196.688 101.286V109H195.092V108.09C194.84 108.407 194.509 108.659 194.098 108.846C193.697 109.023 193.268 109.112 192.81 109.112C192.204 109.112 191.658 108.986 191.172 108.734C190.696 108.482 190.318 108.109 190.038 107.614C189.768 107.119 189.632 106.522 189.632 105.822V101.286H191.214V105.584C191.214 106.275 191.387 106.807 191.732 107.18C192.078 107.544 192.549 107.726 193.146 107.726C193.744 107.726 194.215 107.544 194.56 107.18C194.915 106.807 195.092 106.275 195.092 105.584V101.286H196.688ZM200.14 98.64V109H198.544V98.64H200.14ZM206.044 106.83C206.94 106.055 207.645 105.421 208.158 104.926C208.681 104.422 209.115 103.899 209.46 103.358C209.806 102.817 209.978 102.275 209.978 101.734C209.978 101.174 209.843 100.735 209.572 100.418C209.311 100.101 208.896 99.942 208.326 99.942C207.776 99.942 207.346 100.119 207.038 100.474C206.74 100.819 206.581 101.286 206.562 101.874H205.022C205.05 100.81 205.368 99.998 205.974 99.438C206.59 98.8687 207.37 98.584 208.312 98.584C209.33 98.584 210.123 98.864 210.692 99.424C211.271 99.984 211.56 100.731 211.56 101.664C211.56 102.336 211.388 102.985 211.042 103.61C210.706 104.226 210.3 104.781 209.824 105.276C209.358 105.761 208.76 106.326 208.032 106.97L207.402 107.53H211.84V108.86H205.036V107.698L206.044 106.83ZM219.46 100.026L215.568 109H213.958L217.892 100.194H212.712V98.836H219.46V100.026Z" fill="#154C6B"/>
<path d="M268.386 106.228C268.386 106.695 268.269 107.133 268.036 107.544C267.812 107.955 267.476 108.3 267.028 108.58C266.589 108.86 266.066 109.028 265.46 109.084V110.218H264.55V109.084C263.672 109 262.963 108.725 262.422 108.258C261.88 107.791 261.61 107.175 261.61 106.41H263.318C263.346 106.774 263.462 107.077 263.668 107.32C263.873 107.553 264.167 107.703 264.55 107.768V104.688C263.924 104.529 263.416 104.371 263.024 104.212C262.632 104.044 262.296 103.783 262.016 103.428C261.745 103.073 261.61 102.588 261.61 101.972C261.61 101.197 261.88 100.558 262.422 100.054C262.963 99.5407 263.672 99.242 264.55 99.158V98.024H265.46V99.158C266.281 99.2327 266.939 99.494 267.434 99.942C267.938 100.381 268.222 100.987 268.288 101.762H266.58C266.552 101.473 266.44 101.216 266.244 100.992C266.048 100.759 265.786 100.6 265.46 100.516V103.54C266.085 103.689 266.594 103.848 266.986 104.016C267.378 104.175 267.709 104.431 267.98 104.786C268.25 105.131 268.386 105.612 268.386 106.228ZM263.234 101.888C263.234 102.271 263.346 102.569 263.57 102.784C263.803 102.999 264.13 103.171 264.55 103.302V100.474C264.148 100.521 263.826 100.665 263.584 100.908C263.35 101.151 263.234 101.477 263.234 101.888ZM265.46 107.768C265.87 107.703 266.192 107.539 266.426 107.278C266.659 107.007 266.776 106.685 266.776 106.312C266.776 105.939 266.659 105.649 266.426 105.444C266.202 105.229 265.88 105.057 265.46 104.926V107.768ZM270.505 100.25V98.794H273.417V109H271.807V100.25H270.505ZM276.492 106.83C277.388 106.055 278.092 105.421 278.606 104.926C279.128 104.422 279.562 103.899 279.908 103.358C280.253 102.817 280.426 102.275 280.426 101.734C280.426 101.174 280.29 100.735 280.02 100.418C279.758 100.101 279.343 99.942 278.774 99.942C278.223 99.942 277.794 100.119 277.486 100.474C277.187 100.819 277.028 101.286 277.01 101.874H275.47C275.498 100.81 275.815 99.998 276.422 99.438C277.038 98.8687 277.817 98.584 278.76 98.584C279.777 98.584 280.57 98.864 281.14 99.424C281.718 99.984 282.008 100.731 282.008 101.664C282.008 102.336 281.835 102.985 281.49 103.61C281.154 104.226 280.748 104.781 280.272 105.276C279.805 105.761 279.208 106.326 278.48 106.97L277.85 107.53H282.288V108.86H275.484V107.698L276.492 106.83ZM284.544 109.098C284.254 109.098 284.012 109 283.816 108.804C283.62 108.608 283.522 108.365 283.522 108.076C283.522 107.787 283.62 107.544 283.816 107.348C284.012 107.152 284.254 107.054 284.544 107.054C284.824 107.054 285.062 107.152 285.258 107.348C285.454 107.544 285.552 107.787 285.552 108.076C285.552 108.365 285.454 108.608 285.258 108.804C285.062 109 284.824 109.098 284.544 109.098ZM289.055 106.228C289.148 106.695 289.349 107.049 289.657 107.292C289.965 107.535 290.38 107.656 290.903 107.656C291.565 107.656 292.051 107.395 292.359 106.872C292.667 106.349 292.821 105.458 292.821 104.198C292.597 104.515 292.279 104.763 291.869 104.94C291.467 105.108 291.029 105.192 290.553 105.192C289.946 105.192 289.395 105.071 288.901 104.828C288.406 104.576 288.014 104.207 287.725 103.722C287.445 103.227 287.305 102.63 287.305 101.93C287.305 100.903 287.603 100.087 288.201 99.48C288.807 98.864 289.638 98.556 290.693 98.556C291.962 98.556 292.863 98.9807 293.395 99.83C293.936 100.67 294.207 101.963 294.207 103.708C294.207 104.912 294.104 105.897 293.899 106.662C293.703 107.427 293.357 108.006 292.863 108.398C292.368 108.79 291.682 108.986 290.805 108.986C289.806 108.986 289.036 108.725 288.495 108.202C287.953 107.679 287.65 107.021 287.585 106.228H289.055ZM290.833 103.848C291.393 103.848 291.831 103.675 292.149 103.33C292.475 102.975 292.639 102.509 292.639 101.93C292.639 101.286 292.466 100.787 292.121 100.432C291.785 100.068 291.323 99.886 290.735 99.886C290.147 99.886 289.68 100.073 289.335 100.446C288.999 100.81 288.831 101.291 288.831 101.888C288.831 102.457 288.994 102.929 289.321 103.302C289.657 103.666 290.161 103.848 290.833 103.848ZM297.941 106.228C298.035 106.695 298.235 107.049 298.543 107.292C298.851 107.535 299.267 107.656 299.789 107.656C300.452 107.656 300.937 107.395 301.245 106.872C301.553 106.349 301.707 105.458 301.707 104.198C301.483 104.515 301.166 104.763 300.755 104.94C300.354 105.108 299.915 105.192 299.439 105.192C298.833 105.192 298.282 105.071 297.787 104.828C297.293 104.576 296.901 104.207 296.611 103.722C296.331 103.227 296.191 102.63 296.191 101.93C296.191 100.903 296.49 100.087 297.087 99.48C297.694 98.864 298.525 98.556 299.579 98.556C300.849 98.556 301.749 98.9807 302.281 99.83C302.823 100.67 303.093 101.963 303.093 103.708C303.093 104.912 302.991 105.897 302.785 106.662C302.589 107.427 302.244 108.006 301.749 108.398C301.255 108.79 300.569 108.986 299.691 108.986C298.693 108.986 297.923 108.725 297.381 108.202C296.84 107.679 296.537 107.021 296.471 106.228H297.941ZM299.719 103.848C300.279 103.848 300.718 103.675 301.035 103.33C301.362 102.975 301.525 102.509 301.525 101.93C301.525 101.286 301.353 100.787 301.007 100.432C300.671 100.068 300.209 99.886 299.621 99.886C299.033 99.886 298.567 100.073 298.221 100.446C297.885 100.81 297.717 101.291 297.717 101.888C297.717 102.457 297.881 102.929 298.207 103.302C298.543 103.666 299.047 103.848 299.719 103.848Z" fill="#154C6B"/>
<path d="M187.356 148.27V155.284C187.356 156.152 187.09 156.838 186.558 157.342C186.035 157.846 185.345 158.098 184.486 158.098C183.627 158.098 182.932 157.846 182.4 157.342C181.877 156.838 181.616 156.152 181.616 155.284H183.226C183.235 155.713 183.343 156.054 183.548 156.306C183.763 156.558 184.075 156.684 184.486 156.684C184.897 156.684 185.209 156.558 185.424 156.306C185.639 156.045 185.746 155.704 185.746 155.284V148.27H187.356ZM196.688 150.286V158H195.092V157.09C194.84 157.407 194.509 157.659 194.098 157.846C193.697 158.023 193.268 158.112 192.81 158.112C192.204 158.112 191.658 157.986 191.172 157.734C190.696 157.482 190.318 157.109 190.038 156.614C189.768 156.119 189.632 155.522 189.632 154.822V150.286H191.214V154.584C191.214 155.275 191.387 155.807 191.732 156.18C192.078 156.544 192.549 156.726 193.146 156.726C193.744 156.726 194.215 156.544 194.56 156.18C194.915 155.807 195.092 155.275 195.092 154.584V150.286H196.688ZM202.436 150.16C203.043 150.16 203.584 150.286 204.06 150.538C204.545 150.79 204.923 151.163 205.194 151.658C205.465 152.153 205.6 152.75 205.6 153.45V158H204.018V153.688C204.018 152.997 203.845 152.47 203.5 152.106C203.155 151.733 202.683 151.546 202.086 151.546C201.489 151.546 201.013 151.733 200.658 152.106C200.313 152.47 200.14 152.997 200.14 153.688V158H198.544V150.286H200.14V151.168C200.401 150.851 200.733 150.603 201.134 150.426C201.545 150.249 201.979 150.16 202.436 150.16ZM211.445 155.83C212.341 155.055 213.045 154.421 213.559 153.926C214.081 153.422 214.515 152.899 214.861 152.358C215.206 151.817 215.379 151.275 215.379 150.734C215.379 150.174 215.243 149.735 214.973 149.418C214.711 149.101 214.296 148.942 213.727 148.942C213.176 148.942 212.747 149.119 212.439 149.474C212.14 149.819 211.981 150.286 211.963 150.874H210.423C210.451 149.81 210.768 148.998 211.375 148.438C211.991 147.869 212.77 147.584 213.713 147.584C214.73 147.584 215.523 147.864 216.093 148.424C216.671 148.984 216.961 149.731 216.961 150.664C216.961 151.336 216.788 151.985 216.443 152.61C216.107 153.226 215.701 153.781 215.225 154.276C214.758 154.761 214.161 155.326 213.433 155.97L212.803 156.53H217.241V157.86H210.437V156.698L211.445 155.83ZM224.861 149.026L220.969 158H219.359L223.293 149.194H218.113V147.836H224.861V149.026Z" fill="#154C6B"/>
<path d="M268.386 155.228C268.386 155.695 268.269 156.133 268.036 156.544C267.812 156.955 267.476 157.3 267.028 157.58C266.589 157.86 266.066 158.028 265.46 158.084V159.218H264.55V158.084C263.672 158 262.963 157.725 262.422 157.258C261.88 156.791 261.61 156.175 261.61 155.41H263.318C263.346 155.774 263.462 156.077 263.668 156.32C263.873 156.553 264.167 156.703 264.55 156.768V153.688C263.924 153.529 263.416 153.371 263.024 153.212C262.632 153.044 262.296 152.783 262.016 152.428C261.745 152.073 261.61 151.588 261.61 150.972C261.61 150.197 261.88 149.558 262.422 149.054C262.963 148.541 263.672 148.242 264.55 148.158V147.024H265.46V148.158C266.281 148.233 266.939 148.494 267.434 148.942C267.938 149.381 268.222 149.987 268.288 150.762H266.58C266.552 150.473 266.44 150.216 266.244 149.992C266.048 149.759 265.786 149.6 265.46 149.516V152.54C266.085 152.689 266.594 152.848 266.986 153.016C267.378 153.175 267.709 153.431 267.98 153.786C268.25 154.131 268.386 154.612 268.386 155.228ZM263.234 150.888C263.234 151.271 263.346 151.569 263.57 151.784C263.803 151.999 264.13 152.171 264.55 152.302V149.474C264.148 149.521 263.826 149.665 263.584 149.908C263.35 150.151 263.234 150.477 263.234 150.888ZM265.46 156.768C265.87 156.703 266.192 156.539 266.426 156.278C266.659 156.007 266.776 155.685 266.776 155.312C266.776 154.939 266.659 154.649 266.426 154.444C266.202 154.229 265.88 154.057 265.46 153.926V156.768ZM270.505 149.25V147.794H273.417V158H271.807V149.25H270.505ZM276.492 155.83C277.388 155.055 278.092 154.421 278.606 153.926C279.128 153.422 279.562 152.899 279.908 152.358C280.253 151.817 280.426 151.275 280.426 150.734C280.426 150.174 280.29 149.735 280.02 149.418C279.758 149.101 279.343 148.942 278.774 148.942C278.223 148.942 277.794 149.119 277.486 149.474C277.187 149.819 277.028 150.286 277.01 150.874H275.47C275.498 149.81 275.815 148.998 276.422 148.438C277.038 147.869 277.817 147.584 278.76 147.584C279.777 147.584 280.57 147.864 281.14 148.424C281.718 148.984 282.008 149.731 282.008 150.664C282.008 151.336 281.835 151.985 281.49 152.61C281.154 153.226 280.748 153.781 280.272 154.276C279.805 154.761 279.208 155.326 278.48 155.97L277.85 156.53H282.288V157.86H275.484V156.698L276.492 155.83ZM284.544 158.098C284.254 158.098 284.012 158 283.816 157.804C283.62 157.608 283.522 157.365 283.522 157.076C283.522 156.787 283.62 156.544 283.816 156.348C284.012 156.152 284.254 156.054 284.544 156.054C284.824 156.054 285.062 156.152 285.258 156.348C285.454 156.544 285.552 156.787 285.552 157.076C285.552 157.365 285.454 157.608 285.258 157.804C285.062 158 284.824 158.098 284.544 158.098ZM289.055 155.228C289.148 155.695 289.349 156.049 289.657 156.292C289.965 156.535 290.38 156.656 290.903 156.656C291.565 156.656 292.051 156.395 292.359 155.872C292.667 155.349 292.821 154.458 292.821 153.198C292.597 153.515 292.279 153.763 291.869 153.94C291.467 154.108 291.029 154.192 290.553 154.192C289.946 154.192 289.395 154.071 288.901 153.828C288.406 153.576 288.014 153.207 287.725 152.722C287.445 152.227 287.305 151.63 287.305 150.93C287.305 149.903 287.603 149.087 288.201 148.48C288.807 147.864 289.638 147.556 290.693 147.556C291.962 147.556 292.863 147.981 293.395 148.83C293.936 149.67 294.207 150.963 294.207 152.708C294.207 153.912 294.104 154.897 293.899 155.662C293.703 156.427 293.357 157.006 292.863 157.398C292.368 157.79 291.682 157.986 290.805 157.986C289.806 157.986 289.036 157.725 288.495 157.202C287.953 156.679 287.65 156.021 287.585 155.228H289.055ZM290.833 152.848C291.393 152.848 291.831 152.675 292.149 152.33C292.475 151.975 292.639 151.509 292.639 150.93C292.639 150.286 292.466 149.787 292.121 149.432C291.785 149.068 291.323 148.886 290.735 148.886C290.147 148.886 289.68 149.073 289.335 149.446C288.999 149.81 288.831 150.291 288.831 150.888C288.831 151.457 288.994 151.929 289.321 152.302C289.657 152.666 290.161 152.848 290.833 152.848ZM297.941 155.228C298.035 155.695 298.235 156.049 298.543 156.292C298.851 156.535 299.267 156.656 299.789 156.656C300.452 156.656 300.937 156.395 301.245 155.872C301.553 155.349 301.707 154.458 301.707 153.198C301.483 153.515 301.166 153.763 300.755 153.94C300.354 154.108 299.915 154.192 299.439 154.192C298.833 154.192 298.282 154.071 297.787 153.828C297.293 153.576 296.901 153.207 296.611 152.722C296.331 152.227 296.191 151.63 296.191 150.93C296.191 149.903 296.49 149.087 297.087 148.48C297.694 147.864 298.525 147.556 299.579 147.556C300.849 147.556 301.749 147.981 302.281 148.83C302.823 149.67 303.093 150.963 303.093 152.708C303.093 153.912 302.991 154.897 302.785 155.662C302.589 156.427 302.244 157.006 301.749 157.398C301.255 157.79 300.569 157.986 299.691 157.986C298.693 157.986 297.923 157.725 297.381 157.202C296.84 156.679 296.537 156.021 296.471 155.228H297.941ZM299.719 152.848C300.279 152.848 300.718 152.675 301.035 152.33C301.362 151.975 301.525 151.509 301.525 150.93C301.525 150.286 301.353 149.787 301.007 149.432C300.671 149.068 300.209 148.886 299.621 148.886C299.033 148.886 298.567 149.073 298.221 149.446C297.885 149.81 297.717 150.291 297.717 150.888C297.717 151.457 297.881 151.929 298.207 152.302C298.543 152.666 299.047 152.848 299.719 152.848Z" fill="#154C6B"/>
<path d="M192.298 197.27V207H190.702V200.336L187.734 207H186.628L183.646 200.336V207H182.05V197.27H183.772L187.188 204.9L190.59 197.27H192.298ZM193.614 203.108C193.614 202.333 193.772 201.647 194.09 201.05C194.416 200.453 194.855 199.991 195.406 199.664C195.966 199.328 196.582 199.16 197.254 199.16C197.86 199.16 198.388 199.281 198.836 199.524C199.293 199.757 199.657 200.051 199.928 200.406V199.286H201.538V207H199.928V205.852C199.657 206.216 199.288 206.519 198.822 206.762C198.355 207.005 197.823 207.126 197.226 207.126C196.563 207.126 195.956 206.958 195.406 206.622C194.855 206.277 194.416 205.801 194.09 205.194C193.772 204.578 193.614 203.883 193.614 203.108ZM199.928 203.136C199.928 202.604 199.816 202.142 199.592 201.75C199.377 201.358 199.092 201.059 198.738 200.854C198.383 200.649 198 200.546 197.59 200.546C197.179 200.546 196.796 200.649 196.442 200.854C196.087 201.05 195.798 201.344 195.574 201.736C195.359 202.119 195.252 202.576 195.252 203.108C195.252 203.64 195.359 204.107 195.574 204.508C195.798 204.909 196.087 205.217 196.442 205.432C196.806 205.637 197.188 205.74 197.59 205.74C198 205.74 198.383 205.637 198.738 205.432C199.092 205.227 199.377 204.928 199.592 204.536C199.816 204.135 199.928 203.668 199.928 203.136ZM210.328 199.286L205.596 210.626H203.944L205.512 206.874L202.474 199.286H204.252L206.422 205.166L208.676 199.286H210.328ZM215.341 204.83C216.237 204.055 216.942 203.421 217.455 202.926C217.978 202.422 218.412 201.899 218.757 201.358C219.102 200.817 219.275 200.275 219.275 199.734C219.275 199.174 219.14 198.735 218.869 198.418C218.608 198.101 218.192 197.942 217.623 197.942C217.072 197.942 216.643 198.119 216.335 198.474C216.036 198.819 215.878 199.286 215.859 199.874H214.319C214.347 198.81 214.664 197.998 215.271 197.438C215.887 196.869 216.666 196.584 217.609 196.584C218.626 196.584 219.42 196.864 219.989 197.424C220.568 197.984 220.857 198.731 220.857 199.664C220.857 200.336 220.684 200.985 220.339 201.61C220.003 202.226 219.597 202.781 219.121 203.276C218.654 203.761 218.057 204.326 217.329 204.97L216.699 205.53H221.137V206.86H214.333V205.698L215.341 204.83ZM228.757 198.026L224.865 207H223.255L227.189 198.194H222.009V196.836H228.757V198.026Z" fill="#154C6B"/>
<path d="M268.386 204.228C268.386 204.695 268.269 205.133 268.036 205.544C267.812 205.955 267.476 206.3 267.028 206.58C266.589 206.86 266.066 207.028 265.46 207.084V208.218H264.55V207.084C263.672 207 262.963 206.725 262.422 206.258C261.88 205.791 261.61 205.175 261.61 204.41H263.318C263.346 204.774 263.462 205.077 263.668 205.32C263.873 205.553 264.167 205.703 264.55 205.768V202.688C263.924 202.529 263.416 202.371 263.024 202.212C262.632 202.044 262.296 201.783 262.016 201.428C261.745 201.073 261.61 200.588 261.61 199.972C261.61 199.197 261.88 198.558 262.422 198.054C262.963 197.541 263.672 197.242 264.55 197.158V196.024H265.46V197.158C266.281 197.233 266.939 197.494 267.434 197.942C267.938 198.381 268.222 198.987 268.288 199.762H266.58C266.552 199.473 266.44 199.216 266.244 198.992C266.048 198.759 265.786 198.6 265.46 198.516V201.54C266.085 201.689 266.594 201.848 266.986 202.016C267.378 202.175 267.709 202.431 267.98 202.786C268.25 203.131 268.386 203.612 268.386 204.228ZM263.234 199.888C263.234 200.271 263.346 200.569 263.57 200.784C263.803 200.999 264.13 201.171 264.55 201.302V198.474C264.148 198.521 263.826 198.665 263.584 198.908C263.35 199.151 263.234 199.477 263.234 199.888ZM265.46 205.768C265.87 205.703 266.192 205.539 266.426 205.278C266.659 205.007 266.776 204.685 266.776 204.312C266.776 203.939 266.659 203.649 266.426 203.444C266.202 203.229 265.88 203.057 265.46 202.926V205.768ZM270.505 198.25V196.794H273.417V207H271.807V198.25H270.505ZM276.492 204.83C277.388 204.055 278.092 203.421 278.606 202.926C279.128 202.422 279.562 201.899 279.908 201.358C280.253 200.817 280.426 200.275 280.426 199.734C280.426 199.174 280.29 198.735 280.02 198.418C279.758 198.101 279.343 197.942 278.774 197.942C278.223 197.942 277.794 198.119 277.486 198.474C277.187 198.819 277.028 199.286 277.01 199.874H275.47C275.498 198.81 275.815 197.998 276.422 197.438C277.038 196.869 277.817 196.584 278.76 196.584C279.777 196.584 280.57 196.864 281.14 197.424C281.718 197.984 282.008 198.731 282.008 199.664C282.008 200.336 281.835 200.985 281.49 201.61C281.154 202.226 280.748 202.781 280.272 203.276C279.805 203.761 279.208 204.326 278.48 204.97L277.85 205.53H282.288V206.86H275.484V205.698L276.492 204.83ZM284.544 207.098C284.254 207.098 284.012 207 283.816 206.804C283.62 206.608 283.522 206.365 283.522 206.076C283.522 205.787 283.62 205.544 283.816 205.348C284.012 205.152 284.254 205.054 284.544 205.054C284.824 205.054 285.062 205.152 285.258 205.348C285.454 205.544 285.552 205.787 285.552 206.076C285.552 206.365 285.454 206.608 285.258 206.804C285.062 207 284.824 207.098 284.544 207.098ZM289.055 204.228C289.148 204.695 289.349 205.049 289.657 205.292C289.965 205.535 290.38 205.656 290.903 205.656C291.565 205.656 292.051 205.395 292.359 204.872C292.667 204.349 292.821 203.458 292.821 202.198C292.597 202.515 292.279 202.763 291.869 202.94C291.467 203.108 291.029 203.192 290.553 203.192C289.946 203.192 289.395 203.071 288.901 202.828C288.406 202.576 288.014 202.207 287.725 201.722C287.445 201.227 287.305 200.63 287.305 199.93C287.305 198.903 287.603 198.087 288.201 197.48C288.807 196.864 289.638 196.556 290.693 196.556C291.962 196.556 292.863 196.981 293.395 197.83C293.936 198.67 294.207 199.963 294.207 201.708C294.207 202.912 294.104 203.897 293.899 204.662C293.703 205.427 293.357 206.006 292.863 206.398C292.368 206.79 291.682 206.986 290.805 206.986C289.806 206.986 289.036 206.725 288.495 206.202C287.953 205.679 287.65 205.021 287.585 204.228H289.055ZM290.833 201.848C291.393 201.848 291.831 201.675 292.149 201.33C292.475 200.975 292.639 200.509 292.639 199.93C292.639 199.286 292.466 198.787 292.121 198.432C291.785 198.068 291.323 197.886 290.735 197.886C290.147 197.886 289.68 198.073 289.335 198.446C288.999 198.81 288.831 199.291 288.831 199.888C288.831 200.457 288.994 200.929 289.321 201.302C289.657 201.666 290.161 201.848 290.833 201.848ZM297.941 204.228C298.035 204.695 298.235 205.049 298.543 205.292C298.851 205.535 299.267 205.656 299.789 205.656C300.452 205.656 300.937 205.395 301.245 204.872C301.553 204.349 301.707 203.458 301.707 202.198C301.483 202.515 301.166 202.763 300.755 202.94C300.354 203.108 299.915 203.192 299.439 203.192C298.833 203.192 298.282 203.071 297.787 202.828C297.293 202.576 296.901 202.207 296.611 201.722C296.331 201.227 296.191 200.63 296.191 199.93C296.191 198.903 296.49 198.087 297.087 197.48C297.694 196.864 298.525 196.556 299.579 196.556C300.849 196.556 301.749 196.981 302.281 197.83C302.823 198.67 303.093 199.963 303.093 201.708C303.093 202.912 302.991 203.897 302.785 204.662C302.589 205.427 302.244 206.006 301.749 206.398C301.255 206.79 300.569 206.986 299.691 206.986C298.693 206.986 297.923 206.725 297.381 206.202C296.84 205.679 296.537 205.021 296.471 204.228H297.941ZM299.719 201.848C300.279 201.848 300.718 201.675 301.035 201.33C301.362 200.975 301.525 200.509 301.525 199.93C301.525 199.286 301.353 198.787 301.007 198.432C300.671 198.068 300.209 197.886 299.621 197.886C299.033 197.886 298.567 198.073 298.221 198.446C297.885 198.81 297.717 199.291 297.717 199.888C297.717 200.457 297.881 200.929 298.207 201.302C298.543 201.666 299.047 201.848 299.719 201.848Z" fill="#154C6B"/>
<path d="M187.916 254.012H183.842L183.142 256H181.476L184.962 246.256H186.81L190.296 256H188.616L187.916 254.012ZM187.468 252.71L185.886 248.188L184.29 252.71H187.468ZM193.158 249.42C193.428 249.065 193.797 248.767 194.264 248.524C194.73 248.281 195.258 248.16 195.846 248.16C196.518 248.16 197.129 248.328 197.68 248.664C198.24 248.991 198.678 249.453 198.996 250.05C199.313 250.647 199.472 251.333 199.472 252.108C199.472 252.883 199.313 253.578 198.996 254.194C198.678 254.801 198.24 255.277 197.68 255.622C197.129 255.958 196.518 256.126 195.846 256.126C195.258 256.126 194.735 256.009 194.278 255.776C193.82 255.533 193.447 255.235 193.158 254.88V259.668H191.562V248.286H193.158V249.42ZM197.848 252.108C197.848 251.576 197.736 251.119 197.512 250.736C197.297 250.344 197.008 250.05 196.644 249.854C196.289 249.649 195.906 249.546 195.496 249.546C195.094 249.546 194.712 249.649 194.348 249.854C193.993 250.059 193.704 250.358 193.48 250.75C193.265 251.142 193.158 251.604 193.158 252.136C193.158 252.668 193.265 253.135 193.48 253.536C193.704 253.928 193.993 254.227 194.348 254.432C194.712 254.637 195.094 254.74 195.496 254.74C195.906 254.74 196.289 254.637 196.644 254.432C197.008 254.217 197.297 253.909 197.512 253.508C197.736 253.107 197.848 252.64 197.848 252.108ZM202.396 249.406C202.629 249.014 202.937 248.711 203.32 248.496C203.712 248.272 204.174 248.16 204.706 248.16V249.812H204.3C203.675 249.812 203.199 249.971 202.872 250.288C202.555 250.605 202.396 251.156 202.396 251.94V256H200.8V248.286H202.396V249.406ZM209.982 253.83C210.878 253.055 211.582 252.421 212.096 251.926C212.618 251.422 213.052 250.899 213.398 250.358C213.743 249.817 213.916 249.275 213.916 248.734C213.916 248.174 213.78 247.735 213.51 247.418C213.248 247.101 212.833 246.942 212.264 246.942C211.713 246.942 211.284 247.119 210.976 247.474C210.677 247.819 210.518 248.286 210.5 248.874H208.96C208.988 247.81 209.305 246.998 209.912 246.438C210.528 245.869 211.307 245.584 212.25 245.584C213.267 245.584 214.06 245.864 214.63 246.424C215.208 246.984 215.498 247.731 215.498 248.664C215.498 249.336 215.325 249.985 214.98 250.61C214.644 251.226 214.238 251.781 213.762 252.276C213.295 252.761 212.698 253.326 211.97 253.97L211.34 254.53H215.778V255.86H208.974V254.698L209.982 253.83ZM223.398 247.026L219.506 256H217.896L221.83 247.194H216.65V245.836H223.398V247.026Z" fill="#154C6B"/>
<path d="M268.386 253.228C268.386 253.695 268.269 254.133 268.036 254.544C267.812 254.955 267.476 255.3 267.028 255.58C266.589 255.86 266.066 256.028 265.46 256.084V257.218H264.55V256.084C263.672 256 262.963 255.725 262.422 255.258C261.88 254.791 261.61 254.175 261.61 253.41H263.318C263.346 253.774 263.462 254.077 263.668 254.32C263.873 254.553 264.167 254.703 264.55 254.768V251.688C263.924 251.529 263.416 251.371 263.024 251.212C262.632 251.044 262.296 250.783 262.016 250.428C261.745 250.073 261.61 249.588 261.61 248.972C261.61 248.197 261.88 247.558 262.422 247.054C262.963 246.541 263.672 246.242 264.55 246.158V245.024H265.46V246.158C266.281 246.233 266.939 246.494 267.434 246.942C267.938 247.381 268.222 247.987 268.288 248.762H266.58C266.552 248.473 266.44 248.216 266.244 247.992C266.048 247.759 265.786 247.6 265.46 247.516V250.54C266.085 250.689 266.594 250.848 266.986 251.016C267.378 251.175 267.709 251.431 267.98 251.786C268.25 252.131 268.386 252.612 268.386 253.228ZM263.234 248.888C263.234 249.271 263.346 249.569 263.57 249.784C263.803 249.999 264.13 250.171 264.55 250.302V247.474C264.148 247.521 263.826 247.665 263.584 247.908C263.35 248.151 263.234 248.477 263.234 248.888ZM265.46 254.768C265.87 254.703 266.192 254.539 266.426 254.278C266.659 254.007 266.776 253.685 266.776 253.312C266.776 252.939 266.659 252.649 266.426 252.444C266.202 252.229 265.88 252.057 265.46 251.926V254.768ZM270.505 247.25V245.794H273.417V256H271.807V247.25H270.505ZM276.492 253.83C277.388 253.055 278.092 252.421 278.606 251.926C279.128 251.422 279.562 250.899 279.908 250.358C280.253 249.817 280.426 249.275 280.426 248.734C280.426 248.174 280.29 247.735 280.02 247.418C279.758 247.101 279.343 246.942 278.774 246.942C278.223 246.942 277.794 247.119 277.486 247.474C277.187 247.819 277.028 248.286 277.01 248.874H275.47C275.498 247.81 275.815 246.998 276.422 246.438C277.038 245.869 277.817 245.584 278.76 245.584C279.777 245.584 280.57 245.864 281.14 246.424C281.718 246.984 282.008 247.731 282.008 248.664C282.008 249.336 281.835 249.985 281.49 250.61C281.154 251.226 280.748 251.781 280.272 252.276C279.805 252.761 279.208 253.326 278.48 253.97L277.85 254.53H282.288V255.86H275.484V254.698L276.492 253.83ZM284.544 256.098C284.254 256.098 284.012 256 283.816 255.804C283.62 255.608 283.522 255.365 283.522 255.076C283.522 254.787 283.62 254.544 283.816 254.348C284.012 254.152 284.254 254.054 284.544 254.054C284.824 254.054 285.062 254.152 285.258 254.348C285.454 254.544 285.552 254.787 285.552 255.076C285.552 255.365 285.454 255.608 285.258 255.804C285.062 256 284.824 256.098 284.544 256.098ZM289.055 253.228C289.148 253.695 289.349 254.049 289.657 254.292C289.965 254.535 290.38 254.656 290.903 254.656C291.565 254.656 292.051 254.395 292.359 253.872C292.667 253.349 292.821 252.458 292.821 251.198C292.597 251.515 292.279 251.763 291.869 251.94C291.467 252.108 291.029 252.192 290.553 252.192C289.946 252.192 289.395 252.071 288.901 251.828C288.406 251.576 288.014 251.207 287.725 250.722C287.445 250.227 287.305 249.63 287.305 248.93C287.305 247.903 287.603 247.087 288.201 246.48C288.807 245.864 289.638 245.556 290.693 245.556C291.962 245.556 292.863 245.981 293.395 246.83C293.936 247.67 294.207 248.963 294.207 250.708C294.207 251.912 294.104 252.897 293.899 253.662C293.703 254.427 293.357 255.006 292.863 255.398C292.368 255.79 291.682 255.986 290.805 255.986C289.806 255.986 289.036 255.725 288.495 255.202C287.953 254.679 287.65 254.021 287.585 253.228H289.055ZM290.833 250.848C291.393 250.848 291.831 250.675 292.149 250.33C292.475 249.975 292.639 249.509 292.639 248.93C292.639 248.286 292.466 247.787 292.121 247.432C291.785 247.068 291.323 246.886 290.735 246.886C290.147 246.886 289.68 247.073 289.335 247.446C288.999 247.81 288.831 248.291 288.831 248.888C288.831 249.457 288.994 249.929 289.321 250.302C289.657 250.666 290.161 250.848 290.833 250.848ZM297.941 253.228C298.035 253.695 298.235 254.049 298.543 254.292C298.851 254.535 299.267 254.656 299.789 254.656C300.452 254.656 300.937 254.395 301.245 253.872C301.553 253.349 301.707 252.458 301.707 251.198C301.483 251.515 301.166 251.763 300.755 251.94C300.354 252.108 299.915 252.192 299.439 252.192C298.833 252.192 298.282 252.071 297.787 251.828C297.293 251.576 296.901 251.207 296.611 250.722C296.331 250.227 296.191 249.63 296.191 248.93C296.191 247.903 296.49 247.087 297.087 246.48C297.694 245.864 298.525 245.556 299.579 245.556C300.849 245.556 301.749 245.981 302.281 246.83C302.823 247.67 303.093 248.963 303.093 250.708C303.093 251.912 302.991 252.897 302.785 253.662C302.589 254.427 302.244 255.006 301.749 255.398C301.255 255.79 300.569 255.986 299.691 255.986C298.693 255.986 297.923 255.725 297.381 255.202C296.84 254.679 296.537 254.021 296.471 253.228H297.941ZM299.719 250.848C300.279 250.848 300.718 250.675 301.035 250.33C301.362 249.975 301.525 249.509 301.525 248.93C301.525 248.286 301.353 247.787 301.007 247.432C300.671 247.068 300.209 246.886 299.621 246.886C299.033 246.886 298.567 247.073 298.221 247.446C297.885 247.81 297.717 248.291 297.717 248.888C297.717 249.457 297.881 249.929 298.207 250.302C298.543 250.666 299.047 250.848 299.719 250.848Z" fill="#154C6B"/>
<path d="M12 244H85" stroke="#154C6B"/>
<path d="M12 109H143" stroke="#154C6B"/>
<path d="M12 175H59" stroke="#154C6B"/>
<path d="M17.364 206.716C17.812 206.796 18.192 207.032 18.504 207.424C18.816 207.816 18.972 208.26 18.972 208.756C18.972 209.18 18.86 209.564 18.636 209.908C18.42 210.244 18.104 210.512 17.688 210.712C17.272 210.904 16.788 211 16.236 211H12.9V202.66H16.08C16.648 202.66 17.136 202.756 17.544 202.948C17.952 203.14 18.26 203.4 18.468 203.728C18.676 204.048 18.78 204.408 18.78 204.808C18.78 205.288 18.652 205.688 18.396 206.008C18.14 206.328 17.796 206.564 17.364 206.716ZM14.268 206.164H15.96C16.408 206.164 16.756 206.064 17.004 205.864C17.26 205.656 17.388 205.36 17.388 204.976C17.388 204.6 17.26 204.308 17.004 204.1C16.756 203.884 16.408 203.776 15.96 203.776H14.268V206.164ZM16.116 209.884C16.58 209.884 16.944 209.772 17.208 209.548C17.472 209.324 17.604 209.012 17.604 208.612C17.604 208.204 17.464 207.88 17.184 207.64C16.904 207.4 16.532 207.28 16.068 207.28H14.268V209.884H16.116ZM21.8266 202.66V211H20.4586V202.66H21.8266ZM24.9907 209.896H27.8107V211H23.6227V202.66H24.9907V209.896ZM30.3227 209.896H33.1427V211H28.9547V202.66H30.3227V209.896Z" fill="#154C6B"/>
<path d="M18.8381 239.914H20.2461V238.132C23.4581 237.912 25.2181 235.822 25.2181 233.578C25.2181 230.322 22.5341 229.728 20.2461 229.134V224.976C21.1041 225.24 21.6321 225.9 21.7201 226.758H25.0421C24.8441 224.14 22.9961 222.666 20.2461 222.446V220.664H18.8381V222.446C15.9781 222.666 13.9101 224.36 13.9101 226.956C13.9101 230.212 16.5721 230.85 18.8381 231.422V235.624C17.8261 235.404 17.2981 234.722 17.2101 233.71H13.9101C13.9761 236.35 16.0001 237.868 18.8381 238.11V239.914ZM22.0281 233.71C22.0281 234.7 21.3681 235.47 20.2461 235.668V231.818C21.2801 232.17 22.0281 232.676 22.0281 233.71ZM17.1221 226.802C17.1221 225.68 17.8261 225.064 18.8381 224.91V228.716C17.8261 228.364 17.1221 227.836 17.1221 226.802ZM30.0647 238H33.2327V221.962H27.9307V224.8H30.0647V238ZM36.0994 237.78H46.9674V235.228H40.4774C43.0294 233.072 46.6154 230.168 46.6154 226.45C46.6154 223.656 44.8774 221.61 41.4234 221.61C38.5414 221.61 36.1874 223.304 36.0774 226.978H39.0694C39.0914 225.284 39.9054 224.228 41.3794 224.228C42.8974 224.228 43.5354 225.196 43.5354 226.626C43.5354 229.574 39.7294 232.412 36.0994 235.492V237.78ZM52.4942 236.35C52.4942 235.338 51.7022 234.546 50.6242 234.546C49.5022 234.546 48.7102 235.338 48.7102 236.35C48.7102 237.362 49.5022 238.154 50.6242 238.154C51.7022 238.154 52.4942 237.362 52.4942 236.35ZM55.327 233.49C55.503 235.844 57.131 238.022 60.541 238.022C64.787 238.022 65.997 235.074 65.997 229.618C65.997 224.536 64.655 221.588 60.299 221.588C56.911 221.588 54.887 223.7 54.887 226.912C54.887 230.3 57.109 232.038 59.881 232.038C61.289 232.038 62.587 231.488 63.269 230.542C63.269 234.15 62.477 235.492 60.673 235.492C59.243 235.492 58.429 234.766 58.187 233.49H55.327ZM60.519 229.53C58.649 229.53 57.835 228.342 57.835 226.89C57.835 225.284 58.803 224.206 60.409 224.206C61.971 224.206 62.983 225.174 62.983 226.934C62.983 228.496 62.059 229.53 60.519 229.53ZM69.0985 233.49C69.2745 235.844 70.9025 238.022 74.3125 238.022C78.5585 238.022 79.7685 235.074 79.7685 229.618C79.7685 224.536 78.4265 221.588 74.0705 221.588C70.6825 221.588 68.6585 223.7 68.6585 226.912C68.6585 230.3 70.8805 232.038 73.6525 232.038C75.0605 232.038 76.3585 231.488 77.0405 230.542C77.0405 234.15 76.2485 235.492 74.4445 235.492C73.0145 235.492 72.2005 234.766 71.9585 233.49H69.0985ZM74.2905 229.53C72.4205 229.53 71.6065 228.342 71.6065 226.89C71.6065 225.284 72.5745 224.206 74.1805 224.206C75.7425 224.206 76.7545 225.174 76.7545 226.934C76.7545 228.496 75.8305 229.53 74.2905 229.53Z" fill="#154C6B"/>
<path d="M17.808 70.66V71.776H14.268V74.236H17.028V75.352H14.268V79H12.9V70.66H17.808ZM23.4078 79L21.4878 75.664H20.4438V79H19.0758V70.66H21.9558C22.5958 70.66 23.1358 70.772 23.5758 70.996C24.0238 71.22 24.3558 71.52 24.5718 71.896C24.7958 72.272 24.9078 72.692 24.9078 73.156C24.9078 73.7 24.7478 74.196 24.4278 74.644C24.1158 75.084 23.6318 75.384 22.9758 75.544L25.0398 79H23.4078ZM20.4438 74.572H21.9558C22.4678 74.572 22.8518 74.444 23.1078 74.188C23.3718 73.932 23.5038 73.588 23.5038 73.156C23.5038 72.724 23.3758 72.388 23.1198 72.148C22.8638 71.9 22.4758 71.776 21.9558 71.776H20.4438V74.572ZM28.0258 71.764V74.212H30.9058V75.328H28.0258V77.884H31.2658V79H26.6578V70.648H31.2658V71.764H28.0258ZM39.4068 80.512L37.9428 78.928C37.5828 79.032 37.1868 79.084 36.7548 79.084C35.9788 79.084 35.2628 78.904 34.6068 78.544C33.9588 78.176 33.4428 77.668 33.0588 77.02C32.6828 76.364 32.4948 75.628 32.4948 74.812C32.4948 73.996 32.6828 73.264 33.0588 72.616C33.4428 71.968 33.9588 71.464 34.6068 71.104C35.2628 70.736 35.9788 70.552 36.7548 70.552C37.5388 70.552 38.2548 70.736 38.9028 71.104C39.5588 71.464 40.0748 71.968 40.4508 72.616C40.8268 73.264 41.0148 73.996 41.0148 74.812C41.0148 75.58 40.8468 76.276 40.5108 76.9C40.1828 77.516 39.7268 78.012 39.1428 78.388L41.1468 80.512H39.4068ZM33.8988 74.812C33.8988 75.428 34.0188 75.972 34.2588 76.444C34.5068 76.908 34.8468 77.268 35.2788 77.524C35.7108 77.772 36.2028 77.896 36.7548 77.896C37.3068 77.896 37.7988 77.772 38.2308 77.524C38.6628 77.268 38.9988 76.908 39.2388 76.444C39.4868 75.972 39.6108 75.428 39.6108 74.812C39.6108 74.196 39.4868 73.656 39.2388 73.192C38.9988 72.728 38.6628 72.372 38.2308 72.124C37.7988 71.876 37.3068 71.752 36.7548 71.752C36.2028 71.752 35.7108 71.876 35.2788 72.124C34.8468 72.372 34.5068 72.728 34.2588 73.192C34.0188 73.656 33.8988 74.196 33.8988 74.812ZM43.7521 70.66V75.976C43.7521 76.608 43.9161 77.084 44.2441 77.404C44.5801 77.724 45.0441 77.884 45.6361 77.884C46.2361 77.884 46.7001 77.724 47.0281 77.404C47.3641 77.084 47.5321 76.608 47.5321 75.976V70.66H48.9001V75.952C48.9001 76.632 48.7521 77.208 48.4561 77.68C48.1601 78.152 47.7641 78.504 47.2681 78.736C46.7721 78.968 46.2241 79.084 45.6241 79.084C45.0241 79.084 44.4761 78.968 43.9801 78.736C43.4921 78.504 43.1041 78.152 42.8161 77.68C42.5281 77.208 42.3841 76.632 42.3841 75.952V70.66H43.7521ZM52.0493 71.764V74.212H54.9293V75.328H52.0493V77.884H55.2893V79H50.6813V70.648H55.2893V71.764H52.0493ZM63.8262 79H62.4582L58.3422 72.772V79H56.9742V70.648H58.3422L62.4582 76.864V70.648H63.8262V79ZM65.1667 74.812C65.1667 73.996 65.3547 73.264 65.7307 72.616C66.1147 71.968 66.6307 71.464 67.2787 71.104C67.9347 70.736 68.6507 70.552 69.4267 70.552C70.3147 70.552 71.1027 70.772 71.7907 71.212C72.4867 71.644 72.9907 72.26 73.3027 73.06H71.6587C71.4427 72.62 71.1427 72.292 70.7587 72.076C70.3747 71.86 69.9307 71.752 69.4267 71.752C68.8747 71.752 68.3827 71.876 67.9507 72.124C67.5187 72.372 67.1787 72.728 66.9307 73.192C66.6907 73.656 66.5707 74.196 66.5707 74.812C66.5707 75.428 66.6907 75.968 66.9307 76.432C67.1787 76.896 67.5187 77.256 67.9507 77.512C68.3827 77.76 68.8747 77.884 69.4267 77.884C69.9307 77.884 70.3747 77.776 70.7587 77.56C71.1427 77.344 71.4427 77.016 71.6587 76.576H73.3027C72.9907 77.376 72.4867 77.992 71.7907 78.424C71.1027 78.856 70.3147 79.072 69.4267 79.072C68.6427 79.072 67.9267 78.892 67.2787 78.532C66.6307 78.164 66.1147 77.656 65.7307 77.008C65.3547 76.36 65.1667 75.628 65.1667 74.812ZM81.0839 70.66L78.3239 75.976V79H76.9559V75.976L74.1839 70.66H75.7079L77.6399 74.752L79.5719 70.66H81.0839Z" fill="#154C6B"/>
<path d="M21.48 90.02H13.38V104H21.48V101.72H16.18V98.02H20.88V95.8H16.18V92.3H21.48V90.02ZM22.8445 92.92L26.9245 104H30.3245L34.4245 92.92H31.4445L28.6445 101.42L25.8445 92.92H22.8445ZM40.7572 95.04C42.1972 95.04 43.3572 95.96 43.3972 97.42H38.1372C38.3572 95.9 39.4172 95.04 40.7572 95.04ZM46.0172 100.52H42.9972C42.6372 101.26 41.9772 101.86 40.7772 101.86C39.3772 101.86 38.2572 100.94 38.1172 99.3H46.2172C46.2772 98.94 46.2972 98.58 46.2972 98.22C46.2972 94.92 44.0372 92.74 40.8372 92.74C37.5572 92.74 35.2772 94.96 35.2772 98.46C35.2772 101.94 37.6172 104.18 40.8372 104.18C43.5772 104.18 45.4172 102.56 46.0172 100.52ZM51.1409 98.48C51.1409 96.34 52.1409 95.7 53.8009 95.7H54.5409V92.76C53.0009 92.76 51.8409 93.5 51.1409 94.64V92.92H48.3409V104H51.1409V98.48ZM61.1469 100.66L58.2869 92.92H55.1469L59.5869 103.72L57.1869 109.24H60.1669L67.0269 92.92H64.0469L61.1469 100.66ZM88.8019 104H91.6019V97.5C91.6019 94.44 89.7219 92.76 87.0619 92.76C85.4419 92.76 83.9819 93.62 83.2619 94.88C82.5019 93.5 81.0819 92.76 79.3619 92.76C77.9819 92.76 76.8019 93.34 76.1019 94.26V92.92H73.3019V104H76.1019V97.88C76.1019 96.12 77.0819 95.2 78.6019 95.2C80.0819 95.2 81.0619 96.12 81.0619 97.88V104H83.8619V97.88C83.8619 96.12 84.8419 95.2 86.3419 95.2C87.8219 95.2 88.8019 96.12 88.8019 97.88V104ZM104.959 98.46C104.959 94.96 102.459 92.74 99.2589 92.74C96.0589 92.74 93.5589 94.96 93.5589 98.46C93.5589 101.94 95.9789 104.18 99.1789 104.18C102.399 104.18 104.959 101.94 104.959 98.46ZM96.3989 98.46C96.3989 96.24 97.7389 95.18 99.2189 95.18C100.699 95.18 102.079 96.24 102.079 98.46C102.079 100.66 100.659 101.74 99.1789 101.74C97.6789 101.74 96.3989 100.66 96.3989 98.46ZM114.773 104H117.573V97.5C117.573 94.44 115.733 92.76 113.153 92.76C111.733 92.76 110.533 93.36 109.813 94.3V92.92H107.013V104H109.813V97.88C109.813 96.1 110.793 95.14 112.313 95.14C113.793 95.14 114.773 96.1 114.773 97.88V104ZM120.675 100.56C120.675 103.1 122.095 104 124.215 104H125.975V101.64H124.675C123.795 101.64 123.495 101.32 123.495 100.58V95.22H125.975V92.92H123.495V90.18H120.675V92.92H119.355V95.22H120.675V100.56ZM127.989 104H130.789V97.88C130.789 96.1 131.769 95.14 133.289 95.14C134.769 95.14 135.749 96.1 135.749 97.88V104H138.549V97.5C138.549 94.44 136.729 92.76 134.229 92.76C132.749 92.76 131.509 93.36 130.789 94.3V89.2H127.989V104Z" fill="#154C6B"/>
<path d="M15.624 136.66C16.512 136.66 17.288 136.832 17.952 137.176C18.624 137.512 19.14 138 19.5 138.64C19.868 139.272 20.052 140.012 20.052 140.86C20.052 141.708 19.868 142.444 19.5 143.068C19.14 143.692 18.624 144.172 17.952 144.508C17.288 144.836 16.512 145 15.624 145H12.9V136.66H15.624ZM15.624 143.884C16.6 143.884 17.348 143.62 17.868 143.092C18.388 142.564 18.648 141.82 18.648 140.86C18.648 139.892 18.388 139.136 17.868 138.592C17.348 138.048 16.6 137.776 15.624 137.776H14.268V143.884H15.624ZM22.7638 136.66V141.976C22.7638 142.608 22.9278 143.084 23.2558 143.404C23.5918 143.724 24.0558 143.884 24.6478 143.884C25.2478 143.884 25.7118 143.724 26.0398 143.404C26.3758 143.084 26.5438 142.608 26.5438 141.976V136.66H27.9118V141.952C27.9118 142.632 27.7638 143.208 27.4678 143.68C27.1718 144.152 26.7758 144.504 26.2798 144.736C25.7838 144.968 25.2358 145.084 24.6358 145.084C24.0358 145.084 23.4878 144.968 22.9918 144.736C22.5038 144.504 22.1158 144.152 21.8278 143.68C21.5398 143.208 21.3958 142.632 21.3958 141.952V136.66H22.7638ZM31.061 137.764V140.212H33.941V141.328H31.061V143.884H34.301V145H29.693V136.648H34.301V137.764H31.061ZM41.8271 136.66C42.7151 136.66 43.4911 136.832 44.1551 137.176C44.8271 137.512 45.3431 138 45.7031 138.64C46.0711 139.272 46.2551 140.012 46.2551 140.86C46.2551 141.708 46.0711 142.444 45.7031 143.068C45.3431 143.692 44.8271 144.172 44.1551 144.508C43.4911 144.836 42.7151 145 41.8271 145H39.1031V136.66H41.8271ZM41.8271 143.884C42.8031 143.884 43.5511 143.62 44.0711 143.092C44.5911 142.564 44.8511 141.82 44.8511 140.86C44.8511 139.892 44.5911 139.136 44.0711 138.592C43.5511 138.048 42.8031 137.776 41.8271 137.776H40.4711V143.884H41.8271ZM52.6389 143.296H49.1469L48.5469 145H47.1189L50.1069 136.648H51.6909L54.6789 145H53.2389L52.6389 143.296ZM52.2549 142.18L50.8989 138.304L49.5309 142.18H52.2549ZM61.3661 136.66V137.776H59.1461V145H57.7781V137.776H55.5461V136.66H61.3661ZM64.1196 137.764V140.212H66.9996V141.328H64.1196V143.884H67.3596V145H62.7516V136.648H67.3596V137.764H64.1196Z" fill="#154C6B"/>
<path d="M12.72 158V155.42H17.54V170H14.66V158H12.72ZM27.8661 159.06C27.7328 158.5 27.4994 158.08 27.1661 157.8C26.8461 157.52 26.3794 157.38 25.7661 157.38C24.8461 157.38 24.1661 157.753 23.7261 158.5C23.2994 159.233 23.0794 160.433 23.0661 162.1C23.3861 161.567 23.8528 161.153 24.4661 160.86C25.0794 160.553 25.7461 160.4 26.4661 160.4C27.3328 160.4 28.0994 160.587 28.7661 160.96C29.4328 161.333 29.9528 161.88 30.3261 162.6C30.6994 163.307 30.8861 164.16 30.8861 165.16C30.8861 166.107 30.6928 166.953 30.3061 167.7C29.9328 168.433 29.3794 169.007 28.6461 169.42C27.9128 169.833 27.0394 170.04 26.0261 170.04C24.6394 170.04 23.5461 169.733 22.7461 169.12C21.9594 168.507 21.4061 167.653 21.0861 166.56C20.7794 165.453 20.6261 164.093 20.6261 162.48C20.6261 160.04 21.0461 158.2 21.8861 156.96C22.7261 155.707 24.0528 155.08 25.8661 155.08C27.2661 155.08 28.3528 155.46 29.1261 156.22C29.8994 156.98 30.3461 157.927 30.4661 159.06H27.8661ZM25.8261 162.7C25.1194 162.7 24.5261 162.907 24.0461 163.32C23.5661 163.733 23.3261 164.333 23.3261 165.12C23.3261 165.907 23.5461 166.527 23.9861 166.98C24.4394 167.433 25.0728 167.66 25.8861 167.66C26.6061 167.66 27.1728 167.44 27.5861 167C28.0128 166.56 28.2261 165.967 28.2261 165.22C28.2261 164.447 28.0194 163.833 27.6061 163.38C27.2061 162.927 26.6128 162.7 25.8261 162.7ZM36.6791 161.22V166.58C36.6791 166.953 36.7657 167.227 36.9391 167.4C37.1257 167.56 37.4324 167.64 37.8591 167.64H39.1591V170H37.3991C35.0391 170 33.8591 168.853 33.8591 166.56V161.22H32.5391V158.92H33.8591V156.18H36.6791V158.92H39.1591V161.22H36.6791ZM47.413 158.76C48.253 158.76 48.9996 158.947 49.653 159.32C50.3063 159.68 50.813 160.22 51.173 160.94C51.5463 161.647 51.733 162.5 51.733 163.5V170H48.933V163.88C48.933 163 48.713 162.327 48.273 161.86C47.833 161.38 47.233 161.14 46.473 161.14C45.6996 161.14 45.0863 161.38 44.633 161.86C44.193 162.327 43.973 163 43.973 163.88V170H41.173V155.2H43.973V160.3C44.333 159.82 44.813 159.447 45.413 159.18C46.013 158.9 46.6796 158.76 47.413 158.76Z" fill="#154C6B"/>
<path d="M23.2499 45.7896H60.7496C64.1775 45.7896 65.9668 44.0568 65.9668 40.5724V18.8373C65.9668 15.3529 64.1775 13.6201 60.7496 13.6201H23.2499C19.822 13.6201 18.0327 15.3529 18.0327 18.8373V40.5724C18.0327 44.0568 19.822 45.7896 23.2499 45.7896ZM23.4947 42.1357C22.2517 42.1357 21.6866 41.6272 21.6866 40.3464V19.0633C21.6866 17.7826 22.2517 17.274 23.4947 17.274H60.5047C61.7478 17.274 62.3128 17.7826 62.3128 19.0633V40.3464C62.3128 41.6272 61.7478 42.1357 60.5047 42.1357H23.4947ZM32.3658 52.3817H51.6336C52.5754 52.3817 53.3476 51.6095 53.3476 50.6678C53.3476 49.726 52.5754 48.935 51.6336 48.935H32.3658C31.4241 48.935 30.6519 49.726 30.6519 50.6678C30.6519 51.6095 31.4241 52.3817 32.3658 52.3817Z" fill="#5F5F5F"/>
<path d="M23.4947 42.1357C22.2517 42.1357 21.6866 41.6272 21.6866 40.3464V19.0633C21.6866 17.7826 22.2517 17.274 23.4947 17.274H60.5047C61.7478 17.274 62.3128 17.7826 62.3128 19.0633V40.3464C62.3128 41.6272 61.7478 42.1357 60.5047 42.1357H23.4947Z" fill="#5F5F5F"/>
<path d="M23.2499 45.7896H60.7496C64.1775 45.7896 65.9668 44.0568 65.9668 40.5724V18.8373C65.9668 15.3529 64.1775 13.6201 60.7496 13.6201H23.2499C19.822 13.6201 18.0327 15.3529 18.0327 18.8373V40.5724C18.0327 44.0568 19.822 45.7896 23.2499 45.7896ZM23.4947 42.1357C22.2517 42.1357 21.6866 41.6272 21.6866 40.3464V19.0633C21.6866 17.7826 22.2517 17.274 23.4947 17.274H60.5047C61.7478 17.274 62.3128 17.7826 62.3128 19.0633V40.3464C62.3128 41.6272 61.7478 42.1357 60.5047 42.1357H23.4947ZM32.3658 52.3817H51.6336C52.5754 52.3817 53.3476 51.6095 53.3476 50.6678C53.3476 49.726 52.5754 48.935 51.6336 48.935H32.3658C31.4241 48.935 30.6519 49.726 30.6519 50.6678C30.6519 51.6095 31.4241 52.3817 32.3658 52.3817Z" fill="#D3E0E8"/>
<rect x="0.5" y="0.5" width="334" height="266" rx="19.5" stroke="#E8F3FA"/>
</svg>
