<svg width="335" height="595" viewBox="0 0 335 595" fill="none" xmlns="http://www.w3.org/2000/svg">
<g clip-path="url(#clip0_117:15858)">
<rect x="0.5" y="0.5" width="334" height="594" rx="19.5" fill="#F3FBFF"/>
<path d="M209.312 119.61H211.232V117.18C215.612 116.88 218.012 114.03 218.012 110.97C218.012 106.53 214.352 105.72 211.232 104.91V99.24C212.402 99.6 213.122 100.5 213.242 101.67H217.772C217.502 98.1 214.982 96.09 211.232 95.79V93.36H209.312V95.79C205.412 96.09 202.592 98.4 202.592 101.94C202.592 106.38 206.222 107.25 209.312 108.03V113.76C207.932 113.46 207.212 112.53 207.092 111.15H202.592C202.682 114.75 205.442 116.82 209.312 117.15V119.61ZM213.662 111.15C213.662 112.5 212.762 113.55 211.232 113.82V108.57C212.642 109.05 213.662 109.74 213.662 111.15ZM206.972 101.73C206.972 100.2 207.932 99.36 209.312 99.15V104.34C207.932 103.86 206.972 103.14 206.972 101.73ZM221.981 116.7H236.801V113.22H227.951C231.431 110.28 236.321 106.32 236.321 101.25C236.321 97.44 233.951 94.65 229.241 94.65C225.311 94.65 222.101 96.96 221.951 101.97H226.031C226.061 99.66 227.171 98.22 229.181 98.22C231.251 98.22 232.121 99.54 232.121 101.49C232.121 105.51 226.931 109.38 221.981 113.58V116.7ZM238.217 121.32H240.947L244.667 112.38H240.227L238.217 121.32ZM249.494 117H253.814V95.13H246.584V99H249.494V117ZM257.423 95.19V98.79H267.683L259.643 117H263.903L271.883 98.31V95.19H257.423ZM289.639 100.59C289.309 97.5 287.209 94.62 282.739 94.62C277.189 94.62 274.879 98.58 274.879 105.72C274.879 112.5 276.499 117.06 282.979 117.06C287.659 117.06 290.269 113.97 290.269 109.74C290.269 105.18 287.539 102.6 283.639 102.6C281.509 102.6 279.529 103.5 278.539 105.15C278.599 100.11 279.859 98.07 282.589 98.07C284.479 98.07 285.349 98.97 285.739 100.59H289.639ZM282.679 106.05C285.109 106.05 286.279 107.58 286.279 109.83C286.279 112.08 284.929 113.49 282.769 113.49C280.309 113.49 278.929 112.02 278.929 109.68C278.929 107.19 280.729 106.05 282.679 106.05Z" fill="#154C6B"/>
<path d="M132.312 22.644L126.68 38H122.94L117.308 22.644H120.608L124.832 34.854L129.034 22.644H132.312ZM133.367 31.862C133.367 30.63 133.609 29.5373 134.093 28.584C134.591 27.6307 135.259 26.8973 136.095 26.384C136.945 25.8707 137.891 25.614 138.933 25.614C139.842 25.614 140.634 25.7973 141.309 26.164C141.998 26.5307 142.548 26.9927 142.959 27.55V25.812H146.061V38H142.959V36.218C142.563 36.79 142.013 37.2667 141.309 37.648C140.619 38.0147 139.82 38.198 138.911 38.198C137.884 38.198 136.945 37.934 136.095 37.406C135.259 36.878 134.591 36.1373 134.093 35.184C133.609 34.216 133.367 33.1087 133.367 31.862ZM142.959 31.906C142.959 31.158 142.812 30.52 142.519 29.992C142.225 29.4493 141.829 29.0387 141.331 28.76C140.832 28.4667 140.297 28.32 139.725 28.32C139.153 28.32 138.625 28.4593 138.141 28.738C137.657 29.0167 137.261 29.4273 136.953 29.97C136.659 30.498 136.513 31.1287 136.513 31.862C136.513 32.5953 136.659 33.2407 136.953 33.798C137.261 34.3407 137.657 34.7587 138.141 35.052C138.639 35.3453 139.167 35.492 139.725 35.492C140.297 35.492 140.832 35.3527 141.331 35.074C141.829 34.7807 142.225 34.37 142.519 33.842C142.812 33.2993 142.959 32.654 142.959 31.906ZM148.277 31.906C148.277 30.6447 148.533 29.5447 149.047 28.606C149.56 27.6527 150.271 26.9193 151.181 26.406C152.09 25.878 153.131 25.614 154.305 25.614C155.815 25.614 157.062 25.9953 158.045 26.758C159.042 27.506 159.709 28.562 160.047 29.926H156.725C156.549 29.398 156.248 28.9873 155.823 28.694C155.412 28.386 154.899 28.232 154.283 28.232C153.403 28.232 152.706 28.5547 152.193 29.2C151.679 29.8307 151.423 30.7327 151.423 31.906C151.423 33.0647 151.679 33.9667 152.193 34.612C152.706 35.2427 153.403 35.558 154.283 35.558C155.529 35.558 156.343 35.0007 156.725 33.886H160.047C159.709 35.206 159.042 36.2547 158.045 37.032C157.047 37.8093 155.801 38.198 154.305 38.198C153.131 38.198 152.09 37.9413 151.181 37.428C150.271 36.9 149.56 36.1667 149.047 35.228C148.533 34.2747 148.277 33.1673 148.277 31.906ZM161.511 31.862C161.511 30.63 161.753 29.5373 162.237 28.584C162.736 27.6307 163.403 26.8973 164.239 26.384C165.09 25.8707 166.036 25.614 167.077 25.614C167.986 25.614 168.778 25.7973 169.453 26.164C170.142 26.5307 170.692 26.9927 171.103 27.55V25.812H174.205V38H171.103V36.218C170.707 36.79 170.157 37.2667 169.453 37.648C168.764 38.0147 167.964 38.198 167.055 38.198C166.028 38.198 165.09 37.934 164.239 37.406C163.403 36.878 162.736 36.1373 162.237 35.184C161.753 34.216 161.511 33.1087 161.511 31.862ZM171.103 31.906C171.103 31.158 170.956 30.52 170.663 29.992C170.37 29.4493 169.974 29.0387 169.475 28.76C168.976 28.4667 168.441 28.32 167.869 28.32C167.297 28.32 166.769 28.4593 166.285 28.738C165.801 29.0167 165.405 29.4273 165.097 29.97C164.804 30.498 164.657 31.1287 164.657 31.862C164.657 32.5953 164.804 33.2407 165.097 33.798C165.405 34.3407 165.801 34.7587 166.285 35.052C166.784 35.3453 167.312 35.492 167.869 35.492C168.441 35.492 168.976 35.3527 169.475 35.074C169.974 34.7807 170.37 34.37 170.663 33.842C170.956 33.2993 171.103 32.654 171.103 31.906ZM180.799 28.342V34.238C180.799 34.6487 180.895 34.9493 181.085 35.14C181.291 35.316 181.628 35.404 182.097 35.404H183.527V38H181.591C178.995 38 177.697 36.7387 177.697 34.216V28.342H176.245V25.812H177.697V22.798H180.799V25.812H183.527V28.342H180.799ZM187.305 24.36C186.762 24.36 186.307 24.1913 185.941 23.854C185.589 23.502 185.413 23.0693 185.413 22.556C185.413 22.0427 185.589 21.6173 185.941 21.28C186.307 20.928 186.762 20.752 187.305 20.752C187.847 20.752 188.295 20.928 188.647 21.28C189.013 21.6173 189.197 22.0427 189.197 22.556C189.197 23.0693 189.013 23.502 188.647 23.854C188.295 24.1913 187.847 24.36 187.305 24.36ZM188.823 25.812V38H185.743V25.812H188.823ZM197.278 38.198C196.104 38.198 195.048 37.9413 194.11 37.428C193.171 36.9 192.43 36.1593 191.888 35.206C191.36 34.2527 191.096 33.1527 191.096 31.906C191.096 30.6593 191.367 29.5593 191.91 28.606C192.467 27.6527 193.222 26.9193 194.176 26.406C195.129 25.878 196.192 25.614 197.366 25.614C198.539 25.614 199.602 25.878 200.556 26.406C201.509 26.9193 202.257 27.6527 202.8 28.606C203.357 29.5593 203.636 30.6593 203.636 31.906C203.636 33.1527 203.35 34.2527 202.778 35.206C202.22 36.1593 201.458 36.9 200.49 37.428C199.536 37.9413 198.466 38.198 197.278 38.198ZM197.278 35.514C197.835 35.514 198.356 35.382 198.84 35.118C199.338 34.8393 199.734 34.4287 200.028 33.886C200.321 33.3433 200.468 32.6833 200.468 31.906C200.468 30.7473 200.16 29.86 199.544 29.244C198.942 28.6133 198.202 28.298 197.322 28.298C196.442 28.298 195.701 28.6133 195.1 29.244C194.513 29.86 194.22 30.7473 194.22 31.906C194.22 33.0647 194.506 33.9593 195.078 34.59C195.664 35.206 196.398 35.514 197.278 35.514ZM212.649 25.636C214.101 25.636 215.274 26.098 216.169 27.022C217.064 27.9313 217.511 29.2073 217.511 30.85V38H214.431V31.268C214.431 30.3 214.189 29.5593 213.705 29.046C213.221 28.518 212.561 28.254 211.725 28.254C210.874 28.254 210.2 28.518 209.701 29.046C209.217 29.5593 208.975 30.3 208.975 31.268V38H205.895V25.812H208.975V27.33C209.386 26.802 209.906 26.3913 210.537 26.098C211.182 25.79 211.886 25.636 212.649 25.636Z" fill="#154C6B"/>
<path d="M24.936 189.06C24.72 188.644 24.42 188.332 24.036 188.124C23.652 187.908 23.208 187.8 22.704 187.8C22.152 187.8 21.66 187.924 21.228 188.172C20.796 188.42 20.456 188.772 20.208 189.228C19.968 189.684 19.848 190.212 19.848 190.812C19.848 191.412 19.968 191.944 20.208 192.408C20.456 192.864 20.796 193.216 21.228 193.464C21.66 193.712 22.152 193.836 22.704 193.836C23.448 193.836 24.052 193.628 24.516 193.212C24.98 192.796 25.264 192.232 25.368 191.52H22.236V190.428H26.832V191.496C26.744 192.144 26.512 192.74 26.136 193.284C25.768 193.828 25.284 194.264 24.684 194.592C24.092 194.912 23.432 195.072 22.704 195.072C21.92 195.072 21.204 194.892 20.556 194.532C19.908 194.164 19.392 193.656 19.008 193.008C18.632 192.36 18.444 191.628 18.444 190.812C18.444 189.996 18.632 189.264 19.008 188.616C19.392 187.968 19.908 187.464 20.556 187.104C21.212 186.736 21.928 186.552 22.704 186.552C23.592 186.552 24.38 186.772 25.068 187.212C25.764 187.644 26.268 188.26 26.58 189.06H24.936ZM31.9853 195.084C31.2093 195.084 30.4933 194.904 29.8373 194.544C29.1893 194.176 28.6733 193.668 28.2893 193.02C27.9133 192.364 27.7253 191.628 27.7253 190.812C27.7253 189.996 27.9133 189.264 28.2893 188.616C28.6733 187.968 29.1893 187.464 29.8373 187.104C30.4933 186.736 31.2093 186.552 31.9853 186.552C32.7693 186.552 33.4853 186.736 34.1333 187.104C34.7893 187.464 35.3053 187.968 35.6813 188.616C36.0573 189.264 36.2453 189.996 36.2453 190.812C36.2453 191.628 36.0573 192.364 35.6813 193.02C35.3053 193.668 34.7893 194.176 34.1333 194.544C33.4853 194.904 32.7693 195.084 31.9853 195.084ZM31.9853 193.896C32.5373 193.896 33.0293 193.772 33.4613 193.524C33.8933 193.268 34.2293 192.908 34.4693 192.444C34.7173 191.972 34.8413 191.428 34.8413 190.812C34.8413 190.196 34.7173 189.656 34.4693 189.192C34.2293 188.728 33.8933 188.372 33.4613 188.124C33.0293 187.876 32.5373 187.752 31.9853 187.752C31.4333 187.752 30.9413 187.876 30.5093 188.124C30.0773 188.372 29.7373 188.728 29.4893 189.192C29.2493 189.656 29.1293 190.196 29.1293 190.812C29.1293 191.428 29.2493 191.972 29.4893 192.444C29.7373 192.908 30.0773 193.268 30.5093 193.524C30.9413 193.772 31.4333 193.896 31.9853 193.896ZM42.6194 193.296H39.1274L38.5274 195H37.0994L40.0874 186.648H41.6714L44.6594 195H43.2194L42.6194 193.296ZM42.2354 192.18L40.8794 188.304L39.5114 192.18H42.2354ZM47.3266 193.896H50.1466V195H45.9586V186.66H47.3266V193.896Z" fill="#154C6B"/>
<path d="M24.094 223.914H25.502V222.132C28.714 221.912 30.474 219.822 30.474 217.578C30.474 214.322 27.79 213.728 25.502 213.134V208.976C26.36 209.24 26.888 209.9 26.976 210.758H30.298C30.1 208.14 28.252 206.666 25.502 206.446V204.664H24.094V206.446C21.234 206.666 19.166 208.36 19.166 210.956C19.166 214.212 21.828 214.85 24.094 215.422V219.624C23.082 219.404 22.554 218.722 22.466 217.71H19.166C19.232 220.35 21.256 221.868 24.094 222.11V223.914ZM27.284 217.71C27.284 218.7 26.624 219.47 25.502 219.668V215.818C26.536 216.17 27.284 216.676 27.284 217.71ZM22.378 210.802C22.378 209.68 23.082 209.064 24.094 208.91V212.716C23.082 212.364 22.378 211.836 22.378 210.802ZM41.1285 222H44.2085V218.876H46.1445V216.192H44.2085V206.16H40.6225L33.4285 216.456V218.876H41.1285V222ZM36.8165 216.192L41.3265 209.46V216.192H36.8165ZM47.2035 225.168H49.2055L51.9335 218.612H48.6775L47.2035 225.168ZM53.7129 213.772C53.7129 218.458 55.1209 221.956 59.6529 221.956C64.1849 221.956 65.5929 218.458 65.5929 213.772C65.5929 209.13 64.1849 205.654 59.6529 205.654C55.1209 205.654 53.7129 209.13 53.7129 213.772ZM62.5569 213.772C62.5569 216.632 62.2489 219.096 59.6529 219.096C57.0569 219.096 56.7489 216.632 56.7489 213.772C56.7489 211.022 57.0569 208.514 59.6529 208.514C62.2489 208.514 62.5569 211.022 62.5569 213.772ZM67.9355 213.772C67.9355 218.458 69.3435 221.956 73.8755 221.956C78.4075 221.956 79.8155 218.458 79.8155 213.772C79.8155 209.13 78.4075 205.654 73.8755 205.654C69.3435 205.654 67.9355 209.13 67.9355 213.772ZM76.7795 213.772C76.7795 216.632 76.4715 219.096 73.8755 219.096C71.2795 219.096 70.9715 216.632 70.9715 213.772C70.9715 211.022 71.2795 208.514 73.8755 208.514C76.4715 208.514 76.7795 211.022 76.7795 213.772ZM82.1582 213.772C82.1582 218.458 83.5662 221.956 88.0982 221.956C92.6302 221.956 94.0382 218.458 94.0382 213.772C94.0382 209.13 92.6302 205.654 88.0982 205.654C83.5662 205.654 82.1582 209.13 82.1582 213.772ZM91.0022 213.772C91.0022 216.632 90.6942 219.096 88.0982 219.096C85.5022 219.096 85.1942 216.632 85.1942 213.772C85.1942 211.022 85.5022 208.514 88.0982 208.514C90.6942 208.514 91.0022 211.022 91.0022 213.772Z" fill="#154C6B"/>
<path d="M134.732 190.144C134.732 190.568 134.632 190.968 134.432 191.344C134.232 191.72 133.912 192.028 133.472 192.268C133.032 192.5 132.468 192.616 131.78 192.616H130.268V196H128.9V187.66H131.78C132.42 187.66 132.96 187.772 133.4 187.996C133.848 188.212 134.18 188.508 134.396 188.884C134.62 189.26 134.732 189.68 134.732 190.144ZM131.78 191.5C132.3 191.5 132.688 191.384 132.944 191.152C133.2 190.912 133.328 190.576 133.328 190.144C133.328 189.232 132.812 188.776 131.78 188.776H130.268V191.5H131.78ZM141.065 194.296H137.573L136.973 196H135.545L138.533 187.648H140.117L143.105 196H141.665L141.065 194.296ZM140.681 193.18L139.325 189.304L137.957 193.18H140.681ZM150.584 187.66L147.824 192.976V196H146.456V192.976L143.684 187.66H145.208L147.14 191.752L149.072 187.66H150.584ZM160.454 187.66V196H159.086V190.288L156.542 196H155.594L153.038 190.288V196H151.67V187.66H153.146L156.074 194.2L158.99 187.66H160.454ZM163.62 188.764V191.212H166.5V192.328H163.62V194.884H166.86V196H162.252V187.648H166.86V188.764H163.62ZM175.397 196H174.029L169.913 189.772V196H168.545V187.648H169.913L174.029 193.864V187.648H175.397V196ZM182.581 187.66V188.776H180.361V196H178.993V188.776H176.761V187.66H182.581Z" fill="#154C6B"/>
<path d="M140.474 218.578C140.474 219.341 140.276 220.059 139.88 220.734C139.499 221.394 138.927 221.944 138.164 222.384C137.416 222.809 136.529 223.059 135.502 223.132V224.914H134.094V223.11C132.627 222.978 131.447 222.538 130.552 221.79C129.657 221.027 129.195 220.001 129.166 218.71H132.466C132.554 219.766 133.097 220.404 134.094 220.624V216.422C133.038 216.158 132.187 215.894 131.542 215.63C130.897 215.366 130.339 214.941 129.87 214.354C129.401 213.767 129.166 212.968 129.166 211.956C129.166 210.68 129.621 209.639 130.53 208.832C131.454 208.025 132.642 207.563 134.094 207.446V205.664H135.502V207.446C136.91 207.563 138.032 207.989 138.868 208.722C139.719 209.455 140.195 210.467 140.298 211.758H136.976C136.932 211.333 136.778 210.966 136.514 210.658C136.265 210.335 135.927 210.108 135.502 209.976V214.134C136.602 214.413 137.467 214.684 138.098 214.948C138.743 215.197 139.301 215.615 139.77 216.202C140.239 216.774 140.474 217.566 140.474 218.578ZM132.378 211.802C132.378 212.286 132.525 212.682 132.818 212.99C133.111 213.283 133.537 213.525 134.094 213.716V209.91C133.566 209.983 133.148 210.181 132.84 210.504C132.532 210.827 132.378 211.259 132.378 211.802ZM135.502 220.668C136.059 220.565 136.492 220.338 136.8 219.986C137.123 219.634 137.284 219.209 137.284 218.71C137.284 218.226 137.13 217.837 136.822 217.544C136.514 217.251 136.074 217.009 135.502 216.818V220.668ZM144.529 219.524C145.937 218.351 147.059 217.375 147.895 216.598C148.731 215.806 149.427 214.985 149.985 214.134C150.542 213.283 150.821 212.447 150.821 211.626C150.821 210.878 150.645 210.291 150.293 209.866C149.941 209.441 149.398 209.228 148.665 209.228C147.931 209.228 147.367 209.477 146.971 209.976C146.575 210.46 146.369 211.127 146.355 211.978H143.363C143.421 210.218 143.942 208.883 144.925 207.974C145.922 207.065 147.183 206.61 148.709 206.61C150.381 206.61 151.664 207.057 152.559 207.952C153.453 208.832 153.901 209.998 153.901 211.45C153.901 212.594 153.593 213.687 152.977 214.728C152.361 215.769 151.657 216.679 150.865 217.456C150.073 218.219 149.039 219.143 147.763 220.228H154.253V222.78H143.385V220.492L144.529 219.524ZM156.193 214.772C156.193 212.235 156.648 210.247 157.557 208.81C158.481 207.373 160.007 206.654 162.133 206.654C164.26 206.654 165.778 207.373 166.687 208.81C167.611 210.247 168.073 212.235 168.073 214.772C168.073 217.324 167.611 219.326 166.687 220.778C165.778 222.23 164.26 222.956 162.133 222.956C160.007 222.956 158.481 222.23 157.557 220.778C156.648 219.326 156.193 217.324 156.193 214.772ZM165.037 214.772C165.037 213.687 164.964 212.777 164.817 212.044C164.685 211.296 164.407 210.687 163.981 210.218C163.571 209.749 162.955 209.514 162.133 209.514C161.312 209.514 160.689 209.749 160.263 210.218C159.853 210.687 159.574 211.296 159.427 212.044C159.295 212.777 159.229 213.687 159.229 214.772C159.229 215.887 159.295 216.825 159.427 217.588C159.559 218.336 159.838 218.945 160.263 219.414C160.689 219.869 161.312 220.096 162.133 220.096C162.955 220.096 163.578 219.869 164.003 219.414C164.429 218.945 164.707 218.336 164.839 217.588C164.971 216.825 165.037 215.887 165.037 214.772ZM170.416 214.772C170.416 212.235 170.871 210.247 171.78 208.81C172.704 207.373 174.229 206.654 176.356 206.654C178.483 206.654 180.001 207.373 180.91 208.81C181.834 210.247 182.296 212.235 182.296 214.772C182.296 217.324 181.834 219.326 180.91 220.778C180.001 222.23 178.483 222.956 176.356 222.956C174.229 222.956 172.704 222.23 171.78 220.778C170.871 219.326 170.416 217.324 170.416 214.772ZM179.26 214.772C179.26 213.687 179.187 212.777 179.04 212.044C178.908 211.296 178.629 210.687 178.204 210.218C177.793 209.749 177.177 209.514 176.356 209.514C175.535 209.514 174.911 209.749 174.486 210.218C174.075 210.687 173.797 211.296 173.65 212.044C173.518 212.777 173.452 213.687 173.452 214.772C173.452 215.887 173.518 216.825 173.65 217.588C173.782 218.336 174.061 218.945 174.486 219.414C174.911 219.869 175.535 220.096 176.356 220.096C177.177 220.096 177.801 219.869 178.226 219.414C178.651 218.945 178.93 218.336 179.062 217.588C179.194 216.825 179.26 215.887 179.26 214.772Z" fill="#154C6B"/>
<path d="M221.732 189.144C221.732 189.568 221.632 189.968 221.432 190.344C221.232 190.72 220.912 191.028 220.472 191.268C220.032 191.5 219.468 191.616 218.78 191.616H217.268V195H215.9V186.66H218.78C219.42 186.66 219.96 186.772 220.4 186.996C220.848 187.212 221.18 187.508 221.396 187.884C221.62 188.26 221.732 188.68 221.732 189.144ZM218.78 190.5C219.3 190.5 219.688 190.384 219.944 190.152C220.2 189.912 220.328 189.576 220.328 189.144C220.328 188.232 219.812 187.776 218.78 187.776H217.268V190.5H218.78ZM228.065 193.296H224.573L223.973 195H222.545L225.533 186.648H227.117L230.105 195H228.665L228.065 193.296ZM227.681 192.18L226.325 188.304L224.957 192.18H227.681ZM237.584 186.66L234.824 191.976V195H233.456V191.976L230.684 186.66H232.208L234.14 190.752L236.072 186.66H237.584ZM242.474 195.084C241.698 195.084 240.982 194.904 240.326 194.544C239.678 194.176 239.162 193.668 238.778 193.02C238.402 192.364 238.214 191.628 238.214 190.812C238.214 189.996 238.402 189.264 238.778 188.616C239.162 187.968 239.678 187.464 240.326 187.104C240.982 186.736 241.698 186.552 242.474 186.552C243.258 186.552 243.974 186.736 244.622 187.104C245.278 187.464 245.794 187.968 246.17 188.616C246.546 189.264 246.734 189.996 246.734 190.812C246.734 191.628 246.546 192.364 246.17 193.02C245.794 193.668 245.278 194.176 244.622 194.544C243.974 194.904 243.258 195.084 242.474 195.084ZM242.474 193.896C243.026 193.896 243.518 193.772 243.95 193.524C244.382 193.268 244.718 192.908 244.958 192.444C245.206 191.972 245.33 191.428 245.33 190.812C245.33 190.196 245.206 189.656 244.958 189.192C244.718 188.728 244.382 188.372 243.95 188.124C243.518 187.876 243.026 187.752 242.474 187.752C241.922 187.752 241.43 187.876 240.998 188.124C240.566 188.372 240.226 188.728 239.978 189.192C239.738 189.656 239.618 190.196 239.618 190.812C239.618 191.428 239.738 191.972 239.978 192.444C240.226 192.908 240.566 193.268 240.998 193.524C241.43 193.772 241.922 193.896 242.474 193.896ZM252.988 186.66V187.776H249.448V190.236H252.208V191.352H249.448V195H248.08V186.66H252.988ZM259.163 186.66V187.776H255.623V190.236H258.383V191.352H255.623V195H254.255V186.66H259.163ZM268.012 190.716C268.46 190.796 268.84 191.032 269.152 191.424C269.464 191.816 269.62 192.26 269.62 192.756C269.62 193.18 269.508 193.564 269.284 193.908C269.068 194.244 268.752 194.512 268.336 194.712C267.92 194.904 267.436 195 266.884 195H263.548V186.66H266.728C267.296 186.66 267.784 186.756 268.192 186.948C268.6 187.14 268.908 187.4 269.116 187.728C269.324 188.048 269.428 188.408 269.428 188.808C269.428 189.288 269.3 189.688 269.044 190.008C268.788 190.328 268.444 190.564 268.012 190.716ZM264.916 190.164H266.608C267.056 190.164 267.404 190.064 267.652 189.864C267.908 189.656 268.036 189.36 268.036 188.976C268.036 188.6 267.908 188.308 267.652 188.1C267.404 187.884 267.056 187.776 266.608 187.776H264.916V190.164ZM266.764 193.884C267.228 193.884 267.592 193.772 267.856 193.548C268.12 193.324 268.252 193.012 268.252 192.612C268.252 192.204 268.112 191.88 267.832 191.64C267.552 191.4 267.18 191.28 266.716 191.28H264.916V193.884H266.764ZM277.287 186.66L274.527 191.976V195H273.159V191.976L270.387 186.66H271.911L273.843 190.752L275.775 186.66H277.287Z" fill="#154C6B"/>
<path d="M233.26 206.644V222H230.18V212.012L226.066 222H223.734L219.598 212.012V222H216.518V206.644H220.016L224.9 218.062L229.784 206.644H233.26ZM235.513 215.862C235.513 214.63 235.755 213.537 236.239 212.584C236.738 211.631 237.405 210.897 238.241 210.384C239.092 209.871 240.038 209.614 241.079 209.614C241.988 209.614 242.78 209.797 243.455 210.164C244.144 210.531 244.694 210.993 245.105 211.55V209.812H248.207V222H245.105V220.218C244.709 220.79 244.159 221.267 243.455 221.648C242.766 222.015 241.966 222.198 241.057 222.198C240.03 222.198 239.092 221.934 238.241 221.406C237.405 220.878 236.738 220.137 236.239 219.184C235.755 218.216 235.513 217.109 235.513 215.862ZM245.105 215.906C245.105 215.158 244.958 214.52 244.665 213.992C244.372 213.449 243.976 213.039 243.477 212.76C242.978 212.467 242.443 212.32 241.871 212.32C241.299 212.32 240.771 212.459 240.287 212.738C239.803 213.017 239.407 213.427 239.099 213.97C238.806 214.498 238.659 215.129 238.659 215.862C238.659 216.595 238.806 217.241 239.099 217.798C239.407 218.341 239.803 218.759 240.287 219.052C240.786 219.345 241.314 219.492 241.871 219.492C242.443 219.492 242.978 219.353 243.477 219.074C243.976 218.781 244.372 218.37 244.665 217.842C244.958 217.299 245.105 216.654 245.105 215.906ZM254.295 211.704C254.691 211.059 255.205 210.553 255.835 210.186C256.481 209.819 257.214 209.636 258.035 209.636V212.87H257.221C256.253 212.87 255.52 213.097 255.021 213.552C254.537 214.007 254.295 214.799 254.295 215.928V222H251.215V209.812H254.295V211.704ZM265.968 218.524C267.376 217.351 268.498 216.375 269.334 215.598C270.17 214.806 270.867 213.985 271.424 213.134C271.981 212.283 272.26 211.447 272.26 210.626C272.26 209.878 272.084 209.291 271.732 208.866C271.38 208.441 270.837 208.228 270.104 208.228C269.371 208.228 268.806 208.477 268.41 208.976C268.014 209.46 267.809 210.127 267.794 210.978H264.802C264.861 209.218 265.381 207.883 266.364 206.974C267.361 206.065 268.623 205.61 270.148 205.61C271.82 205.61 273.103 206.057 273.998 206.952C274.893 207.832 275.34 208.998 275.34 210.45C275.34 211.594 275.032 212.687 274.416 213.728C273.8 214.769 273.096 215.679 272.304 216.456C271.512 217.219 270.478 218.143 269.202 219.228H275.692V221.78H264.824V219.492L265.968 218.524ZM277.633 213.772C277.633 211.235 278.087 209.247 278.997 207.81C279.921 206.373 281.446 205.654 283.573 205.654C285.699 205.654 287.217 206.373 288.127 207.81C289.051 209.247 289.513 211.235 289.513 213.772C289.513 216.324 289.051 218.326 288.127 219.778C287.217 221.23 285.699 221.956 283.573 221.956C281.446 221.956 279.921 221.23 278.997 219.778C278.087 218.326 277.633 216.324 277.633 213.772ZM286.477 213.772C286.477 212.687 286.403 211.777 286.257 211.044C286.125 210.296 285.846 209.687 285.421 209.218C285.01 208.749 284.394 208.514 283.573 208.514C282.751 208.514 282.128 208.749 281.703 209.218C281.292 209.687 281.013 210.296 280.867 211.044C280.735 211.777 280.669 212.687 280.669 213.772C280.669 214.887 280.735 215.825 280.867 216.588C280.999 217.336 281.277 217.945 281.703 218.414C282.128 218.869 282.751 219.096 283.573 219.096C284.394 219.096 285.017 218.869 285.443 218.414C285.868 217.945 286.147 217.336 286.279 216.588C286.411 215.825 286.477 214.887 286.477 213.772ZM292.823 218.524C294.231 217.351 295.353 216.375 296.189 215.598C297.025 214.806 297.722 213.985 298.279 213.134C298.837 212.283 299.115 211.447 299.115 210.626C299.115 209.878 298.939 209.291 298.587 208.866C298.235 208.441 297.693 208.228 296.959 208.228C296.226 208.228 295.661 208.477 295.265 208.976C294.869 209.46 294.664 210.127 294.649 210.978H291.657C291.716 209.218 292.237 207.883 293.219 206.974C294.217 206.065 295.478 205.61 297.003 205.61C298.675 205.61 299.959 206.057 300.853 206.952C301.748 207.832 302.195 208.998 302.195 210.45C302.195 211.594 301.887 212.687 301.271 213.728C300.655 214.769 299.951 215.679 299.159 216.456C298.367 217.219 297.333 218.143 296.057 219.228H302.547V221.78H291.679V219.492L292.823 218.524ZM305.456 218.524C306.864 217.351 307.986 216.375 308.822 215.598C309.658 214.806 310.355 213.985 310.912 213.134C311.47 212.283 311.748 211.447 311.748 210.626C311.748 209.878 311.572 209.291 311.22 208.866C310.868 208.441 310.326 208.228 309.592 208.228C308.859 208.228 308.294 208.477 307.898 208.976C307.502 209.46 307.297 210.127 307.282 210.978H304.29C304.349 209.218 304.87 207.883 305.852 206.974C306.85 206.065 308.111 205.61 309.636 205.61C311.308 205.61 312.592 206.057 313.486 206.952C314.381 207.832 314.828 208.998 314.828 210.45C314.828 211.594 314.52 212.687 313.904 213.728C313.288 214.769 312.584 215.679 311.792 216.456C311 217.219 309.966 218.143 308.69 219.228H315.18V221.78H304.312V219.492L305.456 218.524Z" fill="#154C6B"/>
<path d="M84.5 139C78.7529 139 73.0716 137.777 67.8337 135.412C62.5957 133.047 57.9211 129.594 54.1205 125.283C50.3199 120.972 47.4803 115.902 45.7904 110.409C44.1005 104.916 43.5991 99.1258 44.3194 93.424C45.0397 87.7222 46.9652 82.239 49.9681 77.3388C52.9709 72.4386 56.9823 68.2336 61.7356 65.0032C66.4889 61.7729 71.8753 59.5912 77.5369 58.6031C83.1984 57.615 89.0054 57.8431 94.5719 59.2724L84.5 98.5L84.5 139Z" fill="#FFD260"/>
<path d="M106.125 98.4994C106.107 96.2769 103.074 94.5253 99.3638 94.5253H91.6227C90.568 94.5253 90.1725 94.3369 89.5321 93.6401L76.7622 79.8343C76.3479 79.3823 75.8582 79.1562 75.312 79.1562H72.8823C72.3926 79.1562 72.1101 79.6083 72.3361 80.1168L78.9471 94.5064L69.2849 95.58L65.8382 89.4399C65.5745 88.9691 65.179 88.7619 64.5574 88.7619H63.7099C63.2013 88.7619 62.8623 89.1009 62.8623 89.6094V107.389C62.8623 107.898 63.2013 108.237 63.7099 108.237H64.5574C65.179 108.237 65.5745 108.03 65.8382 107.559L69.2849 101.4L78.9471 102.492L72.3361 116.882C72.1101 117.39 72.3926 117.843 72.8823 117.843H75.312C75.8582 117.843 76.3479 117.598 76.7622 117.164L89.5321 103.359C90.1725 102.662 90.568 102.473 91.6227 102.473H99.3638C103.074 102.473 106.107 100.703 106.125 98.4994Z" fill="#D7E0E4"/>
<path fill-rule="evenodd" clip-rule="evenodd" d="M91.5966 102.474L78.9471 102.492L72.3361 116.882C72.1101 117.39 72.3926 117.843 72.8823 117.843H75.312C75.8582 117.843 76.3479 117.598 76.7622 117.164L89.5321 103.359C90.1672 102.668 90.5614 102.477 91.5966 102.474ZM78.9471 94.5064L91.5966 94.5252C90.5614 94.5221 90.1672 94.3311 89.5321 93.6401L84.7018 88.418L83.0149 86.5942L76.7622 79.8343C76.3479 79.3823 75.8582 79.1562 75.312 79.1562H72.8823C72.3926 79.1562 72.1101 79.6083 72.3361 80.1168L75.312 86.5942L76.1499 88.418L78.9471 94.5064Z" fill="#A9E0FF"/>
<path d="M24.288 287.66V288.776H22.068V296H20.7V288.776H18.468V287.66H24.288ZM30.0054 296L28.0854 292.664H27.0414V296H25.6734V287.66H28.5534C29.1934 287.66 29.7334 287.772 30.1734 287.996C30.6214 288.22 30.9534 288.52 31.1694 288.896C31.3934 289.272 31.5054 289.692 31.5054 290.156C31.5054 290.7 31.3454 291.196 31.0254 291.644C30.7134 292.084 30.2294 292.384 29.5734 292.544L31.6374 296H30.0054ZM27.0414 291.572H28.5534C29.0654 291.572 29.4494 291.444 29.7054 291.188C29.9694 290.932 30.1014 290.588 30.1014 290.156C30.1014 289.724 29.9734 289.388 29.7174 289.148C29.4614 288.9 29.0734 288.776 28.5534 288.776H27.0414V291.572ZM38.2835 294.296H34.7915L34.1915 296H32.7635L35.7515 287.648H37.3355L40.3235 296H38.8835L38.2835 294.296ZM37.8995 293.18L36.5435 289.304L35.1755 293.18H37.8995ZM48.4747 296H47.1067L42.9907 289.772V296H41.6227V287.648H42.9907L47.1067 293.864V287.648H48.4747V296ZM53.0191 296.084C52.4591 296.084 51.9551 295.988 51.5071 295.796C51.0591 295.596 50.7071 295.316 50.4511 294.956C50.1951 294.596 50.0671 294.176 50.0671 293.696H51.5311C51.5631 294.056 51.7031 294.352 51.9511 294.584C52.2071 294.816 52.5631 294.932 53.0191 294.932C53.4911 294.932 53.8591 294.82 54.1231 294.596C54.3871 294.364 54.5191 294.068 54.5191 293.708C54.5191 293.428 54.4351 293.2 54.2671 293.024C54.1071 292.848 53.9031 292.712 53.6551 292.616C53.4151 292.52 53.0791 292.416 52.6471 292.304C52.1031 292.16 51.6591 292.016 51.3151 291.872C50.9791 291.72 50.6911 291.488 50.4511 291.176C50.2111 290.864 50.0911 290.448 50.0911 289.928C50.0911 289.448 50.2111 289.028 50.4511 288.668C50.6911 288.308 51.0271 288.032 51.4591 287.84C51.8911 287.648 52.3911 287.552 52.9591 287.552C53.7671 287.552 54.4271 287.756 54.9391 288.164C55.4591 288.564 55.7471 289.116 55.8031 289.82H54.2911C54.2671 289.516 54.1231 289.256 53.8591 289.04C53.5951 288.824 53.2471 288.716 52.8151 288.716C52.4231 288.716 52.1031 288.816 51.8551 289.016C51.6071 289.216 51.4831 289.504 51.4831 289.88C51.4831 290.136 51.5591 290.348 51.7111 290.516C51.8711 290.676 52.0711 290.804 52.3111 290.9C52.5511 290.996 52.8791 291.1 53.2951 291.212C53.8471 291.364 54.2951 291.516 54.6391 291.668C54.9911 291.82 55.2871 292.056 55.5271 292.376C55.7751 292.688 55.8991 293.108 55.8991 293.636C55.8991 294.06 55.7831 294.46 55.5511 294.836C55.3271 295.212 54.9951 295.516 54.5551 295.748C54.1231 295.972 53.6111 296.084 53.0191 296.084ZM62.5413 294.296H59.0493L58.4493 296H57.0213L60.0093 287.648H61.5933L64.5813 296H63.1413L62.5413 294.296ZM62.1573 293.18L60.8013 289.304L59.4333 293.18H62.1573ZM65.4245 291.812C65.4245 290.996 65.6125 290.264 65.9885 289.616C66.3725 288.968 66.8885 288.464 67.5365 288.104C68.1925 287.736 68.9085 287.552 69.6845 287.552C70.5725 287.552 71.3605 287.772 72.0485 288.212C72.7445 288.644 73.2485 289.26 73.5605 290.06H71.9165C71.7005 289.62 71.4005 289.292 71.0165 289.076C70.6325 288.86 70.1885 288.752 69.6845 288.752C69.1325 288.752 68.6405 288.876 68.2085 289.124C67.7765 289.372 67.4365 289.728 67.1885 290.192C66.9485 290.656 66.8285 291.196 66.8285 291.812C66.8285 292.428 66.9485 292.968 67.1885 293.432C67.4365 293.896 67.7765 294.256 68.2085 294.512C68.6405 294.76 69.1325 294.884 69.6845 294.884C70.1885 294.884 70.6325 294.776 71.0165 294.56C71.4005 294.344 71.7005 294.016 71.9165 293.576H73.5605C73.2485 294.376 72.7445 294.992 72.0485 295.424C71.3605 295.856 70.5725 296.072 69.6845 296.072C68.9005 296.072 68.1845 295.892 67.5365 295.532C66.8885 295.164 66.3725 294.656 65.9885 294.008C65.6125 293.36 65.4245 292.628 65.4245 291.812ZM80.5497 287.66V288.776H78.3297V296H76.9617V288.776H74.7297V287.66H80.5497ZM83.3032 287.66V296H81.9352V287.66H83.3032ZM88.9032 296.084C88.1272 296.084 87.4112 295.904 86.7552 295.544C86.1072 295.176 85.5912 294.668 85.2072 294.02C84.8312 293.364 84.6432 292.628 84.6432 291.812C84.6432 290.996 84.8312 290.264 85.2072 289.616C85.5912 288.968 86.1072 288.464 86.7552 288.104C87.4112 287.736 88.1272 287.552 88.9032 287.552C89.6872 287.552 90.4032 287.736 91.0512 288.104C91.7072 288.464 92.2232 288.968 92.5992 289.616C92.9752 290.264 93.1632 290.996 93.1632 291.812C93.1632 292.628 92.9752 293.364 92.5992 294.02C92.2232 294.668 91.7072 295.176 91.0512 295.544C90.4032 295.904 89.6872 296.084 88.9032 296.084ZM88.9032 294.896C89.4552 294.896 89.9472 294.772 90.3792 294.524C90.8112 294.268 91.1472 293.908 91.3872 293.444C91.6352 292.972 91.7592 292.428 91.7592 291.812C91.7592 291.196 91.6352 290.656 91.3872 290.192C91.1472 289.728 90.8112 289.372 90.3792 289.124C89.9472 288.876 89.4552 288.752 88.9032 288.752C88.3512 288.752 87.8592 288.876 87.4272 289.124C86.9952 289.372 86.6552 289.728 86.4072 290.192C86.1672 290.656 86.0472 291.196 86.0472 291.812C86.0472 292.428 86.1672 292.972 86.4072 293.444C86.6552 293.908 86.9952 294.268 87.4272 294.524C87.8592 294.772 88.3512 294.896 88.9032 294.896ZM101.361 296H99.9934L95.8774 289.772V296H94.5094V287.648H95.8774L99.9934 293.864V287.648H101.361V296ZM105.906 296.084C105.346 296.084 104.842 295.988 104.394 295.796C103.946 295.596 103.594 295.316 103.338 294.956C103.082 294.596 102.954 294.176 102.954 293.696H104.418C104.45 294.056 104.59 294.352 104.838 294.584C105.094 294.816 105.45 294.932 105.906 294.932C106.378 294.932 106.746 294.82 107.01 294.596C107.274 294.364 107.406 294.068 107.406 293.708C107.406 293.428 107.322 293.2 107.154 293.024C106.994 292.848 106.79 292.712 106.542 292.616C106.302 292.52 105.966 292.416 105.534 292.304C104.99 292.16 104.546 292.016 104.202 291.872C103.866 291.72 103.578 291.488 103.338 291.176C103.098 290.864 102.978 290.448 102.978 289.928C102.978 289.448 103.098 289.028 103.338 288.668C103.578 288.308 103.914 288.032 104.346 287.84C104.778 287.648 105.278 287.552 105.846 287.552C106.654 287.552 107.314 287.756 107.826 288.164C108.346 288.564 108.634 289.116 108.69 289.82H107.178C107.154 289.516 107.01 289.256 106.746 289.04C106.482 288.824 106.134 288.716 105.702 288.716C105.31 288.716 104.99 288.816 104.742 289.016C104.494 289.216 104.37 289.504 104.37 289.88C104.37 290.136 104.446 290.348 104.598 290.516C104.758 290.676 104.958 290.804 105.198 290.9C105.438 290.996 105.766 291.1 106.182 291.212C106.734 291.364 107.182 291.516 107.526 291.668C107.878 291.82 108.174 292.056 108.414 292.376C108.662 292.688 108.786 293.108 108.786 293.636C108.786 294.06 108.67 294.46 108.438 294.836C108.214 295.212 107.882 295.516 107.442 295.748C107.01 295.972 106.498 296.084 105.906 296.084Z" fill="#154C6B"/>
<path d="M51.916 332.012H47.842L47.142 334H45.476L48.962 324.256H50.81L54.296 334H52.616L51.916 332.012ZM51.468 330.71L49.886 326.188L48.29 330.71H51.468ZM62.5477 326.286V334H60.9517V333.09C60.6997 333.407 60.3684 333.659 59.9577 333.846C59.5564 334.023 59.1271 334.112 58.6697 334.112C58.0631 334.112 57.5171 333.986 57.0317 333.734C56.5557 333.482 56.1777 333.109 55.8977 332.614C55.6271 332.119 55.4917 331.522 55.4917 330.822V326.286H57.0737V330.584C57.0737 331.275 57.2464 331.807 57.5917 332.18C57.9371 332.544 58.4084 332.726 59.0057 332.726C59.6031 332.726 60.0744 332.544 60.4197 332.18C60.7744 331.807 60.9517 331.275 60.9517 330.584V326.286H62.5477ZM67.5115 326.16C68.1088 326.16 68.6362 326.281 69.0935 326.524C69.5602 326.757 69.9242 327.051 70.1855 327.406V326.286H71.7955V334.126C71.7955 334.835 71.6462 335.465 71.3475 336.016C71.0488 336.576 70.6148 337.015 70.0455 337.332C69.4855 337.649 68.8135 337.808 68.0295 337.808C66.9842 337.808 66.1162 337.561 65.4255 337.066C64.7348 336.581 64.3428 335.918 64.2495 335.078H65.8315C65.9528 335.479 66.2095 335.801 66.6015 336.044C67.0028 336.296 67.4788 336.422 68.0295 336.422C68.6735 336.422 69.1915 336.226 69.5835 335.834C69.9848 335.442 70.1855 334.873 70.1855 334.126V332.838C69.9148 333.202 69.5462 333.51 69.0795 333.762C68.6222 334.005 68.0995 334.126 67.5115 334.126C66.8395 334.126 66.2235 333.958 65.6635 333.622C65.1128 333.277 64.6742 332.801 64.3475 332.194C64.0302 331.578 63.8715 330.883 63.8715 330.108C63.8715 329.333 64.0302 328.647 64.3475 328.05C64.6742 327.453 65.1128 326.991 65.6635 326.664C66.2235 326.328 66.8395 326.16 67.5115 326.16ZM70.1855 330.136C70.1855 329.604 70.0735 329.142 69.8495 328.75C69.6348 328.358 69.3502 328.059 68.9955 327.854C68.6408 327.649 68.2582 327.546 67.8475 327.546C67.4368 327.546 67.0542 327.649 66.6995 327.854C66.3448 328.05 66.0555 328.344 65.8315 328.736C65.6168 329.119 65.5095 329.576 65.5095 330.108C65.5095 330.64 65.6168 331.107 65.8315 331.508C66.0555 331.909 66.3448 332.217 66.6995 332.432C67.0635 332.637 67.4462 332.74 67.8475 332.74C68.2582 332.74 68.6408 332.637 68.9955 332.432C69.3502 332.227 69.6348 331.928 69.8495 331.536C70.0735 331.135 70.1855 330.668 70.1855 330.136ZM77.7005 331.83C78.5965 331.055 79.3012 330.421 79.8145 329.926C80.3372 329.422 80.7712 328.899 81.1165 328.358C81.4618 327.817 81.6345 327.275 81.6345 326.734C81.6345 326.174 81.4992 325.735 81.2285 325.418C80.9672 325.101 80.5518 324.942 79.9825 324.942C79.4318 324.942 79.0025 325.119 78.6945 325.474C78.3958 325.819 78.2372 326.286 78.2185 326.874H76.6785C76.7065 325.81 77.0238 324.998 77.6305 324.438C78.2465 323.869 79.0258 323.584 79.9685 323.584C80.9858 323.584 81.7792 323.864 82.3485 324.424C82.9272 324.984 83.2165 325.731 83.2165 326.664C83.2165 327.336 83.0438 327.985 82.6985 328.61C82.3625 329.226 81.9565 329.781 81.4805 330.276C81.0138 330.761 80.4165 331.326 79.6885 331.97L79.0585 332.53H83.4965V333.86H76.6925V332.698L77.7005 331.83ZM91.1166 325.026L87.2246 334H85.6146L89.5486 325.194H84.3686V323.836H91.1166V325.026Z" fill="#154C6B"/>
<path d="M153.568 329.618H150.74V332.516H149.256V329.618H146.428V328.274H149.256V325.376H150.74V328.274H153.568V329.618ZM162.61 331.228C162.61 331.695 162.493 332.133 162.26 332.544C162.036 332.955 161.7 333.3 161.252 333.58C160.813 333.86 160.291 334.028 159.684 334.084V335.218H158.774V334.084C157.897 334 157.187 333.725 156.646 333.258C156.105 332.791 155.834 332.175 155.834 331.41H157.542C157.57 331.774 157.687 332.077 157.892 332.32C158.097 332.553 158.391 332.703 158.774 332.768V329.688C158.149 329.529 157.64 329.371 157.248 329.212C156.856 329.044 156.52 328.783 156.24 328.428C155.969 328.073 155.834 327.588 155.834 326.972C155.834 326.197 156.105 325.558 156.646 325.054C157.187 324.541 157.897 324.242 158.774 324.158V323.024H159.684V324.158C160.505 324.233 161.163 324.494 161.658 324.942C162.162 325.381 162.447 325.987 162.512 326.762H160.804C160.776 326.473 160.664 326.216 160.468 325.992C160.272 325.759 160.011 325.6 159.684 325.516V328.54C160.309 328.689 160.818 328.848 161.21 329.016C161.602 329.175 161.933 329.431 162.204 329.786C162.475 330.131 162.61 330.612 162.61 331.228ZM157.458 326.888C157.458 327.271 157.57 327.569 157.794 327.784C158.027 327.999 158.354 328.171 158.774 328.302V325.474C158.373 325.521 158.051 325.665 157.808 325.908C157.575 326.151 157.458 326.477 157.458 326.888ZM159.684 332.768C160.095 332.703 160.417 332.539 160.65 332.278C160.883 332.007 161 331.685 161 331.312C161 330.939 160.883 330.649 160.65 330.444C160.426 330.229 160.104 330.057 159.684 329.926V332.768ZM165.822 331.83C166.718 331.055 167.422 330.421 167.936 329.926C168.458 329.422 168.892 328.899 169.238 328.358C169.583 327.817 169.756 327.275 169.756 326.734C169.756 326.174 169.62 325.735 169.35 325.418C169.088 325.101 168.673 324.942 168.104 324.942C167.553 324.942 167.124 325.119 166.816 325.474C166.517 325.819 166.358 326.286 166.34 326.874H164.8C164.828 325.81 165.145 324.998 165.752 324.438C166.368 323.869 167.147 323.584 168.09 323.584C169.107 323.584 169.9 323.864 170.47 324.424C171.048 324.984 171.338 325.731 171.338 326.664C171.338 327.336 171.165 327.985 170.82 328.61C170.484 329.226 170.078 329.781 169.602 330.276C169.135 330.761 168.538 331.326 167.81 331.97L167.18 332.53H171.618V333.86H164.814V332.698L165.822 331.83ZM173.02 328.764C173.02 327.149 173.29 325.889 173.832 324.984C174.382 324.069 175.325 323.612 176.66 323.612C177.994 323.612 178.932 324.069 179.474 324.984C180.024 325.889 180.3 327.149 180.3 328.764C180.3 330.397 180.024 331.676 179.474 332.6C178.932 333.515 177.994 333.972 176.66 333.972C175.325 333.972 174.382 333.515 173.832 332.6C173.29 331.676 173.02 330.397 173.02 328.764ZM178.732 328.764C178.732 328.008 178.68 327.369 178.578 326.846C178.484 326.323 178.288 325.899 177.99 325.572C177.691 325.236 177.248 325.068 176.66 325.068C176.072 325.068 175.628 325.236 175.33 325.572C175.031 325.899 174.83 326.323 174.728 326.846C174.634 327.369 174.588 328.008 174.588 328.764C174.588 329.548 174.634 330.206 174.728 330.738C174.821 331.27 175.017 331.699 175.316 332.026C175.624 332.353 176.072 332.516 176.66 332.516C177.248 332.516 177.691 332.353 177.99 332.026C178.298 331.699 178.498 331.27 178.592 330.738C178.685 330.206 178.732 329.548 178.732 328.764ZM181.988 328.764C181.988 327.149 182.259 325.889 182.8 324.984C183.351 324.069 184.294 323.612 185.628 323.612C186.963 323.612 187.901 324.069 188.442 324.984C188.993 325.889 189.268 327.149 189.268 328.764C189.268 330.397 188.993 331.676 188.442 332.6C187.901 333.515 186.963 333.972 185.628 333.972C184.294 333.972 183.351 333.515 182.8 332.6C182.259 331.676 181.988 330.397 181.988 328.764ZM187.7 328.764C187.7 328.008 187.649 327.369 187.546 326.846C187.453 326.323 187.257 325.899 186.958 325.572C186.66 325.236 186.216 325.068 185.628 325.068C185.04 325.068 184.597 325.236 184.298 325.572C184 325.899 183.799 326.323 183.696 326.846C183.603 327.369 183.556 328.008 183.556 328.764C183.556 329.548 183.603 330.206 183.696 330.738C183.79 331.27 183.986 331.699 184.284 332.026C184.592 332.353 185.04 332.516 185.628 332.516C186.216 332.516 186.66 332.353 186.958 332.026C187.266 331.699 187.467 331.27 187.56 330.738C187.654 330.206 187.7 329.548 187.7 328.764Z" fill="#154C6B"/>
<path d="M252.575 331.228C252.575 331.695 252.458 332.133 252.225 332.544C252.001 332.955 251.665 333.3 251.217 333.58C250.778 333.86 250.256 334.028 249.649 334.084V335.218H248.739V334.084C247.862 334 247.152 333.725 246.611 333.258C246.07 332.791 245.799 332.175 245.799 331.41H247.507C247.535 331.774 247.652 332.077 247.857 332.32C248.062 332.553 248.356 332.703 248.739 332.768V329.688C248.114 329.529 247.605 329.371 247.213 329.212C246.821 329.044 246.485 328.783 246.205 328.428C245.934 328.073 245.799 327.588 245.799 326.972C245.799 326.197 246.07 325.558 246.611 325.054C247.152 324.541 247.862 324.242 248.739 324.158V323.024H249.649V324.158C250.47 324.233 251.128 324.494 251.623 324.942C252.127 325.381 252.412 325.987 252.477 326.762H250.769C250.741 326.473 250.629 326.216 250.433 325.992C250.237 325.759 249.976 325.6 249.649 325.516V328.54C250.274 328.689 250.783 328.848 251.175 329.016C251.567 329.175 251.898 329.431 252.169 329.786C252.44 330.131 252.575 330.612 252.575 331.228ZM247.423 326.888C247.423 327.271 247.535 327.569 247.759 327.784C247.992 327.999 248.319 328.171 248.739 328.302V325.474C248.338 325.521 248.016 325.665 247.773 325.908C247.54 326.151 247.423 326.477 247.423 326.888ZM249.649 332.768C250.06 332.703 250.382 332.539 250.615 332.278C250.848 332.007 250.965 331.685 250.965 331.312C250.965 330.939 250.848 330.649 250.615 330.444C250.391 330.229 250.069 330.057 249.649 329.926V332.768ZM255.786 331.83C256.682 331.055 257.387 330.421 257.9 329.926C258.423 329.422 258.857 328.899 259.202 328.358C259.548 327.817 259.72 327.275 259.72 326.734C259.72 326.174 259.585 325.735 259.314 325.418C259.053 325.101 258.638 324.942 258.068 324.942C257.518 324.942 257.088 325.119 256.78 325.474C256.482 325.819 256.323 326.286 256.304 326.874H254.764C254.792 325.81 255.11 324.998 255.716 324.438C256.332 323.869 257.112 323.584 258.054 323.584C259.072 323.584 259.865 323.864 260.434 324.424C261.013 324.984 261.302 325.731 261.302 326.664C261.302 327.336 261.13 327.985 260.784 328.61C260.448 329.226 260.042 329.781 259.566 330.276C259.1 330.761 258.502 331.326 257.774 331.97L257.144 332.53H261.582V333.86H254.778V332.698L255.786 331.83ZM264.945 332.082L263.251 335.946H262.215L263.209 332.082H264.945ZM265.919 325.25V323.794H268.831V334H267.221V325.25H265.919ZM277.492 325.026L273.6 334H271.99L275.924 325.194H270.744V323.836H277.492V325.026ZM284.346 326.16C284.243 325.731 284.056 325.409 283.786 325.194C283.515 324.979 283.137 324.872 282.652 324.872C281.914 324.872 281.364 325.157 281 325.726C280.636 326.286 280.444 327.219 280.426 328.526C280.668 328.115 281.023 327.798 281.49 327.574C281.956 327.35 282.46 327.238 283.002 327.238C283.618 327.238 284.159 327.373 284.626 327.644C285.102 327.905 285.47 328.288 285.732 328.792C286.002 329.296 286.138 329.898 286.138 330.598C286.138 331.251 286.007 331.835 285.746 332.348C285.494 332.861 285.116 333.267 284.612 333.566C284.108 333.855 283.501 334 282.792 334C281.83 334 281.074 333.79 280.524 333.37C279.982 332.941 279.6 332.339 279.376 331.564C279.161 330.789 279.054 329.823 279.054 328.666C279.054 325.25 280.258 323.542 282.666 323.542C283.599 323.542 284.332 323.794 284.864 324.298C285.405 324.802 285.722 325.423 285.816 326.16H284.346ZM282.652 328.582C282.082 328.582 281.597 328.755 281.196 329.1C280.804 329.436 280.608 329.926 280.608 330.57C280.608 331.214 280.79 331.727 281.154 332.11C281.527 332.483 282.045 332.67 282.708 332.67C283.296 332.67 283.758 332.488 284.094 332.124C284.439 331.76 284.612 331.275 284.612 330.668C284.612 330.033 284.444 329.529 284.108 329.156C283.781 328.773 283.296 328.582 282.652 328.582Z" fill="#154C6B"/>
<path d="M51.356 373.27V380.284C51.356 381.152 51.09 381.838 50.558 382.342C50.0353 382.846 49.3447 383.098 48.486 383.098C47.6273 383.098 46.932 382.846 46.4 382.342C45.8773 381.838 45.616 381.152 45.616 380.284H47.226C47.2353 380.713 47.3427 381.054 47.548 381.306C47.7627 381.558 48.0753 381.684 48.486 381.684C48.8967 381.684 49.2093 381.558 49.424 381.306C49.6387 381.045 49.746 380.704 49.746 380.284V373.27H51.356ZM60.6883 375.286V383H59.0923V382.09C58.8403 382.407 58.509 382.659 58.0983 382.846C57.697 383.023 57.2677 383.112 56.8103 383.112C56.2037 383.112 55.6577 382.986 55.1723 382.734C54.6963 382.482 54.3183 382.109 54.0383 381.614C53.7677 381.119 53.6323 380.522 53.6323 379.822V375.286H55.2143V379.584C55.2143 380.275 55.387 380.807 55.7323 381.18C56.0777 381.544 56.549 381.726 57.1463 381.726C57.7437 381.726 58.215 381.544 58.5603 381.18C58.915 380.807 59.0923 380.275 59.0923 379.584V375.286H60.6883ZM64.1401 372.64V383H62.5441V372.64H64.1401ZM70.0443 380.83C70.9403 380.055 71.6449 379.421 72.1583 378.926C72.6809 378.422 73.1149 377.899 73.4603 377.358C73.8056 376.817 73.9783 376.275 73.9783 375.734C73.9783 375.174 73.8429 374.735 73.5723 374.418C73.3109 374.101 72.8956 373.942 72.3263 373.942C71.7756 373.942 71.3463 374.119 71.0383 374.474C70.7396 374.819 70.5809 375.286 70.5623 375.874H69.0223C69.0503 374.81 69.3676 373.998 69.9743 373.438C70.5903 372.869 71.3696 372.584 72.3123 372.584C73.3296 372.584 74.1229 372.864 74.6923 373.424C75.2709 373.984 75.5603 374.731 75.5603 375.664C75.5603 376.336 75.3876 376.985 75.0423 377.61C74.7063 378.226 74.3003 378.781 73.8243 379.276C73.3576 379.761 72.7603 380.326 72.0323 380.97L71.4023 381.53H75.8403V382.86H69.0363V381.698L70.0443 380.83ZM83.4603 374.026L79.5683 383H77.9583L81.8923 374.194H76.7123V372.836H83.4603V374.026Z" fill="#154C6B"/>
<path d="M153.568 378.618H150.74V381.516H149.256V378.618H146.428V377.274H149.256V374.376H150.74V377.274H153.568V378.618ZM162.61 380.228C162.61 380.695 162.493 381.133 162.26 381.544C162.036 381.955 161.7 382.3 161.252 382.58C160.813 382.86 160.291 383.028 159.684 383.084V384.218H158.774V383.084C157.897 383 157.187 382.725 156.646 382.258C156.105 381.791 155.834 381.175 155.834 380.41H157.542C157.57 380.774 157.687 381.077 157.892 381.32C158.097 381.553 158.391 381.703 158.774 381.768V378.688C158.149 378.529 157.64 378.371 157.248 378.212C156.856 378.044 156.52 377.783 156.24 377.428C155.969 377.073 155.834 376.588 155.834 375.972C155.834 375.197 156.105 374.558 156.646 374.054C157.187 373.541 157.897 373.242 158.774 373.158V372.024H159.684V373.158C160.505 373.233 161.163 373.494 161.658 373.942C162.162 374.381 162.447 374.987 162.512 375.762H160.804C160.776 375.473 160.664 375.216 160.468 374.992C160.272 374.759 160.011 374.6 159.684 374.516V377.54C160.309 377.689 160.818 377.848 161.21 378.016C161.602 378.175 161.933 378.431 162.204 378.786C162.475 379.131 162.61 379.612 162.61 380.228ZM157.458 375.888C157.458 376.271 157.57 376.569 157.794 376.784C158.027 376.999 158.354 377.171 158.774 377.302V374.474C158.373 374.521 158.051 374.665 157.808 374.908C157.575 375.151 157.458 375.477 157.458 375.888ZM159.684 381.768C160.095 381.703 160.417 381.539 160.65 381.278C160.883 381.007 161 380.685 161 380.312C161 379.939 160.883 379.649 160.65 379.444C160.426 379.229 160.104 379.057 159.684 378.926V381.768ZM165.822 380.83C166.718 380.055 167.422 379.421 167.936 378.926C168.458 378.422 168.892 377.899 169.238 377.358C169.583 376.817 169.756 376.275 169.756 375.734C169.756 375.174 169.62 374.735 169.35 374.418C169.088 374.101 168.673 373.942 168.104 373.942C167.553 373.942 167.124 374.119 166.816 374.474C166.517 374.819 166.358 375.286 166.34 375.874H164.8C164.828 374.81 165.145 373.998 165.752 373.438C166.368 372.869 167.147 372.584 168.09 372.584C169.107 372.584 169.9 372.864 170.47 373.424C171.048 373.984 171.338 374.731 171.338 375.664C171.338 376.336 171.165 376.985 170.82 377.61C170.484 378.226 170.078 378.781 169.602 379.276C169.135 379.761 168.538 380.326 167.81 380.97L167.18 381.53H171.618V382.86H164.814V381.698L165.822 380.83ZM173.02 377.764C173.02 376.149 173.29 374.889 173.832 373.984C174.382 373.069 175.325 372.612 176.66 372.612C177.994 372.612 178.932 373.069 179.474 373.984C180.024 374.889 180.3 376.149 180.3 377.764C180.3 379.397 180.024 380.676 179.474 381.6C178.932 382.515 177.994 382.972 176.66 382.972C175.325 382.972 174.382 382.515 173.832 381.6C173.29 380.676 173.02 379.397 173.02 377.764ZM178.732 377.764C178.732 377.008 178.68 376.369 178.578 375.846C178.484 375.323 178.288 374.899 177.99 374.572C177.691 374.236 177.248 374.068 176.66 374.068C176.072 374.068 175.628 374.236 175.33 374.572C175.031 374.899 174.83 375.323 174.728 375.846C174.634 376.369 174.588 377.008 174.588 377.764C174.588 378.548 174.634 379.206 174.728 379.738C174.821 380.27 175.017 380.699 175.316 381.026C175.624 381.353 176.072 381.516 176.66 381.516C177.248 381.516 177.691 381.353 177.99 381.026C178.298 380.699 178.498 380.27 178.592 379.738C178.685 379.206 178.732 378.548 178.732 377.764ZM181.988 377.764C181.988 376.149 182.259 374.889 182.8 373.984C183.351 373.069 184.294 372.612 185.628 372.612C186.963 372.612 187.901 373.069 188.442 373.984C188.993 374.889 189.268 376.149 189.268 377.764C189.268 379.397 188.993 380.676 188.442 381.6C187.901 382.515 186.963 382.972 185.628 382.972C184.294 382.972 183.351 382.515 182.8 381.6C182.259 380.676 181.988 379.397 181.988 377.764ZM187.7 377.764C187.7 377.008 187.649 376.369 187.546 375.846C187.453 375.323 187.257 374.899 186.958 374.572C186.66 374.236 186.216 374.068 185.628 374.068C185.04 374.068 184.597 374.236 184.298 374.572C184 374.899 183.799 375.323 183.696 375.846C183.603 376.369 183.556 377.008 183.556 377.764C183.556 378.548 183.603 379.206 183.696 379.738C183.79 380.27 183.986 380.699 184.284 381.026C184.592 381.353 185.04 381.516 185.628 381.516C186.216 381.516 186.66 381.353 186.958 381.026C187.266 380.699 187.467 380.27 187.56 379.738C187.654 379.206 187.7 378.548 187.7 377.764Z" fill="#154C6B"/>
<path d="M251.768 380.228C251.768 380.695 251.652 381.133 251.418 381.544C251.194 381.955 250.858 382.3 250.41 382.58C249.972 382.86 249.449 383.028 248.842 383.084V384.218H247.932V383.084C247.055 383 246.346 382.725 245.804 382.258C245.263 381.791 244.992 381.175 244.992 380.41H246.7C246.728 380.774 246.845 381.077 247.05 381.32C247.256 381.553 247.55 381.703 247.932 381.768V378.688C247.307 378.529 246.798 378.371 246.406 378.212C246.014 378.044 245.678 377.783 245.398 377.428C245.128 377.073 244.992 376.588 244.992 375.972C244.992 375.197 245.263 374.558 245.804 374.054C246.346 373.541 247.055 373.242 247.932 373.158V372.024H248.842V373.158C249.664 373.233 250.322 373.494 250.816 373.942C251.32 374.381 251.605 374.987 251.67 375.762H249.962C249.934 375.473 249.822 375.216 249.626 374.992C249.43 374.759 249.169 374.6 248.842 374.516V377.54C249.468 377.689 249.976 377.848 250.368 378.016C250.76 378.175 251.092 378.431 251.362 378.786C251.633 379.131 251.768 379.612 251.768 380.228ZM246.616 375.888C246.616 376.271 246.728 376.569 246.952 376.784C247.186 376.999 247.512 377.171 247.932 377.302V374.474C247.531 374.521 247.209 374.665 246.966 374.908C246.733 375.151 246.616 375.477 246.616 375.888ZM248.842 381.768C249.253 381.703 249.575 381.539 249.808 381.278C250.042 381.007 250.158 380.685 250.158 380.312C250.158 379.939 250.042 379.649 249.808 379.444C249.584 379.229 249.262 379.057 248.842 378.926V381.768ZM253.888 374.25V372.794H256.8V383H255.19V374.25H253.888ZM260.952 381.082L259.258 384.946H258.222L259.216 381.082H260.952ZM264.125 380.228C264.218 380.695 264.419 381.049 264.727 381.292C265.035 381.535 265.45 381.656 265.973 381.656C266.636 381.656 267.121 381.395 267.429 380.872C267.737 380.349 267.891 379.458 267.891 378.198C267.667 378.515 267.35 378.763 266.939 378.94C266.538 379.108 266.099 379.192 265.623 379.192C265.016 379.192 264.466 379.071 263.971 378.828C263.476 378.576 263.084 378.207 262.795 377.722C262.515 377.227 262.375 376.63 262.375 375.93C262.375 374.903 262.674 374.087 263.271 373.48C263.878 372.864 264.708 372.556 265.763 372.556C267.032 372.556 267.933 372.981 268.465 373.83C269.006 374.67 269.277 375.963 269.277 377.708C269.277 378.912 269.174 379.897 268.969 380.662C268.773 381.427 268.428 382.006 267.933 382.398C267.438 382.79 266.752 382.986 265.875 382.986C264.876 382.986 264.106 382.725 263.565 382.202C263.024 381.679 262.72 381.021 262.655 380.228H264.125ZM265.903 377.848C266.463 377.848 266.902 377.675 267.219 377.33C267.546 376.975 267.709 376.509 267.709 375.93C267.709 375.286 267.536 374.787 267.191 374.432C266.855 374.068 266.393 373.886 265.805 373.886C265.217 373.886 264.75 374.073 264.405 374.446C264.069 374.81 263.901 375.291 263.901 375.888C263.901 376.457 264.064 376.929 264.391 377.302C264.727 377.666 265.231 377.848 265.903 377.848ZM277.492 374.026L273.6 383H271.99L275.924 374.194H270.744V372.836H277.492V374.026ZM284.346 375.16C284.243 374.731 284.056 374.409 283.786 374.194C283.515 373.979 283.137 373.872 282.652 373.872C281.914 373.872 281.364 374.157 281 374.726C280.636 375.286 280.444 376.219 280.426 377.526C280.668 377.115 281.023 376.798 281.49 376.574C281.956 376.35 282.46 376.238 283.002 376.238C283.618 376.238 284.159 376.373 284.626 376.644C285.102 376.905 285.47 377.288 285.732 377.792C286.002 378.296 286.138 378.898 286.138 379.598C286.138 380.251 286.007 380.835 285.746 381.348C285.494 381.861 285.116 382.267 284.612 382.566C284.108 382.855 283.501 383 282.792 383C281.83 383 281.074 382.79 280.524 382.37C279.982 381.941 279.6 381.339 279.376 380.564C279.161 379.789 279.054 378.823 279.054 377.666C279.054 374.25 280.258 372.542 282.666 372.542C283.599 372.542 284.332 372.794 284.864 373.298C285.405 373.802 285.722 374.423 285.816 375.16H284.346ZM282.652 377.582C282.082 377.582 281.597 377.755 281.196 378.1C280.804 378.436 280.608 378.926 280.608 379.57C280.608 380.214 280.79 380.727 281.154 381.11C281.527 381.483 282.045 381.67 282.708 381.67C283.296 381.67 283.758 381.488 284.094 381.124C284.439 380.76 284.612 380.275 284.612 379.668C284.612 379.033 284.444 378.529 284.108 378.156C283.781 377.773 283.296 377.582 282.652 377.582Z" fill="#154C6B"/>
<path d="M51.356 422.27V429.284C51.356 430.152 51.09 430.838 50.558 431.342C50.0353 431.846 49.3447 432.098 48.486 432.098C47.6273 432.098 46.932 431.846 46.4 431.342C45.8773 430.838 45.616 430.152 45.616 429.284H47.226C47.2353 429.713 47.3427 430.054 47.548 430.306C47.7627 430.558 48.0753 430.684 48.486 430.684C48.8967 430.684 49.2093 430.558 49.424 430.306C49.6387 430.045 49.746 429.704 49.746 429.284V422.27H51.356ZM60.6883 424.286V432H59.0923V431.09C58.8403 431.407 58.509 431.659 58.0983 431.846C57.697 432.023 57.2677 432.112 56.8103 432.112C56.2037 432.112 55.6577 431.986 55.1723 431.734C54.6963 431.482 54.3183 431.109 54.0383 430.614C53.7677 430.119 53.6323 429.522 53.6323 428.822V424.286H55.2143V428.584C55.2143 429.275 55.387 429.807 55.7323 430.18C56.0777 430.544 56.549 430.726 57.1463 430.726C57.7437 430.726 58.215 430.544 58.5603 430.18C58.915 429.807 59.0923 429.275 59.0923 428.584V424.286H60.6883ZM66.4361 424.16C67.0428 424.16 67.5841 424.286 68.0601 424.538C68.5455 424.79 68.9235 425.163 69.1941 425.658C69.4648 426.153 69.6001 426.75 69.6001 427.45V432H68.0181V427.688C68.0181 426.997 67.8455 426.47 67.5001 426.106C67.1548 425.733 66.6835 425.546 66.0861 425.546C65.4888 425.546 65.0128 425.733 64.6581 426.106C64.3128 426.47 64.1401 426.997 64.1401 427.688V432H62.5441V424.286H64.1401V425.168C64.4015 424.851 64.7328 424.603 65.1341 424.426C65.5448 424.249 65.9788 424.16 66.4361 424.16ZM75.4447 429.83C76.3407 429.055 77.0453 428.421 77.5587 427.926C78.0813 427.422 78.5153 426.899 78.8607 426.358C79.206 425.817 79.3787 425.275 79.3787 424.734C79.3787 424.174 79.2433 423.735 78.9727 423.418C78.7113 423.101 78.296 422.942 77.7267 422.942C77.176 422.942 76.7467 423.119 76.4387 423.474C76.14 423.819 75.9813 424.286 75.9627 424.874H74.4227C74.4507 423.81 74.768 422.998 75.3747 422.438C75.9907 421.869 76.77 421.584 77.7127 421.584C78.73 421.584 79.5233 421.864 80.0927 422.424C80.6713 422.984 80.9607 423.731 80.9607 424.664C80.9607 425.336 80.788 425.985 80.4427 426.61C80.1067 427.226 79.7007 427.781 79.2247 428.276C78.758 428.761 78.1607 429.326 77.4327 429.97L76.8027 430.53H81.2407V431.86H74.4367V430.698L75.4447 429.83ZM88.8607 423.026L84.9687 432H83.3587L87.2927 423.194H82.1127V421.836H88.8607V423.026Z" fill="#154C6B"/>
<path d="M153.568 427.618H150.74V430.516H149.256V427.618H146.428V426.274H149.256V423.376H150.74V426.274H153.568V427.618ZM162.61 429.228C162.61 429.695 162.493 430.133 162.26 430.544C162.036 430.955 161.7 431.3 161.252 431.58C160.813 431.86 160.291 432.028 159.684 432.084V433.218H158.774V432.084C157.897 432 157.187 431.725 156.646 431.258C156.105 430.791 155.834 430.175 155.834 429.41H157.542C157.57 429.774 157.687 430.077 157.892 430.32C158.097 430.553 158.391 430.703 158.774 430.768V427.688C158.149 427.529 157.64 427.371 157.248 427.212C156.856 427.044 156.52 426.783 156.24 426.428C155.969 426.073 155.834 425.588 155.834 424.972C155.834 424.197 156.105 423.558 156.646 423.054C157.187 422.541 157.897 422.242 158.774 422.158V421.024H159.684V422.158C160.505 422.233 161.163 422.494 161.658 422.942C162.162 423.381 162.447 423.987 162.512 424.762H160.804C160.776 424.473 160.664 424.216 160.468 423.992C160.272 423.759 160.011 423.6 159.684 423.516V426.54C160.309 426.689 160.818 426.848 161.21 427.016C161.602 427.175 161.933 427.431 162.204 427.786C162.475 428.131 162.61 428.612 162.61 429.228ZM157.458 424.888C157.458 425.271 157.57 425.569 157.794 425.784C158.027 425.999 158.354 426.171 158.774 426.302V423.474C158.373 423.521 158.051 423.665 157.808 423.908C157.575 424.151 157.458 424.477 157.458 424.888ZM159.684 430.768C160.095 430.703 160.417 430.539 160.65 430.278C160.883 430.007 161 429.685 161 429.312C161 428.939 160.883 428.649 160.65 428.444C160.426 428.229 160.104 428.057 159.684 427.926V430.768ZM165.822 429.83C166.718 429.055 167.422 428.421 167.936 427.926C168.458 427.422 168.892 426.899 169.238 426.358C169.583 425.817 169.756 425.275 169.756 424.734C169.756 424.174 169.62 423.735 169.35 423.418C169.088 423.101 168.673 422.942 168.104 422.942C167.553 422.942 167.124 423.119 166.816 423.474C166.517 423.819 166.358 424.286 166.34 424.874H164.8C164.828 423.81 165.145 422.998 165.752 422.438C166.368 421.869 167.147 421.584 168.09 421.584C169.107 421.584 169.9 421.864 170.47 422.424C171.048 422.984 171.338 423.731 171.338 424.664C171.338 425.336 171.165 425.985 170.82 426.61C170.484 427.226 170.078 427.781 169.602 428.276C169.135 428.761 168.538 429.326 167.81 429.97L167.18 430.53H171.618V431.86H164.814V430.698L165.822 429.83ZM173.02 426.764C173.02 425.149 173.29 423.889 173.832 422.984C174.382 422.069 175.325 421.612 176.66 421.612C177.994 421.612 178.932 422.069 179.474 422.984C180.024 423.889 180.3 425.149 180.3 426.764C180.3 428.397 180.024 429.676 179.474 430.6C178.932 431.515 177.994 431.972 176.66 431.972C175.325 431.972 174.382 431.515 173.832 430.6C173.29 429.676 173.02 428.397 173.02 426.764ZM178.732 426.764C178.732 426.008 178.68 425.369 178.578 424.846C178.484 424.323 178.288 423.899 177.99 423.572C177.691 423.236 177.248 423.068 176.66 423.068C176.072 423.068 175.628 423.236 175.33 423.572C175.031 423.899 174.83 424.323 174.728 424.846C174.634 425.369 174.588 426.008 174.588 426.764C174.588 427.548 174.634 428.206 174.728 428.738C174.821 429.27 175.017 429.699 175.316 430.026C175.624 430.353 176.072 430.516 176.66 430.516C177.248 430.516 177.691 430.353 177.99 430.026C178.298 429.699 178.498 429.27 178.592 428.738C178.685 428.206 178.732 427.548 178.732 426.764ZM181.988 426.764C181.988 425.149 182.259 423.889 182.8 422.984C183.351 422.069 184.294 421.612 185.628 421.612C186.963 421.612 187.901 422.069 188.442 422.984C188.993 423.889 189.268 425.149 189.268 426.764C189.268 428.397 188.993 429.676 188.442 430.6C187.901 431.515 186.963 431.972 185.628 431.972C184.294 431.972 183.351 431.515 182.8 430.6C182.259 429.676 181.988 428.397 181.988 426.764ZM187.7 426.764C187.7 426.008 187.649 425.369 187.546 424.846C187.453 424.323 187.257 423.899 186.958 423.572C186.66 423.236 186.216 423.068 185.628 423.068C185.04 423.068 184.597 423.236 184.298 423.572C184 423.899 183.799 424.323 183.696 424.846C183.603 425.369 183.556 426.008 183.556 426.764C183.556 427.548 183.603 428.206 183.696 428.738C183.79 429.27 183.986 429.699 184.284 430.026C184.592 430.353 185.04 430.516 185.628 430.516C186.216 430.516 186.66 430.353 186.958 430.026C187.266 429.699 187.467 429.27 187.56 428.738C187.654 428.206 187.7 427.548 187.7 426.764Z" fill="#154C6B"/>
<path d="M251.821 429.228C251.821 429.695 251.704 430.133 251.471 430.544C251.247 430.955 250.911 431.3 250.463 431.58C250.024 431.86 249.502 432.028 248.895 432.084V433.218H247.985V432.084C247.108 432 246.398 431.725 245.857 431.258C245.316 430.791 245.045 430.175 245.045 429.41H246.753C246.781 429.774 246.898 430.077 247.103 430.32C247.308 430.553 247.602 430.703 247.985 430.768V427.688C247.36 427.529 246.851 427.371 246.459 427.212C246.067 427.044 245.731 426.783 245.451 426.428C245.18 426.073 245.045 425.588 245.045 424.972C245.045 424.197 245.316 423.558 245.857 423.054C246.398 422.541 247.108 422.242 247.985 422.158V421.024H248.895V422.158C249.716 422.233 250.374 422.494 250.869 422.942C251.373 423.381 251.658 423.987 251.723 424.762H250.015C249.987 424.473 249.875 424.216 249.679 423.992C249.483 423.759 249.222 423.6 248.895 423.516V426.54C249.52 426.689 250.029 426.848 250.421 427.016C250.813 427.175 251.144 427.431 251.415 427.786C251.686 428.131 251.821 428.612 251.821 429.228ZM246.669 424.888C246.669 425.271 246.781 425.569 247.005 425.784C247.238 425.999 247.565 426.171 247.985 426.302V423.474C247.584 423.521 247.262 423.665 247.019 423.908C246.786 424.151 246.669 424.477 246.669 424.888ZM248.895 430.768C249.306 430.703 249.628 430.539 249.861 430.278C250.094 430.007 250.211 429.685 250.211 429.312C250.211 428.939 250.094 428.649 249.861 428.444C249.637 428.229 249.315 428.057 248.895 427.926V430.768ZM253.941 423.25V421.794H256.853V432H255.243V423.25H253.941ZM261.005 430.082L259.311 433.946H258.275L259.269 430.082H261.005ZM268.658 423.026L264.766 432H263.156L267.09 423.194H261.91V421.836H268.658V423.026ZM276.492 423.026L272.6 432H270.99L274.924 423.194H269.744V421.836H276.492V423.026ZM283.346 424.16C283.243 423.731 283.056 423.409 282.786 423.194C282.515 422.979 282.137 422.872 281.652 422.872C280.914 422.872 280.364 423.157 280 423.726C279.636 424.286 279.444 425.219 279.426 426.526C279.668 426.115 280.023 425.798 280.49 425.574C280.956 425.35 281.46 425.238 282.002 425.238C282.618 425.238 283.159 425.373 283.626 425.644C284.102 425.905 284.47 426.288 284.732 426.792C285.002 427.296 285.138 427.898 285.138 428.598C285.138 429.251 285.007 429.835 284.746 430.348C284.494 430.861 284.116 431.267 283.612 431.566C283.108 431.855 282.501 432 281.792 432C280.83 432 280.074 431.79 279.524 431.37C278.982 430.941 278.6 430.339 278.376 429.564C278.161 428.789 278.054 427.823 278.054 426.666C278.054 423.25 279.258 421.542 281.666 421.542C282.599 421.542 283.332 421.794 283.864 422.298C284.405 422.802 284.722 423.423 284.816 424.16H283.346ZM281.652 426.582C281.082 426.582 280.597 426.755 280.196 427.1C279.804 427.436 279.608 427.926 279.608 428.57C279.608 429.214 279.79 429.727 280.154 430.11C280.527 430.483 281.045 430.67 281.708 430.67C282.296 430.67 282.758 430.488 283.094 430.124C283.439 429.76 283.612 429.275 283.612 428.668C283.612 428.033 283.444 427.529 283.108 427.156C282.781 426.773 282.296 426.582 281.652 426.582Z" fill="#154C6B"/>
<path d="M56.298 471.27V481H54.702V474.336L51.734 481H50.628L47.646 474.336V481H46.05V471.27H47.772L51.188 478.9L54.59 471.27H56.298ZM57.6137 477.108C57.6137 476.333 57.7724 475.647 58.0897 475.05C58.4164 474.453 58.855 473.991 59.4057 473.664C59.9657 473.328 60.5817 473.16 61.2537 473.16C61.8604 473.16 62.3877 473.281 62.8357 473.524C63.293 473.757 63.657 474.051 63.9277 474.406V473.286H65.5377V481H63.9277V479.852C63.657 480.216 63.2884 480.519 62.8217 480.762C62.355 481.005 61.823 481.126 61.2257 481.126C60.563 481.126 59.9564 480.958 59.4057 480.622C58.855 480.277 58.4164 479.801 58.0897 479.194C57.7724 478.578 57.6137 477.883 57.6137 477.108ZM63.9277 477.136C63.9277 476.604 63.8157 476.142 63.5917 475.75C63.377 475.358 63.0924 475.059 62.7377 474.854C62.383 474.649 62.0004 474.546 61.5897 474.546C61.179 474.546 60.7964 474.649 60.4417 474.854C60.087 475.05 59.7977 475.344 59.5737 475.736C59.359 476.119 59.2517 476.576 59.2517 477.108C59.2517 477.64 59.359 478.107 59.5737 478.508C59.7977 478.909 60.087 479.217 60.4417 479.432C60.8057 479.637 61.1884 479.74 61.5897 479.74C62.0004 479.74 62.383 479.637 62.7377 479.432C63.0924 479.227 63.377 478.928 63.5917 478.536C63.8157 478.135 63.9277 477.668 63.9277 477.136ZM74.328 473.286L69.596 484.626H67.944L69.512 480.874L66.474 473.286H68.252L70.422 479.166L72.676 473.286H74.328ZM79.3411 478.83C80.2371 478.055 80.9418 477.421 81.4551 476.926C81.9778 476.422 82.4118 475.899 82.7571 475.358C83.1025 474.817 83.2751 474.275 83.2751 473.734C83.2751 473.174 83.1398 472.735 82.8691 472.418C82.6078 472.101 82.1925 471.942 81.6231 471.942C81.0725 471.942 80.6431 472.119 80.3351 472.474C80.0365 472.819 79.8778 473.286 79.8591 473.874H78.3191C78.3471 472.81 78.6645 471.998 79.2711 471.438C79.8871 470.869 80.6665 470.584 81.6091 470.584C82.6265 470.584 83.4198 470.864 83.9891 471.424C84.5678 471.984 84.8571 472.731 84.8571 473.664C84.8571 474.336 84.6845 474.985 84.3391 475.61C84.0031 476.226 83.5971 476.781 83.1211 477.276C82.6545 477.761 82.0571 478.326 81.3291 478.97L80.6991 479.53H85.1371V480.86H78.3331V479.698L79.3411 478.83ZM92.7572 472.026L88.8652 481H87.2552L91.1892 472.194H86.0092V470.836H92.7572V472.026Z" fill="#154C6B"/>
<path d="M155.568 476.618H152.74V479.516H151.256V476.618H148.428V475.274H151.256V472.376H152.74V475.274H155.568V476.618ZM164.61 478.228C164.61 478.695 164.493 479.133 164.26 479.544C164.036 479.955 163.7 480.3 163.252 480.58C162.813 480.86 162.291 481.028 161.684 481.084V482.218H160.774V481.084C159.897 481 159.187 480.725 158.646 480.258C158.105 479.791 157.834 479.175 157.834 478.41H159.542C159.57 478.774 159.687 479.077 159.892 479.32C160.097 479.553 160.391 479.703 160.774 479.768V476.688C160.149 476.529 159.64 476.371 159.248 476.212C158.856 476.044 158.52 475.783 158.24 475.428C157.969 475.073 157.834 474.588 157.834 473.972C157.834 473.197 158.105 472.558 158.646 472.054C159.187 471.541 159.897 471.242 160.774 471.158V470.024H161.684V471.158C162.505 471.233 163.163 471.494 163.658 471.942C164.162 472.381 164.447 472.987 164.512 473.762H162.804C162.776 473.473 162.664 473.216 162.468 472.992C162.272 472.759 162.011 472.6 161.684 472.516V475.54C162.309 475.689 162.818 475.848 163.21 476.016C163.602 476.175 163.933 476.431 164.204 476.786C164.475 477.131 164.61 477.612 164.61 478.228ZM159.458 473.888C159.458 474.271 159.57 474.569 159.794 474.784C160.027 474.999 160.354 475.171 160.774 475.302V472.474C160.373 472.521 160.051 472.665 159.808 472.908C159.575 473.151 159.458 473.477 159.458 473.888ZM161.684 479.768C162.095 479.703 162.417 479.539 162.65 479.278C162.883 479.007 163 478.685 163 478.312C163 477.939 162.883 477.649 162.65 477.444C162.426 477.229 162.104 477.057 161.684 476.926V479.768ZM167.822 478.83C168.718 478.055 169.422 477.421 169.936 476.926C170.458 476.422 170.892 475.899 171.238 475.358C171.583 474.817 171.756 474.275 171.756 473.734C171.756 473.174 171.62 472.735 171.35 472.418C171.088 472.101 170.673 471.942 170.104 471.942C169.553 471.942 169.124 472.119 168.816 472.474C168.517 472.819 168.358 473.286 168.34 473.874H166.8C166.828 472.81 167.145 471.998 167.752 471.438C168.368 470.869 169.147 470.584 170.09 470.584C171.107 470.584 171.9 470.864 172.47 471.424C173.048 471.984 173.338 472.731 173.338 473.664C173.338 474.336 173.165 474.985 172.82 475.61C172.484 476.226 172.078 476.781 171.602 477.276C171.135 477.761 170.538 478.326 169.81 478.97L169.18 479.53H173.618V480.86H166.814V479.698L167.822 478.83ZM175.02 475.764C175.02 474.149 175.29 472.889 175.832 471.984C176.382 471.069 177.325 470.612 178.66 470.612C179.994 470.612 180.932 471.069 181.474 471.984C182.024 472.889 182.3 474.149 182.3 475.764C182.3 477.397 182.024 478.676 181.474 479.6C180.932 480.515 179.994 480.972 178.66 480.972C177.325 480.972 176.382 480.515 175.832 479.6C175.29 478.676 175.02 477.397 175.02 475.764ZM180.732 475.764C180.732 475.008 180.68 474.369 180.578 473.846C180.484 473.323 180.288 472.899 179.99 472.572C179.691 472.236 179.248 472.068 178.66 472.068C178.072 472.068 177.628 472.236 177.33 472.572C177.031 472.899 176.83 473.323 176.728 473.846C176.634 474.369 176.588 475.008 176.588 475.764C176.588 476.548 176.634 477.206 176.728 477.738C176.821 478.27 177.017 478.699 177.316 479.026C177.624 479.353 178.072 479.516 178.66 479.516C179.248 479.516 179.691 479.353 179.99 479.026C180.298 478.699 180.498 478.27 180.592 477.738C180.685 477.206 180.732 476.548 180.732 475.764ZM183.988 475.764C183.988 474.149 184.259 472.889 184.8 471.984C185.351 471.069 186.294 470.612 187.628 470.612C188.963 470.612 189.901 471.069 190.442 471.984C190.993 472.889 191.268 474.149 191.268 475.764C191.268 477.397 190.993 478.676 190.442 479.6C189.901 480.515 188.963 480.972 187.628 480.972C186.294 480.972 185.351 480.515 184.8 479.6C184.259 478.676 183.988 477.397 183.988 475.764ZM189.7 475.764C189.7 475.008 189.649 474.369 189.546 473.846C189.453 473.323 189.257 472.899 188.958 472.572C188.66 472.236 188.216 472.068 187.628 472.068C187.04 472.068 186.597 472.236 186.298 472.572C186 472.899 185.799 473.323 185.696 473.846C185.603 474.369 185.556 475.008 185.556 475.764C185.556 476.548 185.603 477.206 185.696 477.738C185.79 478.27 185.986 478.699 186.284 479.026C186.592 479.353 187.04 479.516 187.628 479.516C188.216 479.516 188.66 479.353 188.958 479.026C189.266 478.699 189.467 478.27 189.56 477.738C189.654 477.206 189.7 476.548 189.7 475.764Z" fill="#154C6B"/>
<path d="M253.714 478.228C253.714 478.695 253.597 479.133 253.364 479.544C253.14 479.955 252.804 480.3 252.356 480.58C251.917 480.86 251.394 481.028 250.788 481.084V482.218H249.878V481.084C249 481 248.291 480.725 247.75 480.258C247.208 479.791 246.938 479.175 246.938 478.41H248.646C248.674 478.774 248.79 479.077 248.996 479.32C249.201 479.553 249.495 479.703 249.878 479.768V476.688C249.252 476.529 248.744 476.371 248.352 476.212C247.96 476.044 247.624 475.783 247.344 475.428C247.073 475.073 246.938 474.588 246.938 473.972C246.938 473.197 247.208 472.558 247.75 472.054C248.291 471.541 249 471.242 249.878 471.158V470.024H250.788V471.158C251.609 471.233 252.267 471.494 252.762 471.942C253.266 472.381 253.55 472.987 253.616 473.762H251.908C251.88 473.473 251.768 473.216 251.572 472.992C251.376 472.759 251.114 472.6 250.788 472.516V475.54C251.413 475.689 251.922 475.848 252.314 476.016C252.706 476.175 253.037 476.431 253.308 476.786C253.578 477.131 253.714 477.612 253.714 478.228ZM248.562 473.888C248.562 474.271 248.674 474.569 248.898 474.784C249.131 474.999 249.458 475.171 249.878 475.302V472.474C249.476 472.521 249.154 472.665 248.912 472.908C248.678 473.151 248.562 473.477 248.562 473.888ZM250.788 479.768C251.198 479.703 251.52 479.539 251.754 479.278C251.987 479.007 252.104 478.685 252.104 478.312C252.104 477.939 251.987 477.649 251.754 477.444C251.53 477.229 251.208 477.057 250.788 476.926V479.768ZM255.833 472.25V470.794H258.745V481H257.135V472.25H255.833ZM262.898 479.082L261.204 482.946H260.168L261.162 479.082H262.898ZM270.662 472.166H265.972V474.952C266.168 474.691 266.458 474.471 266.84 474.294C267.232 474.117 267.648 474.028 268.086 474.028C268.87 474.028 269.505 474.196 269.99 474.532C270.485 474.868 270.835 475.293 271.04 475.806C271.255 476.319 271.362 476.861 271.362 477.43C271.362 478.121 271.227 478.737 270.956 479.278C270.695 479.81 270.298 480.23 269.766 480.538C269.244 480.846 268.6 481 267.834 481C266.817 481 266 480.748 265.384 480.244C264.768 479.74 264.4 479.073 264.278 478.242H265.832C265.935 478.681 266.164 479.031 266.518 479.292C266.873 479.544 267.316 479.67 267.848 479.67C268.511 479.67 269.006 479.469 269.332 479.068C269.668 478.667 269.836 478.135 269.836 477.472C269.836 476.8 269.668 476.287 269.332 475.932C268.996 475.568 268.502 475.386 267.848 475.386C267.391 475.386 267.004 475.503 266.686 475.736C266.378 475.96 266.154 476.268 266.014 476.66H264.502V470.766H270.662V472.166ZM279.492 472.026L275.6 481H273.99L277.924 472.194H272.744V470.836H279.492V472.026ZM286.346 473.16C286.243 472.731 286.056 472.409 285.786 472.194C285.515 471.979 285.137 471.872 284.652 471.872C283.914 471.872 283.364 472.157 283 472.726C282.636 473.286 282.444 474.219 282.426 475.526C282.668 475.115 283.023 474.798 283.49 474.574C283.956 474.35 284.46 474.238 285.002 474.238C285.618 474.238 286.159 474.373 286.626 474.644C287.102 474.905 287.47 475.288 287.732 475.792C288.002 476.296 288.138 476.898 288.138 477.598C288.138 478.251 288.007 478.835 287.746 479.348C287.494 479.861 287.116 480.267 286.612 480.566C286.108 480.855 285.501 481 284.792 481C283.83 481 283.074 480.79 282.524 480.37C281.982 479.941 281.6 479.339 281.376 478.564C281.161 477.789 281.054 476.823 281.054 475.666C281.054 472.25 282.258 470.542 284.666 470.542C285.599 470.542 286.332 470.794 286.864 471.298C287.405 471.802 287.722 472.423 287.816 473.16H286.346ZM284.652 475.582C284.082 475.582 283.597 475.755 283.196 476.1C282.804 476.436 282.608 476.926 282.608 477.57C282.608 478.214 282.79 478.727 283.154 479.11C283.527 479.483 284.045 479.67 284.708 479.67C285.296 479.67 285.758 479.488 286.094 479.124C286.439 478.76 286.612 478.275 286.612 477.668C286.612 477.033 286.444 476.529 286.108 476.156C285.781 475.773 285.296 475.582 284.652 475.582Z" fill="#154C6B"/>
<path d="M51.916 528.012H47.842L47.142 530H45.476L48.962 520.256H50.81L54.296 530H52.616L51.916 528.012ZM51.468 526.71L49.886 522.188L48.29 526.71H51.468ZM57.1577 523.42C57.4284 523.065 57.7971 522.767 58.2637 522.524C58.7304 522.281 59.2577 522.16 59.8457 522.16C60.5177 522.16 61.1291 522.328 61.6797 522.664C62.2397 522.991 62.6784 523.453 62.9957 524.05C63.3131 524.647 63.4717 525.333 63.4717 526.108C63.4717 526.883 63.3131 527.578 62.9957 528.194C62.6784 528.801 62.2397 529.277 61.6797 529.622C61.1291 529.958 60.5177 530.126 59.8457 530.126C59.2577 530.126 58.7351 530.009 58.2777 529.776C57.8204 529.533 57.4471 529.235 57.1577 528.88V533.668H55.5617V522.286H57.1577V523.42ZM61.8477 526.108C61.8477 525.576 61.7357 525.119 61.5117 524.736C61.2971 524.344 61.0077 524.05 60.6437 523.854C60.2891 523.649 59.9064 523.546 59.4957 523.546C59.0944 523.546 58.7117 523.649 58.3477 523.854C57.9931 524.059 57.7037 524.358 57.4797 524.75C57.2651 525.142 57.1577 525.604 57.1577 526.136C57.1577 526.668 57.2651 527.135 57.4797 527.536C57.7037 527.928 57.9931 528.227 58.3477 528.432C58.7117 528.637 59.0944 528.74 59.4957 528.74C59.9064 528.74 60.2891 528.637 60.6437 528.432C61.0077 528.217 61.2971 527.909 61.5117 527.508C61.7357 527.107 61.8477 526.64 61.8477 526.108ZM66.396 523.406C66.6293 523.014 66.9373 522.711 67.32 522.496C67.712 522.272 68.174 522.16 68.706 522.16V523.812H68.3C67.6747 523.812 67.1987 523.971 66.872 524.288C66.5547 524.605 66.396 525.156 66.396 525.94V530H64.8V522.286H66.396V523.406ZM73.9818 527.83C74.8778 527.055 75.5824 526.421 76.0958 525.926C76.6184 525.422 77.0524 524.899 77.3978 524.358C77.7431 523.817 77.9158 523.275 77.9158 522.734C77.9158 522.174 77.7804 521.735 77.5098 521.418C77.2484 521.101 76.8331 520.942 76.2638 520.942C75.7131 520.942 75.2838 521.119 74.9758 521.474C74.6771 521.819 74.5184 522.286 74.4998 522.874H72.9598C72.9878 521.81 73.3051 520.998 73.9118 520.438C74.5278 519.869 75.3071 519.584 76.2498 519.584C77.2671 519.584 78.0604 519.864 78.6298 520.424C79.2084 520.984 79.4978 521.731 79.4978 522.664C79.4978 523.336 79.3251 523.985 78.9798 524.61C78.6438 525.226 78.2378 525.781 77.7618 526.276C77.2951 526.761 76.6978 527.326 75.9698 527.97L75.3398 528.53H79.7778V529.86H72.9738V528.698L73.9818 527.83ZM87.3978 521.026L83.5058 530H81.8958L85.8298 521.194H80.6498V519.836H87.3978V521.026Z" fill="#154C6B"/>
<path d="M153.568 525.618H150.74V528.516H149.256V525.618H146.428V524.274H149.256V521.376H150.74V524.274H153.568V525.618ZM162.61 527.228C162.61 527.695 162.493 528.133 162.26 528.544C162.036 528.955 161.7 529.3 161.252 529.58C160.813 529.86 160.291 530.028 159.684 530.084V531.218H158.774V530.084C157.897 530 157.187 529.725 156.646 529.258C156.105 528.791 155.834 528.175 155.834 527.41H157.542C157.57 527.774 157.687 528.077 157.892 528.32C158.097 528.553 158.391 528.703 158.774 528.768V525.688C158.149 525.529 157.64 525.371 157.248 525.212C156.856 525.044 156.52 524.783 156.24 524.428C155.969 524.073 155.834 523.588 155.834 522.972C155.834 522.197 156.105 521.558 156.646 521.054C157.187 520.541 157.897 520.242 158.774 520.158V519.024H159.684V520.158C160.505 520.233 161.163 520.494 161.658 520.942C162.162 521.381 162.447 521.987 162.512 522.762H160.804C160.776 522.473 160.664 522.216 160.468 521.992C160.272 521.759 160.011 521.6 159.684 521.516V524.54C160.309 524.689 160.818 524.848 161.21 525.016C161.602 525.175 161.933 525.431 162.204 525.786C162.475 526.131 162.61 526.612 162.61 527.228ZM157.458 522.888C157.458 523.271 157.57 523.569 157.794 523.784C158.027 523.999 158.354 524.171 158.774 524.302V521.474C158.373 521.521 158.051 521.665 157.808 521.908C157.575 522.151 157.458 522.477 157.458 522.888ZM159.684 528.768C160.095 528.703 160.417 528.539 160.65 528.278C160.883 528.007 161 527.685 161 527.312C161 526.939 160.883 526.649 160.65 526.444C160.426 526.229 160.104 526.057 159.684 525.926V528.768ZM165.822 527.83C166.718 527.055 167.422 526.421 167.936 525.926C168.458 525.422 168.892 524.899 169.238 524.358C169.583 523.817 169.756 523.275 169.756 522.734C169.756 522.174 169.62 521.735 169.35 521.418C169.088 521.101 168.673 520.942 168.104 520.942C167.553 520.942 167.124 521.119 166.816 521.474C166.517 521.819 166.358 522.286 166.34 522.874H164.8C164.828 521.81 165.145 520.998 165.752 520.438C166.368 519.869 167.147 519.584 168.09 519.584C169.107 519.584 169.9 519.864 170.47 520.424C171.048 520.984 171.338 521.731 171.338 522.664C171.338 523.336 171.165 523.985 170.82 524.61C170.484 525.226 170.078 525.781 169.602 526.276C169.135 526.761 168.538 527.326 167.81 527.97L167.18 528.53H171.618V529.86H164.814V528.698L165.822 527.83ZM173.02 524.764C173.02 523.149 173.29 521.889 173.832 520.984C174.382 520.069 175.325 519.612 176.66 519.612C177.994 519.612 178.932 520.069 179.474 520.984C180.024 521.889 180.3 523.149 180.3 524.764C180.3 526.397 180.024 527.676 179.474 528.6C178.932 529.515 177.994 529.972 176.66 529.972C175.325 529.972 174.382 529.515 173.832 528.6C173.29 527.676 173.02 526.397 173.02 524.764ZM178.732 524.764C178.732 524.008 178.68 523.369 178.578 522.846C178.484 522.323 178.288 521.899 177.99 521.572C177.691 521.236 177.248 521.068 176.66 521.068C176.072 521.068 175.628 521.236 175.33 521.572C175.031 521.899 174.83 522.323 174.728 522.846C174.634 523.369 174.588 524.008 174.588 524.764C174.588 525.548 174.634 526.206 174.728 526.738C174.821 527.27 175.017 527.699 175.316 528.026C175.624 528.353 176.072 528.516 176.66 528.516C177.248 528.516 177.691 528.353 177.99 528.026C178.298 527.699 178.498 527.27 178.592 526.738C178.685 526.206 178.732 525.548 178.732 524.764ZM181.988 524.764C181.988 523.149 182.259 521.889 182.8 520.984C183.351 520.069 184.294 519.612 185.628 519.612C186.963 519.612 187.901 520.069 188.442 520.984C188.993 521.889 189.268 523.149 189.268 524.764C189.268 526.397 188.993 527.676 188.442 528.6C187.901 529.515 186.963 529.972 185.628 529.972C184.294 529.972 183.351 529.515 182.8 528.6C182.259 527.676 181.988 526.397 181.988 524.764ZM187.7 524.764C187.7 524.008 187.649 523.369 187.546 522.846C187.453 522.323 187.257 521.899 186.958 521.572C186.66 521.236 186.216 521.068 185.628 521.068C185.04 521.068 184.597 521.236 184.298 521.572C184 521.899 183.799 522.323 183.696 522.846C183.603 523.369 183.556 524.008 183.556 524.764C183.556 525.548 183.603 526.206 183.696 526.738C183.79 527.27 183.986 527.699 184.284 528.026C184.592 528.353 185.04 528.516 185.628 528.516C186.216 528.516 186.66 528.353 186.958 528.026C187.266 527.699 187.467 527.27 187.56 526.738C187.654 526.206 187.7 525.548 187.7 524.764Z" fill="#154C6B"/>
<path d="M252.343 527.228C252.343 527.695 252.226 528.133 251.993 528.544C251.769 528.955 251.433 529.3 250.985 529.58C250.546 529.86 250.023 530.028 249.417 530.084V531.218H248.507V530.084C247.629 530 246.92 529.725 246.379 529.258C245.837 528.791 245.567 528.175 245.567 527.41H247.275C247.303 527.774 247.419 528.077 247.625 528.32C247.83 528.553 248.124 528.703 248.507 528.768V525.688C247.881 525.529 247.373 525.371 246.981 525.212C246.589 525.044 246.253 524.783 245.973 524.428C245.702 524.073 245.567 523.588 245.567 522.972C245.567 522.197 245.837 521.558 246.379 521.054C246.92 520.541 247.629 520.242 248.507 520.158V519.024H249.417V520.158C250.238 520.233 250.896 520.494 251.391 520.942C251.895 521.381 252.179 521.987 252.245 522.762H250.537C250.509 522.473 250.397 522.216 250.201 521.992C250.005 521.759 249.743 521.6 249.417 521.516V524.54C250.042 524.689 250.551 524.848 250.943 525.016C251.335 525.175 251.666 525.431 251.937 525.786C252.207 526.131 252.343 526.612 252.343 527.228ZM247.191 522.888C247.191 523.271 247.303 523.569 247.527 523.784C247.76 523.999 248.087 524.171 248.507 524.302V521.474C248.105 521.521 247.783 521.665 247.541 521.908C247.307 522.151 247.191 522.477 247.191 522.888ZM249.417 528.768C249.827 528.703 250.149 528.539 250.383 528.278C250.616 528.007 250.733 527.685 250.733 527.312C250.733 526.939 250.616 526.649 250.383 526.444C250.159 526.229 249.837 526.057 249.417 525.926V528.768ZM254.462 521.25V519.794H257.374V530H255.764V521.25H254.462ZM261.527 528.082L259.833 531.946H258.797L259.791 528.082H261.527ZM262.683 522.314C262.739 521.446 263.07 520.769 263.677 520.284C264.293 519.799 265.077 519.556 266.029 519.556C266.682 519.556 267.247 519.673 267.723 519.906C268.199 520.139 268.558 520.457 268.801 520.858C269.044 521.259 269.165 521.712 269.165 522.216C269.165 522.795 269.011 523.289 268.703 523.7C268.395 524.111 268.026 524.386 267.597 524.526V524.582C268.148 524.75 268.577 525.058 268.885 525.506C269.193 525.945 269.347 526.509 269.347 527.2C269.347 527.751 269.221 528.241 268.969 528.67C268.717 529.099 268.344 529.44 267.849 529.692C267.354 529.935 266.762 530.056 266.071 530.056C265.063 530.056 264.232 529.799 263.579 529.286C262.935 528.763 262.59 528.017 262.543 527.046H264.083C264.12 527.541 264.312 527.947 264.657 528.264C265.002 528.572 265.469 528.726 266.057 528.726C266.626 528.726 267.065 528.572 267.373 528.264C267.681 527.947 267.835 527.541 267.835 527.046C267.835 526.393 267.625 525.931 267.205 525.66C266.794 525.38 266.16 525.24 265.301 525.24H264.937V523.924H265.315C266.071 523.915 266.645 523.789 267.037 523.546C267.438 523.303 267.639 522.921 267.639 522.398C267.639 521.95 267.494 521.595 267.205 521.334C266.916 521.063 266.505 520.928 265.973 520.928C265.45 520.928 265.044 521.063 264.755 521.334C264.466 521.595 264.293 521.922 264.237 522.314H262.683ZM277.492 521.026L273.6 530H271.99L275.924 521.194H270.744V519.836H277.492V521.026ZM284.346 522.16C284.243 521.731 284.056 521.409 283.786 521.194C283.515 520.979 283.137 520.872 282.652 520.872C281.914 520.872 281.364 521.157 281 521.726C280.636 522.286 280.444 523.219 280.426 524.526C280.668 524.115 281.023 523.798 281.49 523.574C281.956 523.35 282.46 523.238 283.002 523.238C283.618 523.238 284.159 523.373 284.626 523.644C285.102 523.905 285.47 524.288 285.732 524.792C286.002 525.296 286.138 525.898 286.138 526.598C286.138 527.251 286.007 527.835 285.746 528.348C285.494 528.861 285.116 529.267 284.612 529.566C284.108 529.855 283.501 530 282.792 530C281.83 530 281.074 529.79 280.524 529.37C279.982 528.941 279.6 528.339 279.376 527.564C279.161 526.789 279.054 525.823 279.054 524.666C279.054 521.25 280.258 519.542 282.666 519.542C283.599 519.542 284.332 519.794 284.864 520.298C285.405 520.802 285.722 521.423 285.816 522.16H284.346ZM282.652 524.582C282.082 524.582 281.597 524.755 281.196 525.1C280.804 525.436 280.608 525.926 280.608 526.57C280.608 527.214 280.79 527.727 281.154 528.11C281.527 528.483 282.045 528.67 282.708 528.67C283.296 528.67 283.758 528.488 284.094 528.124C284.439 527.76 284.612 527.275 284.612 526.668C284.612 526.033 284.444 525.529 284.108 525.156C283.781 524.773 283.296 524.582 282.652 524.582Z" fill="#154C6B"/>
<path d="M56.298 569.27V579H54.702V572.336L51.734 579H50.628L47.646 572.336V579H46.05V569.27H47.772L51.188 576.9L54.59 569.27H56.298ZM57.6137 575.108C57.6137 574.333 57.7724 573.647 58.0897 573.05C58.4164 572.453 58.855 571.991 59.4057 571.664C59.9657 571.328 60.5817 571.16 61.2537 571.16C61.8604 571.16 62.3877 571.281 62.8357 571.524C63.293 571.757 63.657 572.051 63.9277 572.406V571.286H65.5377V579H63.9277V577.852C63.657 578.216 63.2884 578.519 62.8217 578.762C62.355 579.005 61.823 579.126 61.2257 579.126C60.563 579.126 59.9564 578.958 59.4057 578.622C58.855 578.277 58.4164 577.801 58.0897 577.194C57.7724 576.578 57.6137 575.883 57.6137 575.108ZM63.9277 575.136C63.9277 574.604 63.8157 574.142 63.5917 573.75C63.377 573.358 63.0924 573.059 62.7377 572.854C62.383 572.649 62.0004 572.546 61.5897 572.546C61.179 572.546 60.7964 572.649 60.4417 572.854C60.087 573.05 59.7977 573.344 59.5737 573.736C59.359 574.119 59.2517 574.576 59.2517 575.108C59.2517 575.64 59.359 576.107 59.5737 576.508C59.7977 576.909 60.087 577.217 60.4417 577.432C60.8057 577.637 61.1884 577.74 61.5897 577.74C62.0004 577.74 62.383 577.637 62.7377 577.432C63.0924 577.227 63.377 576.928 63.5917 576.536C63.8157 576.135 63.9277 575.668 63.9277 575.136ZM68.98 572.406C69.2133 572.014 69.5213 571.711 69.904 571.496C70.296 571.272 70.758 571.16 71.29 571.16V572.812H70.884C70.2587 572.812 69.7827 572.971 69.456 573.288C69.1387 573.605 68.98 574.156 68.98 574.94V579H67.384V571.286H68.98V572.406ZM76.5658 576.83C77.4618 576.055 78.1664 575.421 78.6798 574.926C79.2024 574.422 79.6364 573.899 79.9818 573.358C80.3271 572.817 80.4998 572.275 80.4998 571.734C80.4998 571.174 80.3644 570.735 80.0938 570.418C79.8324 570.101 79.4171 569.942 78.8478 569.942C78.2971 569.942 77.8678 570.119 77.5598 570.474C77.2611 570.819 77.1024 571.286 77.0838 571.874H75.5438C75.5718 570.81 75.8891 569.998 76.4958 569.438C77.1118 568.869 77.8911 568.584 78.8338 568.584C79.8511 568.584 80.6444 568.864 81.2138 569.424C81.7924 569.984 82.0818 570.731 82.0818 571.664C82.0818 572.336 81.9091 572.985 81.5638 573.61C81.2278 574.226 80.8218 574.781 80.3458 575.276C79.8791 575.761 79.2818 576.326 78.5538 576.97L77.9238 577.53H82.3618V578.86H75.5578V577.698L76.5658 576.83ZM89.9818 570.026L86.0898 579H84.4798L88.4138 570.194H83.2338V568.836H89.9818V570.026Z" fill="#154C6B"/>
<path d="M153.568 574.618H150.74V577.516H149.256V574.618H146.428V573.274H149.256V570.376H150.74V573.274H153.568V574.618ZM162.61 576.228C162.61 576.695 162.493 577.133 162.26 577.544C162.036 577.955 161.7 578.3 161.252 578.58C160.813 578.86 160.291 579.028 159.684 579.084V580.218H158.774V579.084C157.897 579 157.187 578.725 156.646 578.258C156.105 577.791 155.834 577.175 155.834 576.41H157.542C157.57 576.774 157.687 577.077 157.892 577.32C158.097 577.553 158.391 577.703 158.774 577.768V574.688C158.149 574.529 157.64 574.371 157.248 574.212C156.856 574.044 156.52 573.783 156.24 573.428C155.969 573.073 155.834 572.588 155.834 571.972C155.834 571.197 156.105 570.558 156.646 570.054C157.187 569.541 157.897 569.242 158.774 569.158V568.024H159.684V569.158C160.505 569.233 161.163 569.494 161.658 569.942C162.162 570.381 162.447 570.987 162.512 571.762H160.804C160.776 571.473 160.664 571.216 160.468 570.992C160.272 570.759 160.011 570.6 159.684 570.516V573.54C160.309 573.689 160.818 573.848 161.21 574.016C161.602 574.175 161.933 574.431 162.204 574.786C162.475 575.131 162.61 575.612 162.61 576.228ZM157.458 571.888C157.458 572.271 157.57 572.569 157.794 572.784C158.027 572.999 158.354 573.171 158.774 573.302V570.474C158.373 570.521 158.051 570.665 157.808 570.908C157.575 571.151 157.458 571.477 157.458 571.888ZM159.684 577.768C160.095 577.703 160.417 577.539 160.65 577.278C160.883 577.007 161 576.685 161 576.312C161 575.939 160.883 575.649 160.65 575.444C160.426 575.229 160.104 575.057 159.684 574.926V577.768ZM165.822 576.83C166.718 576.055 167.422 575.421 167.936 574.926C168.458 574.422 168.892 573.899 169.238 573.358C169.583 572.817 169.756 572.275 169.756 571.734C169.756 571.174 169.62 570.735 169.35 570.418C169.088 570.101 168.673 569.942 168.104 569.942C167.553 569.942 167.124 570.119 166.816 570.474C166.517 570.819 166.358 571.286 166.34 571.874H164.8C164.828 570.81 165.145 569.998 165.752 569.438C166.368 568.869 167.147 568.584 168.09 568.584C169.107 568.584 169.9 568.864 170.47 569.424C171.048 569.984 171.338 570.731 171.338 571.664C171.338 572.336 171.165 572.985 170.82 573.61C170.484 574.226 170.078 574.781 169.602 575.276C169.135 575.761 168.538 576.326 167.81 576.97L167.18 577.53H171.618V578.86H164.814V577.698L165.822 576.83ZM173.02 573.764C173.02 572.149 173.29 570.889 173.832 569.984C174.382 569.069 175.325 568.612 176.66 568.612C177.994 568.612 178.932 569.069 179.474 569.984C180.024 570.889 180.3 572.149 180.3 573.764C180.3 575.397 180.024 576.676 179.474 577.6C178.932 578.515 177.994 578.972 176.66 578.972C175.325 578.972 174.382 578.515 173.832 577.6C173.29 576.676 173.02 575.397 173.02 573.764ZM178.732 573.764C178.732 573.008 178.68 572.369 178.578 571.846C178.484 571.323 178.288 570.899 177.99 570.572C177.691 570.236 177.248 570.068 176.66 570.068C176.072 570.068 175.628 570.236 175.33 570.572C175.031 570.899 174.83 571.323 174.728 571.846C174.634 572.369 174.588 573.008 174.588 573.764C174.588 574.548 174.634 575.206 174.728 575.738C174.821 576.27 175.017 576.699 175.316 577.026C175.624 577.353 176.072 577.516 176.66 577.516C177.248 577.516 177.691 577.353 177.99 577.026C178.298 576.699 178.498 576.27 178.592 575.738C178.685 575.206 178.732 574.548 178.732 573.764ZM181.988 573.764C181.988 572.149 182.259 570.889 182.8 569.984C183.351 569.069 184.294 568.612 185.628 568.612C186.963 568.612 187.901 569.069 188.442 569.984C188.993 570.889 189.268 572.149 189.268 573.764C189.268 575.397 188.993 576.676 188.442 577.6C187.901 578.515 186.963 578.972 185.628 578.972C184.294 578.972 183.351 578.515 182.8 577.6C182.259 576.676 181.988 575.397 181.988 573.764ZM187.7 573.764C187.7 573.008 187.649 572.369 187.546 571.846C187.453 571.323 187.257 570.899 186.958 570.572C186.66 570.236 186.216 570.068 185.628 570.068C185.04 570.068 184.597 570.236 184.298 570.572C184 570.899 183.799 571.323 183.696 571.846C183.603 572.369 183.556 573.008 183.556 573.764C183.556 574.548 183.603 575.206 183.696 575.738C183.79 576.27 183.986 576.699 184.284 577.026C184.592 577.353 185.04 577.516 185.628 577.516C186.216 577.516 186.66 577.353 186.958 577.026C187.266 576.699 187.467 576.27 187.56 575.738C187.654 575.206 187.7 574.548 187.7 573.764Z" fill="#154C6B"/>
<path d="M251.761 576.228C251.761 576.695 251.644 577.133 251.411 577.544C251.187 577.955 250.851 578.3 250.403 578.58C249.964 578.86 249.441 579.028 248.835 579.084V580.218H247.925V579.084C247.047 579 246.338 578.725 245.797 578.258C245.255 577.791 244.985 577.175 244.985 576.41H246.693C246.721 576.774 246.837 577.077 247.043 577.32C247.248 577.553 247.542 577.703 247.925 577.768V574.688C247.299 574.529 246.791 574.371 246.399 574.212C246.007 574.044 245.671 573.783 245.391 573.428C245.12 573.073 244.985 572.588 244.985 571.972C244.985 571.197 245.255 570.558 245.797 570.054C246.338 569.541 247.047 569.242 247.925 569.158V568.024H248.835V569.158C249.656 569.233 250.314 569.494 250.809 569.942C251.313 570.381 251.597 570.987 251.663 571.762H249.955C249.927 571.473 249.815 571.216 249.619 570.992C249.423 570.759 249.161 570.6 248.835 570.516V573.54C249.46 573.689 249.969 573.848 250.361 574.016C250.753 574.175 251.084 574.431 251.355 574.786C251.625 575.131 251.761 575.612 251.761 576.228ZM246.609 571.888C246.609 572.271 246.721 572.569 246.945 572.784C247.178 572.999 247.505 573.171 247.925 573.302V570.474C247.523 570.521 247.201 570.665 246.959 570.908C246.725 571.151 246.609 571.477 246.609 571.888ZM248.835 577.768C249.245 577.703 249.567 577.539 249.801 577.278C250.034 577.007 250.151 576.685 250.151 576.312C250.151 575.939 250.034 575.649 249.801 575.444C249.577 575.229 249.255 575.057 248.835 574.926V577.768ZM253.88 570.25V568.794H256.792V579H255.182V570.25H253.88ZM260.945 577.082L259.251 580.946H258.215L259.209 577.082H260.945ZM261.919 570.25V568.794H264.831V579H263.221V570.25H261.919ZM273.492 570.026L269.6 579H267.99L271.924 570.194H266.744V568.836H273.492V570.026ZM280.346 571.16C280.243 570.731 280.056 570.409 279.786 570.194C279.515 569.979 279.137 569.872 278.652 569.872C277.914 569.872 277.364 570.157 277 570.726C276.636 571.286 276.444 572.219 276.426 573.526C276.668 573.115 277.023 572.798 277.49 572.574C277.956 572.35 278.46 572.238 279.002 572.238C279.618 572.238 280.159 572.373 280.626 572.644C281.102 572.905 281.47 573.288 281.732 573.792C282.002 574.296 282.138 574.898 282.138 575.598C282.138 576.251 282.007 576.835 281.746 577.348C281.494 577.861 281.116 578.267 280.612 578.566C280.108 578.855 279.501 579 278.792 579C277.83 579 277.074 578.79 276.524 578.37C275.982 577.941 275.6 577.339 275.376 576.564C275.161 575.789 275.054 574.823 275.054 573.666C275.054 570.25 276.258 568.542 278.666 568.542C279.599 568.542 280.332 568.794 280.864 569.298C281.405 569.802 281.722 570.423 281.816 571.16H280.346ZM278.652 573.582C278.082 573.582 277.597 573.755 277.196 574.1C276.804 574.436 276.608 574.926 276.608 575.57C276.608 576.214 276.79 576.727 277.154 577.11C277.527 577.483 278.045 577.67 278.708 577.67C279.296 577.67 279.758 577.488 280.094 577.124C280.439 576.76 280.612 576.275 280.612 575.668C280.612 575.033 280.444 574.529 280.108 574.156C279.781 573.773 279.296 573.582 278.652 573.582Z" fill="#154C6B"/>
<line x1="18" y1="228.5" x2="96" y2="228.5" stroke="#154C6B"/>
<line x1="125" y1="228.5" x2="189" y2="228.5" stroke="#154C6B"/>
<line x1="215" y1="228.5" x2="317" y2="228.5" stroke="#154C6B"/>
<rect x="321" y="316" width="3" height="38" rx="1.5" fill="#154C6B"/>
</g>
<rect x="0.5" y="0.5" width="334" height="594" rx="19.5" stroke="#DDECF5"/>
<defs>
<clipPath id="clip0_117:15858">
</clipPath>
</defs>
</svg>
