<svg width="375" height="301" viewBox="0 0 375 301" fill="none" xmlns="http://www.w3.org/2000/svg">
<path fill-rule="evenodd" clip-rule="evenodd" d="M0.00610352 115.036L0 45.0325C0 20.8198 19.8206 1 44.0339 1H79.6221C81.6592 1 83.3145 2.65527 83.3145 4.69238V4.71362C83.3145 18.8677 94.9011 30.4539 109.056 30.4539H253.211C267.366 30.4539 278.953 18.8677 278.953 4.71362C278.953 2.67651 280.608 1.02124 282.645 1.02124H330.881C355.094 1.04248 374.915 20.8411 374.915 45.0537L374.924 118.901C372.065 219.957 289.247 301 187.5 301C84.459 301 0.831543 217.882 0.00610352 115.036Z" fill="white"/>
<rect x="278.826" y="173.446" width="5.3574" height="15.0007" rx="2.6787" fill="#939EA7"/>
<rect x="291.33" y="173.447" width="5.3574" height="15.0007" rx="2.6787" fill="#939EA7"/>
<rect x="303.832" y="173.447" width="5.3574" height="15.0007" rx="2.6787" fill="#939EA7"/>
<path d="M311.802 169.006H276.214C276.198 169.006 276.187 169.005 276.182 169.004C276.179 169.004 276.177 169.003 276.176 169.003C276.172 168.999 276.162 168.986 276.155 168.963C276.148 168.94 276.149 168.924 276.15 168.919C276.151 168.918 276.152 168.916 276.154 168.914C276.158 168.91 276.166 168.904 276.179 168.895L293.973 156.722C293.994 156.708 294.021 156.708 294.042 156.722L311.836 168.895C311.849 168.904 311.857 168.91 311.861 168.914C311.863 168.916 311.864 168.918 311.865 168.919C311.866 168.924 311.867 168.94 311.86 168.963C311.853 168.986 311.843 168.999 311.839 169.003C311.838 169.003 311.836 169.004 311.833 169.004C311.831 169.005 311.829 169.005 311.825 169.005C311.819 169.006 311.812 169.006 311.802 169.006ZM276.15 168.916L276.15 168.916L276.15 168.916Z" fill="#CED7DC" stroke="#CED7DC" stroke-width="3.21444" stroke-linejoin="round"/>
<path d="M275.966 192.899H311.795" stroke="#CED7DC" stroke-width="3.21444" stroke-linecap="round" stroke-linejoin="round"/>
<path d="M283.786 212.716C284.234 212.796 284.614 213.032 284.926 213.424C285.238 213.816 285.394 214.26 285.394 214.756C285.394 215.18 285.282 215.564 285.058 215.908C284.842 216.244 284.526 216.512 284.11 216.712C283.694 216.904 283.21 217 282.658 217H279.322V208.66H282.502C283.07 208.66 283.558 208.756 283.966 208.948C284.374 209.14 284.682 209.4 284.89 209.728C285.098 210.048 285.202 210.408 285.202 210.808C285.202 211.288 285.074 211.688 284.818 212.008C284.562 212.328 284.218 212.564 283.786 212.716ZM280.69 212.164H282.382C282.83 212.164 283.178 212.064 283.426 211.864C283.682 211.656 283.81 211.36 283.81 210.976C283.81 210.6 283.682 210.308 283.426 210.1C283.178 209.884 282.83 209.776 282.382 209.776H280.69V212.164ZM282.538 215.884C283.002 215.884 283.366 215.772 283.63 215.548C283.894 215.324 284.026 215.012 284.026 214.612C284.026 214.204 283.886 213.88 283.606 213.64C283.326 213.4 282.954 213.28 282.49 213.28H280.69V215.884H282.538ZM291.908 215.296H288.416L287.816 217H286.388L289.376 208.648H290.96L293.948 217H292.508L291.908 215.296ZM291.524 214.18L290.168 210.304L288.8 214.18H291.524ZM302.1 217H300.732L296.616 210.772V217H295.248V208.648H296.616L300.732 214.864V208.648H302.1V217ZM308.492 217L305.264 213.268V217H303.896V208.66H305.264V212.464L308.504 208.66H310.22L306.596 212.836L310.28 217H308.492Z" fill="#154C6B"/>
<path d="M60.0093 217.084C59.4493 217.084 58.9453 216.988 58.4973 216.796C58.0493 216.596 57.6973 216.316 57.4413 215.956C57.1853 215.596 57.0573 215.176 57.0573 214.696H58.5213C58.5533 215.056 58.6933 215.352 58.9413 215.584C59.1973 215.816 59.5533 215.932 60.0093 215.932C60.4813 215.932 60.8493 215.82 61.1133 215.596C61.3773 215.364 61.5093 215.068 61.5093 214.708C61.5093 214.428 61.4253 214.2 61.2573 214.024C61.0973 213.848 60.8933 213.712 60.6453 213.616C60.4053 213.52 60.0693 213.416 59.6373 213.304C59.0933 213.16 58.6493 213.016 58.3053 212.872C57.9693 212.72 57.6813 212.488 57.4413 212.176C57.2013 211.864 57.0813 211.448 57.0813 210.928C57.0813 210.448 57.2013 210.028 57.4413 209.668C57.6813 209.308 58.0173 209.032 58.4493 208.84C58.8813 208.648 59.3813 208.552 59.9493 208.552C60.7573 208.552 61.4173 208.756 61.9293 209.164C62.4493 209.564 62.7373 210.116 62.7933 210.82H61.2813C61.2573 210.516 61.1133 210.256 60.8493 210.04C60.5853 209.824 60.2373 209.716 59.8053 209.716C59.4133 209.716 59.0933 209.816 58.8453 210.016C58.5973 210.216 58.4733 210.504 58.4733 210.88C58.4733 211.136 58.5493 211.348 58.7013 211.516C58.8613 211.676 59.0613 211.804 59.3013 211.9C59.5413 211.996 59.8693 212.1 60.2853 212.212C60.8373 212.364 61.2853 212.516 61.6293 212.668C61.9813 212.82 62.2773 213.056 62.5173 213.376C62.7653 213.688 62.8893 214.108 62.8893 214.636C62.8893 215.06 62.7733 215.46 62.5413 215.836C62.3173 216.212 61.9853 216.516 61.5453 216.748C61.1133 216.972 60.6013 217.084 60.0093 217.084ZM69.5315 215.296H66.0395L65.4395 217H64.0115L66.9995 208.648H68.5835L71.5715 217H70.1315L69.5315 215.296ZM69.1475 214.18L67.7915 210.304L66.4235 214.18H69.1475ZM80.0587 208.66L76.9267 217H75.3427L72.1987 208.66H73.6627L76.1347 215.596L78.6187 208.66H80.0587ZM82.5707 208.66V217H81.2027V208.66H82.5707ZM91.2188 217H89.8508L85.7348 210.772V217H84.3668V208.648H85.7348L89.8508 214.864V208.648H91.2188V217ZM99.0512 211.06C98.8352 210.644 98.5352 210.332 98.1512 210.124C97.7672 209.908 97.3232 209.8 96.8192 209.8C96.2672 209.8 95.7752 209.924 95.3432 210.172C94.9112 210.42 94.5712 210.772 94.3232 211.228C94.0832 211.684 93.9632 212.212 93.9632 212.812C93.9632 213.412 94.0832 213.944 94.3232 214.408C94.5712 214.864 94.9112 215.216 95.3432 215.464C95.7752 215.712 96.2672 215.836 96.8192 215.836C97.5632 215.836 98.1672 215.628 98.6312 215.212C99.0952 214.796 99.3792 214.232 99.4832 213.52H96.3512V212.428H100.947V213.496C100.859 214.144 100.627 214.74 100.251 215.284C99.8832 215.828 99.3992 216.264 98.7992 216.592C98.2072 216.912 97.5472 217.072 96.8192 217.072C96.0352 217.072 95.3192 216.892 94.6712 216.532C94.0232 216.164 93.5072 215.656 93.1232 215.008C92.7472 214.36 92.5592 213.628 92.5592 212.812C92.5592 211.996 92.7472 211.264 93.1232 210.616C93.5072 209.968 94.0232 209.464 94.6712 209.104C95.3272 208.736 96.0432 208.552 96.8192 208.552C97.7072 208.552 98.4952 208.772 99.1832 209.212C99.8792 209.644 100.383 210.26 100.695 211.06H99.0512ZM105.044 217.084C104.484 217.084 103.98 216.988 103.532 216.796C103.084 216.596 102.732 216.316 102.476 215.956C102.22 215.596 102.092 215.176 102.092 214.696H103.556C103.588 215.056 103.728 215.352 103.976 215.584C104.232 215.816 104.588 215.932 105.044 215.932C105.516 215.932 105.884 215.82 106.148 215.596C106.412 215.364 106.544 215.068 106.544 214.708C106.544 214.428 106.46 214.2 106.292 214.024C106.132 213.848 105.928 213.712 105.68 213.616C105.44 213.52 105.104 213.416 104.672 213.304C104.128 213.16 103.684 213.016 103.34 212.872C103.004 212.72 102.716 212.488 102.476 212.176C102.236 211.864 102.116 211.448 102.116 210.928C102.116 210.448 102.236 210.028 102.476 209.668C102.716 209.308 103.052 209.032 103.484 208.84C103.916 208.648 104.416 208.552 104.984 208.552C105.792 208.552 106.452 208.756 106.964 209.164C107.484 209.564 107.772 210.116 107.828 210.82H106.316C106.292 210.516 106.148 210.256 105.884 210.04C105.62 209.824 105.272 209.716 104.84 209.716C104.448 209.716 104.128 209.816 103.88 210.016C103.632 210.216 103.508 210.504 103.508 210.88C103.508 211.136 103.584 211.348 103.736 211.516C103.896 211.676 104.096 211.804 104.336 211.9C104.576 211.996 104.904 212.1 105.32 212.212C105.872 212.364 106.32 212.516 106.664 212.668C107.016 212.82 107.312 213.056 107.552 213.376C107.8 213.688 107.924 214.108 107.924 214.636C107.924 215.06 107.808 215.46 107.576 215.836C107.352 216.212 107.02 216.516 106.58 216.748C106.148 216.972 105.636 217.084 105.044 217.084Z" fill="#154C6B"/>
<path d="M72.0653 159.943C65.1675 159.496 61.8981 166.297 61.7699 168.816C61.5989 172.172 64.0071 182.439 65.3532 187.445C66.0192 189.921 66.0857 192.366 68.5005 192.45C71.7789 192.565 72.7571 192.469 72.8519 192.45C73.2023 192.45 75.2191 192.21 75.2191 189.9C75.2191 189.063 75.4949 188.213 76.2574 188.213H81.3557C81.7416 188.213 83.2819 188.132 83.2819 190.111C83.3045 190.696 83.2537 192.366 85.6685 192.45C88.9469 192.565 89.9252 192.469 90.02 192.45C90.3692 192.45 92.0137 192.532 92.5555 189.958L95.2674 180.866L97.8216 180.002C97.8216 180.002 101.126 178.919 101.752 178.386C102.378 177.852 102.226 172.782 102.226 172.782C102.226 172.782 102.365 169.103 100.944 168.099C99.522 167.096 97.5128 167.599 97.2486 167.247C96.779 166.621 91.1933 161.135 91.1933 161.135C91.1933 161.135 91.9653 157.804 92.3175 157.153C92.6696 156.503 91.9653 155.339 90.042 155.514C88.1187 155.69 85.5453 156.842 83.6084 159.496C82.2325 161.382 78.9631 160.389 72.0653 159.943Z" fill="#FFD5CC"/>
<path d="M76.2574 188.213C77.0199 188.213 81.3557 188.213 81.3557 188.213M76.2574 188.213C75.4949 188.213 75.2191 189.063 75.2191 189.9C75.2191 192.21 73.2023 192.45 72.8519 192.45C72.7571 192.469 71.7789 192.565 68.5005 192.45C66.0857 192.366 66.0192 189.921 65.3532 187.445C64.0071 182.439 61.5989 172.172 61.7699 168.816C61.8981 166.297 65.1675 159.496 72.0653 159.943C78.9631 160.389 82.2325 161.382 83.6084 159.496C85.5453 156.842 88.1187 155.69 90.042 155.514C91.9653 155.339 92.6696 156.503 92.3175 157.153C91.9653 157.804 91.1933 161.135 91.1933 161.135C91.1933 161.135 96.779 166.621 97.2486 167.247C97.5128 167.599 99.522 167.096 100.944 168.099C102.365 169.103 102.226 172.782 102.226 172.782C102.226 172.782 102.378 177.852 101.752 178.386C101.126 178.919 97.8216 180.002 97.8216 180.002L95.2674 180.866L92.5555 189.958M76.2574 188.213H81.3557M81.3557 188.213C81.7416 188.213 83.2819 188.132 83.2819 190.111C83.3045 190.696 83.2537 192.366 85.6685 192.45C88.9469 192.565 89.9252 192.469 90.02 192.45C90.3692 192.45 92.0137 192.532 92.5555 189.958M92.3872 190.522L92.5555 189.958M92.5606 189.933C92.5589 189.941 92.5572 189.95 92.5555 189.958" stroke="#FFD5CC" stroke-width="3.75018" stroke-linecap="round" stroke-linejoin="round"/>
<path d="M74.9272 167.03H81.6087M90.0695 170.784V170.936" stroke="#5F5F5F" stroke-width="4.28592" stroke-linecap="round" stroke-linejoin="round"/>
<path d="M155.659 264.66V265.776H153.439V273H152.071V265.776H149.839V264.66H155.659ZM161.377 273L159.457 269.664H158.413V273H157.045V264.66H159.925C160.565 264.66 161.105 264.772 161.545 264.996C161.993 265.22 162.325 265.52 162.541 265.896C162.765 266.272 162.877 266.692 162.877 267.156C162.877 267.7 162.717 268.196 162.397 268.644C162.085 269.084 161.601 269.384 160.945 269.544L163.009 273H161.377ZM158.413 268.572H159.925C160.437 268.572 160.821 268.444 161.077 268.188C161.341 267.932 161.473 267.588 161.473 267.156C161.473 266.724 161.345 266.388 161.089 266.148C160.833 265.9 160.445 265.776 159.925 265.776H158.413V268.572ZM169.655 271.296H166.163L165.563 273H164.135L167.123 264.648H168.707L171.695 273H170.255L169.655 271.296ZM169.271 270.18L167.915 266.304L166.547 270.18H169.271ZM179.846 273H178.478L174.362 266.772V273H172.994V264.648H174.362L178.478 270.864V264.648H179.846V273ZM184.39 273.084C183.83 273.084 183.326 272.988 182.878 272.796C182.43 272.596 182.078 272.316 181.822 271.956C181.566 271.596 181.438 271.176 181.438 270.696H182.902C182.934 271.056 183.074 271.352 183.322 271.584C183.578 271.816 183.934 271.932 184.39 271.932C184.862 271.932 185.23 271.82 185.494 271.596C185.758 271.364 185.89 271.068 185.89 270.708C185.89 270.428 185.806 270.2 185.638 270.024C185.478 269.848 185.274 269.712 185.026 269.616C184.786 269.52 184.45 269.416 184.018 269.304C183.474 269.16 183.03 269.016 182.686 268.872C182.35 268.72 182.062 268.488 181.822 268.176C181.582 267.864 181.462 267.448 181.462 266.928C181.462 266.448 181.582 266.028 181.822 265.668C182.062 265.308 182.398 265.032 182.83 264.84C183.262 264.648 183.762 264.552 184.33 264.552C185.138 264.552 185.798 264.756 186.31 265.164C186.83 265.564 187.118 266.116 187.174 266.82H185.662C185.638 266.516 185.494 266.256 185.23 266.04C184.966 265.824 184.618 265.716 184.186 265.716C183.794 265.716 183.474 265.816 183.226 266.016C182.978 266.216 182.854 266.504 182.854 266.88C182.854 267.136 182.93 267.348 183.082 267.516C183.242 267.676 183.442 267.804 183.682 267.9C183.922 267.996 184.25 268.1 184.666 268.212C185.218 268.364 185.666 268.516 186.01 268.668C186.362 268.82 186.658 269.056 186.898 269.376C187.146 269.688 187.27 270.108 187.27 270.636C187.27 271.06 187.154 271.46 186.922 271.836C186.698 272.212 186.366 272.516 185.926 272.748C185.494 272.972 184.982 273.084 184.39 273.084ZM193.912 271.296H190.42L189.82 273H188.392L191.38 264.648H192.964L195.952 273H194.512L193.912 271.296ZM193.528 270.18L192.172 266.304L190.804 270.18H193.528ZM196.796 268.812C196.796 267.996 196.984 267.264 197.36 266.616C197.744 265.968 198.26 265.464 198.908 265.104C199.564 264.736 200.28 264.552 201.056 264.552C201.944 264.552 202.732 264.772 203.42 265.212C204.116 265.644 204.62 266.26 204.932 267.06H203.288C203.072 266.62 202.772 266.292 202.388 266.076C202.004 265.86 201.56 265.752 201.056 265.752C200.504 265.752 200.012 265.876 199.58 266.124C199.148 266.372 198.808 266.728 198.56 267.192C198.32 267.656 198.2 268.196 198.2 268.812C198.2 269.428 198.32 269.968 198.56 270.432C198.808 270.896 199.148 271.256 199.58 271.512C200.012 271.76 200.504 271.884 201.056 271.884C201.56 271.884 202.004 271.776 202.388 271.56C202.772 271.344 203.072 271.016 203.288 270.576H204.932C204.62 271.376 204.116 271.992 203.42 272.424C202.732 272.856 201.944 273.072 201.056 273.072C200.272 273.072 199.556 272.892 198.908 272.532C198.26 272.164 197.744 271.656 197.36 271.008C196.984 270.36 196.796 269.628 196.796 268.812ZM211.921 264.66V265.776H209.701V273H208.333V265.776H206.101V264.66H211.921ZM214.674 264.66V273H213.306V264.66H214.674ZM220.274 273.084C219.498 273.084 218.782 272.904 218.126 272.544C217.478 272.176 216.962 271.668 216.578 271.02C216.202 270.364 216.014 269.628 216.014 268.812C216.014 267.996 216.202 267.264 216.578 266.616C216.962 265.968 217.478 265.464 218.126 265.104C218.782 264.736 219.498 264.552 220.274 264.552C221.058 264.552 221.774 264.736 222.422 265.104C223.078 265.464 223.594 265.968 223.97 266.616C224.346 267.264 224.534 267.996 224.534 268.812C224.534 269.628 224.346 270.364 223.97 271.02C223.594 271.668 223.078 272.176 222.422 272.544C221.774 272.904 221.058 273.084 220.274 273.084ZM220.274 271.896C220.826 271.896 221.318 271.772 221.75 271.524C222.182 271.268 222.518 270.908 222.758 270.444C223.006 269.972 223.13 269.428 223.13 268.812C223.13 268.196 223.006 267.656 222.758 267.192C222.518 266.728 222.182 266.372 221.75 266.124C221.318 265.876 220.826 265.752 220.274 265.752C219.722 265.752 219.23 265.876 218.798 266.124C218.366 266.372 218.026 266.728 217.778 267.192C217.538 267.656 217.418 268.196 217.418 268.812C217.418 269.428 217.538 269.972 217.778 270.444C218.026 270.908 218.366 271.268 218.798 271.524C219.23 271.772 219.722 271.896 220.274 271.896ZM232.732 273H231.364L227.248 266.772V273H225.88V264.648H227.248L231.364 270.864V264.648H232.732V273Z" fill="#154C6B"/>
<path d="M166.161 243.367C166.161 244.327 166.802 244.987 167.781 244.987H214.227C215.206 244.987 215.847 244.327 215.847 243.367V215.172C215.847 214.192 215.206 213.552 214.227 213.552H167.781C166.802 213.552 166.161 214.192 166.161 215.172V243.367ZM169.909 240.692V217.846C169.909 217.469 170.079 217.3 170.455 217.3H211.571C211.948 217.3 212.099 217.469 212.099 217.846V240.692C212.099 241.069 211.948 241.22 211.571 241.22H170.455C170.079 241.22 169.909 241.069 169.909 240.692ZM171.755 238.395C171.755 239.035 172.113 239.393 172.734 239.393H209.292C209.914 239.393 210.272 239.035 210.272 238.395V220.144C210.272 219.503 209.914 219.146 209.292 219.146H172.734C172.113 219.146 171.755 219.503 171.755 220.144V238.395ZM173.751 237.001V221.538C173.751 221.274 173.883 221.142 174.147 221.142H186.616C185.033 222.894 184.016 225.7 184.016 229.241C184.016 232.801 185.033 235.626 186.634 237.396H174.147C173.883 237.396 173.751 237.246 173.751 237.001ZM198.01 229.241C198.01 225.7 196.993 222.894 195.355 221.142H207.88C208.125 221.142 208.275 221.274 208.275 221.538V237.001C208.275 237.246 208.125 237.396 207.88 237.396H195.336C196.975 235.626 198.01 232.801 198.01 229.241ZM190.929 237.02C188.424 237.02 186.295 234.025 186.295 229.241C186.295 224.495 188.424 221.519 190.929 221.519C193.547 221.519 195.731 224.495 195.731 229.241C195.731 234.025 193.547 237.02 190.929 237.02Z" fill="#B2C59F"/>
<path fill-rule="evenodd" clip-rule="evenodd" d="M169.909 240.692V217.846C169.909 217.469 170.079 217.3 170.455 217.3H211.571C211.948 217.3 212.099 217.469 212.099 217.846V240.692C212.099 241.069 211.948 241.22 211.571 241.22H170.455C170.079 241.22 169.909 241.069 169.909 240.692ZM172.734 239.393C172.113 239.393 171.755 239.035 171.755 238.395V220.144C171.755 219.503 172.113 219.146 172.734 219.146H209.292C209.914 219.146 210.272 219.503 210.272 220.144V238.395C210.272 239.035 209.914 239.393 209.292 239.393H172.734Z" fill="#B2C59F"/>
<path d="M173.751 237.001V221.538C173.751 221.274 173.883 221.142 174.147 221.142H186.616C185.033 222.894 184.016 225.7 184.016 229.241C184.016 232.801 185.033 235.626 186.634 237.396H174.147C173.883 237.396 173.751 237.246 173.751 237.001Z" fill="#B2C59F"/>
<path d="M198.01 229.241C198.01 225.7 196.993 222.894 195.355 221.142H207.88C208.125 221.142 208.275 221.274 208.275 221.538V237.001C208.275 237.246 208.125 237.396 207.88 237.396H195.336C196.975 235.626 198.01 232.801 198.01 229.241Z" fill="#B2C59F"/>
<path d="M171.751 238.396C171.751 239.036 172.109 239.394 172.731 239.394H209.289C209.91 239.394 210.268 239.036 210.268 238.396V220.145C210.268 219.505 209.91 219.147 209.289 219.147H172.731C172.109 219.147 171.751 219.505 171.751 220.145V238.396ZM173.748 237.002V221.539C173.748 221.275 173.88 221.143 174.143 221.143H186.612C185.03 222.895 184.013 225.701 184.013 229.242C184.013 232.802 185.03 235.627 186.631 237.398H174.143C173.88 237.398 173.748 237.247 173.748 237.002ZM198.007 229.242C198.007 225.701 196.99 222.895 195.351 221.143H207.876C208.121 221.143 208.272 221.275 208.272 221.539V237.002C208.272 237.247 208.121 237.398 207.876 237.398H195.332C196.971 235.627 198.007 232.802 198.007 229.242ZM190.925 237.021C188.42 237.021 186.292 234.026 186.292 229.242C186.292 224.496 188.42 221.52 190.925 221.52C193.543 221.52 195.728 224.496 195.728 229.242C195.728 234.026 193.543 237.021 190.925 237.021Z" fill="#8CA078"/>
<path d="M190.925 237.021C188.42 237.021 186.292 234.026 186.292 229.242C186.292 224.496 188.42 221.52 190.925 221.52C193.543 221.52 195.728 224.496 195.728 229.242C195.728 234.026 193.543 237.021 190.925 237.021Z" fill="#8CA078"/>
<rect opacity="0.35" x="332.833" y="17.8335" width="21" height="10.3333" rx="2.16667" stroke="black"/>
<path opacity="0.4" d="M355.333 21V25C356.138 24.6612 356.661 23.8731 356.661 23C356.661 22.1269 356.138 21.3388 355.333 21" fill="black"/>
<rect x="334.333" y="19.3335" width="18" height="7.33333" rx="1.33333" fill="black"/>
<path fill-rule="evenodd" clip-rule="evenodd" d="M319.667 19.615C321.892 19.6151 324.031 20.4693 325.644 22.0008C325.765 22.1191 325.959 22.1176 326.079 21.9975L327.239 20.8272C327.3 20.7663 327.334 20.6837 327.333 20.5979C327.333 20.5121 327.298 20.4299 327.237 20.3697C323.005 16.3175 316.329 16.3175 312.097 20.3697C312.035 20.4299 312.001 20.512 312 20.5978C311.999 20.6837 312.033 20.7662 312.094 20.8272L313.255 21.9975C313.374 22.1178 313.568 22.1193 313.69 22.0008C315.302 20.4692 317.442 19.615 319.667 19.615ZM319.667 23.4226C320.889 23.4226 322.068 23.8765 322.974 24.6963C323.097 24.8126 323.29 24.8101 323.409 24.6906L324.569 23.5203C324.63 23.4589 324.663 23.3756 324.663 23.2891C324.662 23.2025 324.626 23.12 324.564 23.0598C321.805 20.4954 317.532 20.4954 314.773 23.0598C314.71 23.12 314.675 23.2026 314.674 23.2891C314.673 23.3757 314.707 23.459 314.768 23.5203L315.927 24.6906C316.047 24.8101 316.24 24.8126 316.362 24.6963C317.268 23.877 318.446 23.4231 319.667 23.4226ZM321.989 25.9845C321.991 26.0712 321.957 26.1549 321.895 26.2157L319.89 28.2377C319.831 28.2971 319.751 28.3306 319.667 28.3306C319.583 28.3306 319.503 28.2971 319.445 28.2377L317.439 26.2157C317.377 26.1549 317.343 26.0712 317.345 25.9844C317.347 25.8976 317.384 25.8154 317.449 25.7573C318.729 24.675 320.605 24.675 321.886 25.7573C321.95 25.8155 321.988 25.8977 321.989 25.9845Z" fill="black"/>
<path fill-rule="evenodd" clip-rule="evenodd" d="M306 17.6665H305C304.448 17.6665 304 18.1142 304 18.6665V27.3332C304 27.8855 304.448 28.3332 305 28.3332H306C306.552 28.3332 307 27.8855 307 27.3332V18.6665C307 18.1142 306.552 17.6665 306 17.6665ZM300.333 19.9998H301.333C301.886 19.9998 302.333 20.4476 302.333 20.9998V27.3332C302.333 27.8855 301.886 28.3332 301.333 28.3332H300.333C299.781 28.3332 299.333 27.8855 299.333 27.3332V20.9998C299.333 20.4476 299.781 19.9998 300.333 19.9998ZM296.667 22.3332H295.667C295.114 22.3332 294.667 22.7809 294.667 23.3332V27.3332C294.667 27.8855 295.114 28.3332 295.667 28.3332H296.667C297.219 28.3332 297.667 27.8855 297.667 27.3332V23.3332C297.667 22.7809 297.219 22.3332 296.667 22.3332ZM292 24.3332H291C290.448 24.3332 290 24.7809 290 25.3332V27.3332C290 27.8855 290.448 28.3332 291 28.3332H292C292.552 28.3332 293 27.8855 293 27.3332V25.3332C293 24.7809 292.552 24.3332 292 24.3332Z" fill="black"/>
<path d="M34.5895 23.8765C34.0573 24.355 33.4616 24.5942 32.8024 24.5942C31.8356 24.5942 31.069 24.2671 30.5026 23.6128C29.9362 22.9585 29.653 22.0845 29.653 20.9907C29.653 20.3071 29.8117 19.6724 30.129 19.0864C30.4464 18.5005 30.8908 18.0366 31.4621 17.6948C32.0382 17.353 32.673 17.1821 33.3663 17.1821C34.0695 17.1821 34.7042 17.3604 35.2706 17.7168C35.8419 18.0684 36.2863 18.5688 36.6037 19.2183C36.921 19.8628 37.0846 20.6074 37.0944 21.4521V22.397C37.0944 23.5737 36.8624 24.5942 36.3986 25.4585C35.9396 26.3228 35.2829 26.9868 34.4284 27.4507C33.5739 27.9146 32.5778 28.1465 31.4401 28.1465H31.2863V26.1689L31.755 26.1616C33.4542 26.0786 34.3991 25.3169 34.5895 23.8765ZM33.4689 22.8145C34.006 22.8145 34.3917 22.5825 34.6261 22.1187V21.0933C34.6261 20.4097 34.5114 19.9043 34.2819 19.5771C34.0524 19.25 33.7423 19.0864 33.3517 19.0864C33.005 19.0864 32.7145 19.272 32.4801 19.6431C32.2457 20.0142 32.1286 20.4634 32.1286 20.9907C32.1286 21.5474 32.2482 21.9917 32.4874 22.3237C32.7267 22.6509 33.0538 22.8145 33.4689 22.8145ZM39.7474 25.605C40.1381 25.605 40.4628 25.7222 40.7216 25.9565C40.9804 26.186 41.1097 26.4814 41.1097 26.8428C41.1097 27.2041 40.9804 27.502 40.7216 27.7363C40.4628 27.9658 40.1381 28.0806 39.7474 28.0806C39.3519 28.0806 39.0248 27.9634 38.766 27.729C38.5121 27.4946 38.3851 27.1992 38.3851 26.8428C38.3851 26.4863 38.5121 26.1909 38.766 25.9565C39.0248 25.7222 39.3519 25.605 39.7474 25.605ZM39.7474 19.7603C40.1381 19.7603 40.4628 19.8774 40.7216 20.1118C40.9804 20.3413 41.1097 20.6367 41.1097 20.998C41.1097 21.3594 40.9804 21.6572 40.7216 21.8916C40.4628 22.1211 40.1381 22.2358 39.7474 22.2358C39.3519 22.2358 39.0248 22.1187 38.766 21.8843C38.5121 21.6499 38.3851 21.3545 38.3851 20.998C38.3851 20.6416 38.5121 20.3462 38.766 20.1118C39.0248 19.8774 39.3519 19.7603 39.7474 19.7603ZM48.963 23.8325H50.047V25.7368H48.963V28H46.4947V25.7368H42.3712L42.2247 24.228L46.4947 17.3579V17.3359H48.963V23.8325ZM44.5758 23.8325H46.4947V20.5513L46.3409 20.8003L44.5758 23.8325ZM56.3622 28H53.8866V20.1191L51.4549 20.8296V18.9546L56.1351 17.3359H56.3622V28Z" fill="black"/>
<path d="M31 71.7449C31 72.1294 31.1428 72.459 31.4504 72.7446L39.9978 81.1162C40.2395 81.3579 40.5471 81.4897 40.9097 81.4897C41.6348 81.4897 42.217 80.9185 42.217 80.1824C42.217 79.8198 42.0632 79.5012 41.8215 79.2485L34.1201 71.7449L41.8215 64.2412C42.0632 63.9885 42.217 63.6589 42.217 63.3074C42.217 62.5713 41.6348 62 40.9097 62C40.5471 62 40.2395 62.1318 39.9978 62.3735L31.4504 70.7341C31.1428 71.0308 31 71.3604 31 71.7449Z" fill="#9EA9B2"/>
<path d="M299 72C299 56.536 311.536 44 327 44V44C342.464 44 355 56.536 355 72V72C355 87.464 342.464 100 327 100V100C311.536 100 299 87.464 299 72V72Z" fill="#FCEDB7"/>
<path d="M322.907 78.7385L327.646 73.9997L332.385 78.7385C332.866 79.2202 333.667 79.2279 334.156 78.7385C334.645 78.2491 334.638 77.449 334.156 76.9673L329.417 72.2285L334.156 67.4897C334.638 67.0081 334.645 66.2079 334.156 65.7185C333.667 65.2291 332.866 65.2369 332.385 65.7185L327.646 70.4573L322.907 65.7185C322.426 65.2369 321.625 65.2291 321.136 65.7185C320.647 66.2079 320.654 67.0081 321.136 67.4897L325.875 72.2285L321.136 76.9673C320.654 77.449 320.647 78.2491 321.136 78.7385C321.625 79.2279 322.426 79.2202 322.907 78.7385Z" fill="#E1A200"/>
</svg>
