<svg width="375" height="422" viewBox="0 0 375 422" fill="none" xmlns="http://www.w3.org/2000/svg">
<path fill-rule="evenodd" clip-rule="evenodd" d="M330.881 0.0212402C355.094 0.0424805 374.915 19.8411 374.915 44.0537L374.938 239.371C372.355 340.673 289.425 422 187.5 422C84.7981 422 1.38184 339.428 0.0170898 237.05L0 44.0325C0 19.8198 19.8206 0 44.0339 0H79.6221C81.6592 0 83.3145 1.65527 83.3145 3.69238V3.71362C83.3145 17.8677 94.9011 29.4539 109.056 29.4539H253.211C267.366 29.4539 278.953 17.8677 278.953 3.71362C278.953 1.67651 280.608 0.0212402 282.645 0.0212402H330.881Z" fill="white"/>
<path d="M297.986 313.931C298.821 313.931 299.463 313.353 299.463 312.454V310.303C304.664 309.821 308.581 306.868 308.581 301.988C308.581 297.622 305.755 295.053 300.169 293.994L299.463 293.865V285.871C301.485 286.225 302.93 287.445 303.54 289.339C303.99 290.398 304.696 291.008 305.852 291.008C307.136 291.008 308.035 290.173 308.035 288.921C308.035 288.536 307.938 288.183 307.842 287.83C306.975 284.491 303.765 282.115 299.463 281.666V279.515C299.463 278.648 298.821 278.07 297.986 278.07C297.151 278.07 296.541 278.648 296.541 279.515V281.666C291.469 282.179 287.873 285.261 287.873 289.756C287.873 293.897 290.666 296.369 295.996 297.589L296.541 297.718V306.161C293.941 305.776 292.432 304.396 291.918 302.501C291.469 301.378 290.731 300.768 289.639 300.768C288.291 300.768 287.424 301.667 287.424 302.951C287.424 303.336 287.488 303.689 287.616 304.075C288.547 307.478 291.951 309.885 296.541 310.271V312.454C296.541 313.353 297.151 313.931 297.986 313.931ZM296.541 293.127L296.317 293.063C293.748 292.292 292.561 291.169 292.561 289.467C292.561 287.669 294.069 286.225 296.541 285.839V293.127ZM299.463 298.424L300.041 298.585C302.866 299.323 303.861 300.479 303.861 302.309C303.861 304.363 302.384 305.84 299.463 306.161V298.424Z" fill="#66804D"/>
<path d="M276.579 330.66V339H275.211V330.66H276.579ZM285.227 339H283.859L279.743 332.772V339H278.375V330.648H279.743L283.859 336.864V330.648H285.227V339ZM286.567 334.812C286.567 333.996 286.755 333.264 287.131 332.616C287.515 331.968 288.031 331.464 288.679 331.104C289.335 330.736 290.051 330.552 290.827 330.552C291.715 330.552 292.503 330.772 293.191 331.212C293.887 331.644 294.391 332.26 294.703 333.06H293.059C292.843 332.62 292.543 332.292 292.159 332.076C291.775 331.86 291.331 331.752 290.827 331.752C290.275 331.752 289.783 331.876 289.351 332.124C288.919 332.372 288.579 332.728 288.331 333.192C288.091 333.656 287.971 334.196 287.971 334.812C287.971 335.428 288.091 335.968 288.331 336.432C288.579 336.896 288.919 337.256 289.351 337.512C289.783 337.76 290.275 337.884 290.827 337.884C291.331 337.884 291.775 337.776 292.159 337.56C292.543 337.344 292.843 337.016 293.059 336.576H294.703C294.391 337.376 293.887 337.992 293.191 338.424C292.503 338.856 291.715 339.072 290.827 339.072C290.043 339.072 289.327 338.892 288.679 338.532C288.031 338.164 287.515 337.656 287.131 337.008C286.755 336.36 286.567 335.628 286.567 334.812ZM300.108 339.084C299.332 339.084 298.616 338.904 297.96 338.544C297.312 338.176 296.796 337.668 296.412 337.02C296.036 336.364 295.848 335.628 295.848 334.812C295.848 333.996 296.036 333.264 296.412 332.616C296.796 331.968 297.312 331.464 297.96 331.104C298.616 330.736 299.332 330.552 300.108 330.552C300.892 330.552 301.608 330.736 302.256 331.104C302.912 331.464 303.428 331.968 303.804 332.616C304.18 333.264 304.368 333.996 304.368 334.812C304.368 335.628 304.18 336.364 303.804 337.02C303.428 337.668 302.912 338.176 302.256 338.544C301.608 338.904 300.892 339.084 300.108 339.084ZM300.108 337.896C300.66 337.896 301.152 337.772 301.584 337.524C302.016 337.268 302.352 336.908 302.592 336.444C302.84 335.972 302.964 335.428 302.964 334.812C302.964 334.196 302.84 333.656 302.592 333.192C302.352 332.728 302.016 332.372 301.584 332.124C301.152 331.876 300.66 331.752 300.108 331.752C299.556 331.752 299.064 331.876 298.632 332.124C298.2 332.372 297.86 332.728 297.612 333.192C297.372 333.656 297.252 334.196 297.252 334.812C297.252 335.428 297.372 335.972 297.612 336.444C297.86 336.908 298.2 337.268 298.632 337.524C299.064 337.772 299.556 337.896 300.108 337.896ZM314.498 330.66V339H313.13V333.288L310.586 339H309.638L307.082 333.288V339H305.714V330.66H307.19L310.118 337.2L313.034 330.66H314.498ZM317.664 331.764V334.212H320.544V335.328H317.664V337.884H320.904V339H316.296V330.648H320.904V331.764H317.664Z" fill="#154C6B"/>
<rect x="65.8203" y="166.446" width="5.3574" height="15.0007" rx="2.6787" fill="#939EA7"/>
<rect x="78.3242" y="166.447" width="5.3574" height="15.0007" rx="2.6787" fill="#939EA7"/>
<rect x="90.8262" y="166.447" width="5.3574" height="15.0007" rx="2.6787" fill="#939EA7"/>
<path d="M98.7957 162.006H63.2077C63.1919 162.006 63.1816 162.005 63.1759 162.004C63.1733 162.004 63.1714 162.003 63.17 162.003C63.1661 161.999 63.1564 161.986 63.1492 161.963C63.142 161.94 63.1431 161.924 63.1439 161.919C63.1449 161.918 63.1462 161.916 63.1481 161.914C63.1523 161.91 63.1601 161.904 63.1731 161.895L80.9673 149.722C80.9882 149.708 81.0156 149.708 81.0365 149.722L98.8302 161.895C98.8433 161.904 98.8511 161.91 98.8553 161.914C98.8571 161.916 98.8585 161.918 98.8594 161.919C98.8602 161.924 98.8613 161.94 98.8542 161.963C98.847 161.986 98.8372 161.999 98.8334 162.003C98.832 162.003 98.83 162.004 98.8275 162.004C98.8254 162.005 98.8227 162.005 98.8193 162.005C98.8135 162.006 98.8057 162.006 98.7957 162.006ZM63.1443 161.916L63.1443 161.916L63.1443 161.916Z" fill="#CED7DC" stroke="#CED7DC" stroke-width="3.21444" stroke-linejoin="round"/>
<path d="M62.96 185.899H98.789" stroke="#CED7DC" stroke-width="3.21444" stroke-linecap="round" stroke-linejoin="round"/>
<path d="M70.78 205.716C71.228 205.796 71.608 206.032 71.92 206.424C72.232 206.816 72.388 207.26 72.388 207.756C72.388 208.18 72.276 208.564 72.052 208.908C71.836 209.244 71.52 209.512 71.104 209.712C70.688 209.904 70.204 210 69.652 210H66.316V201.66H69.496C70.064 201.66 70.552 201.756 70.96 201.948C71.368 202.14 71.676 202.4 71.884 202.728C72.092 203.048 72.196 203.408 72.196 203.808C72.196 204.288 72.068 204.688 71.812 205.008C71.556 205.328 71.212 205.564 70.78 205.716ZM67.684 205.164H69.376C69.824 205.164 70.172 205.064 70.42 204.864C70.676 204.656 70.804 204.36 70.804 203.976C70.804 203.6 70.676 203.308 70.42 203.1C70.172 202.884 69.824 202.776 69.376 202.776H67.684V205.164ZM69.532 208.884C69.996 208.884 70.36 208.772 70.624 208.548C70.888 208.324 71.02 208.012 71.02 207.612C71.02 207.204 70.88 206.88 70.6 206.64C70.32 206.4 69.948 206.28 69.484 206.28H67.684V208.884H69.532ZM78.9026 208.296H75.4106L74.8106 210H73.3826L76.3706 201.648H77.9546L80.9426 210H79.5026L78.9026 208.296ZM78.5186 207.18L77.1626 203.304L75.7946 207.18H78.5186ZM89.0938 210H87.7258L83.6098 203.772V210H82.2418V201.648H83.6098L87.7258 207.864V201.648H89.0938V210ZM95.4862 210L92.2582 206.268V210H90.8902V201.66H92.2582V205.464L95.4982 201.66H97.2142L93.5902 205.836L97.2742 210H95.4862Z" fill="#154C6B"/>
<path d="M180.058 140.66C180.946 140.66 181.722 140.832 182.386 141.176C183.058 141.512 183.574 142 183.934 142.64C184.302 143.272 184.486 144.012 184.486 144.86C184.486 145.708 184.302 146.444 183.934 147.068C183.574 147.692 183.058 148.172 182.386 148.508C181.722 148.836 180.946 149 180.058 149H177.334V140.66H180.058ZM180.058 147.884C181.034 147.884 181.782 147.62 182.302 147.092C182.822 146.564 183.082 145.82 183.082 144.86C183.082 143.892 182.822 143.136 182.302 142.592C181.782 142.048 181.034 141.776 180.058 141.776H178.702V147.884H180.058ZM187.209 141.764V144.212H190.089V145.328H187.209V147.884H190.449V149H185.841V140.648H190.449V141.764H187.209ZM196.598 144.716C197.046 144.796 197.426 145.032 197.738 145.424C198.05 145.816 198.206 146.26 198.206 146.756C198.206 147.18 198.094 147.564 197.87 147.908C197.654 148.244 197.338 148.512 196.922 148.712C196.506 148.904 196.022 149 195.47 149H192.134V140.66H195.314C195.882 140.66 196.37 140.756 196.778 140.948C197.186 141.14 197.494 141.4 197.702 141.728C197.91 142.048 198.014 142.408 198.014 142.808C198.014 143.288 197.886 143.688 197.63 144.008C197.374 144.328 197.03 144.564 196.598 144.716ZM193.502 144.164H195.194C195.642 144.164 195.99 144.064 196.238 143.864C196.494 143.656 196.622 143.36 196.622 142.976C196.622 142.6 196.494 142.308 196.238 142.1C195.99 141.884 195.642 141.776 195.194 141.776H193.502V144.164ZM195.35 147.884C195.814 147.884 196.178 147.772 196.442 147.548C196.706 147.324 196.838 147.012 196.838 146.612C196.838 146.204 196.698 145.88 196.418 145.64C196.138 145.4 195.766 145.28 195.302 145.28H193.502V147.884H195.35ZM205.081 140.66V141.776H202.861V149H201.493V141.776H199.261V140.66H205.081Z" fill="#154C6B"/>
<path d="M174.909 122.322H207.097C211.184 122.322 213.294 120.193 213.294 116.163V95.8215C213.294 91.7909 211.184 89.6814 207.097 89.6814H174.909C170.841 89.6814 168.712 91.7909 168.712 95.8215V116.163C168.712 120.212 170.841 122.322 174.909 122.322ZM172.46 96.1605C172.46 94.3524 173.421 93.4483 175.154 93.4483H206.852C208.585 93.4483 209.546 94.3524 209.546 96.1605V97.5166H172.46V96.1605ZM175.154 118.555C173.421 118.555 172.46 117.651 172.46 115.843V101.943H209.546V115.843C209.546 117.651 208.585 118.555 206.852 118.555H175.154ZM177.715 115.146H182.33C183.441 115.146 184.194 114.411 184.194 113.356V109.853C184.194 108.799 183.441 108.064 182.33 108.064H177.715C176.623 108.064 175.87 108.799 175.87 109.853V113.356C175.87 114.411 176.623 115.146 177.715 115.146Z" fill="#D3E0E8"/>
<path d="M172.46 96.1605C172.46 94.3524 173.421 93.4483 175.154 93.4483H206.852C208.585 93.4483 209.546 94.3524 209.546 96.1605V97.5166H172.46V96.1605Z" fill="#D3E0E8"/>
<path fill-rule="evenodd" clip-rule="evenodd" d="M175.154 118.555C173.421 118.555 172.46 117.651 172.46 115.843V101.943H209.546V115.843C209.546 117.651 208.585 118.555 206.852 118.555H175.154ZM182.33 115.146H177.715C176.623 115.146 175.87 114.411 175.87 113.356V109.853C175.87 108.799 176.623 108.064 177.715 108.064H182.33C183.441 108.064 184.194 108.799 184.194 109.853V113.356C184.194 114.411 183.441 115.146 182.33 115.146Z" fill="#D3E0E8"/>
<path fill-rule="evenodd" clip-rule="evenodd" d="M213.294 101.943V97.5166H209.546H172.46H168.712V101.943H172.46H209.546H213.294ZM177.715 115.146H182.33C183.441 115.146 184.194 114.411 184.194 113.356V109.853C184.194 108.799 183.441 108.064 182.33 108.064H177.715C176.623 108.064 175.87 108.799 175.87 109.853V113.356C175.87 114.411 176.623 115.146 177.715 115.146Z" fill="#5F5F5F"/>
<path d="M276.009 210.084C275.449 210.084 274.945 209.988 274.497 209.796C274.049 209.596 273.697 209.316 273.441 208.956C273.185 208.596 273.057 208.176 273.057 207.696H274.521C274.553 208.056 274.693 208.352 274.941 208.584C275.197 208.816 275.553 208.932 276.009 208.932C276.481 208.932 276.849 208.82 277.113 208.596C277.377 208.364 277.509 208.068 277.509 207.708C277.509 207.428 277.425 207.2 277.257 207.024C277.097 206.848 276.893 206.712 276.645 206.616C276.405 206.52 276.069 206.416 275.637 206.304C275.093 206.16 274.649 206.016 274.305 205.872C273.969 205.72 273.681 205.488 273.441 205.176C273.201 204.864 273.081 204.448 273.081 203.928C273.081 203.448 273.201 203.028 273.441 202.668C273.681 202.308 274.017 202.032 274.449 201.84C274.881 201.648 275.381 201.552 275.949 201.552C276.757 201.552 277.417 201.756 277.929 202.164C278.449 202.564 278.737 203.116 278.793 203.82H277.281C277.257 203.516 277.113 203.256 276.849 203.04C276.585 202.824 276.237 202.716 275.805 202.716C275.413 202.716 275.093 202.816 274.845 203.016C274.597 203.216 274.473 203.504 274.473 203.88C274.473 204.136 274.549 204.348 274.701 204.516C274.861 204.676 275.061 204.804 275.301 204.9C275.541 204.996 275.869 205.1 276.285 205.212C276.837 205.364 277.285 205.516 277.629 205.668C277.981 205.82 278.277 206.056 278.517 206.376C278.765 206.688 278.889 207.108 278.889 207.636C278.889 208.06 278.773 208.46 278.541 208.836C278.317 209.212 277.985 209.516 277.545 209.748C277.113 209.972 276.601 210.084 276.009 210.084ZM285.532 208.296H282.04L281.44 210H280.012L283 201.648H284.584L287.572 210H286.132L285.532 208.296ZM285.148 207.18L283.792 203.304L282.424 207.18H285.148ZM296.059 201.66L292.927 210H291.343L288.199 201.66H289.663L292.135 208.596L294.619 201.66H296.059ZM298.571 201.66V210H297.203V201.66H298.571ZM307.219 210H305.851L301.735 203.772V210H300.367V201.648H301.735L305.851 207.864V201.648H307.219V210ZM315.051 204.06C314.835 203.644 314.535 203.332 314.151 203.124C313.767 202.908 313.323 202.8 312.819 202.8C312.267 202.8 311.775 202.924 311.343 203.172C310.911 203.42 310.571 203.772 310.323 204.228C310.083 204.684 309.963 205.212 309.963 205.812C309.963 206.412 310.083 206.944 310.323 207.408C310.571 207.864 310.911 208.216 311.343 208.464C311.775 208.712 312.267 208.836 312.819 208.836C313.563 208.836 314.167 208.628 314.631 208.212C315.095 207.796 315.379 207.232 315.483 206.52H312.351V205.428H316.947V206.496C316.859 207.144 316.627 207.74 316.251 208.284C315.883 208.828 315.399 209.264 314.799 209.592C314.207 209.912 313.547 210.072 312.819 210.072C312.035 210.072 311.319 209.892 310.671 209.532C310.023 209.164 309.507 208.656 309.123 208.008C308.747 207.36 308.559 206.628 308.559 205.812C308.559 204.996 308.747 204.264 309.123 203.616C309.507 202.968 310.023 202.464 310.671 202.104C311.327 201.736 312.043 201.552 312.819 201.552C313.707 201.552 314.495 201.772 315.183 202.212C315.879 202.644 316.383 203.26 316.695 204.06H315.051ZM321.044 210.084C320.484 210.084 319.98 209.988 319.532 209.796C319.084 209.596 318.732 209.316 318.476 208.956C318.22 208.596 318.092 208.176 318.092 207.696H319.556C319.588 208.056 319.728 208.352 319.976 208.584C320.232 208.816 320.588 208.932 321.044 208.932C321.516 208.932 321.884 208.82 322.148 208.596C322.412 208.364 322.544 208.068 322.544 207.708C322.544 207.428 322.46 207.2 322.292 207.024C322.132 206.848 321.928 206.712 321.68 206.616C321.44 206.52 321.104 206.416 320.672 206.304C320.128 206.16 319.684 206.016 319.34 205.872C319.004 205.72 318.716 205.488 318.476 205.176C318.236 204.864 318.116 204.448 318.116 203.928C318.116 203.448 318.236 203.028 318.476 202.668C318.716 202.308 319.052 202.032 319.484 201.84C319.916 201.648 320.416 201.552 320.984 201.552C321.792 201.552 322.452 201.756 322.964 202.164C323.484 202.564 323.772 203.116 323.828 203.82H322.316C322.292 203.516 322.148 203.256 321.884 203.04C321.62 202.824 321.272 202.716 320.84 202.716C320.448 202.716 320.128 202.816 319.88 203.016C319.632 203.216 319.508 203.504 319.508 203.88C319.508 204.136 319.584 204.348 319.736 204.516C319.896 204.676 320.096 204.804 320.336 204.9C320.576 204.996 320.904 205.1 321.32 205.212C321.872 205.364 322.32 205.516 322.664 205.668C323.016 205.82 323.312 206.056 323.552 206.376C323.8 206.688 323.924 207.108 323.924 207.636C323.924 208.06 323.808 208.46 323.576 208.836C323.352 209.212 323.02 209.516 322.58 209.748C322.148 209.972 321.636 210.084 321.044 210.084Z" fill="#154C6B"/>
<path d="M288.065 152.943C281.167 152.496 277.898 159.297 277.77 161.816C277.599 165.172 280.007 175.439 281.353 180.445C282.019 182.921 282.086 185.366 284.5 185.45C287.779 185.565 288.757 185.469 288.852 185.45C289.202 185.45 291.219 185.21 291.219 182.9C291.219 182.063 291.495 181.213 292.257 181.213H297.356C297.742 181.213 299.282 181.132 299.282 183.111C299.305 183.696 299.254 185.366 301.669 185.45C304.947 185.565 305.925 185.469 306.02 185.45C306.369 185.45 308.014 185.532 308.555 182.958L311.267 173.866L313.822 173.002C313.822 173.002 317.126 171.919 317.752 171.386C318.378 170.852 318.226 165.782 318.226 165.782C318.226 165.782 318.365 162.103 316.944 161.099C315.522 160.096 313.513 160.599 313.249 160.247C312.779 159.621 307.193 154.135 307.193 154.135C307.193 154.135 307.965 150.804 308.317 150.153C308.67 149.503 307.965 148.339 306.042 148.514C304.119 148.69 301.545 149.842 299.608 152.496C298.232 154.382 294.963 153.389 288.065 152.943Z" fill="#FFD5CC"/>
<path d="M292.257 181.213C293.02 181.213 297.356 181.213 297.356 181.213M292.257 181.213C291.495 181.213 291.219 182.063 291.219 182.9C291.219 185.21 289.202 185.45 288.852 185.45C288.757 185.469 287.779 185.565 284.5 185.45C282.086 185.366 282.019 182.921 281.353 180.445C280.007 175.439 277.599 165.172 277.77 161.816C277.898 159.297 281.167 152.496 288.065 152.943C294.963 153.389 298.232 154.382 299.608 152.496C301.545 149.842 304.119 148.69 306.042 148.514C307.965 148.339 308.67 149.503 308.317 150.153C307.965 150.804 307.193 154.135 307.193 154.135C307.193 154.135 312.779 159.621 313.249 160.247C313.513 160.599 315.522 160.096 316.944 161.099C318.365 162.103 318.226 165.782 318.226 165.782C318.226 165.782 318.378 170.852 317.752 171.386C317.126 171.919 313.822 173.002 313.822 173.002L311.267 173.866L308.555 182.958M292.257 181.213H297.356M297.356 181.213C297.742 181.213 299.282 181.132 299.282 183.111C299.305 183.696 299.254 185.366 301.669 185.45C304.947 185.565 305.925 185.469 306.02 185.45C306.369 185.45 308.014 185.532 308.555 182.958M308.387 183.522L308.555 182.958M308.561 182.933C308.559 182.941 308.557 182.95 308.555 182.958" stroke="#FFD5CC" stroke-width="3.75018" stroke-linecap="round" stroke-linejoin="round"/>
<path d="M290.927 160.03H297.609M306.069 163.784V163.936" stroke="#5F5F5F" stroke-width="4.28592" stroke-linecap="round" stroke-linejoin="round"/>
<path d="M63.5144 334.716C63.9624 334.796 64.3424 335.032 64.6544 335.424C64.9664 335.816 65.1224 336.26 65.1224 336.756C65.1224 337.18 65.0104 337.564 64.7864 337.908C64.5704 338.244 64.2544 338.512 63.8384 338.712C63.4224 338.904 62.9384 339 62.3864 339H59.0504V330.66H62.2304C62.7984 330.66 63.2864 330.756 63.6944 330.948C64.1024 331.14 64.4104 331.4 64.6184 331.728C64.8264 332.048 64.9304 332.408 64.9304 332.808C64.9304 333.288 64.8024 333.688 64.5464 334.008C64.2904 334.328 63.9464 334.564 63.5144 334.716ZM60.4184 334.164H62.1104C62.5584 334.164 62.9064 334.064 63.1544 333.864C63.4104 333.656 63.5384 333.36 63.5384 332.976C63.5384 332.6 63.4104 332.308 63.1544 332.1C62.9064 331.884 62.5584 331.776 62.1104 331.776H60.4184V334.164ZM62.2664 337.884C62.7304 337.884 63.0944 337.772 63.3584 337.548C63.6224 337.324 63.7544 337.012 63.7544 336.612C63.7544 336.204 63.6144 335.88 63.3344 335.64C63.0544 335.4 62.6824 335.28 62.2184 335.28H60.4184V337.884H62.2664ZM67.965 330.66V335.976C67.965 336.608 68.129 337.084 68.457 337.404C68.793 337.724 69.257 337.884 69.849 337.884C70.449 337.884 70.913 337.724 71.241 337.404C71.577 337.084 71.745 336.608 71.745 335.976V330.66H73.113V335.952C73.113 336.632 72.965 337.208 72.669 337.68C72.373 338.152 71.977 338.504 71.481 338.736C70.985 338.968 70.437 339.084 69.837 339.084C69.237 339.084 68.689 338.968 68.193 338.736C67.705 338.504 67.317 338.152 67.029 337.68C66.741 337.208 66.597 336.632 66.597 335.952V330.66H67.965ZM77.6181 330.66C78.5061 330.66 79.2821 330.832 79.9461 331.176C80.6181 331.512 81.1341 332 81.4941 332.64C81.8621 333.272 82.0461 334.012 82.0461 334.86C82.0461 335.708 81.8621 336.444 81.4941 337.068C81.1341 337.692 80.6181 338.172 79.9461 338.508C79.2821 338.836 78.5061 339 77.6181 339H74.8941V330.66H77.6181ZM77.6181 337.884C78.5941 337.884 79.3421 337.62 79.8621 337.092C80.3821 336.564 80.6421 335.82 80.6421 334.86C80.6421 333.892 80.3821 333.136 79.8621 332.592C79.3421 332.048 78.5941 331.776 77.6181 331.776H76.2621V337.884H77.6181ZM89.438 333.06C89.222 332.644 88.922 332.332 88.538 332.124C88.154 331.908 87.71 331.8 87.206 331.8C86.654 331.8 86.162 331.924 85.73 332.172C85.298 332.42 84.958 332.772 84.71 333.228C84.47 333.684 84.35 334.212 84.35 334.812C84.35 335.412 84.47 335.944 84.71 336.408C84.958 336.864 85.298 337.216 85.73 337.464C86.162 337.712 86.654 337.836 87.206 337.836C87.95 337.836 88.554 337.628 89.018 337.212C89.482 336.796 89.766 336.232 89.87 335.52H86.738V334.428H91.334V335.496C91.246 336.144 91.014 336.74 90.638 337.284C90.27 337.828 89.786 338.264 89.186 338.592C88.594 338.912 87.934 339.072 87.206 339.072C86.422 339.072 85.706 338.892 85.058 338.532C84.41 338.164 83.894 337.656 83.51 337.008C83.134 336.36 82.946 335.628 82.946 334.812C82.946 333.996 83.134 333.264 83.51 332.616C83.894 331.968 84.41 331.464 85.058 331.104C85.714 330.736 86.43 330.552 87.206 330.552C88.094 330.552 88.882 330.772 89.57 331.212C90.266 331.644 90.77 332.26 91.082 333.06H89.438ZM94.0512 331.764V334.212H96.9312V335.328H94.0512V337.884H97.2912V339H92.6832V330.648H97.2912V331.764H94.0512ZM104.364 330.66V331.776H102.144V339H100.776V331.776H98.5442V330.66H104.364Z" fill="#154C6B"/>
<path d="M80.9935 315.477C91.6727 315.477 100.487 306.662 100.487 296.002C100.487 285.341 91.6539 276.527 80.9747 276.527C70.3143 276.527 61.5186 285.341 61.5186 296.002C61.5186 306.662 70.3331 315.477 80.9935 315.477ZM80.9935 311.597C72.3484 311.597 65.4362 304.647 65.4362 296.002C65.4362 287.357 72.3484 280.426 80.9747 280.426C89.6198 280.426 96.5697 287.357 96.5886 296.002C96.6074 304.647 89.6386 311.597 80.9935 311.597ZM80.9747 306.587C81.4644 306.587 81.8411 306.229 81.8411 305.72V304.459C84.8923 304.176 87.1901 302.424 87.1901 299.562C87.1901 297 85.5327 295.493 82.2554 294.891L81.8411 294.796V290.125C83.0465 290.333 83.8752 291.048 84.2331 292.16C84.5156 292.781 84.9111 293.139 85.5892 293.139C86.3426 293.139 86.8699 292.63 86.8699 291.915C86.8699 291.689 86.8134 291.482 86.7757 291.256C86.2672 289.316 84.3649 287.922 81.8411 287.658V286.396C81.8411 285.888 81.4644 285.53 80.9747 285.53C80.485 285.53 80.1271 285.888 80.1271 286.396V287.658C77.1513 287.959 75.0418 289.768 75.0418 292.386C75.0418 294.834 76.6804 296.266 79.8069 296.981L80.1271 297.057V302.029C78.6015 301.803 77.7163 300.993 77.415 299.882C77.1513 299.204 76.7181 298.865 76.0777 298.865C75.2866 298.865 74.7781 299.392 74.7781 300.145C74.7781 300.353 74.8346 300.56 74.8911 300.805C75.4373 302.801 77.4338 304.195 80.1271 304.44V305.72C80.1271 306.248 80.485 306.587 80.9747 306.587ZM80.1271 294.363L79.9953 294.326C78.4885 293.892 77.7916 293.233 77.7916 292.216C77.7916 291.18 78.6769 290.333 80.1271 290.107V294.363ZM81.8411 297.49L82.1989 297.565C83.8376 298.017 84.4214 298.695 84.4214 299.769C84.4214 300.955 83.555 301.822 81.8411 302.029V297.49Z" fill="#FFD260"/>
<path fill-rule="evenodd" clip-rule="evenodd" d="M80.9935 311.597C72.3484 311.597 65.4362 304.647 65.4362 296.002C65.4362 287.357 72.3484 280.426 80.9747 280.426C89.6198 280.426 96.5697 287.357 96.5886 296.002C96.6074 304.647 89.6386 311.597 80.9935 311.597ZM81.8411 305.72C81.8411 306.229 81.4644 306.587 80.9747 306.587C80.485 306.587 80.1271 306.248 80.1271 305.72V304.44C77.4338 304.195 75.4373 302.801 74.8911 300.805C74.8346 300.56 74.7781 300.353 74.7781 300.145C74.7781 299.392 75.2866 298.865 76.0777 298.865C76.7181 298.865 77.1513 299.204 77.415 299.882C77.7163 300.993 78.6015 301.803 80.1271 302.029V297.057L79.8069 296.981C76.6804 296.266 75.0418 294.834 75.0418 292.386C75.0418 289.768 77.1513 287.959 80.1271 287.658V286.396C80.1271 285.888 80.485 285.53 80.9747 285.53C81.4644 285.53 81.8411 285.888 81.8411 286.396V287.658C84.3649 287.922 86.2672 289.316 86.7757 291.256C86.8134 291.482 86.8699 291.689 86.8699 291.915C86.8699 292.63 86.3426 293.139 85.5892 293.139C84.9111 293.139 84.5156 292.781 84.2331 292.16C83.8752 291.048 83.0465 290.333 81.8411 290.125V294.796L82.2554 294.891C85.5327 295.493 87.1901 297 87.1901 299.562C87.1901 302.424 84.8923 304.176 81.8411 304.459V305.72Z" fill="#FFD260"/>
<path d="M81.8411 297.49L82.1989 297.565C83.8376 298.017 84.4214 298.695 84.4214 299.769C84.4214 300.955 83.555 301.822 81.8411 302.029V297.49Z" fill="#FFD260"/>
<path d="M80.1271 294.363L79.9953 294.326C78.4885 293.892 77.7916 293.233 77.7916 292.216C77.7916 291.18 78.6769 290.333 80.1271 290.107V294.363Z" fill="#FFD260"/>
<path d="M80.9734 306.586C81.4631 306.586 81.8398 306.229 81.8398 305.72V304.458C84.891 304.176 87.1889 302.424 87.1889 299.561C87.1889 297 85.5314 295.493 82.2542 294.89L81.8398 294.796V290.125C83.0452 290.332 83.874 291.048 84.2318 292.159C84.5143 292.781 84.9099 293.138 85.5879 293.138C86.3413 293.138 86.8687 292.63 86.8687 291.914C86.8687 291.688 86.8122 291.481 86.7745 291.255C86.266 289.315 84.3637 287.921 81.8398 287.658V286.396C81.8398 285.887 81.4631 285.529 80.9734 285.529C80.4837 285.529 80.1259 285.887 80.1259 286.396V287.658C77.15 287.959 75.0405 289.767 75.0405 292.385C75.0405 294.834 76.6791 296.265 79.8057 296.981L80.1259 297.056V302.028C78.6003 301.802 77.7151 300.992 77.4137 299.881C77.15 299.203 76.7168 298.864 76.0764 298.864C75.2854 298.864 74.7769 299.392 74.7769 300.145C74.7769 300.352 74.8334 300.559 74.8899 300.804C75.4361 302.801 77.4325 304.194 80.1259 304.439V305.72C80.1259 306.247 80.4837 306.586 80.9734 306.586ZM80.1259 294.363L79.994 294.325C78.4873 293.892 77.7904 293.233 77.7904 292.216C77.7904 291.18 78.6756 290.332 80.1259 290.106V294.363ZM81.8398 297.489L82.1977 297.565C83.8363 298.017 84.4202 298.695 84.4202 299.768C84.4202 300.955 83.5538 301.821 81.8398 302.028V297.489Z" fill="#E1A200"/>
<path d="M186.671 392.716C187.119 392.796 187.499 393.032 187.811 393.424C188.123 393.816 188.279 394.26 188.279 394.756C188.279 395.18 188.167 395.564 187.943 395.908C187.727 396.244 187.411 396.512 186.995 396.712C186.579 396.904 186.095 397 185.543 397H182.207V388.66H185.387C185.955 388.66 186.443 388.756 186.851 388.948C187.259 389.14 187.567 389.4 187.775 389.728C187.983 390.048 188.087 390.408 188.087 390.808C188.087 391.288 187.959 391.688 187.703 392.008C187.447 392.328 187.103 392.564 186.671 392.716ZM183.575 392.164H185.267C185.715 392.164 186.063 392.064 186.311 391.864C186.567 391.656 186.695 391.36 186.695 390.976C186.695 390.6 186.567 390.308 186.311 390.1C186.063 389.884 185.715 389.776 185.267 389.776H183.575V392.164ZM185.423 395.884C185.887 395.884 186.251 395.772 186.515 395.548C186.779 395.324 186.911 395.012 186.911 394.612C186.911 394.204 186.771 393.88 186.491 393.64C186.211 393.4 185.839 393.28 185.375 393.28H183.575V395.884H185.423ZM191.133 388.66V397H189.765V388.66H191.133ZM194.297 395.896H197.117V397H192.929V388.66H194.297V395.896ZM199.629 395.896H202.449V397H198.261V388.66H199.629V395.896Z" fill="#154C6B"/>
<mask id="path-22-inside-1_117:17782" fill="white">
<path fill-rule="evenodd" clip-rule="evenodd" d="M175.331 331.161C176.084 330.408 177.278 330.408 178.031 331.161L179.209 332.34H179.869L181.047 331.161C181.8 330.408 182.994 330.408 183.747 331.161L184.925 332.34H185.585L186.763 331.161C187.516 330.408 188.71 330.408 189.463 331.161L190.641 332.34H191.301L192.479 331.161C193.232 330.408 194.426 330.408 195.179 331.161L196.356 332.34H197.017L198.194 331.161C198.948 330.408 200.141 330.408 200.894 331.161L202.072 332.34H202.732L203.91 331.161C204.663 330.408 205.924 330.408 206.677 331.161V333.301V335.602L206.673 335.598V375.276H206.672V376.841C205.919 377.595 204.725 377.595 203.972 376.841L202.467 375.335L202.464 375.332L202.461 375.335L200.956 376.841C200.203 377.595 199.009 377.595 198.256 376.841L196.751 375.335L196.748 375.332L196.745 375.335L195.24 376.841C194.487 377.595 193.293 377.595 192.54 376.841L191.035 375.335L191.032 375.332L191.03 375.335L189.524 376.841C188.771 377.595 187.578 377.595 186.824 376.841L185.319 375.335L185.317 375.332L185.314 375.335L183.809 376.841C183.056 377.595 181.862 377.595 181.109 376.841L179.603 375.335L179.601 375.332L179.598 375.335L178.093 376.841C177.34 377.595 176.079 377.595 175.326 376.841V374.702V372.4L175.327 372.401V332.34H175.331V331.161Z"/>
</mask>
<path fill-rule="evenodd" clip-rule="evenodd" d="M175.331 331.161C176.084 330.408 177.278 330.408 178.031 331.161L179.209 332.34H179.869L181.047 331.161C181.8 330.408 182.994 330.408 183.747 331.161L184.925 332.34H185.585L186.763 331.161C187.516 330.408 188.71 330.408 189.463 331.161L190.641 332.34H191.301L192.479 331.161C193.232 330.408 194.426 330.408 195.179 331.161L196.356 332.34H197.017L198.194 331.161C198.948 330.408 200.141 330.408 200.894 331.161L202.072 332.34H202.732L203.91 331.161C204.663 330.408 205.924 330.408 206.677 331.161V333.301V335.602L206.673 335.598V375.276H206.672V376.841C205.919 377.595 204.725 377.595 203.972 376.841L202.467 375.335L202.464 375.332L202.461 375.335L200.956 376.841C200.203 377.595 199.009 377.595 198.256 376.841L196.751 375.335L196.748 375.332L196.745 375.335L195.24 376.841C194.487 377.595 193.293 377.595 192.54 376.841L191.035 375.335L191.032 375.332L191.03 375.335L189.524 376.841C188.771 377.595 187.578 377.595 186.824 376.841L185.319 375.335L185.317 375.332L185.314 375.335L183.809 376.841C183.056 377.595 181.862 377.595 181.109 376.841L179.603 375.335L179.601 375.332L179.598 375.335L178.093 376.841C177.34 377.595 176.079 377.595 175.326 376.841V374.702V372.4L175.327 372.401V332.34H175.331V331.161Z" fill="#EEF7FC"/>
<path d="M178.031 331.161L178.739 330.455L178.739 330.455L178.031 331.161ZM175.331 331.161L174.624 330.455L174.331 330.747V331.161H175.331ZM179.209 332.34L178.502 333.047L178.795 333.34H179.209V332.34ZM179.869 332.34V333.34H180.284L180.577 333.047L179.869 332.34ZM181.047 331.161L181.754 331.868L181.754 331.868L181.047 331.161ZM183.747 331.161L183.04 331.868L183.04 331.868L183.747 331.161ZM184.925 332.34L184.217 333.047L184.51 333.34H184.925V332.34ZM185.585 332.34V333.34H185.999L186.292 333.047L185.585 332.34ZM186.763 331.161L187.47 331.868L187.47 331.868L186.763 331.161ZM189.463 331.161L188.755 331.868L188.755 331.868L189.463 331.161ZM190.641 332.34L189.933 333.047L190.226 333.34H190.641V332.34ZM191.301 332.34V333.34H191.715L192.008 333.047L191.301 332.34ZM192.479 331.161L193.186 331.868L193.186 331.868L192.479 331.161ZM195.179 331.161L194.471 331.868L194.471 331.868L195.179 331.161ZM196.356 332.34L195.649 333.047L195.942 333.34H196.356V332.34ZM197.017 332.34V333.34H197.431L197.724 333.047L197.017 332.34ZM198.194 331.161L198.902 331.868L198.902 331.868L198.194 331.161ZM200.894 331.161L200.187 331.868L200.187 331.868L200.894 331.161ZM202.072 332.34L201.365 333.047L201.658 333.34H202.072V332.34ZM202.732 332.34V333.34H203.147L203.44 333.047L202.732 332.34ZM203.91 331.161L203.203 330.455L203.203 330.455L203.91 331.161ZM206.677 331.161H207.677V330.747L207.384 330.455L206.677 331.161ZM206.677 335.602L205.96 336.299L207.677 338.066V335.602H206.677ZM206.673 335.598L207.39 334.901L205.673 333.134V335.598H206.673ZM206.673 375.276V376.276H207.673V375.276H206.673ZM206.672 375.276V374.276H205.672V375.276H206.672ZM206.672 376.841L207.379 377.548L207.672 377.255V376.841H206.672ZM203.972 376.841L204.679 376.134L204.679 376.134L203.972 376.841ZM202.467 375.335L203.174 374.628L203.166 374.62L203.159 374.613L202.467 375.335ZM202.464 375.332L203.156 374.61L202.464 373.948L201.772 374.61L202.464 375.332ZM202.461 375.335L201.77 374.613L201.762 374.62L201.754 374.628L202.461 375.335ZM200.956 376.841L200.249 376.134L200.249 376.134L200.956 376.841ZM198.256 376.841L198.964 376.134L198.964 376.134L198.256 376.841ZM196.751 375.335L197.458 374.628L197.45 374.62L197.442 374.612L196.751 375.335ZM196.748 375.332L197.44 374.61L196.748 373.948L196.057 374.61L196.748 375.332ZM196.745 375.335L196.054 374.612L196.046 374.62L196.038 374.628L196.745 375.335ZM195.24 376.841L194.533 376.134L194.533 376.134L195.24 376.841ZM192.54 376.841L193.248 376.134L193.248 376.134L192.54 376.841ZM191.035 375.335L191.743 374.628L191.734 374.62L191.726 374.612L191.035 375.335ZM191.032 375.332L191.723 374.609L191.032 373.949L190.341 374.609L191.032 375.332ZM191.03 375.335L190.339 374.612L190.33 374.62L190.322 374.628L191.03 375.335ZM189.524 376.841L188.817 376.134L188.817 376.134L189.524 376.841ZM186.824 376.841L187.532 376.134L187.532 376.134L186.824 376.841ZM185.319 375.335L186.027 374.628L186.018 374.62L186.01 374.612L185.319 375.335ZM185.317 375.332L186.007 374.609L185.315 373.949L184.625 374.61L185.317 375.332ZM185.314 375.335L184.622 374.613L184.614 374.62L184.606 374.628L185.314 375.335ZM183.809 376.841L183.101 376.134L183.101 376.134L183.809 376.841ZM181.109 376.841L181.816 376.134L181.816 376.134L181.109 376.841ZM179.603 375.335L180.311 374.628L180.303 374.62L180.294 374.612L179.603 375.335ZM179.601 375.332L180.292 374.609L179.6 373.949L178.91 374.609L179.601 375.332ZM179.598 375.335L178.907 374.612L178.899 374.62L178.891 374.628L179.598 375.335ZM178.093 376.841L178.8 377.548L178.8 377.548L178.093 376.841ZM175.326 376.841H174.326V377.255L174.619 377.548L175.326 376.841ZM175.326 372.4L176.043 371.703L174.326 369.939V372.4H175.326ZM175.327 372.401L174.61 373.099L176.327 374.862V372.401H175.327ZM175.327 332.34V331.34H174.327V332.34H175.327ZM175.331 332.34V333.34H176.331V332.34H175.331ZM178.739 330.455C177.595 329.31 175.767 329.31 174.624 330.455L176.039 331.868C176.401 331.505 176.961 331.505 177.324 331.868L178.739 330.455ZM179.916 331.633L178.739 330.455L177.324 331.868L178.502 333.047L179.916 331.633ZM179.209 333.34H179.869V331.34H179.209V333.34ZM180.34 330.455L179.162 331.633L180.577 333.047L181.754 331.868L180.34 330.455ZM184.454 330.455C183.311 329.31 181.483 329.31 180.34 330.455L181.754 331.868C182.117 331.505 182.677 331.505 183.04 331.868L184.454 330.455ZM185.632 331.633L184.454 330.455L183.04 331.868L184.217 333.047L185.632 331.633ZM184.925 333.34H185.585V331.34H184.925V333.34ZM186.055 330.455L184.878 331.633L186.292 333.047L187.47 331.868L186.055 330.455ZM190.17 330.455C189.027 329.31 187.199 329.31 186.055 330.455L187.47 331.868C187.833 331.505 188.393 331.505 188.755 331.868L190.17 330.455ZM191.348 331.633L190.17 330.455L188.755 331.868L189.933 333.047L191.348 331.633ZM190.641 333.34H191.301V331.34H190.641V333.34ZM191.771 330.455L190.593 331.633L192.008 333.047L193.186 331.868L191.771 330.455ZM195.886 330.455C194.742 329.31 192.915 329.31 191.771 330.455L193.186 331.868C193.549 331.505 194.109 331.505 194.471 331.868L195.886 330.455ZM197.064 331.633L195.886 330.455L194.471 331.868L195.649 333.047L197.064 331.633ZM196.356 333.34H197.017V331.34H196.356V333.34ZM197.487 330.455L196.309 331.633L197.724 333.047L198.902 331.868L197.487 330.455ZM201.602 330.455C200.458 329.31 198.631 329.31 197.487 330.455L198.902 331.868C199.264 331.505 199.825 331.505 200.187 331.868L201.602 330.455ZM202.78 331.633L201.602 330.455L200.187 331.868L201.365 333.047L202.78 331.633ZM202.072 333.34H202.732V331.34H202.072V333.34ZM203.203 330.455L202.025 331.633L203.44 333.047L204.618 331.868L203.203 330.455ZM207.384 330.455C206.241 329.31 204.347 329.31 203.203 330.455L204.618 331.868C204.98 331.505 205.607 331.505 205.97 331.868L207.384 330.455ZM207.677 333.301V331.161H205.677V333.301H207.677ZM207.677 335.602V333.301H205.677V335.602H207.677ZM205.956 336.295L205.96 336.299L207.394 334.905L207.39 334.901L205.956 336.295ZM205.673 335.598V375.276H207.673V335.598H205.673ZM206.673 374.276H206.672V376.276H206.673V374.276ZM207.672 376.841V375.276H205.672V376.841H207.672ZM203.265 377.548C204.408 378.693 206.236 378.693 207.379 377.548L205.965 376.134C205.602 376.497 205.042 376.497 204.679 376.134L203.265 377.548ZM201.759 376.042L203.265 377.548L204.679 376.134L203.174 374.628L201.759 376.042ZM201.772 376.054L201.775 376.057L203.159 374.613L203.156 374.61L201.772 376.054ZM203.153 376.057L203.156 376.054L201.772 374.61L201.77 374.613L203.153 376.057ZM201.664 377.548L203.169 376.042L201.754 374.628L200.249 376.134L201.664 377.548ZM197.549 377.548C198.692 378.693 200.52 378.693 201.664 377.548L200.249 376.134C199.886 376.497 199.326 376.497 198.964 376.134L197.549 377.548ZM196.044 376.042L197.549 377.548L198.964 376.134L197.458 374.628L196.044 376.042ZM196.057 376.055L196.06 376.057L197.442 374.612L197.44 374.61L196.057 376.055ZM197.437 376.058L197.439 376.055L196.057 374.61L196.054 374.612L197.437 376.058ZM195.948 377.548L197.453 376.042L196.038 374.628L194.533 376.134L195.948 377.548ZM191.833 377.548C192.977 378.693 194.804 378.693 195.948 377.548L194.533 376.134C194.17 376.497 193.61 376.497 193.248 376.134L191.833 377.548ZM190.328 376.042L191.833 377.548L193.248 376.134L191.743 374.628L190.328 376.042ZM190.342 376.055L190.344 376.058L191.726 374.612L191.723 374.609L190.342 376.055ZM191.721 376.058L191.723 376.055L190.341 374.609L190.339 374.612L191.721 376.058ZM190.232 377.548L191.737 376.042L190.322 374.628L188.817 376.134L190.232 377.548ZM186.117 377.548C187.261 378.693 189.088 378.693 190.232 377.548L188.817 376.134C188.455 376.497 187.894 376.497 187.532 376.134L186.117 377.548ZM184.612 376.042L186.117 377.548L187.532 376.134L186.027 374.628L184.612 376.042ZM184.626 376.055L184.629 376.058L186.01 374.612L186.007 374.609L184.626 376.055ZM186.005 376.057L186.008 376.054L184.625 374.61L184.622 374.613L186.005 376.057ZM184.516 377.548L186.021 376.042L184.606 374.628L183.101 376.134L184.516 377.548ZM180.401 377.548C181.545 378.693 183.372 378.693 184.516 377.548L183.101 376.134C182.739 376.497 182.179 376.497 181.816 376.134L180.401 377.548ZM178.896 376.042L180.401 377.548L181.816 376.134L180.311 374.628L178.896 376.042ZM178.91 376.055L178.913 376.058L180.294 374.612L180.292 374.609L178.91 376.055ZM180.289 376.058L180.292 376.055L178.91 374.609L178.907 374.612L180.289 376.058ZM178.8 377.548L180.305 376.042L178.891 374.628L177.385 376.134L178.8 377.548ZM174.619 377.548C175.762 378.693 177.657 378.693 178.8 377.548L177.385 376.134C177.023 376.497 176.396 376.497 176.034 376.134L174.619 377.548ZM174.326 374.702V376.841H176.326V374.702H174.326ZM174.326 372.4V374.702H176.326V372.4H174.326ZM176.044 371.704L176.043 371.703L174.61 373.098L174.61 373.099L176.044 371.704ZM176.327 372.401V332.34H174.327V372.401H176.327ZM175.327 333.34H175.331V331.34H175.327V333.34ZM174.331 331.161V332.34H176.331V331.161H174.331Z" fill="#D8E6ED" fill-opacity="0.75" mask="url(#path-22-inside-1_117:17782)"/>
<path d="M198.978 344.026H180.764C179.734 344.026 179.002 343.485 179.002 342.789C179.002 342.113 179.734 341.591 180.764 341.591H198.978C199.954 341.591 200.713 342.113 200.713 342.789C200.713 343.485 199.954 344.026 198.978 344.026Z" fill="#181818"/>
<path d="M190.332 350.614H180.764C179.734 350.614 179.002 350.092 179.002 349.416C179.002 348.721 179.734 348.18 180.764 348.18H190.332C191.335 348.18 192.067 348.721 192.067 349.416C192.067 350.092 191.335 350.614 190.332 350.614Z" fill="#181818"/>
<path d="M198.396 370.626C198.706 370.626 198.944 370.412 198.944 370.078V369.28C200.874 369.102 202.327 368.006 202.327 366.195C202.327 364.575 201.279 363.622 199.206 363.229L198.944 363.181V360.215C199.695 360.346 200.231 360.799 200.457 361.502C200.624 361.895 200.886 362.121 201.315 362.121C201.791 362.121 202.125 361.811 202.125 361.347C202.125 361.204 202.089 361.073 202.053 360.942C201.732 359.703 200.54 358.821 198.944 358.654V357.856C198.944 357.535 198.706 357.32 198.396 357.32C198.086 357.32 197.86 357.535 197.86 357.856V358.654C195.978 358.845 194.644 359.989 194.644 361.656C194.644 363.193 195.68 364.11 197.658 364.563L197.86 364.611V367.744C196.895 367.601 196.335 367.088 196.145 366.386C195.978 365.969 195.704 365.742 195.299 365.742C194.799 365.742 194.477 366.076 194.477 366.552C194.477 366.695 194.501 366.826 194.549 366.969C194.894 368.232 196.157 369.125 197.86 369.268V370.078C197.86 370.412 198.086 370.626 198.396 370.626ZM197.86 362.907L197.777 362.883C196.824 362.597 196.383 362.181 196.383 361.549C196.383 360.882 196.943 360.346 197.86 360.203V362.907ZM198.944 364.873L199.159 364.932C200.207 365.206 200.576 365.635 200.576 366.314C200.576 367.077 200.028 367.625 198.944 367.744V364.873Z" fill="#66804D"/>
<path d="M155.659 272.66V273.776H153.439V281H152.071V273.776H149.839V272.66H155.659ZM161.377 281L159.457 277.664H158.413V281H157.045V272.66H159.925C160.565 272.66 161.105 272.772 161.545 272.996C161.993 273.22 162.325 273.52 162.541 273.896C162.765 274.272 162.877 274.692 162.877 275.156C162.877 275.7 162.717 276.196 162.397 276.644C162.085 277.084 161.601 277.384 160.945 277.544L163.009 281H161.377ZM158.413 276.572H159.925C160.437 276.572 160.821 276.444 161.077 276.188C161.341 275.932 161.473 275.588 161.473 275.156C161.473 274.724 161.345 274.388 161.089 274.148C160.833 273.9 160.445 273.776 159.925 273.776H158.413V276.572ZM169.655 279.296H166.163L165.563 281H164.135L167.123 272.648H168.707L171.695 281H170.255L169.655 279.296ZM169.271 278.18L167.915 274.304L166.547 278.18H169.271ZM179.846 281H178.478L174.362 274.772V281H172.994V272.648H174.362L178.478 278.864V272.648H179.846V281ZM184.39 281.084C183.83 281.084 183.326 280.988 182.878 280.796C182.43 280.596 182.078 280.316 181.822 279.956C181.566 279.596 181.438 279.176 181.438 278.696H182.902C182.934 279.056 183.074 279.352 183.322 279.584C183.578 279.816 183.934 279.932 184.39 279.932C184.862 279.932 185.23 279.82 185.494 279.596C185.758 279.364 185.89 279.068 185.89 278.708C185.89 278.428 185.806 278.2 185.638 278.024C185.478 277.848 185.274 277.712 185.026 277.616C184.786 277.52 184.45 277.416 184.018 277.304C183.474 277.16 183.03 277.016 182.686 276.872C182.35 276.72 182.062 276.488 181.822 276.176C181.582 275.864 181.462 275.448 181.462 274.928C181.462 274.448 181.582 274.028 181.822 273.668C182.062 273.308 182.398 273.032 182.83 272.84C183.262 272.648 183.762 272.552 184.33 272.552C185.138 272.552 185.798 272.756 186.31 273.164C186.83 273.564 187.118 274.116 187.174 274.82H185.662C185.638 274.516 185.494 274.256 185.23 274.04C184.966 273.824 184.618 273.716 184.186 273.716C183.794 273.716 183.474 273.816 183.226 274.016C182.978 274.216 182.854 274.504 182.854 274.88C182.854 275.136 182.93 275.348 183.082 275.516C183.242 275.676 183.442 275.804 183.682 275.9C183.922 275.996 184.25 276.1 184.666 276.212C185.218 276.364 185.666 276.516 186.01 276.668C186.362 276.82 186.658 277.056 186.898 277.376C187.146 277.688 187.27 278.108 187.27 278.636C187.27 279.06 187.154 279.46 186.922 279.836C186.698 280.212 186.366 280.516 185.926 280.748C185.494 280.972 184.982 281.084 184.39 281.084ZM193.912 279.296H190.42L189.82 281H188.392L191.38 272.648H192.964L195.952 281H194.512L193.912 279.296ZM193.528 278.18L192.172 274.304L190.804 278.18H193.528ZM196.796 276.812C196.796 275.996 196.984 275.264 197.36 274.616C197.744 273.968 198.26 273.464 198.908 273.104C199.564 272.736 200.28 272.552 201.056 272.552C201.944 272.552 202.732 272.772 203.42 273.212C204.116 273.644 204.62 274.26 204.932 275.06H203.288C203.072 274.62 202.772 274.292 202.388 274.076C202.004 273.86 201.56 273.752 201.056 273.752C200.504 273.752 200.012 273.876 199.58 274.124C199.148 274.372 198.808 274.728 198.56 275.192C198.32 275.656 198.2 276.196 198.2 276.812C198.2 277.428 198.32 277.968 198.56 278.432C198.808 278.896 199.148 279.256 199.58 279.512C200.012 279.76 200.504 279.884 201.056 279.884C201.56 279.884 202.004 279.776 202.388 279.56C202.772 279.344 203.072 279.016 203.288 278.576H204.932C204.62 279.376 204.116 279.992 203.42 280.424C202.732 280.856 201.944 281.072 201.056 281.072C200.272 281.072 199.556 280.892 198.908 280.532C198.26 280.164 197.744 279.656 197.36 279.008C196.984 278.36 196.796 277.628 196.796 276.812ZM211.921 272.66V273.776H209.701V281H208.333V273.776H206.101V272.66H211.921ZM214.674 272.66V281H213.306V272.66H214.674ZM220.274 281.084C219.498 281.084 218.782 280.904 218.126 280.544C217.478 280.176 216.962 279.668 216.578 279.02C216.202 278.364 216.014 277.628 216.014 276.812C216.014 275.996 216.202 275.264 216.578 274.616C216.962 273.968 217.478 273.464 218.126 273.104C218.782 272.736 219.498 272.552 220.274 272.552C221.058 272.552 221.774 272.736 222.422 273.104C223.078 273.464 223.594 273.968 223.97 274.616C224.346 275.264 224.534 275.996 224.534 276.812C224.534 277.628 224.346 278.364 223.97 279.02C223.594 279.668 223.078 280.176 222.422 280.544C221.774 280.904 221.058 281.084 220.274 281.084ZM220.274 279.896C220.826 279.896 221.318 279.772 221.75 279.524C222.182 279.268 222.518 278.908 222.758 278.444C223.006 277.972 223.13 277.428 223.13 276.812C223.13 276.196 223.006 275.656 222.758 275.192C222.518 274.728 222.182 274.372 221.75 274.124C221.318 273.876 220.826 273.752 220.274 273.752C219.722 273.752 219.23 273.876 218.798 274.124C218.366 274.372 218.026 274.728 217.778 275.192C217.538 275.656 217.418 276.196 217.418 276.812C217.418 277.428 217.538 277.972 217.778 278.444C218.026 278.908 218.366 279.268 218.798 279.524C219.23 279.772 219.722 279.896 220.274 279.896ZM232.732 281H231.364L227.248 274.772V281H225.88V272.648H227.248L231.364 278.864V272.648H232.732V281Z" fill="#154C6B"/>
<path d="M166.161 251.367C166.161 252.328 166.802 252.987 167.781 252.987H214.227C215.206 252.987 215.847 252.328 215.847 251.367V223.172C215.847 222.192 215.206 221.552 214.227 221.552H167.781C166.802 221.552 166.161 222.192 166.161 223.172V251.367ZM169.909 248.693V225.846C169.909 225.47 170.079 225.3 170.455 225.3H211.571C211.948 225.3 212.099 225.47 212.099 225.846V248.693C212.099 249.069 211.948 249.22 211.571 249.22H170.455C170.079 249.22 169.909 249.069 169.909 248.693ZM171.755 246.395C171.755 247.035 172.113 247.393 172.734 247.393H209.292C209.914 247.393 210.272 247.035 210.272 246.395V228.144C210.272 227.504 209.914 227.146 209.292 227.146H172.734C172.113 227.146 171.755 227.504 171.755 228.144V246.395ZM173.751 245.001V229.538C173.751 229.274 173.883 229.142 174.147 229.142H186.616C185.033 230.894 184.016 233.7 184.016 237.241C184.016 240.801 185.033 243.626 186.634 245.397H174.147C173.883 245.397 173.751 245.246 173.751 245.001ZM198.01 237.241C198.01 233.7 196.993 230.894 195.355 229.142H207.88C208.125 229.142 208.275 229.274 208.275 229.538V245.001C208.275 245.246 208.125 245.397 207.88 245.397H195.336C196.975 243.626 198.01 240.801 198.01 237.241ZM190.929 245.02C188.424 245.02 186.295 242.025 186.295 237.241C186.295 232.495 188.424 229.519 190.929 229.519C193.547 229.519 195.731 232.495 195.731 237.241C195.731 242.025 193.547 245.02 190.929 245.02Z" fill="#B2C59F"/>
<path fill-rule="evenodd" clip-rule="evenodd" d="M169.909 248.693V225.846C169.909 225.47 170.079 225.3 170.455 225.3H211.571C211.948 225.3 212.099 225.47 212.099 225.846V248.693C212.099 249.069 211.948 249.22 211.571 249.22H170.455C170.079 249.22 169.909 249.069 169.909 248.693ZM172.734 247.393C172.113 247.393 171.755 247.035 171.755 246.395V228.144C171.755 227.504 172.113 227.146 172.734 227.146H209.292C209.914 227.146 210.272 227.504 210.272 228.144V246.395C210.272 247.035 209.914 247.393 209.292 247.393H172.734Z" fill="#B2C59F"/>
<path d="M173.751 245.001V229.538C173.751 229.274 173.883 229.142 174.147 229.142H186.616C185.033 230.894 184.016 233.7 184.016 237.241C184.016 240.801 185.033 243.626 186.634 245.397H174.147C173.883 245.397 173.751 245.246 173.751 245.001Z" fill="#B2C59F"/>
<path d="M198.01 237.241C198.01 233.7 196.993 230.894 195.355 229.142H207.88C208.125 229.142 208.275 229.274 208.275 229.538V245.001C208.275 245.246 208.125 245.397 207.88 245.397H195.336C196.975 243.626 198.01 240.801 198.01 237.241Z" fill="#B2C59F"/>
<path d="M171.751 246.396C171.751 247.036 172.109 247.394 172.731 247.394H209.289C209.91 247.394 210.268 247.036 210.268 246.396V228.145C210.268 227.505 209.91 227.147 209.289 227.147H172.731C172.109 227.147 171.751 227.505 171.751 228.145V246.396ZM173.748 245.002V229.539C173.748 229.275 173.88 229.143 174.143 229.143H186.612C185.03 230.895 184.013 233.701 184.013 237.242C184.013 240.802 185.03 243.627 186.631 245.397H174.143C173.88 245.397 173.748 245.247 173.748 245.002ZM198.007 237.242C198.007 233.701 196.99 230.895 195.351 229.143H207.876C208.121 229.143 208.272 229.275 208.272 229.539V245.002C208.272 245.247 208.121 245.397 207.876 245.397H195.332C196.971 243.627 198.007 240.802 198.007 237.242ZM190.925 245.021C188.42 245.021 186.292 242.026 186.292 237.242C186.292 232.496 188.42 229.52 190.925 229.52C193.543 229.52 195.728 232.496 195.728 237.242C195.728 242.026 193.543 245.021 190.925 245.021Z" fill="#8CA078"/>
<path d="M190.925 245.021C188.42 245.021 186.292 242.026 186.292 237.242C186.292 232.496 188.42 229.52 190.925 229.52C193.543 229.52 195.728 232.496 195.728 237.242C195.728 242.026 193.543 245.021 190.925 245.021Z" fill="#8CA078"/>
<rect opacity="0.35" x="332.833" y="17.8335" width="21" height="10.3333" rx="2.16667" stroke="black"/>
<path opacity="0.4" d="M355.333 21V25C356.138 24.6612 356.661 23.8731 356.661 23C356.661 22.1269 356.138 21.3388 355.333 21" fill="black"/>
<rect x="334.333" y="19.3335" width="18" height="7.33333" rx="1.33333" fill="black"/>
<path fill-rule="evenodd" clip-rule="evenodd" d="M319.667 19.615C321.892 19.6151 324.031 20.4693 325.644 22.0008C325.765 22.1191 325.959 22.1176 326.079 21.9975L327.239 20.8272C327.3 20.7663 327.334 20.6837 327.333 20.5979C327.333 20.5121 327.298 20.4299 327.237 20.3697C323.005 16.3175 316.329 16.3175 312.097 20.3697C312.035 20.4299 312.001 20.512 312 20.5978C311.999 20.6837 312.033 20.7662 312.094 20.8272L313.255 21.9975C313.374 22.1178 313.568 22.1193 313.69 22.0008C315.302 20.4692 317.442 19.615 319.667 19.615ZM319.667 23.4226C320.889 23.4226 322.068 23.8765 322.974 24.6963C323.097 24.8126 323.29 24.8101 323.409 24.6906L324.569 23.5203C324.63 23.4589 324.663 23.3756 324.663 23.2891C324.662 23.2025 324.626 23.12 324.564 23.0598C321.805 20.4954 317.532 20.4954 314.773 23.0598C314.71 23.12 314.675 23.2026 314.674 23.2891C314.673 23.3757 314.707 23.459 314.768 23.5203L315.927 24.6906C316.047 24.8101 316.24 24.8126 316.362 24.6963C317.268 23.877 318.446 23.4231 319.667 23.4226ZM321.989 25.9845C321.991 26.0712 321.957 26.1549 321.895 26.2157L319.89 28.2377C319.831 28.2971 319.751 28.3306 319.667 28.3306C319.583 28.3306 319.503 28.2971 319.445 28.2377L317.439 26.2157C317.377 26.1549 317.343 26.0712 317.345 25.9844C317.347 25.8976 317.384 25.8154 317.449 25.7573C318.729 24.675 320.605 24.675 321.886 25.7573C321.95 25.8155 321.988 25.8977 321.989 25.9845Z" fill="black"/>
<path fill-rule="evenodd" clip-rule="evenodd" d="M306 17.6665H305C304.448 17.6665 304 18.1142 304 18.6665V27.3332C304 27.8855 304.448 28.3332 305 28.3332H306C306.552 28.3332 307 27.8855 307 27.3332V18.6665C307 18.1142 306.552 17.6665 306 17.6665ZM300.333 19.9998H301.333C301.886 19.9998 302.333 20.4476 302.333 20.9998V27.3332C302.333 27.8855 301.886 28.3332 301.333 28.3332H300.333C299.781 28.3332 299.333 27.8855 299.333 27.3332V20.9998C299.333 20.4476 299.781 19.9998 300.333 19.9998ZM296.667 22.3332H295.667C295.114 22.3332 294.667 22.7809 294.667 23.3332V27.3332C294.667 27.8855 295.114 28.3332 295.667 28.3332H296.667C297.219 28.3332 297.667 27.8855 297.667 27.3332V23.3332C297.667 22.7809 297.219 22.3332 296.667 22.3332ZM292 24.3332H291C290.448 24.3332 290 24.7809 290 25.3332V27.3332C290 27.8855 290.448 28.3332 291 28.3332H292C292.552 28.3332 293 27.8855 293 27.3332V25.3332C293 24.7809 292.552 24.3332 292 24.3332Z" fill="black"/>
<path d="M34.5895 23.8765C34.0573 24.355 33.4616 24.5942 32.8024 24.5942C31.8356 24.5942 31.069 24.2671 30.5026 23.6128C29.9362 22.9585 29.653 22.0845 29.653 20.9907C29.653 20.3071 29.8117 19.6724 30.129 19.0864C30.4464 18.5005 30.8908 18.0366 31.4621 17.6948C32.0382 17.353 32.673 17.1821 33.3663 17.1821C34.0695 17.1821 34.7042 17.3604 35.2706 17.7168C35.8419 18.0684 36.2863 18.5688 36.6037 19.2183C36.921 19.8628 37.0846 20.6074 37.0944 21.4521V22.397C37.0944 23.5737 36.8624 24.5942 36.3986 25.4585C35.9396 26.3228 35.2829 26.9868 34.4284 27.4507C33.5739 27.9146 32.5778 28.1465 31.4401 28.1465H31.2863V26.1689L31.755 26.1616C33.4542 26.0786 34.3991 25.3169 34.5895 23.8765ZM33.4689 22.8145C34.006 22.8145 34.3917 22.5825 34.6261 22.1187V21.0933C34.6261 20.4097 34.5114 19.9043 34.2819 19.5771C34.0524 19.25 33.7423 19.0864 33.3517 19.0864C33.005 19.0864 32.7145 19.272 32.4801 19.6431C32.2457 20.0142 32.1286 20.4634 32.1286 20.9907C32.1286 21.5474 32.2482 21.9917 32.4874 22.3237C32.7267 22.6509 33.0538 22.8145 33.4689 22.8145ZM39.7474 25.605C40.1381 25.605 40.4628 25.7222 40.7216 25.9565C40.9804 26.186 41.1097 26.4814 41.1097 26.8428C41.1097 27.2041 40.9804 27.502 40.7216 27.7363C40.4628 27.9658 40.1381 28.0806 39.7474 28.0806C39.3519 28.0806 39.0248 27.9634 38.766 27.729C38.5121 27.4946 38.3851 27.1992 38.3851 26.8428C38.3851 26.4863 38.5121 26.1909 38.766 25.9565C39.0248 25.7222 39.3519 25.605 39.7474 25.605ZM39.7474 19.7603C40.1381 19.7603 40.4628 19.8774 40.7216 20.1118C40.9804 20.3413 41.1097 20.6367 41.1097 20.998C41.1097 21.3594 40.9804 21.6572 40.7216 21.8916C40.4628 22.1211 40.1381 22.2358 39.7474 22.2358C39.3519 22.2358 39.0248 22.1187 38.766 21.8843C38.5121 21.6499 38.3851 21.3545 38.3851 20.998C38.3851 20.6416 38.5121 20.3462 38.766 20.1118C39.0248 19.8774 39.3519 19.7603 39.7474 19.7603ZM48.963 23.8325H50.047V25.7368H48.963V28H46.4947V25.7368H42.3712L42.2247 24.228L46.4947 17.3579V17.3359H48.963V23.8325ZM44.5758 23.8325H46.4947V20.5513L46.3409 20.8003L44.5758 23.8325ZM56.3622 28H53.8866V20.1191L51.4549 20.8296V18.9546L56.1351 17.3359H56.3622V28Z" fill="black"/>
<path d="M31 71.7449C31 72.1294 31.1428 72.459 31.4504 72.7446L39.9978 81.1162C40.2395 81.3579 40.5471 81.4897 40.9097 81.4897C41.6348 81.4897 42.217 80.9185 42.217 80.1824C42.217 79.8198 42.0632 79.5012 41.8215 79.2485L34.1201 71.7449L41.8215 64.2412C42.0632 63.9885 42.217 63.6589 42.217 63.3074C42.217 62.5713 41.6348 62 40.9097 62C40.5471 62 40.2395 62.1318 39.9978 62.3735L31.4504 70.7341C31.1428 71.0308 31 71.3604 31 71.7449Z" fill="#9EA9B2"/>
<path d="M299 72C299 56.536 311.536 44 327 44V44C342.464 44 355 56.536 355 72V72C355 87.464 342.464 100 327 100V100C311.536 100 299 87.464 299 72V72Z" fill="#FCEDB7"/>
<path d="M322.907 78.7385L327.646 73.9997L332.385 78.7385C332.866 79.2202 333.667 79.2279 334.156 78.7385C334.645 78.2491 334.638 77.449 334.156 76.9673L329.417 72.2285L334.156 67.4897C334.638 67.0081 334.645 66.2079 334.156 65.7185C333.667 65.2291 332.866 65.2369 332.385 65.7185L327.646 70.4573L322.907 65.7185C322.426 65.2369 321.625 65.2291 321.136 65.7185C320.647 66.2079 320.654 67.0081 321.136 67.4897L325.875 72.2285L321.136 76.9673C320.654 77.449 320.647 78.2491 321.136 78.7385C321.625 79.2279 322.426 79.2202 322.907 78.7385Z" fill="#E1A200"/>
</svg>
