<svg width="375" height="812" viewBox="0 0 375 812" fill="none" xmlns="http://www.w3.org/2000/svg">
<path d="M374.915 44.0536C374.915 19.8411 355.095 0.0424414 330.881 0.0212209L282.645 0.0212209C280.608 0.0212209 278.953 1.67641 278.953 3.71358C278.953 17.8676 267.366 29.454 253.211 29.454H109.056C94.9012 29.454 83.3145 17.8676 83.3145 3.71358V3.69236C83.3145 1.6552 81.6592 0 79.622 0L44.034 0C19.8206 0 0 19.8199 0 44.0324L0.0636651 767.946C0.0636651 792.159 19.8843 811.958 44.0977 811.979L330.966 812C355.179 812 375 792.18 375 767.968L374.915 44.0536Z" fill="white"/>
<rect x="20.5" y="406.5" width="334" height="158" rx="19.5" fill="#F3FBFF"/>
<path d="M85.5 545C76.9472 545 68.614 542.292 61.6947 537.265C54.7754 532.238 49.6252 525.149 46.9822 517.015C44.3393 508.881 44.3393 500.119 46.9822 491.985C49.6252 483.851 54.7754 476.762 61.6947 471.735L85.5 504.5L85.5 545Z" fill="#FFD260"/>
<path d="M257.294 445.262H258.958V443.156C262.754 442.896 264.834 440.426 264.834 437.774C264.834 433.926 261.662 433.224 258.958 432.522V427.608C259.972 427.92 260.596 428.7 260.7 429.714H264.626C264.392 426.62 262.208 424.878 258.958 424.618V422.512H257.294V424.618C253.914 424.878 251.47 426.88 251.47 429.948C251.47 433.796 254.616 434.55 257.294 435.226V440.192C256.098 439.932 255.474 439.126 255.37 437.93H251.47C251.548 441.05 253.94 442.844 257.294 443.13V445.262ZM261.064 437.93C261.064 439.1 260.284 440.01 258.958 440.244V435.694C260.18 436.11 261.064 436.708 261.064 437.93ZM255.266 429.766C255.266 428.44 256.098 427.712 257.294 427.53V432.028C256.098 431.612 255.266 430.988 255.266 429.766ZM271.654 432.964C269.782 433.744 268.612 435.382 268.612 437.618C268.612 441.232 271.576 443.416 275.45 443.416C279.35 443.416 282.314 441.232 282.314 437.618C282.314 435.408 281.144 433.77 279.272 432.964C280.754 432.21 281.846 430.78 281.846 428.778C281.846 426.074 279.766 423.682 275.45 423.682C271.134 423.682 269.054 426.048 269.054 428.778C269.054 430.832 270.094 432.158 271.654 432.964ZM275.45 431.898C273.812 431.898 272.616 430.884 272.616 429.324C272.616 427.556 273.76 426.62 275.45 426.62C277.192 426.62 278.31 427.582 278.31 429.298C278.31 430.858 277.114 431.898 275.45 431.898ZM275.45 434.55C277.4 434.55 278.752 435.59 278.752 437.462C278.752 439.126 277.53 440.4 275.45 440.4C273.37 440.4 272.122 439.152 272.122 437.462C272.122 435.538 273.552 434.55 275.45 434.55ZM284.123 446.744H286.489L289.713 438.996H285.865L284.123 446.744ZM291.816 433.276C291.816 438.814 293.48 442.948 298.836 442.948C304.192 442.948 305.856 438.814 305.856 433.276C305.856 427.79 304.192 423.682 298.836 423.682C293.48 423.682 291.816 427.79 291.816 433.276ZM302.268 433.276C302.268 436.656 301.904 439.568 298.836 439.568C295.768 439.568 295.404 436.656 295.404 433.276C295.404 430.026 295.768 427.062 298.836 427.062C301.904 427.062 302.268 430.026 302.268 433.276ZM317.568 443H321.208V439.308H323.496V436.136H321.208V424.28H316.97L308.468 436.448V439.308H317.568V443ZM312.472 436.136L317.802 428.18V436.136H312.472ZM325.866 429.038H329.428C329.558 427.842 330.312 426.698 332.08 426.698C333.744 426.698 334.654 427.582 334.654 429.064C334.654 430.936 333.094 431.534 330.962 431.534H330.208V434.524H330.962C333.666 434.524 335.018 435.304 335.018 437.436C335.018 438.944 334.082 440.088 332.262 440.088C330.312 440.088 329.22 438.918 329.142 437.28H325.606C325.762 441.258 328.596 443.13 332.34 443.13C336.318 443.13 338.502 440.842 338.502 437.748C338.502 435.174 337.228 433.614 335.304 433.016V432.912C336.682 432.444 338.164 430.988 338.164 428.622C338.164 425.814 336.084 423.604 332.184 423.604C328.544 423.604 326.048 425.528 325.866 429.038Z" fill="#154C6B"/>
<path d="M41.886 431.644H36.518V447H41.886C46.792 447 49.982 443.986 49.982 439.344C49.982 434.68 46.792 431.644 41.886 431.644ZM39.598 444.382V434.24H41.776C45.01 434.24 46.836 436.154 46.836 439.344C46.836 442.534 45.01 444.382 41.776 444.382H39.598ZM64.0575 440.906C64.0575 437.056 61.3075 434.614 57.7875 434.614C54.2675 434.614 51.5175 437.056 51.5175 440.906C51.5175 444.734 54.1795 447.198 57.6995 447.198C61.2415 447.198 64.0575 444.734 64.0575 440.906ZM54.6415 440.906C54.6415 438.464 56.1155 437.298 57.7435 437.298C59.3715 437.298 60.8895 438.464 60.8895 440.906C60.8895 443.326 59.3275 444.514 57.6995 444.514C56.0495 444.514 54.6415 443.326 54.6415 440.906ZM68.5388 447H71.8828L74.1048 438.486L76.3268 447H79.6488L83.2128 434.812H80.2648L78.1088 444.074L75.8208 434.812H72.5648L70.2328 444.096L68.0768 434.812H64.9528L68.5388 447ZM93.4153 447H96.4953V439.85C96.4953 436.484 94.4713 434.636 91.6333 434.636C90.0713 434.636 88.7513 435.296 87.9593 436.33V434.812H84.8793V447H87.9593V440.268C87.9593 438.31 89.0373 437.254 90.7093 437.254C92.3373 437.254 93.4153 438.31 93.4153 440.268V447ZM107.746 436.572V434.812H104.666V452.808H107.746V445.262C108.494 446.252 109.858 447.198 111.772 447.198C114.896 447.198 117.338 444.668 117.338 440.862C117.338 437.056 114.896 434.614 111.772 434.614C109.88 434.614 108.472 435.538 107.746 436.572ZM114.192 440.862C114.192 443.172 112.63 444.492 110.958 444.492C109.308 444.492 107.746 443.216 107.746 440.906C107.746 438.596 109.308 437.32 110.958 437.32C112.63 437.32 114.192 438.552 114.192 440.862ZM118.785 440.862C118.785 444.668 121.249 447.198 124.329 447.198C126.265 447.198 127.651 446.274 128.377 445.218V447H131.479V434.812H128.377V436.55C127.651 435.538 126.309 434.614 124.351 434.614C121.249 434.614 118.785 437.056 118.785 440.862ZM128.377 440.906C128.377 443.216 126.837 444.492 125.143 444.492C123.493 444.492 121.931 443.172 121.931 440.862C121.931 438.552 123.493 437.32 125.143 437.32C126.837 437.32 128.377 438.596 128.377 440.906ZM139.679 443.326L136.533 434.812H133.079L137.963 446.692L135.323 452.764H138.601L146.147 434.812H142.869L139.679 443.326ZM164.857 447H167.937V439.85C167.937 436.484 165.869 434.636 162.943 434.636C161.161 434.636 159.555 435.582 158.763 436.968C157.927 435.45 156.365 434.636 154.473 434.636C152.955 434.636 151.657 435.274 150.887 436.286V434.812H147.807V447H150.887V440.268C150.887 438.332 151.965 437.32 153.637 437.32C155.265 437.32 156.343 438.332 156.343 440.268V447H159.423V440.268C159.423 438.332 160.501 437.32 162.151 437.32C163.779 437.32 164.857 438.332 164.857 440.268V447ZM176.096 437.144C177.68 437.144 178.956 438.156 179 439.762H173.214C173.456 438.09 174.622 437.144 176.096 437.144ZM181.882 443.172H178.56C178.164 443.986 177.438 444.646 176.118 444.646C174.578 444.646 173.346 443.634 173.192 441.83H182.102C182.168 441.434 182.19 441.038 182.19 440.642C182.19 437.012 179.704 434.614 176.184 434.614C172.576 434.614 170.068 437.056 170.068 440.906C170.068 444.734 172.642 447.198 176.184 447.198C179.198 447.198 181.222 445.416 181.882 443.172ZM192.974 447H196.054V439.85C196.054 436.484 194.03 434.636 191.192 434.636C189.63 434.636 188.31 435.296 187.518 436.33V434.812H184.438V447H187.518V440.268C187.518 438.31 188.596 437.254 190.268 437.254C191.896 437.254 192.974 438.31 192.974 440.268V447ZM199.467 443.216C199.467 446.01 201.029 447 203.361 447H205.297V444.404H203.867C202.899 444.404 202.569 444.052 202.569 443.238V437.342H205.297V434.812H202.569V431.798H199.467V434.812H198.015V437.342H199.467V443.216Z" fill="#154C6B"/>
<path d="M176.936 474.06C176.72 473.644 176.42 473.332 176.036 473.124C175.652 472.908 175.208 472.8 174.704 472.8C174.152 472.8 173.66 472.924 173.228 473.172C172.796 473.42 172.456 473.772 172.208 474.228C171.968 474.684 171.848 475.212 171.848 475.812C171.848 476.412 171.968 476.944 172.208 477.408C172.456 477.864 172.796 478.216 173.228 478.464C173.66 478.712 174.152 478.836 174.704 478.836C175.448 478.836 176.052 478.628 176.516 478.212C176.98 477.796 177.264 477.232 177.368 476.52H174.236V475.428H178.832V476.496C178.744 477.144 178.512 477.74 178.136 478.284C177.768 478.828 177.284 479.264 176.684 479.592C176.092 479.912 175.432 480.072 174.704 480.072C173.92 480.072 173.204 479.892 172.556 479.532C171.908 479.164 171.392 478.656 171.008 478.008C170.632 477.36 170.444 476.628 170.444 475.812C170.444 474.996 170.632 474.264 171.008 473.616C171.392 472.968 171.908 472.464 172.556 472.104C173.212 471.736 173.928 471.552 174.704 471.552C175.592 471.552 176.38 471.772 177.068 472.212C177.764 472.644 178.268 473.26 178.58 474.06H176.936ZM183.985 480.084C183.209 480.084 182.493 479.904 181.837 479.544C181.189 479.176 180.673 478.668 180.289 478.02C179.913 477.364 179.725 476.628 179.725 475.812C179.725 474.996 179.913 474.264 180.289 473.616C180.673 472.968 181.189 472.464 181.837 472.104C182.493 471.736 183.209 471.552 183.985 471.552C184.769 471.552 185.485 471.736 186.133 472.104C186.789 472.464 187.305 472.968 187.681 473.616C188.057 474.264 188.245 474.996 188.245 475.812C188.245 476.628 188.057 477.364 187.681 478.02C187.305 478.668 186.789 479.176 186.133 479.544C185.485 479.904 184.769 480.084 183.985 480.084ZM183.985 478.896C184.537 478.896 185.029 478.772 185.461 478.524C185.893 478.268 186.229 477.908 186.469 477.444C186.717 476.972 186.841 476.428 186.841 475.812C186.841 475.196 186.717 474.656 186.469 474.192C186.229 473.728 185.893 473.372 185.461 473.124C185.029 472.876 184.537 472.752 183.985 472.752C183.433 472.752 182.941 472.876 182.509 473.124C182.077 473.372 181.737 473.728 181.489 474.192C181.249 474.656 181.129 475.196 181.129 475.812C181.129 476.428 181.249 476.972 181.489 477.444C181.737 477.908 182.077 478.268 182.509 478.524C182.941 478.772 183.433 478.896 183.985 478.896ZM194.619 478.296H191.127L190.527 480H189.099L192.087 471.648H193.671L196.659 480H195.219L194.619 478.296ZM194.235 477.18L192.879 473.304L191.511 477.18H194.235ZM199.327 478.896H202.147V480H197.959V471.66H199.327V478.896Z" fill="#154C6B"/>
<path d="M174.432 502.392H175.456V501.096C177.792 500.936 179.072 499.416 179.072 497.784C179.072 495.416 177.12 494.984 175.456 494.552V491.528C176.08 491.72 176.464 492.2 176.528 492.824H178.944C178.8 490.92 177.456 489.848 175.456 489.688V488.392H174.432V489.688C172.352 489.848 170.848 491.08 170.848 492.968C170.848 495.336 172.784 495.8 174.432 496.216V499.272C173.696 499.112 173.312 498.616 173.248 497.88H170.848C170.896 499.8 172.368 500.904 174.432 501.08V502.392ZM176.752 497.88C176.752 498.6 176.272 499.16 175.456 499.304V496.504C176.208 496.76 176.752 497.128 176.752 497.88ZM173.184 492.856C173.184 492.04 173.696 491.592 174.432 491.48V494.248C173.696 493.992 173.184 493.608 173.184 492.856ZM181.189 500.84H189.093V498.984H184.373C186.229 497.416 188.837 495.304 188.837 492.6C188.837 490.568 187.573 489.08 185.061 489.08C182.965 489.08 181.253 490.312 181.173 492.984H183.349C183.365 491.752 183.957 490.984 185.029 490.984C186.133 490.984 186.597 491.688 186.597 492.728C186.597 494.872 183.829 496.936 181.189 499.176V500.84ZM190.504 495.016C190.504 498.424 191.528 500.968 194.824 500.968C198.12 500.968 199.144 498.424 199.144 495.016C199.144 491.64 198.12 489.112 194.824 489.112C191.528 489.112 190.504 491.64 190.504 495.016ZM196.936 495.016C196.936 497.096 196.712 498.888 194.824 498.888C192.936 498.888 192.712 497.096 192.712 495.016C192.712 493.016 192.936 491.192 194.824 491.192C196.712 491.192 196.936 493.016 196.936 495.016ZM200.192 503.304H201.648L203.632 498.536H201.264L200.192 503.304ZM204.926 495.016C204.926 498.424 205.95 500.968 209.246 500.968C212.542 500.968 213.566 498.424 213.566 495.016C213.566 491.64 212.542 489.112 209.246 489.112C205.95 489.112 204.926 491.64 204.926 495.016ZM211.358 495.016C211.358 497.096 211.134 498.888 209.246 498.888C207.358 498.888 207.134 497.096 207.134 495.016C207.134 493.016 207.358 491.192 209.246 491.192C211.134 491.192 211.358 493.016 211.358 495.016ZM215.27 495.016C215.27 498.424 216.294 500.968 219.59 500.968C222.886 500.968 223.91 498.424 223.91 495.016C223.91 491.64 222.886 489.112 219.59 489.112C216.294 489.112 215.27 491.64 215.27 495.016ZM221.702 495.016C221.702 497.096 221.478 498.888 219.59 498.888C217.702 498.888 217.478 497.096 217.478 495.016C217.478 493.016 217.702 491.192 219.59 491.192C221.478 491.192 221.702 493.016 221.702 495.016ZM225.614 495.016C225.614 498.424 226.638 500.968 229.934 500.968C233.23 500.968 234.254 498.424 234.254 495.016C234.254 491.64 233.23 489.112 229.934 489.112C226.638 489.112 225.614 491.64 225.614 495.016ZM232.046 495.016C232.046 497.096 231.822 498.888 229.934 498.888C228.046 498.888 227.822 497.096 227.822 495.016C227.822 493.016 228.046 491.192 229.934 491.192C231.822 491.192 232.046 493.016 232.046 495.016Z" fill="#154C6B"/>
<path d="M176.732 522.144C176.732 522.568 176.632 522.968 176.432 523.344C176.232 523.72 175.912 524.028 175.472 524.268C175.032 524.5 174.468 524.616 173.78 524.616H172.268V528H170.9V519.66H173.78C174.42 519.66 174.96 519.772 175.4 519.996C175.848 520.212 176.18 520.508 176.396 520.884C176.62 521.26 176.732 521.68 176.732 522.144ZM173.78 523.5C174.3 523.5 174.688 523.384 174.944 523.152C175.2 522.912 175.328 522.576 175.328 522.144C175.328 521.232 174.812 520.776 173.78 520.776H172.268V523.5H173.78ZM183.065 526.296H179.573L178.973 528H177.545L180.533 519.648H182.117L185.105 528H183.665L183.065 526.296ZM182.681 525.18L181.325 521.304L179.957 525.18H182.681ZM192.584 519.66L189.824 524.976V528H188.456V524.976L185.684 519.66H187.208L189.14 523.752L191.072 519.66H192.584ZM202.454 519.66V528H201.086V522.288L198.542 528H197.594L195.038 522.288V528H193.67V519.66H195.146L198.074 526.2L200.99 519.66H202.454ZM205.62 520.764V523.212H208.5V524.328H205.62V526.884H208.86V528H204.252V519.648H208.86V520.764H205.62ZM217.397 528H216.029L211.913 521.772V528H210.545V519.648H211.913L216.029 525.864V519.648H217.397V528ZM224.581 519.66V520.776H222.361V528H220.993V520.776H218.761V519.66H224.581Z" fill="#154C6B"/>
<path d="M272.928 526.296H269.436L268.836 528H267.408L270.396 519.648H271.98L274.968 528H273.528L272.928 526.296ZM272.544 525.18L271.188 521.304L269.82 525.18H272.544ZM275.811 523.812C275.811 522.996 275.999 522.264 276.375 521.616C276.759 520.968 277.275 520.464 277.923 520.104C278.579 519.736 279.295 519.552 280.071 519.552C280.959 519.552 281.747 519.772 282.435 520.212C283.131 520.644 283.635 521.26 283.947 522.06H282.303C282.087 521.62 281.787 521.292 281.403 521.076C281.019 520.86 280.575 520.752 280.071 520.752C279.519 520.752 279.027 520.876 278.595 521.124C278.163 521.372 277.823 521.728 277.575 522.192C277.335 522.656 277.215 523.196 277.215 523.812C277.215 524.428 277.335 524.968 277.575 525.432C277.823 525.896 278.163 526.256 278.595 526.512C279.027 526.76 279.519 526.884 280.071 526.884C280.575 526.884 281.019 526.776 281.403 526.56C281.787 526.344 282.087 526.016 282.303 525.576H283.947C283.635 526.376 283.131 526.992 282.435 527.424C281.747 527.856 280.959 528.072 280.071 528.072C279.287 528.072 278.571 527.892 277.923 527.532C277.275 527.164 276.759 526.656 276.375 526.008C275.999 525.36 275.811 524.628 275.811 523.812ZM292.208 519.66V528H290.84V524.352H286.916V528H285.548V519.66H286.916V523.236H290.84V519.66H292.208ZM295.377 519.66V528H294.009V519.66H295.377ZM298.541 520.764V523.212H301.421V524.328H298.541V526.884H301.781V528H297.173V519.648H301.781V520.764H298.541ZM310.654 519.66L307.522 528H305.938L302.794 519.66H304.258L306.73 526.596L309.214 519.66H310.654ZM313.166 520.764V523.212H316.046V524.328H313.166V526.884H316.406V528H311.798V519.648H316.406V520.764H313.166ZM325.673 523.716C326.121 523.796 326.501 524.032 326.813 524.424C327.125 524.816 327.281 525.26 327.281 525.756C327.281 526.18 327.169 526.564 326.945 526.908C326.729 527.244 326.413 527.512 325.997 527.712C325.581 527.904 325.097 528 324.545 528H321.209V519.66H324.389C324.957 519.66 325.445 519.756 325.853 519.948C326.261 520.14 326.569 520.4 326.777 520.728C326.985 521.048 327.089 521.408 327.089 521.808C327.089 522.288 326.961 522.688 326.705 523.008C326.449 523.328 326.105 523.564 325.673 523.716ZM322.577 523.164H324.269C324.717 523.164 325.065 523.064 325.313 522.864C325.569 522.656 325.697 522.36 325.697 521.976C325.697 521.6 325.569 521.308 325.313 521.1C325.065 520.884 324.717 520.776 324.269 520.776H322.577V523.164ZM324.425 526.884C324.889 526.884 325.253 526.772 325.517 526.548C325.781 526.324 325.913 526.012 325.913 525.612C325.913 525.204 325.773 524.88 325.493 524.64C325.213 524.4 324.841 524.28 324.377 524.28H322.577V526.884H324.425ZM334.947 519.66L332.187 524.976V528H330.819V524.976L328.047 519.66H329.571L331.503 523.752L333.435 519.66H334.947Z" fill="#154C6B"/>
<path d="M174.432 550.392H175.456V549.096C177.792 548.936 179.072 547.416 179.072 545.784C179.072 543.416 177.12 542.984 175.456 542.552V539.528C176.08 539.72 176.464 540.2 176.528 540.824H178.944C178.8 538.92 177.456 537.848 175.456 537.688V536.392H174.432V537.688C172.352 537.848 170.848 539.08 170.848 540.968C170.848 543.336 172.784 543.8 174.432 544.216V547.272C173.696 547.112 173.312 546.616 173.248 545.88H170.848C170.896 547.8 172.368 548.904 174.432 549.08V550.392ZM176.752 545.88C176.752 546.6 176.272 547.16 175.456 547.304V544.504C176.208 544.76 176.752 545.128 176.752 545.88ZM173.184 540.856C173.184 540.04 173.696 539.592 174.432 539.48V542.248C173.696 541.992 173.184 541.608 173.184 540.856ZM181.349 540.408H183.541C183.621 539.672 184.085 538.968 185.173 538.968C186.197 538.968 186.757 539.512 186.757 540.424C186.757 541.576 185.797 541.944 184.485 541.944H184.021V543.784H184.485C186.149 543.784 186.981 544.264 186.981 545.576C186.981 546.504 186.405 547.208 185.285 547.208C184.085 547.208 183.413 546.488 183.365 545.48H181.189C181.285 547.928 183.029 549.08 185.333 549.08C187.781 549.08 189.125 547.672 189.125 545.768C189.125 544.184 188.341 543.224 187.157 542.856V542.792C188.005 542.504 188.917 541.608 188.917 540.152C188.917 538.424 187.637 537.064 185.237 537.064C182.997 537.064 181.461 538.248 181.349 540.408ZM190.895 543.016C190.895 546.424 191.919 548.968 195.215 548.968C198.511 548.968 199.535 546.424 199.535 543.016C199.535 539.64 198.511 537.112 195.215 537.112C191.919 537.112 190.895 539.64 190.895 543.016ZM197.327 543.016C197.327 545.096 197.103 546.888 195.215 546.888C193.327 546.888 193.103 545.096 193.103 543.016C193.103 541.016 193.327 539.192 195.215 539.192C197.103 539.192 197.327 541.016 197.327 543.016ZM201.239 543.016C201.239 546.424 202.263 548.968 205.559 548.968C208.855 548.968 209.879 546.424 209.879 543.016C209.879 539.64 208.855 537.112 205.559 537.112C202.263 537.112 201.239 539.64 201.239 543.016ZM207.671 543.016C207.671 545.096 207.447 546.888 205.559 546.888C203.671 546.888 203.447 545.096 203.447 543.016C203.447 541.016 203.671 539.192 205.559 539.192C207.447 539.192 207.671 541.016 207.671 543.016Z" fill="#154C6B"/>
<path d="M272.36 545.672C272.36 546.552 271.944 547.112 271.112 547.112C270.264 547.112 269.832 546.536 269.816 545.592H267.576C267.576 547.848 269.048 549.112 271.144 549.112C273.208 549.112 274.616 547.88 274.616 545.672V537.832H272.36V545.672ZM276.653 544.536C276.653 547.304 278.445 549.144 280.685 549.144C282.093 549.144 283.101 548.472 283.629 547.704V549H285.885V540.136H283.629V541.4C283.101 540.664 282.125 539.992 280.701 539.992C278.445 539.992 276.653 541.768 276.653 544.536ZM283.629 544.568C283.629 546.248 282.509 547.176 281.277 547.176C280.077 547.176 278.941 546.216 278.941 544.536C278.941 542.856 280.077 541.96 281.277 541.96C282.509 541.96 283.629 542.888 283.629 544.568ZM294.281 549H296.521V543.8C296.521 541.352 295.049 540.008 292.985 540.008C291.849 540.008 290.889 540.488 290.313 541.24V540.136H288.073V549H290.313V544.104C290.313 542.68 291.097 541.912 292.313 541.912C293.497 541.912 294.281 542.68 294.281 544.104V549ZM302.079 548.84H309.983V546.984H305.263C307.119 545.416 309.727 543.304 309.727 540.6C309.727 538.568 308.463 537.08 305.951 537.08C303.855 537.08 302.143 538.312 302.063 540.984H304.239C304.255 539.752 304.847 538.984 305.919 538.984C307.023 538.984 307.487 539.688 307.487 540.728C307.487 542.872 304.719 544.936 302.079 547.176V548.84ZM311.395 543.016C311.395 546.424 312.419 548.968 315.715 548.968C319.011 548.968 320.035 546.424 320.035 543.016C320.035 539.64 319.011 537.112 315.715 537.112C312.419 537.112 311.395 539.64 311.395 543.016ZM317.827 543.016C317.827 545.096 317.603 546.888 315.715 546.888C313.827 546.888 313.603 545.096 313.603 543.016C313.603 541.016 313.827 539.192 315.715 539.192C317.603 539.192 317.827 541.016 317.827 543.016ZM321.611 548.84H329.515V546.984H324.795C326.651 545.416 329.259 543.304 329.259 540.6C329.259 538.568 327.995 537.08 325.483 537.08C323.387 537.08 321.675 538.312 321.595 540.984H323.771C323.787 539.752 324.379 538.984 325.451 538.984C326.555 538.984 327.019 539.688 327.019 540.728C327.019 542.872 324.251 544.936 321.611 547.176V548.84ZM330.798 548.84H338.702V546.984H333.982C335.838 545.416 338.446 543.304 338.446 540.6C338.446 538.568 337.182 537.08 334.67 537.08C332.574 537.08 330.862 538.312 330.782 540.984H332.958C332.974 539.752 333.566 538.984 334.638 538.984C335.742 538.984 336.206 539.688 336.206 540.728C336.206 542.872 333.438 544.936 330.798 547.176V548.84Z" fill="#154C6B"/>
<path d="M66.9697 499.878C66.9697 500.858 67.7231 501.705 68.9285 501.705C69.5124 501.705 70.0398 501.385 70.5106 501.008L72.6578 499.2V516.717C72.6578 519.504 74.3341 521.161 77.2157 521.161H102.699C105.562 521.161 107.257 519.504 107.257 516.717V499.106L109.517 501.008C109.969 501.385 110.496 501.705 111.08 501.705C112.192 501.705 113.039 501.008 113.039 499.916C113.039 499.276 112.794 498.767 112.305 498.353L107.257 494.096V486.073C107.257 485.225 106.711 484.698 105.863 484.698H103.264C102.435 484.698 101.87 485.225 101.87 486.073V489.576L92.6978 481.873C91.0592 480.498 88.9874 480.498 87.3488 481.873L67.7231 498.353C67.2146 498.767 66.9697 499.332 66.9697 499.878ZM95.4288 505.077C95.4288 504.191 94.8638 503.626 93.9785 503.626H86.068C85.1828 503.626 84.5989 504.191 84.5989 505.077V517.413H78.214C77.0462 517.413 76.4059 516.754 76.4059 515.568V496.055L89.1946 485.319C89.7219 484.867 90.3246 484.867 90.852 485.319L103.49 495.942V515.568C103.49 516.754 102.85 517.413 101.682 517.413H95.4288V505.077Z" fill="#7AA2B9"/>
<path d="M95.4288 505.077C95.4288 504.191 94.8638 503.626 93.9785 503.626H86.068C85.1828 503.626 84.5989 504.191 84.5989 505.077V517.413H78.214C77.0462 517.413 76.4059 516.754 76.4059 515.568V496.055L89.1946 485.319C89.7219 484.867 90.3246 484.867 90.852 485.319L103.49 495.942V515.568C103.49 516.754 102.85 517.413 101.682 517.413H95.4288V505.077Z" fill="#7AA2B9"/>
<path fill-rule="evenodd" clip-rule="evenodd" d="M66.9697 499.878C66.9697 500.858 67.7231 501.705 68.9285 501.705C69.5124 501.705 70.0398 501.385 70.5106 501.008L72.6578 499.2L76.4059 496.055L89.1946 485.319C89.7219 484.867 90.3246 484.867 90.852 485.319L103.49 495.942L107.257 499.106L109.517 501.008C109.969 501.385 110.496 501.705 111.08 501.705C112.192 501.705 113.039 501.008 113.039 499.916C113.039 499.276 112.794 498.767 112.305 498.353L107.257 494.096V486.073C107.257 485.225 106.711 484.698 105.863 484.698H103.264C102.435 484.698 101.87 485.225 101.87 486.073V489.576L92.6978 481.873C91.0592 480.498 88.9874 480.498 87.3488 481.873L67.7231 498.353C67.2146 498.767 66.9697 499.332 66.9697 499.878ZM95.4288 517.413V505.077C95.4288 504.191 94.8638 503.626 93.9785 503.626H86.068C85.1828 503.626 84.5989 504.191 84.5989 505.077V517.413V521.161H95.4288V517.413Z" fill="#815738"/>
<path fill-rule="evenodd" clip-rule="evenodd" d="M95.4298 517.413V505.077C95.4298 504.191 94.8647 503.626 93.9795 503.626H86.069C85.1838 503.626 84.5999 504.191 84.5999 505.077V517.413V521.161H95.4298V517.413Z" fill="#EEF7FC"/>
<rect x="20.5" y="406.5" width="334" height="158" rx="19.5" stroke="#E8F3FA"/>
<rect x="229" y="731" width="56" height="56" rx="28" fill="#154C6B"/>
<path d="M251.677 804H123.323C121.774 804 120.5 802.647 120.5 801C120.5 799.353 121.774 798 123.323 798H251.677C253.226 798 254.5 799.353 254.5 801C254.479 802.647 253.226 804 251.677 804Z" fill="#373737"/>
<path d="M326.995 769.386C332.69 769.386 337.391 764.685 337.391 759C337.391 753.315 332.68 748.614 326.985 748.614C321.3 748.614 316.609 753.315 316.609 759C316.609 764.685 321.31 769.386 326.995 769.386ZM326.995 767.317C322.385 767.317 318.698 763.61 318.698 759C318.698 754.389 322.385 750.693 326.985 750.693C331.595 750.693 335.302 754.389 335.312 759C335.322 763.61 331.606 767.317 326.995 767.317ZM326.985 764.645C327.246 764.645 327.447 764.454 327.447 764.183V763.51C329.074 763.359 330.3 762.425 330.3 760.898C330.3 759.532 329.416 758.729 327.668 758.407L327.447 758.357V755.866C328.09 755.976 328.532 756.358 328.723 756.951C328.873 757.282 329.084 757.473 329.446 757.473C329.848 757.473 330.129 757.202 330.129 756.82C330.129 756.7 330.099 756.589 330.079 756.469C329.808 755.434 328.793 754.691 327.447 754.55V753.877C327.447 753.606 327.246 753.415 326.985 753.415C326.724 753.415 326.533 753.606 326.533 753.877V754.55C324.946 754.711 323.821 755.675 323.821 757.071C323.821 758.377 324.695 759.141 326.362 759.522L326.533 759.562V762.214C325.719 762.094 325.247 761.662 325.087 761.069C324.946 760.708 324.715 760.527 324.373 760.527C323.952 760.527 323.68 760.808 323.68 761.21C323.68 761.32 323.71 761.431 323.741 761.561C324.032 762.626 325.097 763.369 326.533 763.5V764.183C326.533 764.464 326.724 764.645 326.985 764.645ZM326.533 758.126L326.463 758.106C325.659 757.875 325.287 757.523 325.287 756.981C325.287 756.429 325.76 755.976 326.533 755.856V758.126ZM327.447 759.793L327.638 759.834C328.512 760.075 328.823 760.436 328.823 761.009C328.823 761.642 328.361 762.104 327.447 762.214V759.793Z" fill="#CED7DC"/>
<path fill-rule="evenodd" clip-rule="evenodd" d="M326.995 767.317C322.385 767.317 318.698 763.61 318.698 759C318.698 754.389 322.385 750.693 326.985 750.693C331.595 750.693 335.302 754.389 335.312 759C335.322 763.61 331.606 767.317 326.995 767.317ZM327.447 764.183C327.447 764.454 327.246 764.645 326.985 764.645C326.724 764.645 326.533 764.464 326.533 764.183V763.5C325.097 763.369 324.032 762.626 323.741 761.561C323.71 761.431 323.68 761.32 323.68 761.21C323.68 760.808 323.952 760.527 324.373 760.527C324.715 760.527 324.946 760.708 325.087 761.069C325.247 761.662 325.719 762.094 326.533 762.214V759.562L326.362 759.522C324.695 759.141 323.821 758.377 323.821 757.071C323.821 755.675 324.946 754.711 326.533 754.55V753.877C326.533 753.606 326.724 753.415 326.985 753.415C327.246 753.415 327.447 753.606 327.447 753.877V754.55C328.793 754.691 329.808 755.434 330.079 756.469C330.099 756.589 330.129 756.7 330.129 756.82C330.129 757.202 329.848 757.473 329.446 757.473C329.084 757.473 328.873 757.282 328.723 756.951C328.532 756.358 328.09 755.976 327.447 755.866V758.357L327.668 758.407C329.416 758.729 330.3 759.532 330.3 760.898C330.3 762.425 329.074 763.359 327.447 763.51V764.183Z" fill="#CED7DC"/>
<path d="M327.447 759.793L327.638 759.834C328.512 760.075 328.823 760.436 328.823 761.009C328.823 761.642 328.361 762.104 327.447 762.214V759.793Z" fill="#CED7DC"/>
<path d="M326.533 758.126L326.463 758.106C325.659 757.875 325.287 757.523 325.287 756.981C325.287 756.429 325.76 755.976 326.533 755.856V758.126Z" fill="#CED7DC"/>
<path d="M326.984 764.645C327.246 764.645 327.446 764.454 327.446 764.183V763.51C329.074 763.359 330.299 762.425 330.299 760.898C330.299 759.532 329.415 758.729 327.667 758.407L327.446 758.357V755.866C328.089 755.976 328.531 756.358 328.722 756.951C328.873 757.282 329.084 757.473 329.445 757.473C329.847 757.473 330.128 757.202 330.128 756.82C330.128 756.7 330.098 756.589 330.078 756.469C329.807 755.434 328.792 754.691 327.446 754.55V753.877C327.446 753.606 327.246 753.415 326.984 753.415C326.723 753.415 326.532 753.606 326.532 753.877V754.55C324.945 754.711 323.82 755.675 323.82 757.071C323.82 758.377 324.694 759.14 326.362 759.522L326.532 759.562V762.214C325.719 762.094 325.247 761.662 325.086 761.069C324.945 760.707 324.714 760.527 324.373 760.527C323.951 760.527 323.68 760.808 323.68 761.21C323.68 761.32 323.71 761.431 323.74 761.561C324.031 762.626 325.096 763.369 326.532 763.5V764.183C326.532 764.464 326.723 764.645 326.984 764.645ZM326.532 758.126L326.462 758.106C325.658 757.875 325.287 757.523 325.287 756.981C325.287 756.428 325.759 755.976 326.532 755.856V758.126ZM327.446 759.793L327.637 759.834C328.511 760.075 328.823 760.436 328.823 761.009C328.823 761.642 328.36 762.104 327.446 762.214V759.793Z" fill="#939EA7"/>
<path d="M38.4028 768.007H55.5892C57.7689 768.007 58.9039 766.882 58.9039 764.732V752.508C58.9039 750.358 57.7689 749.233 55.5892 749.233H38.4028C36.2332 749.233 35.0981 750.348 35.0981 752.508V764.732C35.0981 766.882 36.2332 768.007 38.4028 768.007ZM38.5334 766.008C37.6093 766.008 37.097 765.526 37.097 764.551V752.689C37.097 751.714 37.6093 751.232 38.5334 751.232H55.4586C56.3827 751.232 56.895 751.714 56.895 752.689V764.551C56.895 765.526 56.3827 766.008 55.4586 766.008H38.5334Z" fill="#CED7DC"/>
<path d="M38.5334 766.008C37.6093 766.008 37.097 765.526 37.097 764.551V752.689C37.097 751.714 37.6093 751.232 38.5334 751.232H55.4586C56.3827 751.232 56.895 751.714 56.895 752.689V764.551C56.895 765.526 56.3827 766.008 55.4586 766.008H38.5334Z" fill="#CED7DC"/>
<path d="M45.4577 765.476C45.9298 765.476 46.2813 765.105 46.2813 764.653V754.016C46.2813 753.554 45.9197 753.192 45.4577 753.192C44.9956 753.192 44.634 753.554 44.634 754.016V764.653C44.634 765.105 44.9956 765.476 45.4577 765.476ZM51.6351 765.476C52.1072 765.476 52.4588 765.115 52.4588 764.653V756.014C52.4588 755.552 52.0972 755.191 51.6351 755.191C51.163 755.191 50.8115 755.552 50.8115 756.014V764.653C50.8115 765.115 51.163 765.476 51.6351 765.476ZM42.3639 765.476C42.836 765.476 43.1976 765.115 43.1976 764.653V757.451C43.1976 756.989 42.836 756.627 42.3639 756.627C41.9019 756.627 41.5503 756.989 41.5503 757.451V764.653C41.5503 765.115 41.9019 765.476 42.3639 765.476ZM48.5514 765.476C49.0135 765.476 49.365 765.105 49.365 764.653V758.716C49.365 758.254 49.0135 757.893 48.5514 757.893C48.0793 757.893 47.7277 758.264 47.7277 758.716V764.653C47.7277 765.105 48.0793 765.476 48.5514 765.476ZM54.7188 765.476C55.1909 765.476 55.5425 765.115 55.5425 764.653V760.424C55.5425 759.962 55.1909 759.6 54.7188 759.6C54.2467 759.6 53.8952 759.962 53.8952 760.424V764.653C53.8952 765.115 54.2568 765.476 54.7188 765.476ZM39.2802 765.476C39.7523 765.476 40.1039 765.115 40.1039 764.653V761.218C40.1039 760.756 39.7423 760.384 39.2802 760.384C38.8081 760.384 38.4565 760.756 38.4565 761.218V764.653C38.4565 765.115 38.8081 765.476 39.2802 765.476Z" fill="#939EA7"/>
<path d="M39.2802 765.476C39.7523 765.476 40.1039 765.115 40.1039 764.653V761.217C40.1039 760.755 39.7423 760.384 39.2802 760.384C38.8081 760.384 38.4565 760.755 38.4565 761.217V764.653C38.4565 765.115 38.8081 765.476 39.2802 765.476Z" fill="#939EA7"/>
<path d="M45.4579 765.476C45.93 765.476 46.2816 765.105 46.2816 764.653V754.016C46.2816 753.554 45.92 753.192 45.4579 753.192C44.9959 753.192 44.6343 753.554 44.6343 754.016V764.653C44.6343 765.105 44.9959 765.476 45.4579 765.476Z" fill="#939EA7"/>
<path d="M48.5097 765.476C48.9718 765.476 49.3233 765.105 49.3233 764.653V758.716C49.3233 758.254 48.9718 757.893 48.5097 757.893C48.0376 757.893 47.686 758.264 47.686 758.716V764.653C47.686 765.105 48.0376 765.476 48.5097 765.476Z" fill="#939EA7"/>
<path d="M51.6357 765.477C52.1078 765.477 52.4593 765.115 52.4593 764.653V756.015C52.4593 755.553 52.0977 755.191 51.6357 755.191C51.1636 755.191 50.812 755.553 50.812 756.015V764.653C50.812 765.115 51.1636 765.477 51.6357 765.477Z" fill="#939EA7"/>
<path d="M54.7187 765.477C55.1908 765.477 55.5423 765.115 55.5423 764.653V760.424C55.5423 759.962 55.1908 759.601 54.7187 759.601C54.2466 759.601 53.895 759.962 53.895 760.424V764.653C53.895 765.115 54.2566 765.477 54.7187 765.477Z" fill="#939EA7"/>
<path fill-rule="evenodd" clip-rule="evenodd" d="M108.819 746.819C109.234 746.417 109.893 746.417 110.309 746.819L111.103 747.587H111.179L111.973 746.819C112.389 746.417 113.048 746.417 113.463 746.819L114.257 747.587H114.334L115.127 746.819C115.543 746.417 116.202 746.417 116.617 746.819L117.411 747.587H117.488L118.282 746.819C118.697 746.417 119.356 746.417 119.772 746.819L120.566 747.587H120.642L121.436 746.819C121.852 746.417 122.51 746.417 122.926 746.819L123.72 747.587H123.797L124.59 746.819C125.006 746.417 125.702 746.417 126.117 746.819V747.587H126.117V771.201H126.114V771.887C125.698 772.289 125.04 772.289 124.624 771.887L123.914 771.201H123.669L122.96 771.887C122.544 772.289 121.885 772.289 121.47 771.887L120.76 771.201H120.515L119.805 771.887C119.39 772.289 118.731 772.289 118.315 771.887L117.606 771.201H117.361L116.651 771.887C116.235 772.289 115.577 772.289 115.161 771.887L114.451 771.201H114.206L113.497 771.887C113.081 772.289 112.422 772.289 112.007 771.887L111.297 771.201H111.052L110.342 771.887C109.927 772.289 109.231 772.289 108.816 771.887V771.201H108.815V747.587H108.819V746.819Z" fill="#CED7DC"/>
<path d="M121.253 753.68H111.539C110.99 753.68 110.6 753.391 110.6 753.02C110.6 752.66 110.99 752.381 111.539 752.381H121.253C121.774 752.381 122.178 752.66 122.178 753.02C122.178 753.391 121.774 753.68 121.253 753.68Z" fill="#939EA7"/>
<path d="M116.642 757.193H111.539C110.99 757.193 110.6 756.915 110.6 756.554C110.6 756.183 110.99 755.895 111.539 755.895H116.642C117.177 755.895 117.567 756.183 117.567 756.554C117.567 756.915 117.177 757.193 116.642 757.193Z" fill="#939EA7"/>
<path d="M120.942 767.866C121.107 767.866 121.234 767.752 121.234 767.574V767.148C122.264 767.053 123.039 766.469 123.039 765.503C123.039 764.639 122.48 764.131 121.374 763.921L121.234 763.896V762.314C121.635 762.384 121.921 762.625 122.041 763C122.13 763.21 122.27 763.33 122.499 763.33C122.753 763.33 122.931 763.165 122.931 762.917C122.931 762.841 122.912 762.771 122.893 762.701C122.721 762.041 122.086 761.57 121.234 761.482V761.056C121.234 760.884 121.107 760.77 120.942 760.77C120.777 760.77 120.656 760.884 120.656 761.056V761.482C119.653 761.583 118.941 762.193 118.941 763.082C118.941 763.902 119.494 764.391 120.548 764.633L120.656 764.658V766.329C120.142 766.253 119.843 765.979 119.741 765.605C119.653 765.382 119.506 765.262 119.29 765.262C119.024 765.262 118.852 765.439 118.852 765.694C118.852 765.77 118.865 765.84 118.89 765.916C119.074 766.589 119.748 767.066 120.656 767.142V767.574C120.656 767.752 120.777 767.866 120.942 767.866ZM120.656 763.75L120.612 763.737C120.104 763.584 119.869 763.362 119.869 763.025C119.869 762.67 120.167 762.384 120.656 762.307V763.75ZM121.234 764.798L121.349 764.83C121.908 764.976 122.105 765.204 122.105 765.567C122.105 765.973 121.813 766.265 121.234 766.329V764.798Z" fill="#939EA7"/>
<path d="M178.417 767.704H195.584C197.763 767.704 198.888 766.569 198.888 764.419V753.571C198.888 751.421 197.763 750.296 195.584 750.296H178.417C176.248 750.296 175.113 751.421 175.113 753.571V764.419C175.113 766.579 176.248 767.704 178.417 767.704ZM177.112 753.752C177.112 752.787 177.624 752.305 178.548 752.305H195.453C196.377 752.305 196.89 752.787 196.89 753.752V754.475H177.112V753.752ZM178.548 765.695C177.624 765.695 177.112 765.213 177.112 764.248V756.835H196.89V764.248C196.89 765.213 196.377 765.695 195.453 765.695H178.548ZM179.914 763.877H182.375C182.968 763.877 183.369 763.485 183.369 762.923V761.054C183.369 760.492 182.968 760.1 182.375 760.1H179.914C179.332 760.1 178.93 760.492 178.93 761.054V762.923C178.93 763.485 179.332 763.877 179.914 763.877Z" fill="#CED7DC"/>
<path d="M177.112 753.752C177.112 752.787 177.624 752.305 178.548 752.305H195.453C196.377 752.305 196.89 752.787 196.89 753.752V754.475H177.112V753.752Z" fill="#CED7DC"/>
<path fill-rule="evenodd" clip-rule="evenodd" d="M178.548 765.695C177.624 765.695 177.112 765.213 177.112 764.248V756.835H196.89V764.248C196.89 765.213 196.377 765.695 195.453 765.695H178.548ZM182.375 763.877H179.914C179.332 763.877 178.93 763.485 178.93 762.923V761.054C178.93 760.492 179.332 760.1 179.914 760.1H182.375C182.968 760.1 183.369 760.492 183.369 761.054V762.923C183.369 763.485 182.968 763.877 182.375 763.877Z" fill="#CED7DC"/>
<path fill-rule="evenodd" clip-rule="evenodd" d="M198.888 756.835V754.475H196.89H177.112H175.113V756.835H177.112H196.89H198.888ZM179.914 763.877H182.375C182.968 763.877 183.369 763.485 183.369 762.923V761.054C183.369 760.492 182.968 760.1 182.375 760.1H179.914C179.332 760.1 178.93 760.492 178.93 761.054V762.923C178.93 763.485 179.332 763.877 179.914 763.877Z" fill="#939EA7"/>
<path d="M252.035 751.768C248.242 751.522 246.443 755.263 246.373 756.648C246.279 758.494 247.603 764.14 248.344 766.893C248.71 768.255 248.746 769.6 250.075 769.646C251.878 769.709 252.416 769.657 252.468 769.646C252.66 769.646 253.77 769.514 253.77 768.244C253.77 767.783 253.921 767.316 254.341 767.316H257.145C257.357 767.316 258.204 767.271 258.204 768.36C258.216 768.681 258.188 769.6 259.517 769.646C261.32 769.709 261.858 769.657 261.91 769.646C262.102 769.646 263.006 769.691 263.304 768.276L264.796 763.275L266.2 762.8C266.2 762.8 268.018 762.204 268.362 761.911C268.706 761.618 268.623 758.83 268.623 758.83C268.623 758.83 268.699 756.806 267.918 756.254C267.136 755.702 266.031 755.979 265.885 755.785C265.627 755.441 262.555 752.424 262.555 752.424C262.555 752.424 262.98 750.592 263.173 750.234C263.367 749.876 262.98 749.236 261.922 749.333C260.864 749.429 259.449 750.063 258.384 751.522C257.627 752.56 255.829 752.013 252.035 751.768Z" fill="#CED7DC"/>
<path d="M254.341 767.316C254.76 767.316 257.145 767.316 257.145 767.316M254.341 767.316C253.921 767.316 253.77 767.783 253.77 768.244C253.77 769.514 252.66 769.646 252.468 769.646C252.416 769.657 251.878 769.709 250.075 769.646C248.746 769.6 248.71 768.255 248.344 766.893C247.603 764.14 246.279 758.494 246.373 756.648C246.443 755.263 248.242 751.522 252.035 751.768C255.829 752.013 257.627 752.56 258.384 751.522C259.449 750.063 260.864 749.429 261.922 749.333C262.98 749.236 263.367 749.876 263.173 750.234C262.98 750.592 262.555 752.424 262.555 752.424C262.555 752.424 265.627 755.441 265.885 755.785C266.031 755.979 267.136 755.702 267.918 756.254C268.699 756.806 268.623 758.83 268.623 758.83C268.623 758.83 268.706 761.618 268.362 761.911C268.018 762.204 266.2 762.8 266.2 762.8L264.796 763.275L263.304 768.276M254.341 767.316H257.145M257.145 767.316C257.357 767.316 258.204 767.271 258.204 768.36C258.216 768.681 258.188 769.6 259.517 769.646C261.32 769.709 261.858 769.657 261.91 769.646C262.102 769.646 263.006 769.691 263.304 768.276M263.212 768.586L263.304 768.276M263.307 768.262C263.306 768.267 263.305 768.271 263.304 768.276" stroke="#CED7DC" stroke-width="2.0625" stroke-linecap="round" stroke-linejoin="round"/>
<path d="M253.609 755.666H257.284M261.937 757.73V757.814" stroke="#939EA7" stroke-width="2.35714" stroke-linecap="round" stroke-linejoin="round"/>
<path d="M252.231 751.768C248.438 751.522 246.64 755.263 246.569 756.648C246.475 758.494 247.8 764.14 248.54 766.893C248.906 768.255 248.943 769.6 250.271 769.646C252.074 769.709 252.612 769.657 252.664 769.646C252.857 769.646 253.966 769.514 253.966 768.244C253.966 767.783 254.118 767.316 254.537 767.316H257.341C257.553 767.316 258.4 767.271 258.4 768.36C258.413 768.681 258.385 769.6 259.713 769.646C261.516 769.709 262.054 769.657 262.106 769.646C262.298 769.646 263.203 769.691 263.5 768.276L264.992 763.275L266.397 762.8C266.397 762.8 268.214 762.204 268.558 761.911C268.903 761.618 268.819 758.83 268.819 758.83C268.819 758.83 268.896 756.806 268.114 756.254C267.332 755.702 266.227 755.979 266.082 755.785C265.823 755.441 262.751 752.424 262.751 752.424C262.751 752.424 263.176 750.592 263.37 750.234C263.563 749.876 263.176 749.236 262.118 749.333C261.06 749.429 259.645 750.063 258.58 751.522C257.823 752.56 256.025 752.013 252.231 751.768Z" fill="#FFD5CC"/>
<path d="M254.537 767.316C254.956 767.316 257.341 767.316 257.341 767.316M254.537 767.316C254.118 767.316 253.966 767.783 253.966 768.244C253.966 769.514 252.857 769.646 252.664 769.646C252.612 769.657 252.074 769.709 250.271 769.646C248.943 769.6 248.906 768.255 248.54 766.893C247.8 764.14 246.475 758.494 246.569 756.648C246.64 755.263 248.438 751.522 252.231 751.768C256.025 752.013 257.823 752.56 258.58 751.522C259.645 750.063 261.06 749.429 262.118 749.333C263.176 749.236 263.563 749.876 263.37 750.234C263.176 750.592 262.751 752.424 262.751 752.424C262.751 752.424 265.823 755.441 266.082 755.785C266.227 755.979 267.332 755.702 268.114 756.254C268.896 756.806 268.819 758.83 268.819 758.83C268.819 758.83 268.903 761.618 268.558 761.911C268.214 762.204 266.397 762.8 266.397 762.8L264.992 763.275L263.5 768.276M254.537 767.316H257.341M257.341 767.316C257.553 767.316 258.4 767.271 258.4 768.36C258.413 768.681 258.385 769.6 259.713 769.646C261.516 769.709 262.054 769.657 262.106 769.646C262.298 769.646 263.203 769.691 263.5 768.276M263.408 768.586L263.5 768.276M263.503 768.262C263.502 768.267 263.501 768.271 263.5 768.276" stroke="#FFD5CC" stroke-width="2.0625" stroke-linecap="round" stroke-linejoin="round"/>
<path d="M253.805 755.666H257.48M262.133 757.73V757.814" stroke="#5F5F5F" stroke-width="2.35714" stroke-linecap="round" stroke-linejoin="round"/>
<rect opacity="0.35" x="332.833" y="17.8335" width="21" height="10.3333" rx="2.16667" stroke="black"/>
<path opacity="0.4" d="M355.333 21V25C356.138 24.6612 356.661 23.8731 356.661 23C356.661 22.1269 356.138 21.3388 355.333 21" fill="black"/>
<rect x="334.333" y="19.3335" width="18" height="7.33333" rx="1.33333" fill="black"/>
<path fill-rule="evenodd" clip-rule="evenodd" d="M319.667 19.615C321.892 19.6151 324.031 20.4693 325.644 22.0008C325.765 22.1191 325.959 22.1176 326.079 21.9975L327.239 20.8272C327.3 20.7663 327.334 20.6837 327.333 20.5979C327.333 20.5121 327.298 20.4299 327.237 20.3697C323.005 16.3175 316.329 16.3175 312.097 20.3697C312.035 20.4299 312.001 20.512 312 20.5978C311.999 20.6837 312.033 20.7662 312.094 20.8272L313.255 21.9975C313.374 22.1178 313.568 22.1193 313.69 22.0008C315.302 20.4692 317.442 19.615 319.667 19.615ZM319.667 23.4226C320.889 23.4226 322.068 23.8765 322.974 24.6963C323.097 24.8126 323.29 24.8101 323.409 24.6906L324.569 23.5203C324.63 23.4589 324.663 23.3756 324.663 23.2891C324.662 23.2025 324.626 23.12 324.564 23.0598C321.805 20.4954 317.532 20.4954 314.773 23.0598C314.71 23.12 314.675 23.2026 314.674 23.2891C314.673 23.3757 314.707 23.459 314.768 23.5203L315.927 24.6906C316.047 24.8101 316.24 24.8126 316.362 24.6963C317.268 23.877 318.446 23.4231 319.667 23.4226ZM321.989 25.9845C321.991 26.0712 321.957 26.1549 321.895 26.2157L319.89 28.2377C319.831 28.2971 319.751 28.3306 319.667 28.3306C319.583 28.3306 319.503 28.2971 319.445 28.2377L317.439 26.2157C317.377 26.1549 317.343 26.0712 317.345 25.9844C317.347 25.8976 317.384 25.8154 317.449 25.7573C318.729 24.675 320.605 24.675 321.886 25.7573C321.95 25.8155 321.988 25.8977 321.989 25.9845Z" fill="black"/>
<path fill-rule="evenodd" clip-rule="evenodd" d="M306 17.6665H305C304.448 17.6665 304 18.1142 304 18.6665V27.3332C304 27.8855 304.448 28.3332 305 28.3332H306C306.552 28.3332 307 27.8855 307 27.3332V18.6665C307 18.1142 306.552 17.6665 306 17.6665ZM300.333 19.9998H301.333C301.886 19.9998 302.333 20.4476 302.333 20.9998V27.3332C302.333 27.8855 301.886 28.3332 301.333 28.3332H300.333C299.781 28.3332 299.333 27.8855 299.333 27.3332V20.9998C299.333 20.4476 299.781 19.9998 300.333 19.9998ZM296.667 22.3332H295.667C295.114 22.3332 294.667 22.7809 294.667 23.3332V27.3332C294.667 27.8855 295.114 28.3332 295.667 28.3332H296.667C297.219 28.3332 297.667 27.8855 297.667 27.3332V23.3332C297.667 22.7809 297.219 22.3332 296.667 22.3332ZM292 24.3332H291C290.448 24.3332 290 24.7809 290 25.3332V27.3332C290 27.8855 290.448 28.3332 291 28.3332H292C292.552 28.3332 293 27.8855 293 27.3332V25.3332C293 24.7809 292.552 24.3332 292 24.3332Z" fill="black"/>
<path d="M34.5895 23.8765C34.0573 24.355 33.4616 24.5942 32.8024 24.5942C31.8356 24.5942 31.069 24.2671 30.5026 23.6128C29.9362 22.9585 29.653 22.0845 29.653 20.9907C29.653 20.3071 29.8117 19.6724 30.129 19.0864C30.4464 18.5005 30.8908 18.0366 31.4621 17.6948C32.0382 17.353 32.673 17.1821 33.3663 17.1821C34.0695 17.1821 34.7042 17.3604 35.2706 17.7168C35.8419 18.0684 36.2863 18.5688 36.6037 19.2183C36.921 19.8628 37.0846 20.6074 37.0944 21.4521V22.397C37.0944 23.5737 36.8624 24.5942 36.3986 25.4585C35.9396 26.3228 35.2829 26.9868 34.4284 27.4507C33.5739 27.9146 32.5778 28.1465 31.4401 28.1465H31.2863V26.1689L31.755 26.1616C33.4542 26.0786 34.3991 25.3169 34.5895 23.8765ZM33.4689 22.8145C34.006 22.8145 34.3917 22.5825 34.6261 22.1187V21.0933C34.6261 20.4097 34.5114 19.9043 34.2819 19.5771C34.0524 19.25 33.7423 19.0864 33.3517 19.0864C33.005 19.0864 32.7145 19.272 32.4801 19.6431C32.2457 20.0142 32.1286 20.4634 32.1286 20.9907C32.1286 21.5474 32.2482 21.9917 32.4874 22.3237C32.7267 22.6509 33.0538 22.8145 33.4689 22.8145ZM39.7474 25.605C40.1381 25.605 40.4628 25.7222 40.7216 25.9565C40.9804 26.186 41.1097 26.4814 41.1097 26.8428C41.1097 27.2041 40.9804 27.502 40.7216 27.7363C40.4628 27.9658 40.1381 28.0806 39.7474 28.0806C39.3519 28.0806 39.0248 27.9634 38.766 27.729C38.5121 27.4946 38.3851 27.1992 38.3851 26.8428C38.3851 26.4863 38.5121 26.1909 38.766 25.9565C39.0248 25.7222 39.3519 25.605 39.7474 25.605ZM39.7474 19.7603C40.1381 19.7603 40.4628 19.8774 40.7216 20.1118C40.9804 20.3413 41.1097 20.6367 41.1097 20.998C41.1097 21.3594 40.9804 21.6572 40.7216 21.8916C40.4628 22.1211 40.1381 22.2358 39.7474 22.2358C39.3519 22.2358 39.0248 22.1187 38.766 21.8843C38.5121 21.6499 38.3851 21.3545 38.3851 20.998C38.3851 20.6416 38.5121 20.3462 38.766 20.1118C39.0248 19.8774 39.3519 19.7603 39.7474 19.7603ZM48.963 23.8325H50.047V25.7368H48.963V28H46.4947V25.7368H42.3712L42.2247 24.228L46.4947 17.3579V17.3359H48.963V23.8325ZM44.5758 23.8325H46.4947V20.5513L46.3409 20.8003L44.5758 23.8325ZM56.3622 28H53.8866V20.1191L51.4549 20.8296V18.9546L56.1351 17.3359H56.3622V28Z" fill="black"/>
<path d="M31 71.7449C31 72.1294 31.1428 72.459 31.4504 72.7446L39.9978 81.1162C40.2395 81.3579 40.5471 81.4897 40.9097 81.4897C41.6348 81.4897 42.217 80.9185 42.217 80.1824C42.217 79.8198 42.0632 79.5012 41.8215 79.2485L34.1201 71.7449L41.8215 64.2412C42.0632 63.9885 42.217 63.6589 42.217 63.3074C42.217 62.5713 41.6348 62 40.9097 62C40.5471 62 40.2395 62.1318 39.9978 62.3735L31.4504 70.7341C31.1428 71.0308 31 71.3604 31 71.7449Z" fill="#9EA9B3"/>
<rect x="299" y="44" width="56" height="56" rx="28" fill="#FCEDB7"/>
<path d="M319.502 73.9375H326.204V80.6392C326.204 81.3203 326.764 81.8916 327.457 81.8916C328.149 81.8916 328.709 81.3203 328.709 80.6392V73.9375H335.411C336.092 73.9375 336.663 73.3772 336.663 72.6851C336.663 71.9929 336.092 71.4326 335.411 71.4326H328.709V64.731C328.709 64.0498 328.149 63.4785 327.457 63.4785C326.764 63.4785 326.204 64.0498 326.204 64.731V71.4326H319.502C318.821 71.4326 318.25 71.9929 318.25 72.6851C318.25 73.3772 318.821 73.9375 319.502 73.9375Z" fill="#E1A200"/>
<rect x="20" y="110" width="335" height="114" rx="20" fill="#154C6B"/>
<path d="M265.773 164.443C265.773 165.345 265.539 166.194 265.071 166.991C264.621 167.771 263.945 168.421 263.043 168.941C262.159 169.444 261.111 169.739 259.897 169.825V171.931H258.233V169.799C256.5 169.643 255.105 169.123 254.047 168.239C252.99 167.338 252.444 166.125 252.409 164.599H256.309C256.413 165.847 257.055 166.601 258.233 166.861V161.895C256.985 161.583 255.98 161.271 255.217 160.959C254.455 160.647 253.796 160.145 253.241 159.451C252.687 158.758 252.409 157.813 252.409 156.617C252.409 155.109 252.947 153.879 254.021 152.925C255.113 151.972 256.517 151.426 258.233 151.287V149.181H259.897V151.287C261.561 151.426 262.887 151.929 263.875 152.795C264.881 153.662 265.444 154.858 265.565 156.383H261.639C261.587 155.881 261.405 155.447 261.093 155.083C260.799 154.702 260.4 154.433 259.897 154.277V159.191C261.197 159.521 262.22 159.841 262.965 160.153C263.728 160.448 264.387 160.942 264.941 161.635C265.496 162.311 265.773 163.247 265.773 164.443ZM256.205 156.435C256.205 157.007 256.379 157.475 256.725 157.839C257.072 158.186 257.575 158.472 258.233 158.697V154.199C257.609 154.286 257.115 154.52 256.751 154.901C256.387 155.283 256.205 155.794 256.205 156.435ZM259.897 166.913C260.556 166.792 261.067 166.523 261.431 166.107C261.813 165.691 262.003 165.189 262.003 164.599C262.003 164.027 261.821 163.568 261.457 163.221C261.093 162.875 260.573 162.589 259.897 162.363V166.913ZM268.979 154.069V150.715H275.245V169.669H271.501V154.069H268.979ZM278.893 155.707C278.98 153.974 279.586 152.639 280.713 151.703C281.857 150.75 283.356 150.273 285.211 150.273C286.476 150.273 287.56 150.499 288.461 150.949C289.362 151.383 290.038 151.981 290.489 152.743C290.957 153.489 291.191 154.338 291.191 155.291C291.191 156.383 290.905 157.311 290.333 158.073C289.778 158.819 289.111 159.321 288.331 159.581V159.685C289.336 159.997 290.116 160.552 290.671 161.349C291.243 162.147 291.529 163.169 291.529 164.417C291.529 165.457 291.286 166.385 290.801 167.199C290.333 168.014 289.631 168.655 288.695 169.123C287.776 169.574 286.667 169.799 285.367 169.799C283.408 169.799 281.814 169.305 280.583 168.317C279.352 167.329 278.702 165.873 278.633 163.949H282.169C282.204 164.799 282.49 165.483 283.027 166.003C283.582 166.506 284.336 166.757 285.289 166.757C286.173 166.757 286.849 166.515 287.317 166.029C287.802 165.527 288.045 164.885 288.045 164.105C288.045 163.065 287.716 162.32 287.057 161.869C286.398 161.419 285.376 161.193 283.989 161.193H283.235V158.203H283.989C286.45 158.203 287.681 157.38 287.681 155.733C287.681 154.988 287.456 154.407 287.005 153.991C286.572 153.575 285.939 153.367 285.107 153.367C284.292 153.367 283.66 153.593 283.209 154.043C282.776 154.477 282.524 155.031 282.455 155.707H278.893ZM298.799 165.847L295.757 173.153H293.417L295.107 165.847H298.799ZM313.071 153.471L306.155 169.669H302.463L309.431 153.887H300.539V150.767H313.071V153.471ZM318.423 159.633C316.69 158.732 315.823 157.337 315.823 155.447C315.823 154.511 316.057 153.662 316.525 152.899C317.01 152.119 317.73 151.504 318.683 151.053C319.654 150.585 320.832 150.351 322.219 150.351C323.606 150.351 324.776 150.585 325.729 151.053C326.7 151.504 327.419 152.119 327.887 152.899C328.372 153.662 328.615 154.511 328.615 155.447C328.615 156.401 328.381 157.241 327.913 157.969C327.445 158.68 326.821 159.235 326.041 159.633C326.994 160.049 327.74 160.656 328.277 161.453C328.814 162.251 329.083 163.195 329.083 164.287C329.083 165.466 328.78 166.497 328.173 167.381C327.584 168.248 326.769 168.915 325.729 169.383C324.689 169.851 323.519 170.085 322.219 170.085C320.919 170.085 319.749 169.851 318.709 169.383C317.686 168.915 316.872 168.248 316.265 167.381C315.676 166.497 315.381 165.466 315.381 164.287C315.381 163.195 315.65 162.251 316.187 161.453C316.724 160.639 317.47 160.032 318.423 159.633ZM325.079 155.967C325.079 155.118 324.819 154.459 324.299 153.991C323.796 153.523 323.103 153.289 322.219 153.289C321.352 153.289 320.659 153.523 320.139 153.991C319.636 154.459 319.385 155.127 319.385 155.993C319.385 156.773 319.645 157.397 320.165 157.865C320.702 158.333 321.387 158.567 322.219 158.567C323.051 158.567 323.736 158.333 324.273 157.865C324.81 157.38 325.079 156.747 325.079 155.967ZM322.219 161.219C321.231 161.219 320.425 161.471 319.801 161.973C319.194 162.476 318.891 163.195 318.891 164.131C318.891 164.998 319.186 165.709 319.775 166.263C320.382 166.801 321.196 167.069 322.219 167.069C323.242 167.069 324.048 166.792 324.637 166.237C325.226 165.683 325.521 164.981 325.521 164.131C325.521 163.213 325.218 162.502 324.611 161.999C324.004 161.479 323.207 161.219 322.219 161.219ZM331.516 154.069V150.715H337.782V169.669H334.038V154.069H331.516Z" fill="white"/>
<path d="M43.06 164.851C41.7947 164.851 40.6507 164.635 39.628 164.201C38.6227 163.768 37.8253 163.144 37.236 162.329C36.6467 161.515 36.3433 160.553 36.326 159.443H40.226C40.278 160.189 40.538 160.778 41.006 161.211C41.4913 161.645 42.15 161.861 42.982 161.861C43.8313 161.861 44.4987 161.662 44.984 161.263C45.4693 160.847 45.712 160.31 45.712 159.651C45.712 159.114 45.5473 158.672 45.218 158.325C44.8887 157.979 44.4727 157.71 43.97 157.519C43.4847 157.311 42.8087 157.086 41.942 156.843C40.7633 156.497 39.8013 156.159 39.056 155.829C38.328 155.483 37.6953 154.971 37.158 154.295C36.638 153.602 36.378 152.683 36.378 151.539C36.378 150.465 36.6467 149.529 37.184 148.731C37.7213 147.934 38.4753 147.327 39.446 146.911C40.4167 146.478 41.526 146.261 42.774 146.261C44.646 146.261 46.1627 146.721 47.324 147.639C48.5027 148.541 49.1527 149.806 49.274 151.435H45.27C45.2353 150.811 44.9667 150.3 44.464 149.901C43.9787 149.485 43.3287 149.277 42.514 149.277C41.8033 149.277 41.2313 149.459 40.798 149.823C40.382 150.187 40.174 150.716 40.174 151.409C40.174 151.895 40.33 152.302 40.642 152.631C40.9713 152.943 41.37 153.203 41.838 153.411C42.3233 153.602 42.9993 153.827 43.866 154.087C45.0447 154.434 46.0067 154.781 46.752 155.127C47.4973 155.474 48.1387 155.994 48.676 156.687C49.2133 157.381 49.482 158.291 49.482 159.417C49.482 160.388 49.2307 161.289 48.728 162.121C48.2253 162.953 47.4887 163.621 46.518 164.123C45.5473 164.609 44.3947 164.851 43.06 164.851ZM51.7017 157.415C51.7017 155.959 51.9877 154.668 52.5597 153.541C53.1491 152.415 53.9378 151.548 54.9258 150.941C55.9311 150.335 57.0491 150.031 58.2798 150.031C59.3544 150.031 60.2904 150.248 61.0878 150.681C61.9024 151.115 62.5524 151.661 63.0378 152.319V150.265H66.7038V164.669H63.0378V162.563C62.5698 163.239 61.9198 163.803 61.0878 164.253C60.2731 164.687 59.3284 164.903 58.2538 164.903C57.0404 164.903 55.9311 164.591 54.9258 163.967C53.9378 163.343 53.1491 162.468 52.5597 161.341C51.9877 160.197 51.7017 158.889 51.7017 157.415ZM63.0378 157.467C63.0378 156.583 62.8644 155.829 62.5178 155.205C62.1711 154.564 61.7031 154.079 61.1138 153.749C60.5244 153.403 59.8918 153.229 59.2158 153.229C58.5398 153.229 57.9158 153.394 57.3438 153.723C56.7718 154.053 56.3038 154.538 55.9398 155.179C55.5931 155.803 55.4198 156.549 55.4198 157.415C55.4198 158.282 55.5931 159.045 55.9398 159.703C56.3038 160.345 56.7718 160.839 57.3438 161.185C57.9331 161.532 58.5571 161.705 59.2158 161.705C59.8918 161.705 60.5244 161.541 61.1138 161.211C61.7031 160.865 62.1711 160.379 62.5178 159.755C62.8644 159.114 63.0378 158.351 63.0378 157.467ZM76.2648 161.315L79.9048 150.265H83.7788L78.4488 164.669H74.0288L68.7248 150.265H72.6248L76.2648 161.315ZM87.6693 148.549C87.028 148.549 86.4906 148.35 86.0573 147.951C85.6413 147.535 85.4333 147.024 85.4333 146.417C85.4333 145.811 85.6413 145.308 86.0573 144.909C86.4906 144.493 87.028 144.285 87.6693 144.285C88.3106 144.285 88.8393 144.493 89.2553 144.909C89.6886 145.308 89.9053 145.811 89.9053 146.417C89.9053 147.024 89.6886 147.535 89.2553 147.951C88.8393 148.35 88.3106 148.549 87.6693 148.549ZM89.4633 150.265V164.669H85.8233V150.265H89.4633ZM101.042 150.057C102.758 150.057 104.144 150.603 105.202 151.695C106.259 152.77 106.788 154.278 106.788 156.219V164.669H103.148V156.713C103.148 155.569 102.862 154.694 102.29 154.087C101.718 153.463 100.938 153.151 99.9496 153.151C98.9443 153.151 98.147 153.463 97.5576 154.087C96.9856 154.694 96.6996 155.569 96.6996 156.713V164.669H93.0596V150.265H96.6996V152.059C97.185 151.435 97.8003 150.95 98.5456 150.603C99.3083 150.239 100.14 150.057 101.042 150.057ZM115.891 150.031C116.966 150.031 117.91 150.248 118.725 150.681C119.54 151.097 120.181 151.643 120.649 152.319V150.265H124.315V164.773C124.315 166.108 124.046 167.295 123.509 168.335C122.972 169.393 122.166 170.225 121.091 170.831C120.016 171.455 118.716 171.767 117.191 171.767C115.146 171.767 113.464 171.291 112.147 170.337C110.847 169.384 110.11 168.084 109.937 166.437H113.551C113.742 167.096 114.149 167.616 114.773 167.997C115.414 168.396 116.186 168.595 117.087 168.595C118.144 168.595 119.002 168.275 119.661 167.633C120.32 167.009 120.649 166.056 120.649 164.773V162.537C120.181 163.213 119.531 163.777 118.699 164.227C117.884 164.678 116.948 164.903 115.891 164.903C114.678 164.903 113.568 164.591 112.563 163.967C111.558 163.343 110.76 162.468 110.171 161.341C109.599 160.197 109.313 158.889 109.313 157.415C109.313 155.959 109.599 154.668 110.171 153.541C110.76 152.415 111.549 151.548 112.537 150.941C113.542 150.335 114.66 150.031 115.891 150.031ZM120.649 157.467C120.649 156.583 120.476 155.829 120.129 155.205C119.782 154.564 119.314 154.079 118.725 153.749C118.136 153.403 117.503 153.229 116.827 153.229C116.151 153.229 115.527 153.394 114.955 153.723C114.383 154.053 113.915 154.538 113.551 155.179C113.204 155.803 113.031 156.549 113.031 157.415C113.031 158.282 113.204 159.045 113.551 159.703C113.915 160.345 114.383 160.839 114.955 161.185C115.544 161.532 116.168 161.705 116.827 161.705C117.503 161.705 118.136 161.541 118.725 161.211C119.314 160.865 119.782 160.379 120.129 159.755C120.476 159.114 120.649 158.351 120.649 157.467ZM133.382 164.903C132.204 164.903 131.146 164.695 130.21 164.279C129.274 163.846 128.529 163.265 127.974 162.537C127.437 161.809 127.142 161.003 127.09 160.119H130.756C130.826 160.674 131.094 161.133 131.562 161.497C132.048 161.861 132.646 162.043 133.356 162.043C134.05 162.043 134.587 161.905 134.968 161.627C135.367 161.35 135.566 160.995 135.566 160.561C135.566 160.093 135.324 159.747 134.838 159.521C134.37 159.279 133.616 159.019 132.576 158.741C131.502 158.481 130.618 158.213 129.924 157.935C129.248 157.658 128.659 157.233 128.156 156.661C127.671 156.089 127.428 155.318 127.428 154.347C127.428 153.55 127.654 152.822 128.104 152.163C128.572 151.505 129.231 150.985 130.08 150.603C130.947 150.222 131.961 150.031 133.122 150.031C134.838 150.031 136.208 150.465 137.23 151.331C138.253 152.181 138.816 153.333 138.92 154.789H135.436C135.384 154.217 135.142 153.767 134.708 153.437C134.292 153.091 133.729 152.917 133.018 152.917C132.36 152.917 131.848 153.039 131.484 153.281C131.138 153.524 130.964 153.862 130.964 154.295C130.964 154.781 131.207 155.153 131.692 155.413C132.178 155.656 132.932 155.907 133.954 156.167C134.994 156.427 135.852 156.696 136.528 156.973C137.204 157.251 137.785 157.684 138.27 158.273C138.773 158.845 139.033 159.608 139.05 160.561C139.05 161.393 138.816 162.139 138.348 162.797C137.898 163.456 137.239 163.976 136.372 164.357C135.523 164.721 134.526 164.903 133.382 164.903Z" fill="white"/>
<path d="M44.072 184.453C44.072 185.008 43.928 185.531 43.64 186.021C43.3627 186.501 42.9467 186.901 42.392 187.221C41.848 187.531 41.2027 187.712 40.456 187.765V189.061H39.432V187.749C38.3653 187.653 37.5067 187.333 36.856 186.789C36.2053 186.235 35.8693 185.488 35.848 184.549H38.248C38.312 185.317 38.7067 185.781 39.432 185.941V182.885C38.664 182.693 38.0453 182.501 37.576 182.309C37.1067 182.117 36.7013 181.808 36.36 181.381C36.0187 180.955 35.848 180.373 35.848 179.637C35.848 178.709 36.1787 177.952 36.84 177.365C37.512 176.779 38.376 176.443 39.432 176.357V175.061H40.456V176.357C41.48 176.443 42.296 176.752 42.904 177.285C43.5227 177.819 43.8693 178.555 43.944 179.493H41.528C41.496 179.184 41.384 178.917 41.192 178.693C41.0107 178.459 40.7653 178.293 40.456 178.197V181.221C41.256 181.424 41.8853 181.621 42.344 181.813C42.8133 181.995 43.2187 182.299 43.56 182.725C43.9013 183.141 44.072 183.717 44.072 184.453ZM38.184 179.525C38.184 179.877 38.2907 180.165 38.504 180.389C38.7173 180.603 39.0267 180.779 39.432 180.917V178.149C39.048 178.203 38.744 178.347 38.52 178.581C38.296 178.816 38.184 179.131 38.184 179.525ZM40.456 185.973C40.8613 185.899 41.176 185.733 41.4 185.477C41.6347 185.221 41.752 184.912 41.752 184.549C41.752 184.197 41.64 183.915 41.416 183.701C41.192 183.488 40.872 183.312 40.456 183.173V185.973ZM46.0448 178.069V176.005H49.9008V187.669H47.5968V178.069H46.0448ZM52.1136 181.685C52.1136 179.84 52.4443 178.395 53.1056 177.349C53.7776 176.304 54.887 175.781 56.4336 175.781C57.9803 175.781 59.0843 176.304 59.7456 177.349C60.4176 178.395 60.7536 179.84 60.7536 181.685C60.7536 183.541 60.4176 184.997 59.7456 186.053C59.0843 187.109 57.9803 187.637 56.4336 187.637C54.887 187.637 53.7776 187.109 53.1056 186.053C52.4443 184.997 52.1136 183.541 52.1136 181.685ZM58.5456 181.685C58.5456 180.896 58.4923 180.235 58.3856 179.701C58.2896 179.157 58.087 178.715 57.7776 178.373C57.479 178.032 57.031 177.861 56.4336 177.861C55.8363 177.861 55.383 178.032 55.0736 178.373C54.775 178.715 54.5723 179.157 54.4656 179.701C54.3696 180.235 54.3216 180.896 54.3216 181.685C54.3216 182.496 54.3696 183.179 54.4656 183.733C54.5616 184.277 54.7643 184.72 55.0736 185.061C55.383 185.392 55.8363 185.557 56.4336 185.557C57.031 185.557 57.4843 185.392 57.7936 185.061C58.103 184.72 58.3056 184.277 58.4016 183.733C58.4976 183.179 58.5456 182.496 58.5456 181.685ZM65.1614 185.317L63.2894 189.813H61.8494L62.8894 185.317H65.1614ZM67.2239 185.141C68.2479 184.288 69.0639 183.579 69.6719 183.013C70.2799 182.437 70.7865 181.84 71.1919 181.221C71.5972 180.603 71.7999 179.995 71.7999 179.397C71.7999 178.853 71.6719 178.427 71.4159 178.117C71.1599 177.808 70.7652 177.653 70.2319 177.653C69.6985 177.653 69.2879 177.835 68.9999 178.197C68.7119 178.549 68.5625 179.035 68.5519 179.653H66.3759C66.4185 178.373 66.7972 177.403 67.5119 176.741C68.2372 176.08 69.1545 175.749 70.2639 175.749C71.4799 175.749 72.4132 176.075 73.0639 176.725C73.7145 177.365 74.0399 178.213 74.0399 179.269C74.0399 180.101 73.8159 180.896 73.3679 181.653C72.9199 182.411 72.4079 183.072 71.8319 183.637C71.2559 184.192 70.5039 184.864 69.5759 185.653H74.2959V187.509H66.3919V185.845L67.2239 185.141ZM75.4354 178.069V176.005H79.2914V187.669H76.9874V178.069H75.4354ZM84.0963 184.389C84.1816 184.859 84.3736 185.221 84.6723 185.477C84.9816 185.723 85.3923 185.845 85.9043 185.845C86.5656 185.845 87.0456 185.573 87.3443 185.029C87.6429 184.475 87.7923 183.547 87.7923 182.245C87.5469 182.587 87.2003 182.853 86.7523 183.045C86.3149 183.237 85.8403 183.333 85.3283 183.333C84.6456 183.333 84.0269 183.195 83.4723 182.917C82.9283 182.629 82.4963 182.208 82.1763 181.653C81.8563 181.088 81.6963 180.405 81.6963 179.605C81.6963 178.421 82.0483 177.483 82.7523 176.789C83.4563 176.085 84.4163 175.733 85.6323 175.733C87.1469 175.733 88.2136 176.219 88.8323 177.189C89.4616 178.16 89.7763 179.621 89.7763 181.573C89.7763 182.96 89.6536 184.096 89.4083 184.981C89.1736 185.867 88.7629 186.539 88.1763 186.997C87.6003 187.456 86.8109 187.685 85.8083 187.685C85.0189 187.685 84.3469 187.536 83.7923 187.237C83.2376 186.928 82.8109 186.528 82.5123 186.037C82.2243 185.536 82.0589 184.987 82.0163 184.389H84.0963ZM85.7923 181.509C86.3469 181.509 86.7843 181.339 87.1043 180.997C87.4243 180.656 87.5843 180.197 87.5843 179.621C87.5843 178.992 87.4136 178.507 87.0723 178.165C86.7416 177.813 86.2883 177.637 85.7123 177.637C85.1363 177.637 84.6776 177.819 84.3363 178.181C84.0056 178.533 83.8403 179.003 83.8403 179.589C83.8403 180.155 84.0003 180.619 84.3203 180.981C84.6509 181.333 85.1416 181.509 85.7923 181.509ZM99.4444 187.781C98.6657 187.781 97.9617 187.648 97.3324 187.381C96.7137 187.115 96.223 186.731 95.8604 186.229C95.4977 185.728 95.311 185.136 95.3004 184.453H97.7004C97.7324 184.912 97.8924 185.275 98.1804 185.541C98.479 185.808 98.8844 185.941 99.3964 185.941C99.919 185.941 100.33 185.819 100.628 185.573C100.927 185.317 101.076 184.987 101.076 184.581C101.076 184.251 100.975 183.979 100.772 183.765C100.57 183.552 100.314 183.387 100.004 183.269C99.7057 183.141 99.2897 183.003 98.7564 182.853C98.031 182.64 97.439 182.432 96.9804 182.229C96.5324 182.016 96.143 181.701 95.8124 181.285C95.4924 180.859 95.3324 180.293 95.3324 179.589C95.3324 178.928 95.4977 178.352 95.8284 177.861C96.159 177.371 96.623 176.997 97.2204 176.741C97.8177 176.475 98.5004 176.341 99.2684 176.341C100.42 176.341 101.354 176.624 102.068 177.189C102.794 177.744 103.194 178.523 103.268 179.525H100.804C100.783 179.141 100.618 178.827 100.308 178.581C100.01 178.325 99.6097 178.197 99.1084 178.197C98.671 178.197 98.319 178.309 98.0524 178.533C97.7964 178.757 97.6684 179.083 97.6684 179.509C97.6684 179.808 97.7644 180.059 97.9564 180.261C98.159 180.453 98.4044 180.613 98.6924 180.741C98.991 180.859 99.407 180.997 99.9404 181.157C100.666 181.371 101.258 181.584 101.716 181.797C102.175 182.011 102.57 182.331 102.9 182.757C103.231 183.184 103.396 183.744 103.396 184.437C103.396 185.035 103.242 185.589 102.932 186.101C102.623 186.613 102.17 187.024 101.572 187.333C100.975 187.632 100.266 187.781 99.4444 187.781ZM104.762 183.205C104.762 182.309 104.938 181.515 105.29 180.821C105.653 180.128 106.138 179.595 106.746 179.221C107.365 178.848 108.053 178.661 108.81 178.661C109.472 178.661 110.048 178.795 110.538 179.061C111.04 179.328 111.44 179.664 111.738 180.069V178.805H113.994V187.669H111.738V186.373C111.45 186.789 111.05 187.136 110.538 187.413C110.037 187.68 109.456 187.813 108.794 187.813C108.048 187.813 107.365 187.621 106.746 187.237C106.138 186.853 105.653 186.315 105.29 185.621C104.938 184.917 104.762 184.112 104.762 183.205ZM111.738 183.237C111.738 182.693 111.632 182.229 111.418 181.845C111.205 181.451 110.917 181.152 110.554 180.949C110.192 180.736 109.802 180.629 109.386 180.629C108.97 180.629 108.586 180.731 108.234 180.933C107.882 181.136 107.594 181.435 107.37 181.829C107.157 182.213 107.05 182.672 107.05 183.205C107.05 183.739 107.157 184.208 107.37 184.613C107.594 185.008 107.882 185.312 108.234 185.525C108.597 185.739 108.981 185.845 109.386 185.845C109.802 185.845 110.192 185.744 110.554 185.541C110.917 185.328 111.205 185.029 111.418 184.645C111.632 184.251 111.738 183.781 111.738 183.237ZM119.878 185.605L122.118 178.805H124.502L121.222 187.669H118.502L115.238 178.805H117.638L119.878 185.605ZM134 183.045C134 183.365 133.979 183.653 133.936 183.909H127.456C127.51 184.549 127.734 185.051 128.128 185.413C128.523 185.776 129.008 185.957 129.584 185.957C130.416 185.957 131.008 185.6 131.36 184.885H133.776C133.52 185.739 133.03 186.443 132.304 186.997C131.579 187.541 130.688 187.813 129.632 187.813C128.779 187.813 128.011 187.627 127.328 187.253C126.656 186.869 126.128 186.331 125.744 185.637C125.371 184.944 125.184 184.144 125.184 183.237C125.184 182.32 125.371 181.515 125.744 180.821C126.118 180.128 126.64 179.595 127.312 179.221C127.984 178.848 128.758 178.661 129.632 178.661C130.475 178.661 131.227 178.843 131.888 179.205C132.56 179.568 133.078 180.085 133.44 180.757C133.814 181.419 134 182.181 134 183.045ZM131.68 182.405C131.67 181.829 131.462 181.371 131.056 181.029C130.651 180.677 130.155 180.501 129.568 180.501C129.014 180.501 128.544 180.672 128.16 181.013C127.787 181.344 127.558 181.808 127.472 182.405H131.68ZM135.059 183.205C135.059 182.309 135.235 181.515 135.587 180.821C135.95 180.128 136.441 179.595 137.059 179.221C137.678 178.848 138.366 178.661 139.123 178.661C139.699 178.661 140.249 178.789 140.771 179.045C141.294 179.291 141.71 179.621 142.019 180.037V175.829H144.291V187.669H142.019V186.357C141.742 186.795 141.353 187.147 140.851 187.413C140.35 187.68 139.769 187.813 139.107 187.813C138.361 187.813 137.678 187.621 137.059 187.237C136.441 186.853 135.95 186.315 135.587 185.621C135.235 184.917 135.059 184.112 135.059 183.205ZM142.035 183.237C142.035 182.693 141.929 182.229 141.715 181.845C141.502 181.451 141.214 181.152 140.851 180.949C140.489 180.736 140.099 180.629 139.683 180.629C139.267 180.629 138.883 180.731 138.531 180.933C138.179 181.136 137.891 181.435 137.667 181.829C137.454 182.213 137.347 182.672 137.347 183.205C137.347 183.739 137.454 184.208 137.667 184.613C137.891 185.008 138.179 185.312 138.531 185.525C138.894 185.739 139.278 185.845 139.683 185.845C140.099 185.845 140.489 185.744 140.851 185.541C141.214 185.328 141.502 185.029 141.715 184.645C141.929 184.251 142.035 183.781 142.035 183.237Z" fill="white"/>
<path d="M279.502 187.669L277.582 184.333H276.538V187.669H275.17V179.329H278.05C278.69 179.329 279.23 179.441 279.67 179.665C280.118 179.889 280.45 180.189 280.666 180.565C280.89 180.941 281.002 181.361 281.002 181.825C281.002 182.369 280.842 182.865 280.522 183.313C280.21 183.753 279.726 184.053 279.07 184.213L281.134 187.669H279.502ZM276.538 183.241H278.05C278.562 183.241 278.946 183.113 279.202 182.857C279.466 182.601 279.598 182.257 279.598 181.825C279.598 181.393 279.47 181.057 279.214 180.817C278.958 180.569 278.57 180.445 278.05 180.445H276.538V183.241ZM284.12 180.433V182.881H287V183.997H284.12V186.553H287.36V187.669H282.752V179.317H287.36V180.433H284.12ZM297.829 179.329V187.669H296.461V181.957L293.917 187.669H292.969L290.413 181.957V187.669H289.045V179.329H290.521L293.449 185.869L296.365 179.329H297.829ZM304.655 185.965H301.163L300.563 187.669H299.135L302.123 179.317H303.707L306.695 187.669H305.255L304.655 185.965ZM304.271 184.849L302.915 180.973L301.547 184.849H304.271ZM309.362 179.329V187.669H307.994V179.329H309.362ZM318.01 187.669H316.642L312.526 181.441V187.669H311.158V179.317H312.526L316.642 185.533V179.317H318.01V187.669ZM321.174 179.329V187.669H319.806V179.329H321.174ZM329.822 187.669H328.454L324.338 181.441V187.669H322.97V179.317H324.338L328.454 185.533V179.317H329.822V187.669ZM337.655 181.729C337.439 181.313 337.139 181.001 336.755 180.793C336.371 180.577 335.927 180.469 335.423 180.469C334.871 180.469 334.379 180.593 333.947 180.841C333.515 181.089 333.175 181.441 332.927 181.897C332.687 182.353 332.567 182.881 332.567 183.481C332.567 184.081 332.687 184.613 332.927 185.077C333.175 185.533 333.515 185.885 333.947 186.133C334.379 186.381 334.871 186.505 335.423 186.505C336.167 186.505 336.771 186.297 337.235 185.881C337.699 185.465 337.983 184.901 338.087 184.189H334.955V183.097H339.551V184.165C339.463 184.813 339.231 185.409 338.855 185.953C338.487 186.497 338.003 186.933 337.403 187.261C336.811 187.581 336.151 187.741 335.423 187.741C334.639 187.741 333.923 187.561 333.275 187.201C332.627 186.833 332.111 186.325 331.727 185.677C331.351 185.029 331.163 184.297 331.163 183.481C331.163 182.665 331.351 181.933 331.727 181.285C332.111 180.637 332.627 180.133 333.275 179.773C333.931 179.405 334.647 179.221 335.423 179.221C336.311 179.221 337.099 179.441 337.787 179.881C338.483 180.313 338.987 180.929 339.299 181.729H337.655Z" fill="white"/>
<rect x="20.5" y="240.5" width="334" height="158" rx="19.5" fill="#F3FBFF"/>
<path d="M268.339 279.262H270.003V277.156C273.799 276.896 275.879 274.426 275.879 271.774C275.879 267.926 272.707 267.224 270.003 266.522V261.608C271.017 261.92 271.641 262.7 271.745 263.714H275.671C275.437 260.62 273.253 258.878 270.003 258.618V256.512H268.339V258.618C264.959 258.878 262.515 260.88 262.515 263.948C262.515 267.796 265.661 268.55 268.339 269.226V274.192C267.143 273.932 266.519 273.126 266.415 271.93H262.515C262.593 275.05 264.985 276.844 268.339 277.13V279.262ZM272.109 271.93C272.109 273.1 271.329 274.01 270.003 274.244V269.694C271.225 270.11 272.109 270.708 272.109 271.93ZM266.311 263.766C266.311 262.44 267.143 261.712 268.339 261.53V266.028C267.143 265.612 266.311 264.988 266.311 263.766ZM279.318 276.74H292.162V273.724H284.492C287.508 271.176 291.746 267.744 291.746 263.35C291.746 260.048 289.692 257.63 285.61 257.63C282.204 257.63 279.422 259.632 279.292 263.974H282.828C282.854 261.972 283.816 260.724 285.558 260.724C287.352 260.724 288.106 261.868 288.106 263.558C288.106 267.042 283.608 270.396 279.318 274.036V276.74ZM293.39 280.744H295.756L298.98 272.996H295.132L293.39 280.744ZM303.163 277H306.907V258.046H300.641V261.4H303.163V277ZM310.035 258.098V261.218H318.927L311.959 277H315.651L322.567 260.802V258.098H310.035ZM337.955 262.778C337.669 260.1 335.849 257.604 331.975 257.604C327.165 257.604 325.163 261.036 325.163 267.224C325.163 273.1 326.567 277.052 332.183 277.052C336.239 277.052 338.501 274.374 338.501 270.708C338.501 266.756 336.135 264.52 332.755 264.52C330.909 264.52 329.193 265.3 328.335 266.73C328.387 262.362 329.479 260.594 331.845 260.594C333.483 260.594 334.237 261.374 334.575 262.778H337.955ZM331.923 267.51C334.029 267.51 335.043 268.836 335.043 270.786C335.043 272.736 333.873 273.958 332.001 273.958C329.869 273.958 328.673 272.684 328.673 270.656C328.673 268.498 330.233 267.51 331.923 267.51Z" fill="#154C6B"/>
<path d="M42.832 277.854L38.608 265.644H35.308L40.94 281H44.68L50.312 265.644H47.034L42.832 277.854ZM51.3666 274.862C51.3666 278.668 53.8306 281.198 56.9106 281.198C58.8466 281.198 60.2326 280.274 60.9586 279.218V281H64.0606V268.812H60.9586V270.55C60.2326 269.538 58.8906 268.614 56.9326 268.614C53.8306 268.614 51.3666 271.056 51.3666 274.862ZM60.9586 274.906C60.9586 277.216 59.4186 278.492 57.7246 278.492C56.0746 278.492 54.5126 277.172 54.5126 274.862C54.5126 272.552 56.0746 271.32 57.7246 271.32C59.4186 271.32 60.9586 272.596 60.9586 274.906ZM66.2768 274.906C66.2768 278.734 68.7848 281.198 72.3048 281.198C75.3408 281.198 77.3868 279.482 78.0468 276.886H74.7248C74.3508 277.986 73.5588 278.558 72.2828 278.558C70.5668 278.558 69.4228 277.282 69.4228 274.906C69.4228 272.53 70.5668 271.232 72.2828 271.232C73.5588 271.232 74.3728 271.892 74.7248 272.926H78.0468C77.3868 270.198 75.3408 268.614 72.3048 268.614C68.7848 268.614 66.2768 271.078 66.2768 274.906ZM79.5112 274.862C79.5112 278.668 81.9752 281.198 85.0552 281.198C86.9912 281.198 88.3772 280.274 89.1032 279.218V281H92.2052V268.812H89.1032V270.55C88.3772 269.538 87.0352 268.614 85.0772 268.614C81.9752 268.614 79.5112 271.056 79.5112 274.862ZM89.1032 274.906C89.1032 277.216 87.5632 278.492 85.8692 278.492C84.2192 278.492 82.6572 277.172 82.6572 274.862C82.6572 272.552 84.2192 271.32 85.8692 271.32C87.5632 271.32 89.1032 272.596 89.1032 274.906ZM95.6973 277.216C95.6973 280.01 97.2593 281 99.5913 281H101.527V278.404H100.097C99.1293 278.404 98.7993 278.052 98.7993 277.238V271.342H101.527V268.812H98.7993V265.798H95.6973V268.812H94.2453V271.342H95.6973V277.216ZM103.743 281H106.823V268.812H103.743V281ZM105.305 267.36C106.383 267.36 107.197 266.568 107.197 265.556C107.197 264.544 106.383 263.752 105.305 263.752C104.205 263.752 103.413 264.544 103.413 265.556C103.413 266.568 104.205 267.36 105.305 267.36ZM121.636 274.906C121.636 271.056 118.886 268.614 115.366 268.614C111.846 268.614 109.096 271.056 109.096 274.906C109.096 278.734 111.758 281.198 115.278 281.198C118.82 281.198 121.636 278.734 121.636 274.906ZM112.22 274.906C112.22 272.464 113.694 271.298 115.322 271.298C116.95 271.298 118.468 272.464 118.468 274.906C118.468 277.326 116.906 278.514 115.278 278.514C113.628 278.514 112.22 277.326 112.22 274.906ZM132.431 281H135.511V273.85C135.511 270.484 133.487 268.636 130.649 268.636C129.087 268.636 127.767 269.296 126.975 270.33V268.812H123.895V281H126.975V274.268C126.975 272.31 128.053 271.254 129.725 271.254C131.353 271.254 132.431 272.31 132.431 274.268V281Z" fill="#154C6B"/>
<path d="M85.5 379C79.7529 379 74.0716 377.777 68.8337 375.412C63.5957 373.047 58.9211 369.594 55.1205 365.283C51.3199 360.972 48.4803 355.902 46.7904 350.409C45.1005 344.916 44.5991 339.126 45.3194 333.424C46.0397 327.722 47.9652 322.239 50.9681 317.339C53.9709 312.439 57.9823 308.234 62.7356 305.003C67.4889 301.773 72.8753 299.591 78.5369 298.603C84.1984 297.615 90.0054 297.843 95.5719 299.272L85.5 338.5L85.5 379Z" fill="#FFD260"/>
<path d="M175.936 308.06C175.72 307.644 175.42 307.332 175.036 307.124C174.652 306.908 174.208 306.8 173.704 306.8C173.152 306.8 172.66 306.924 172.228 307.172C171.796 307.42 171.456 307.772 171.208 308.228C170.968 308.684 170.848 309.212 170.848 309.812C170.848 310.412 170.968 310.944 171.208 311.408C171.456 311.864 171.796 312.216 172.228 312.464C172.66 312.712 173.152 312.836 173.704 312.836C174.448 312.836 175.052 312.628 175.516 312.212C175.98 311.796 176.264 311.232 176.368 310.52H173.236V309.428H177.832V310.496C177.744 311.144 177.512 311.74 177.136 312.284C176.768 312.828 176.284 313.264 175.684 313.592C175.092 313.912 174.432 314.072 173.704 314.072C172.92 314.072 172.204 313.892 171.556 313.532C170.908 313.164 170.392 312.656 170.008 312.008C169.632 311.36 169.444 310.628 169.444 309.812C169.444 308.996 169.632 308.264 170.008 307.616C170.392 306.968 170.908 306.464 171.556 306.104C172.212 305.736 172.928 305.552 173.704 305.552C174.592 305.552 175.38 305.772 176.068 306.212C176.764 306.644 177.268 307.26 177.58 308.06H175.936ZM182.985 314.084C182.209 314.084 181.493 313.904 180.837 313.544C180.189 313.176 179.673 312.668 179.289 312.02C178.913 311.364 178.725 310.628 178.725 309.812C178.725 308.996 178.913 308.264 179.289 307.616C179.673 306.968 180.189 306.464 180.837 306.104C181.493 305.736 182.209 305.552 182.985 305.552C183.769 305.552 184.485 305.736 185.133 306.104C185.789 306.464 186.305 306.968 186.681 307.616C187.057 308.264 187.245 308.996 187.245 309.812C187.245 310.628 187.057 311.364 186.681 312.02C186.305 312.668 185.789 313.176 185.133 313.544C184.485 313.904 183.769 314.084 182.985 314.084ZM182.985 312.896C183.537 312.896 184.029 312.772 184.461 312.524C184.893 312.268 185.229 311.908 185.469 311.444C185.717 310.972 185.841 310.428 185.841 309.812C185.841 309.196 185.717 308.656 185.469 308.192C185.229 307.728 184.893 307.372 184.461 307.124C184.029 306.876 183.537 306.752 182.985 306.752C182.433 306.752 181.941 306.876 181.509 307.124C181.077 307.372 180.737 307.728 180.489 308.192C180.249 308.656 180.129 309.196 180.129 309.812C180.129 310.428 180.249 310.972 180.489 311.444C180.737 311.908 181.077 312.268 181.509 312.524C181.941 312.772 182.433 312.896 182.985 312.896ZM193.619 312.296H190.127L189.527 314H188.099L191.087 305.648H192.671L195.659 314H194.219L193.619 312.296ZM193.235 311.18L191.879 307.304L190.511 311.18H193.235ZM198.327 312.896H201.147V314H196.959V305.66H198.327V312.896Z" fill="#154C6B"/>
<path d="M174.276 336.392H175.3V335.096C177.636 334.936 178.916 333.416 178.916 331.784C178.916 329.416 176.964 328.984 175.3 328.552V325.528C175.924 325.72 176.308 326.2 176.372 326.824H178.788C178.644 324.92 177.3 323.848 175.3 323.688V322.392H174.276V323.688C172.196 323.848 170.692 325.08 170.692 326.968C170.692 329.336 172.628 329.8 174.276 330.216V333.272C173.54 333.112 173.156 332.616 173.092 331.88H170.692C170.74 333.8 172.212 334.904 174.276 335.08V336.392ZM176.596 331.88C176.596 332.6 176.116 333.16 175.3 333.304V330.504C176.052 330.76 176.596 331.128 176.596 331.88ZM173.028 326.856C173.028 326.04 173.54 325.592 174.276 325.48V328.248C173.54 327.992 173.028 327.608 173.028 326.856ZM186.665 335H188.905V332.728H190.312V330.776H188.905V323.48H186.297L181.065 330.968V332.728H186.665V335ZM183.529 330.776L186.809 325.88V330.776H183.529ZM191.083 337.304H192.539L194.523 332.536H192.155L191.083 337.304ZM195.817 329.016C195.817 332.424 196.841 334.968 200.137 334.968C203.433 334.968 204.457 332.424 204.457 329.016C204.457 325.64 203.433 323.112 200.137 323.112C196.841 323.112 195.817 325.64 195.817 329.016ZM202.249 329.016C202.249 331.096 202.025 332.888 200.137 332.888C198.249 332.888 198.025 331.096 198.025 329.016C198.025 327.016 198.249 325.192 200.137 325.192C202.025 325.192 202.249 327.016 202.249 329.016ZM206.161 329.016C206.161 332.424 207.185 334.968 210.481 334.968C213.777 334.968 214.801 332.424 214.801 329.016C214.801 325.64 213.777 323.112 210.481 323.112C207.185 323.112 206.161 325.64 206.161 329.016ZM212.593 329.016C212.593 331.096 212.369 332.888 210.481 332.888C208.593 332.888 208.369 331.096 208.369 329.016C208.369 327.016 208.593 325.192 210.481 325.192C212.369 325.192 212.593 327.016 212.593 329.016ZM216.504 329.016C216.504 332.424 217.528 334.968 220.824 334.968C224.12 334.968 225.144 332.424 225.144 329.016C225.144 325.64 224.12 323.112 220.824 323.112C217.528 323.112 216.504 325.64 216.504 329.016ZM222.936 329.016C222.936 331.096 222.712 332.888 220.824 332.888C218.936 332.888 218.712 331.096 218.712 329.016C218.712 327.016 218.936 325.192 220.824 325.192C222.712 325.192 222.936 327.016 222.936 329.016Z" fill="#154C6B"/>
<path d="M175.732 356.144C175.732 356.568 175.632 356.968 175.432 357.344C175.232 357.72 174.912 358.028 174.472 358.268C174.032 358.5 173.468 358.616 172.78 358.616H171.268V362H169.9V353.66H172.78C173.42 353.66 173.96 353.772 174.4 353.996C174.848 354.212 175.18 354.508 175.396 354.884C175.62 355.26 175.732 355.68 175.732 356.144ZM172.78 357.5C173.3 357.5 173.688 357.384 173.944 357.152C174.2 356.912 174.328 356.576 174.328 356.144C174.328 355.232 173.812 354.776 172.78 354.776H171.268V357.5H172.78ZM182.065 360.296H178.573L177.973 362H176.545L179.533 353.648H181.117L184.105 362H182.665L182.065 360.296ZM181.681 359.18L180.325 355.304L178.957 359.18H181.681ZM191.584 353.66L188.824 358.976V362H187.456V358.976L184.684 353.66H186.208L188.14 357.752L190.072 353.66H191.584ZM201.454 353.66V362H200.086V356.288L197.542 362H196.594L194.038 356.288V362H192.67V353.66H194.146L197.074 360.2L199.99 353.66H201.454ZM204.62 354.764V357.212H207.5V358.328H204.62V360.884H207.86V362H203.252V353.648H207.86V354.764H204.62ZM216.397 362H215.029L210.913 355.772V362H209.545V353.648H210.913L215.029 359.864V353.648H216.397V362ZM223.581 353.66V354.776H221.361V362H219.993V354.776H217.761V353.66H223.581Z" fill="#154C6B"/>
<path d="M271.928 360.296H268.436L267.836 362H266.408L269.396 353.648H270.98L273.968 362H272.528L271.928 360.296ZM271.544 359.18L270.188 355.304L268.82 359.18H271.544ZM274.811 357.812C274.811 356.996 274.999 356.264 275.375 355.616C275.759 354.968 276.275 354.464 276.923 354.104C277.579 353.736 278.295 353.552 279.071 353.552C279.959 353.552 280.747 353.772 281.435 354.212C282.131 354.644 282.635 355.26 282.947 356.06H281.303C281.087 355.62 280.787 355.292 280.403 355.076C280.019 354.86 279.575 354.752 279.071 354.752C278.519 354.752 278.027 354.876 277.595 355.124C277.163 355.372 276.823 355.728 276.575 356.192C276.335 356.656 276.215 357.196 276.215 357.812C276.215 358.428 276.335 358.968 276.575 359.432C276.823 359.896 277.163 360.256 277.595 360.512C278.027 360.76 278.519 360.884 279.071 360.884C279.575 360.884 280.019 360.776 280.403 360.56C280.787 360.344 281.087 360.016 281.303 359.576H282.947C282.635 360.376 282.131 360.992 281.435 361.424C280.747 361.856 279.959 362.072 279.071 362.072C278.287 362.072 277.571 361.892 276.923 361.532C276.275 361.164 275.759 360.656 275.375 360.008C274.999 359.36 274.811 358.628 274.811 357.812ZM291.208 353.66V362H289.84V358.352H285.916V362H284.548V353.66H285.916V357.236H289.84V353.66H291.208ZM294.377 353.66V362H293.009V353.66H294.377ZM297.541 354.764V357.212H300.421V358.328H297.541V360.884H300.781V362H296.173V353.648H300.781V354.764H297.541ZM309.654 353.66L306.522 362H304.938L301.794 353.66H303.258L305.73 360.596L308.214 353.66H309.654ZM312.166 354.764V357.212H315.046V358.328H312.166V360.884H315.406V362H310.798V353.648H315.406V354.764H312.166ZM324.673 357.716C325.121 357.796 325.501 358.032 325.813 358.424C326.125 358.816 326.281 359.26 326.281 359.756C326.281 360.18 326.169 360.564 325.945 360.908C325.729 361.244 325.413 361.512 324.997 361.712C324.581 361.904 324.097 362 323.545 362H320.209V353.66H323.389C323.957 353.66 324.445 353.756 324.853 353.948C325.261 354.14 325.569 354.4 325.777 354.728C325.985 355.048 326.089 355.408 326.089 355.808C326.089 356.288 325.961 356.688 325.705 357.008C325.449 357.328 325.105 357.564 324.673 357.716ZM321.577 357.164H323.269C323.717 357.164 324.065 357.064 324.313 356.864C324.569 356.656 324.697 356.36 324.697 355.976C324.697 355.6 324.569 355.308 324.313 355.1C324.065 354.884 323.717 354.776 323.269 354.776H321.577V357.164ZM323.425 360.884C323.889 360.884 324.253 360.772 324.517 360.548C324.781 360.324 324.913 360.012 324.913 359.612C324.913 359.204 324.773 358.88 324.493 358.64C324.213 358.4 323.841 358.28 323.377 358.28H321.577V360.884H323.425ZM333.947 353.66L331.187 358.976V362H329.819V358.976L327.047 353.66H328.571L330.503 357.752L332.435 353.66H333.947Z" fill="#154C6B"/>
<path d="M173.432 384.392H174.456V383.096C176.792 382.936 178.072 381.416 178.072 379.784C178.072 377.416 176.12 376.984 174.456 376.552V373.528C175.08 373.72 175.464 374.2 175.528 374.824H177.944C177.8 372.92 176.456 371.848 174.456 371.688V370.392H173.432V371.688C171.352 371.848 169.848 373.08 169.848 374.968C169.848 377.336 171.784 377.8 173.432 378.216V381.272C172.696 381.112 172.312 380.616 172.248 379.88H169.848C169.896 381.8 171.368 382.904 173.432 383.08V384.392ZM175.752 379.88C175.752 380.6 175.272 381.16 174.456 381.304V378.504C175.208 378.76 175.752 379.128 175.752 379.88ZM172.184 374.856C172.184 374.04 172.696 373.592 173.432 373.48V376.248C172.696 375.992 172.184 375.608 172.184 374.856ZM180.189 382.84H188.093V380.984H183.373C185.229 379.416 187.837 377.304 187.837 374.6C187.837 372.568 186.573 371.08 184.061 371.08C181.965 371.08 180.253 372.312 180.173 374.984H182.349C182.365 373.752 182.957 372.984 184.029 372.984C185.133 372.984 185.597 373.688 185.597 374.728C185.597 376.872 182.829 378.936 180.189 381.176V382.84ZM189.504 377.016C189.504 380.424 190.528 382.968 193.824 382.968C197.12 382.968 198.144 380.424 198.144 377.016C198.144 373.64 197.12 371.112 193.824 371.112C190.528 371.112 189.504 373.64 189.504 377.016ZM195.936 377.016C195.936 379.096 195.712 380.888 193.824 380.888C191.936 380.888 191.712 379.096 191.712 377.016C191.712 375.016 191.936 373.192 193.824 373.192C195.712 373.192 195.936 375.016 195.936 377.016ZM199.848 377.016C199.848 380.424 200.872 382.968 204.168 382.968C207.464 382.968 208.488 380.424 208.488 377.016C208.488 373.64 207.464 371.112 204.168 371.112C200.872 371.112 199.848 373.64 199.848 377.016ZM206.28 377.016C206.28 379.096 206.056 380.888 204.168 380.888C202.28 380.888 202.056 379.096 202.056 377.016C202.056 375.016 202.28 373.192 204.168 373.192C206.056 373.192 206.28 375.016 206.28 377.016Z" fill="#154C6B"/>
<path d="M273.094 379.672C273.094 380.552 272.678 381.112 271.846 381.112C270.998 381.112 270.566 380.536 270.55 379.592H268.31C268.31 381.848 269.782 383.112 271.878 383.112C273.942 383.112 275.35 381.88 275.35 379.672V371.832H273.094V379.672ZM277.387 378.536C277.387 381.304 279.179 383.144 281.419 383.144C282.827 383.144 283.835 382.472 284.363 381.704V383H286.619V374.136H284.363V375.4C283.835 374.664 282.859 373.992 281.435 373.992C279.179 373.992 277.387 375.768 277.387 378.536ZM284.363 378.568C284.363 380.248 283.243 381.176 282.011 381.176C280.811 381.176 279.675 380.216 279.675 378.536C279.675 376.856 280.811 375.96 282.011 375.96C283.243 375.96 284.363 376.888 284.363 378.568ZM295.015 383H297.255V377.8C297.255 375.352 295.783 374.008 293.719 374.008C292.583 374.008 291.623 374.488 291.047 375.24V374.136H288.807V383H291.047V378.104C291.047 376.68 291.831 375.912 293.047 375.912C294.231 375.912 295.015 376.68 295.015 378.104V383ZM302.814 382.84H310.718V380.984H305.998C307.854 379.416 310.462 377.304 310.462 374.6C310.462 372.568 309.198 371.08 306.686 371.08C304.59 371.08 302.878 372.312 302.798 374.984H304.974C304.99 373.752 305.582 372.984 306.654 372.984C307.758 372.984 308.222 373.688 308.222 374.728C308.222 376.872 305.454 378.936 302.814 381.176V382.84ZM312.129 377.016C312.129 380.424 313.153 382.968 316.449 382.968C319.745 382.968 320.769 380.424 320.769 377.016C320.769 373.64 319.745 371.112 316.449 371.112C313.153 371.112 312.129 373.64 312.129 377.016ZM318.561 377.016C318.561 379.096 318.337 380.888 316.449 380.888C314.561 380.888 314.337 379.096 314.337 377.016C314.337 375.016 314.561 373.192 316.449 373.192C318.337 373.192 318.561 375.016 318.561 377.016ZM322.345 382.84H330.249V380.984H325.529C327.385 379.416 329.993 377.304 329.993 374.6C329.993 372.568 328.729 371.08 326.217 371.08C324.121 371.08 322.409 372.312 322.329 374.984H324.505C324.521 373.752 325.113 372.984 326.185 372.984C327.289 372.984 327.753 373.688 327.753 374.728C327.753 376.872 324.985 378.936 322.345 381.176V382.84ZM331.533 382.84H339.437V380.984H334.717C336.573 379.416 339.181 377.304 339.181 374.6C339.181 372.568 337.917 371.08 335.405 371.08C333.309 371.08 331.597 372.312 331.517 374.984H333.693C333.709 373.752 334.301 372.984 335.373 372.984C336.477 372.984 336.941 373.688 336.941 374.728C336.941 376.872 334.173 378.936 331.533 381.176V382.84Z" fill="#154C6B"/>
<g clip-path="url(#clip0_116:13736)">
<path d="M104.246 343.877C104.246 343.127 103.85 342.44 103.225 342.023L87.5799 332.253V320.795C87.5799 319.066 86.1841 317.67 84.455 317.67C82.7259 317.67 81.3301 319.066 81.3301 320.795V332.253L65.6849 342.023C65.0599 342.419 64.6641 343.127 64.6641 343.877C64.6641 345.336 66.0807 346.398 67.4973 345.961L81.3301 341.627V353.085L77.5802 355.898C77.3094 356.085 77.1636 356.398 77.1636 356.731V357.96C77.1636 358.648 77.8302 359.148 78.4969 358.96L84.455 357.252L90.4131 358.96C91.0797 359.148 91.7464 358.648 91.7464 357.96V356.731C91.7464 356.398 91.6005 356.085 91.3297 355.898L87.5799 353.085V341.627L101.413 345.961C102.829 346.398 104.246 345.336 104.246 343.877Z" fill="#EFEFEF"/>
<path fill-rule="evenodd" clip-rule="evenodd" d="M103.225 342.023C103.85 342.44 104.246 343.127 104.246 343.877C104.246 345.336 102.829 346.398 101.413 345.961L87.5799 341.627V332.253L103.225 342.023ZM81.3301 332.253L65.6849 342.023C65.0599 342.419 64.6641 343.127 64.6641 343.877C64.6641 345.336 66.0807 346.398 67.4973 345.961L81.3301 341.627V332.253Z" fill="#A9E0FF"/>
</g>
<rect x="20.5" y="240.5" width="334" height="158" rx="19.5" stroke="#E8F3FA"/>
<defs>
<clipPath id="clip0_116:13736">
<rect width="49.9981" height="49.9981" fill="white" transform="translate(60.4971 313.503)"/>
</clipPath>
</defs>
</svg>
