<svg width="435" height="876" viewBox="0 0 435 876" fill="none" xmlns="http://www.w3.org/2000/svg">
<g clip-path="url(#clip0_117:18065)">
<path d="M435.19 219.166H432.283L432.261 63.9799C432.261 28.8175 403.485 0.0212205 368.3 0.0212205L66.8054 0C31.6201 0 2.82246 28.7751 2.84369 63.9587V132.353H0V162.422H2.84369V195.823H0V255.983H2.84369V276.461H0V336.621H2.86491L2.90735 802.221C2.90735 837.384 31.6837 866.18 66.8691 866.18L368.363 866.201C403.549 866.201 432.346 837.426 432.325 802.243L432.283 315.422H435.19V219.166V219.166Z" fill="#BCBCBC"/>
<path d="M369.131 863.188L66.1277 863.167C33.0219 863.167 5.9218 836.068 5.9218 802.964L5.83691 63.2161C5.83691 30.0908 32.937 3.01343 66.0428 3.01343L369.046 3.03465C402.152 3.03465 429.252 30.1333 429.252 63.2373L429.337 802.986C429.337 836.111 402.258 863.188 369.131 863.188Z" fill="#DBDBDB"/>
<path d="M404.949 70.2824C404.949 46.0697 385.129 26.271 360.915 26.2497H312.679C310.642 26.2497 308.987 27.9049 308.987 29.9421C308.987 44.0962 297.4 55.6826 283.246 55.6826H139.09C124.935 55.6826 113.349 44.0962 113.349 29.9421V29.9209C113.349 27.8837 111.693 26.2285 109.656 26.2285H74.0682C49.8548 26.2285 30.0342 46.0485 30.0342 70.2611L30.0978 794.179C30.0978 818.391 49.9185 838.19 74.1319 838.211L361 838.233C385.214 838.233 405.034 818.413 405.034 794.2L404.949 70.2824Z" fill="white"/>
<path d="M237.651 39.1945H198.349C196.505 39.1945 195 37.6534 195 35.765C195 33.8766 196.505 32.3354 198.349 32.3354H237.651C239.495 32.3354 241 33.8766 241 35.765C241 37.6534 239.495 39.1945 237.651 39.1945Z" fill="white"/>
<path d="M261.5 38.2148C262.881 38.2148 264 37.118 264 35.7651C264 34.4122 262.881 33.3154 261.5 33.3154C260.119 33.3154 259 34.4122 259 35.7651C259 37.118 260.119 38.2148 261.5 38.2148Z" fill="white"/>
<path d="M261.5 40.1745C263.985 40.1745 266 38.2004 266 35.7651C266 33.3299 263.985 31.3557 261.5 31.3557C259.015 31.3557 257 33.3299 257 35.7651C257 38.2004 259.015 40.1745 261.5 40.1745Z" stroke="white" stroke-width="0.924666" stroke-miterlimit="10"/>
<rect x="50" y="117" width="334" height="88" rx="20" fill="#C4C4C4" fill-opacity="0.5"/>
<rect x="50" y="220" width="334" height="65" rx="20" fill="#C4C4C4" fill-opacity="0.5"/>
<rect x="50" y="300" width="334" height="65" rx="20" fill="#C4C4C4" fill-opacity="0.5"/>
<rect x="50" y="380" width="334" height="65" rx="20" fill="#C4C4C4" fill-opacity="0.5"/>
<rect x="50" y="460" width="334" height="65" rx="20" fill="#C4C4C4" fill-opacity="0.5"/>
<rect x="50" y="545" width="334" height="194" rx="20" fill="#C4C4C4" fill-opacity="0.5"/>
<rect x="49" y="755" width="56" height="56" rx="28" fill="#C4C4C4" fill-opacity="0.5"/>
<rect x="119" y="755" width="56" height="56" rx="28" fill="#C4C4C4" fill-opacity="0.5"/>
<rect x="189" y="755" width="56" height="56" rx="28" fill="#C4C4C4" fill-opacity="0.5"/>
<rect x="259" y="755" width="56" height="56" rx="28" fill="#C4C4C4" fill-opacity="0.5"/>
<rect x="329" y="755" width="56" height="56" rx="28" fill="#C4C4C4" fill-opacity="0.5"/>
<path d="M404.915 70.0538C404.915 45.8412 385.095 26.0424 360.881 26.0212H312.645C310.608 26.0212 308.953 27.6764 308.953 29.7136C308.953 43.8677 297.366 55.4541 283.211 55.4541H139.056C124.901 55.4541 113.314 43.8677 113.314 29.7136V29.6924C113.314 27.6552 111.659 26 109.622 26H74.034C49.8206 26 30 45.82 30 70.0326L30.0637 793.95C30.0637 818.163 49.8843 837.962 74.0977 837.983L360.966 838.004C385.179 838.004 405 818.184 405 793.971L404.915 70.0538Z" fill="#CFCFCF" fill-opacity="0.3"/>
<path d="M281.177 830.926H152.823C151.274 830.926 150 829.6 150 827.986C150 826.373 151.274 825.047 152.823 825.047H281.177C282.726 825.047 284 826.373 284 827.986C283.979 829.6 282.726 830.926 281.177 830.926Z" fill="#BFBFBF"/>
<rect x="329" y="46" width="56" height="56" rx="28" fill="#C4C4C4"/>
<path d="M357.5 61L357.5 87M344 73.5H371" stroke="black" stroke-width="2"/>
<rect x="152" y="113" width="233" height="252" rx="20" fill="#C4C4C4"/>
<path d="M175.93 147H174.43V135.625H175.93V147ZM179.82 138.547L179.867 139.609C180.513 138.797 181.357 138.391 182.398 138.391C184.185 138.391 185.086 139.398 185.102 141.414V147H183.656V141.406C183.651 140.797 183.51 140.346 183.234 140.055C182.964 139.763 182.539 139.617 181.961 139.617C181.492 139.617 181.081 139.742 180.727 139.992C180.372 140.242 180.096 140.57 179.898 140.977V147H178.453V138.547H179.82ZM190.672 145.977C191.188 145.977 191.638 145.82 192.023 145.508C192.409 145.195 192.622 144.805 192.664 144.336H194.031C194.005 144.82 193.839 145.281 193.531 145.719C193.224 146.156 192.812 146.505 192.297 146.766C191.786 147.026 191.245 147.156 190.672 147.156C189.521 147.156 188.604 146.773 187.922 146.008C187.245 145.237 186.906 144.185 186.906 142.852V142.609C186.906 141.786 187.057 141.055 187.359 140.414C187.661 139.773 188.094 139.276 188.656 138.922C189.224 138.568 189.893 138.391 190.664 138.391C191.612 138.391 192.398 138.674 193.023 139.242C193.654 139.81 193.99 140.547 194.031 141.453H192.664C192.622 140.906 192.414 140.458 192.039 140.109C191.669 139.755 191.211 139.578 190.664 139.578C189.93 139.578 189.359 139.844 188.953 140.375C188.552 140.901 188.352 141.664 188.352 142.664V142.938C188.352 143.911 188.552 144.661 188.953 145.188C189.354 145.714 189.927 145.977 190.672 145.977ZM195.273 142.695C195.273 141.867 195.435 141.122 195.758 140.461C196.086 139.799 196.539 139.289 197.117 138.93C197.701 138.57 198.365 138.391 199.109 138.391C200.26 138.391 201.19 138.789 201.898 139.586C202.612 140.383 202.969 141.443 202.969 142.766V142.867C202.969 143.69 202.81 144.43 202.492 145.086C202.18 145.737 201.729 146.245 201.141 146.609C200.557 146.974 199.885 147.156 199.125 147.156C197.979 147.156 197.049 146.758 196.336 145.961C195.628 145.164 195.273 144.109 195.273 142.797V142.695ZM196.727 142.867C196.727 143.805 196.943 144.557 197.375 145.125C197.812 145.693 198.396 145.977 199.125 145.977C199.859 145.977 200.443 145.69 200.875 145.117C201.307 144.539 201.523 143.732 201.523 142.695C201.523 141.768 201.302 141.018 200.859 140.445C200.422 139.867 199.839 139.578 199.109 139.578C198.396 139.578 197.82 139.862 197.383 140.43C196.945 140.997 196.727 141.81 196.727 142.867ZM206.141 138.547L206.18 139.484C206.799 138.755 207.635 138.391 208.688 138.391C209.87 138.391 210.674 138.844 211.102 139.75C211.383 139.344 211.747 139.016 212.195 138.766C212.648 138.516 213.182 138.391 213.797 138.391C215.651 138.391 216.594 139.372 216.625 141.336V147H215.18V141.422C215.18 140.818 215.042 140.367 214.766 140.07C214.49 139.768 214.026 139.617 213.375 139.617C212.839 139.617 212.393 139.779 212.039 140.102C211.685 140.419 211.479 140.849 211.422 141.391V147H209.969V141.461C209.969 140.232 209.367 139.617 208.164 139.617C207.216 139.617 206.568 140.021 206.219 140.828V147H204.773V138.547H206.141ZM222.32 147.156C221.174 147.156 220.242 146.781 219.523 146.031C218.805 145.276 218.445 144.268 218.445 143.008V142.742C218.445 141.904 218.604 141.156 218.922 140.5C219.245 139.839 219.693 139.323 220.266 138.953C220.844 138.578 221.469 138.391 222.141 138.391C223.24 138.391 224.094 138.753 224.703 139.477C225.312 140.201 225.617 141.237 225.617 142.586V143.188H219.891C219.911 144.021 220.154 144.695 220.617 145.211C221.086 145.721 221.68 145.977 222.398 145.977C222.909 145.977 223.341 145.872 223.695 145.664C224.049 145.456 224.359 145.18 224.625 144.836L225.508 145.523C224.799 146.612 223.737 147.156 222.32 147.156ZM222.141 139.578C221.557 139.578 221.068 139.792 220.672 140.219C220.276 140.641 220.031 141.234 219.938 142H224.172V141.891C224.13 141.156 223.932 140.589 223.578 140.188C223.224 139.781 222.745 139.578 222.141 139.578ZM174.32 186V174.625H178.039C179.273 174.625 180.201 174.88 180.82 175.391C181.445 175.901 181.758 176.656 181.758 177.656C181.758 178.188 181.607 178.659 181.305 179.07C181.003 179.477 180.591 179.792 180.07 180.016C180.685 180.188 181.169 180.516 181.523 181C181.883 181.479 182.062 182.052 182.062 182.719C182.062 183.74 181.732 184.542 181.07 185.125C180.409 185.708 179.474 186 178.266 186H174.32ZM175.82 180.68V184.773H178.297C178.995 184.773 179.544 184.594 179.945 184.234C180.352 183.87 180.555 183.37 180.555 182.734C180.555 181.365 179.81 180.68 178.32 180.68H175.82ZM175.82 179.477H178.086C178.742 179.477 179.266 179.312 179.656 178.984C180.052 178.656 180.25 178.211 180.25 177.648C180.25 177.023 180.068 176.57 179.703 176.289C179.339 176.003 178.784 175.859 178.039 175.859H175.82V179.477ZM185.633 186H184.188V177.547H185.633V186ZM184.07 175.305C184.07 175.07 184.141 174.872 184.281 174.711C184.427 174.549 184.641 174.469 184.922 174.469C185.203 174.469 185.417 174.549 185.562 174.711C185.708 174.872 185.781 175.07 185.781 175.305C185.781 175.539 185.708 175.734 185.562 175.891C185.417 176.047 185.203 176.125 184.922 176.125C184.641 176.125 184.427 176.047 184.281 175.891C184.141 175.734 184.07 175.539 184.07 175.305ZM189.523 186H188.078V174H189.523V186ZM193.414 186H191.969V174H193.414V186ZM200.656 183.758C200.656 183.367 200.508 183.065 200.211 182.852C199.919 182.633 199.406 182.445 198.672 182.289C197.943 182.133 197.362 181.945 196.93 181.727C196.503 181.508 196.185 181.247 195.977 180.945C195.773 180.643 195.672 180.284 195.672 179.867C195.672 179.174 195.964 178.589 196.547 178.109C197.135 177.63 197.885 177.391 198.797 177.391C199.755 177.391 200.531 177.638 201.125 178.133C201.724 178.628 202.023 179.26 202.023 180.031H200.57C200.57 179.635 200.401 179.294 200.062 179.008C199.729 178.721 199.307 178.578 198.797 178.578C198.271 178.578 197.859 178.693 197.562 178.922C197.266 179.151 197.117 179.451 197.117 179.82C197.117 180.169 197.255 180.432 197.531 180.609C197.807 180.786 198.305 180.956 199.023 181.117C199.747 181.279 200.333 181.471 200.781 181.695C201.229 181.919 201.56 182.19 201.773 182.508C201.992 182.82 202.102 183.203 202.102 183.656C202.102 184.411 201.799 185.018 201.195 185.477C200.591 185.93 199.807 186.156 198.844 186.156C198.167 186.156 197.568 186.036 197.047 185.797C196.526 185.557 196.117 185.224 195.82 184.797C195.529 184.365 195.383 183.898 195.383 183.398H196.828C196.854 183.883 197.047 184.268 197.406 184.555C197.771 184.836 198.25 184.977 198.844 184.977C199.391 184.977 199.828 184.867 200.156 184.648C200.49 184.424 200.656 184.128 200.656 183.758ZM174.32 225V213.625H177.531C178.521 213.625 179.396 213.844 180.156 214.281C180.917 214.719 181.503 215.341 181.914 216.148C182.331 216.956 182.542 217.883 182.547 218.93V219.656C182.547 220.729 182.339 221.669 181.922 222.477C181.51 223.284 180.919 223.904 180.148 224.336C179.383 224.768 178.49 224.99 177.469 225H174.32ZM175.82 214.859V223.773H177.398C178.555 223.773 179.453 223.414 180.094 222.695C180.74 221.977 181.062 220.953 181.062 219.625V218.961C181.062 217.669 180.758 216.667 180.148 215.953C179.544 215.234 178.685 214.87 177.57 214.859H175.82ZM188.102 225.156C186.956 225.156 186.023 224.781 185.305 224.031C184.586 223.276 184.227 222.268 184.227 221.008V220.742C184.227 219.904 184.385 219.156 184.703 218.5C185.026 217.839 185.474 217.323 186.047 216.953C186.625 216.578 187.25 216.391 187.922 216.391C189.021 216.391 189.875 216.753 190.484 217.477C191.094 218.201 191.398 219.237 191.398 220.586V221.188H185.672C185.693 222.021 185.935 222.695 186.398 223.211C186.867 223.721 187.461 223.977 188.18 223.977C188.69 223.977 189.122 223.872 189.477 223.664C189.831 223.456 190.141 223.18 190.406 222.836L191.289 223.523C190.581 224.612 189.518 225.156 188.102 225.156ZM187.922 217.578C187.339 217.578 186.849 217.792 186.453 218.219C186.057 218.641 185.812 219.234 185.719 220H189.953V219.891C189.911 219.156 189.714 218.589 189.359 218.188C189.005 217.781 188.526 217.578 187.922 217.578ZM200.234 220.867C200.234 222.159 199.938 223.198 199.344 223.984C198.75 224.766 197.953 225.156 196.953 225.156C195.885 225.156 195.06 224.779 194.477 224.023L194.406 225H193.078V213H194.523V217.477C195.107 216.753 195.911 216.391 196.938 216.391C197.964 216.391 198.768 216.779 199.352 217.555C199.94 218.331 200.234 219.393 200.234 220.742V220.867ZM198.789 220.703C198.789 219.719 198.599 218.958 198.219 218.422C197.839 217.885 197.292 217.617 196.578 217.617C195.625 217.617 194.94 218.06 194.523 218.945V222.602C194.966 223.487 195.656 223.93 196.594 223.93C197.286 223.93 197.826 223.661 198.211 223.125C198.596 222.589 198.789 221.781 198.789 220.703ZM204.023 214.5V216.547H205.602V217.664H204.023V222.906C204.023 223.245 204.094 223.5 204.234 223.672C204.375 223.839 204.615 223.922 204.953 223.922C205.12 223.922 205.349 223.891 205.641 223.828V225C205.26 225.104 204.891 225.156 204.531 225.156C203.885 225.156 203.398 224.961 203.07 224.57C202.742 224.18 202.578 223.625 202.578 222.906V217.664H201.039V216.547H202.578V214.5H204.023ZM177.672 258.93C176.385 258.56 175.448 258.107 174.859 257.57C174.276 257.029 173.984 256.362 173.984 255.57C173.984 254.674 174.341 253.935 175.055 253.352C175.773 252.763 176.706 252.469 177.852 252.469C178.633 252.469 179.328 252.62 179.938 252.922C180.552 253.224 181.026 253.641 181.359 254.172C181.698 254.703 181.867 255.284 181.867 255.914H180.359C180.359 255.227 180.141 254.688 179.703 254.297C179.266 253.901 178.648 253.703 177.852 253.703C177.112 253.703 176.534 253.867 176.117 254.195C175.706 254.518 175.5 254.969 175.5 255.547C175.5 256.01 175.695 256.404 176.086 256.727C176.482 257.044 177.151 257.336 178.094 257.602C179.042 257.867 179.781 258.161 180.312 258.484C180.849 258.802 181.245 259.174 181.5 259.602C181.76 260.029 181.891 260.531 181.891 261.109C181.891 262.031 181.531 262.771 180.812 263.328C180.094 263.88 179.133 264.156 177.93 264.156C177.148 264.156 176.419 264.008 175.742 263.711C175.065 263.409 174.542 262.997 174.172 262.477C173.807 261.956 173.625 261.365 173.625 260.703H175.133C175.133 261.391 175.385 261.935 175.891 262.336C176.401 262.732 177.081 262.93 177.93 262.93C178.721 262.93 179.328 262.768 179.75 262.445C180.172 262.122 180.383 261.682 180.383 261.125C180.383 260.568 180.188 260.138 179.797 259.836C179.406 259.529 178.698 259.227 177.672 258.93ZM188.812 264C188.729 263.833 188.661 263.536 188.609 263.109C187.938 263.807 187.135 264.156 186.203 264.156C185.37 264.156 184.685 263.922 184.148 263.453C183.617 262.979 183.352 262.38 183.352 261.656C183.352 260.776 183.685 260.094 184.352 259.609C185.023 259.12 185.966 258.875 187.18 258.875H188.586V258.211C188.586 257.706 188.435 257.305 188.133 257.008C187.831 256.706 187.385 256.555 186.797 256.555C186.281 256.555 185.849 256.685 185.5 256.945C185.151 257.206 184.977 257.521 184.977 257.891H183.523C183.523 257.469 183.672 257.062 183.969 256.672C184.271 256.276 184.677 255.964 185.188 255.734C185.703 255.505 186.268 255.391 186.883 255.391C187.857 255.391 188.62 255.635 189.172 256.125C189.724 256.609 190.01 257.279 190.031 258.133V262.023C190.031 262.799 190.13 263.417 190.328 263.875V264H188.812ZM186.414 262.898C186.867 262.898 187.297 262.781 187.703 262.547C188.109 262.312 188.404 262.008 188.586 261.633V259.898H187.453C185.682 259.898 184.797 260.417 184.797 261.453C184.797 261.906 184.948 262.26 185.25 262.516C185.552 262.771 185.94 262.898 186.414 262.898ZM194.961 262.039L197.055 255.547H198.531L195.5 264H194.398L191.336 255.547H192.812L194.961 262.039ZM201.492 264H200.047V255.547H201.492V264ZM199.93 253.305C199.93 253.07 200 252.872 200.141 252.711C200.286 252.549 200.5 252.469 200.781 252.469C201.062 252.469 201.276 252.549 201.422 252.711C201.568 252.872 201.641 253.07 201.641 253.305C201.641 253.539 201.568 253.734 201.422 253.891C201.276 254.047 201.062 254.125 200.781 254.125C200.5 254.125 200.286 254.047 200.141 253.891C200 253.734 199.93 253.539 199.93 253.305ZM205.18 255.547L205.227 256.609C205.872 255.797 206.716 255.391 207.758 255.391C209.544 255.391 210.445 256.398 210.461 258.414V264H209.016V258.406C209.01 257.797 208.87 257.346 208.594 257.055C208.323 256.763 207.898 256.617 207.32 256.617C206.852 256.617 206.44 256.742 206.086 256.992C205.732 257.242 205.456 257.57 205.258 257.977V264H203.812V255.547H205.18ZM212.297 259.703C212.297 258.385 212.602 257.339 213.211 256.562C213.82 255.781 214.628 255.391 215.633 255.391C216.664 255.391 217.469 255.755 218.047 256.484L218.117 255.547H219.438V263.797C219.438 264.891 219.112 265.753 218.461 266.383C217.815 267.013 216.945 267.328 215.852 267.328C215.242 267.328 214.646 267.198 214.062 266.938C213.479 266.677 213.034 266.32 212.727 265.867L213.477 265C214.096 265.766 214.854 266.148 215.75 266.148C216.453 266.148 217 265.951 217.391 265.555C217.786 265.159 217.984 264.602 217.984 263.883V263.156C217.406 263.823 216.617 264.156 215.617 264.156C214.628 264.156 213.826 263.758 213.211 262.961C212.602 262.164 212.297 261.078 212.297 259.703ZM213.75 259.867C213.75 260.82 213.945 261.57 214.336 262.117C214.727 262.659 215.273 262.93 215.977 262.93C216.888 262.93 217.557 262.516 217.984 261.688V257.828C217.542 257.021 216.878 256.617 215.992 256.617C215.289 256.617 214.74 256.891 214.344 257.438C213.948 257.984 213.75 258.794 213.75 259.867ZM226.547 261.758C226.547 261.367 226.398 261.065 226.102 260.852C225.81 260.633 225.297 260.445 224.562 260.289C223.833 260.133 223.253 259.945 222.82 259.727C222.393 259.508 222.076 259.247 221.867 258.945C221.664 258.643 221.562 258.284 221.562 257.867C221.562 257.174 221.854 256.589 222.438 256.109C223.026 255.63 223.776 255.391 224.688 255.391C225.646 255.391 226.422 255.638 227.016 256.133C227.615 256.628 227.914 257.26 227.914 258.031H226.461C226.461 257.635 226.292 257.294 225.953 257.008C225.62 256.721 225.198 256.578 224.688 256.578C224.161 256.578 223.75 256.693 223.453 256.922C223.156 257.151 223.008 257.451 223.008 257.82C223.008 258.169 223.146 258.432 223.422 258.609C223.698 258.786 224.195 258.956 224.914 259.117C225.638 259.279 226.224 259.471 226.672 259.695C227.12 259.919 227.451 260.19 227.664 260.508C227.883 260.82 227.992 261.203 227.992 261.656C227.992 262.411 227.69 263.018 227.086 263.477C226.482 263.93 225.698 264.156 224.734 264.156C224.057 264.156 223.458 264.036 222.938 263.797C222.417 263.557 222.008 263.224 221.711 262.797C221.419 262.365 221.273 261.898 221.273 261.398H222.719C222.745 261.883 222.938 262.268 223.297 262.555C223.661 262.836 224.141 262.977 224.734 262.977C225.281 262.977 225.719 262.867 226.047 262.648C226.38 262.424 226.547 262.128 226.547 261.758ZM182.18 292.859H178.523V303H177.031V292.859H173.383V291.625H182.18V292.859ZM187.133 295.844C186.914 295.807 186.677 295.789 186.422 295.789C185.474 295.789 184.831 296.193 184.492 297V303H183.047V294.547H184.453L184.477 295.523C184.951 294.768 185.622 294.391 186.492 294.391C186.773 294.391 186.987 294.427 187.133 294.5V295.844ZM193.375 303C193.292 302.833 193.224 302.536 193.172 302.109C192.5 302.807 191.698 303.156 190.766 303.156C189.932 303.156 189.247 302.922 188.711 302.453C188.18 301.979 187.914 301.38 187.914 300.656C187.914 299.776 188.247 299.094 188.914 298.609C189.586 298.12 190.529 297.875 191.742 297.875H193.148V297.211C193.148 296.706 192.997 296.305 192.695 296.008C192.393 295.706 191.948 295.555 191.359 295.555C190.844 295.555 190.411 295.685 190.062 295.945C189.714 296.206 189.539 296.521 189.539 296.891H188.086C188.086 296.469 188.234 296.062 188.531 295.672C188.833 295.276 189.24 294.964 189.75 294.734C190.266 294.505 190.831 294.391 191.445 294.391C192.419 294.391 193.182 294.635 193.734 295.125C194.286 295.609 194.573 296.279 194.594 297.133V301.023C194.594 301.799 194.693 302.417 194.891 302.875V303H193.375ZM190.977 301.898C191.43 301.898 191.859 301.781 192.266 301.547C192.672 301.312 192.966 301.008 193.148 300.633V298.898H192.016C190.245 298.898 189.359 299.417 189.359 300.453C189.359 300.906 189.51 301.26 189.812 301.516C190.115 301.771 190.503 301.898 190.977 301.898ZM198.227 294.547L198.273 295.609C198.919 294.797 199.763 294.391 200.805 294.391C202.591 294.391 203.492 295.398 203.508 297.414V303H202.062V297.406C202.057 296.797 201.917 296.346 201.641 296.055C201.37 295.763 200.945 295.617 200.367 295.617C199.898 295.617 199.487 295.742 199.133 295.992C198.779 296.242 198.503 296.57 198.305 296.977V303H196.859V294.547H198.227ZM210.609 300.758C210.609 300.367 210.461 300.065 210.164 299.852C209.872 299.633 209.359 299.445 208.625 299.289C207.896 299.133 207.315 298.945 206.883 298.727C206.456 298.508 206.138 298.247 205.93 297.945C205.727 297.643 205.625 297.284 205.625 296.867C205.625 296.174 205.917 295.589 206.5 295.109C207.089 294.63 207.839 294.391 208.75 294.391C209.708 294.391 210.484 294.638 211.078 295.133C211.677 295.628 211.977 296.26 211.977 297.031H210.523C210.523 296.635 210.354 296.294 210.016 296.008C209.682 295.721 209.26 295.578 208.75 295.578C208.224 295.578 207.812 295.693 207.516 295.922C207.219 296.151 207.07 296.451 207.07 296.82C207.07 297.169 207.208 297.432 207.484 297.609C207.76 297.786 208.258 297.956 208.977 298.117C209.701 298.279 210.286 298.471 210.734 298.695C211.182 298.919 211.513 299.19 211.727 299.508C211.945 299.82 212.055 300.203 212.055 300.656C212.055 301.411 211.753 302.018 211.148 302.477C210.544 302.93 209.76 303.156 208.797 303.156C208.12 303.156 207.521 303.036 207 302.797C206.479 302.557 206.07 302.224 205.773 301.797C205.482 301.365 205.336 300.898 205.336 300.398H206.781C206.807 300.883 207 301.268 207.359 301.555C207.724 301.836 208.203 301.977 208.797 301.977C209.344 301.977 209.781 301.867 210.109 301.648C210.443 301.424 210.609 301.128 210.609 300.758ZM219.156 303C219.073 302.833 219.005 302.536 218.953 302.109C218.281 302.807 217.479 303.156 216.547 303.156C215.714 303.156 215.029 302.922 214.492 302.453C213.961 301.979 213.695 301.38 213.695 300.656C213.695 299.776 214.029 299.094 214.695 298.609C215.367 298.12 216.31 297.875 217.523 297.875H218.93V297.211C218.93 296.706 218.779 296.305 218.477 296.008C218.174 295.706 217.729 295.555 217.141 295.555C216.625 295.555 216.193 295.685 215.844 295.945C215.495 296.206 215.32 296.521 215.32 296.891H213.867C213.867 296.469 214.016 296.062 214.312 295.672C214.615 295.276 215.021 294.964 215.531 294.734C216.047 294.505 216.612 294.391 217.227 294.391C218.201 294.391 218.964 294.635 219.516 295.125C220.068 295.609 220.354 296.279 220.375 297.133V301.023C220.375 301.799 220.474 302.417 220.672 302.875V303H219.156ZM216.758 301.898C217.211 301.898 217.641 301.781 218.047 301.547C218.453 301.312 218.747 301.008 218.93 300.633V298.898H217.797C216.026 298.898 215.141 299.417 215.141 300.453C215.141 300.906 215.292 301.26 215.594 301.516C215.896 301.771 216.284 301.898 216.758 301.898ZM226.031 301.977C226.547 301.977 226.997 301.82 227.383 301.508C227.768 301.195 227.982 300.805 228.023 300.336H229.391C229.365 300.82 229.198 301.281 228.891 301.719C228.583 302.156 228.172 302.505 227.656 302.766C227.146 303.026 226.604 303.156 226.031 303.156C224.88 303.156 223.964 302.773 223.281 302.008C222.604 301.237 222.266 300.185 222.266 298.852V298.609C222.266 297.786 222.417 297.055 222.719 296.414C223.021 295.773 223.453 295.276 224.016 294.922C224.583 294.568 225.253 294.391 226.023 294.391C226.971 294.391 227.758 294.674 228.383 295.242C229.013 295.81 229.349 296.547 229.391 297.453H228.023C227.982 296.906 227.773 296.458 227.398 296.109C227.029 295.755 226.57 295.578 226.023 295.578C225.289 295.578 224.719 295.844 224.312 296.375C223.911 296.901 223.711 297.664 223.711 298.664V298.938C223.711 299.911 223.911 300.661 224.312 301.188C224.714 301.714 225.286 301.977 226.031 301.977ZM232.977 292.5V294.547H234.555V295.664H232.977V300.906C232.977 301.245 233.047 301.5 233.188 301.672C233.328 301.839 233.568 301.922 233.906 301.922C234.073 301.922 234.302 301.891 234.594 301.828V303C234.214 303.104 233.844 303.156 233.484 303.156C232.839 303.156 232.352 302.961 232.023 302.57C231.695 302.18 231.531 301.625 231.531 300.906V295.664H229.992V294.547H231.531V292.5H232.977ZM237.82 303H236.375V294.547H237.82V303ZM236.258 292.305C236.258 292.07 236.328 291.872 236.469 291.711C236.615 291.549 236.828 291.469 237.109 291.469C237.391 291.469 237.604 291.549 237.75 291.711C237.896 291.872 237.969 292.07 237.969 292.305C237.969 292.539 237.896 292.734 237.75 292.891C237.604 293.047 237.391 293.125 237.109 293.125C236.828 293.125 236.615 293.047 236.469 292.891C236.328 292.734 236.258 292.539 236.258 292.305ZM239.758 298.695C239.758 297.867 239.919 297.122 240.242 296.461C240.57 295.799 241.023 295.289 241.602 294.93C242.185 294.57 242.849 294.391 243.594 294.391C244.745 294.391 245.674 294.789 246.383 295.586C247.096 296.383 247.453 297.443 247.453 298.766V298.867C247.453 299.69 247.294 300.43 246.977 301.086C246.664 301.737 246.214 302.245 245.625 302.609C245.042 302.974 244.37 303.156 243.609 303.156C242.464 303.156 241.534 302.758 240.82 301.961C240.112 301.164 239.758 300.109 239.758 298.797V298.695ZM241.211 298.867C241.211 299.805 241.427 300.557 241.859 301.125C242.297 301.693 242.88 301.977 243.609 301.977C244.344 301.977 244.927 301.69 245.359 301.117C245.792 300.539 246.008 299.732 246.008 298.695C246.008 297.768 245.786 297.018 245.344 296.445C244.906 295.867 244.323 295.578 243.594 295.578C242.88 295.578 242.305 295.862 241.867 296.43C241.43 296.997 241.211 297.81 241.211 298.867ZM250.633 294.547L250.68 295.609C251.326 294.797 252.169 294.391 253.211 294.391C254.997 294.391 255.898 295.398 255.914 297.414V303H254.469V297.406C254.464 296.797 254.323 296.346 254.047 296.055C253.776 295.763 253.352 295.617 252.773 295.617C252.305 295.617 251.893 295.742 251.539 295.992C251.185 296.242 250.909 296.57 250.711 296.977V303H249.266V294.547H250.633ZM174.32 342V330.625H178.039C179.273 330.625 180.201 330.88 180.82 331.391C181.445 331.901 181.758 332.656 181.758 333.656C181.758 334.188 181.607 334.659 181.305 335.07C181.003 335.477 180.591 335.792 180.07 336.016C180.685 336.188 181.169 336.516 181.523 337C181.883 337.479 182.062 338.052 182.062 338.719C182.062 339.74 181.732 340.542 181.07 341.125C180.409 341.708 179.474 342 178.266 342H174.32ZM175.82 336.68V340.773H178.297C178.995 340.773 179.544 340.594 179.945 340.234C180.352 339.87 180.555 339.37 180.555 338.734C180.555 337.365 179.81 336.68 178.32 336.68H175.82ZM175.82 335.477H178.086C178.742 335.477 179.266 335.312 179.656 334.984C180.052 334.656 180.25 334.211 180.25 333.648C180.25 333.023 180.068 332.57 179.703 332.289C179.339 332.003 178.784 331.859 178.039 331.859H175.82V335.477ZM189.281 341.164C188.719 341.826 187.893 342.156 186.805 342.156C185.904 342.156 185.216 341.896 184.742 341.375C184.273 340.849 184.036 340.073 184.031 339.047V333.547H185.477V339.008C185.477 340.289 185.997 340.93 187.039 340.93C188.143 340.93 188.878 340.518 189.242 339.695V333.547H190.688V342H189.312L189.281 341.164ZM192.539 337.703C192.539 336.406 192.846 335.365 193.461 334.578C194.076 333.786 194.88 333.391 195.875 333.391C196.865 333.391 197.648 333.729 198.227 334.406V330H199.672V342H198.344L198.273 341.094C197.695 341.802 196.891 342.156 195.859 342.156C194.88 342.156 194.081 341.755 193.461 340.953C192.846 340.151 192.539 339.104 192.539 337.812V337.703ZM193.984 337.867C193.984 338.826 194.182 339.576 194.578 340.117C194.974 340.659 195.521 340.93 196.219 340.93C197.135 340.93 197.805 340.518 198.227 339.695V335.812C197.794 335.016 197.13 334.617 196.234 334.617C195.526 334.617 194.974 334.891 194.578 335.438C194.182 335.984 193.984 336.794 193.984 337.867ZM201.578 337.703C201.578 336.385 201.883 335.339 202.492 334.562C203.102 333.781 203.909 333.391 204.914 333.391C205.945 333.391 206.75 333.755 207.328 334.484L207.398 333.547H208.719V341.797C208.719 342.891 208.393 343.753 207.742 344.383C207.096 345.013 206.227 345.328 205.133 345.328C204.523 345.328 203.927 345.198 203.344 344.938C202.76 344.677 202.315 344.32 202.008 343.867L202.758 343C203.378 343.766 204.135 344.148 205.031 344.148C205.734 344.148 206.281 343.951 206.672 343.555C207.068 343.159 207.266 342.602 207.266 341.883V341.156C206.688 341.823 205.898 342.156 204.898 342.156C203.909 342.156 203.107 341.758 202.492 340.961C201.883 340.164 201.578 339.078 201.578 337.703ZM203.031 337.867C203.031 338.82 203.227 339.57 203.617 340.117C204.008 340.659 204.555 340.93 205.258 340.93C206.169 340.93 206.839 340.516 207.266 339.688V335.828C206.823 335.021 206.159 334.617 205.273 334.617C204.57 334.617 204.021 334.891 203.625 335.438C203.229 335.984 203.031 336.794 203.031 337.867ZM214.414 342.156C213.268 342.156 212.336 341.781 211.617 341.031C210.898 340.276 210.539 339.268 210.539 338.008V337.742C210.539 336.904 210.698 336.156 211.016 335.5C211.339 334.839 211.786 334.323 212.359 333.953C212.938 333.578 213.562 333.391 214.234 333.391C215.333 333.391 216.188 333.753 216.797 334.477C217.406 335.201 217.711 336.237 217.711 337.586V338.188H211.984C212.005 339.021 212.247 339.695 212.711 340.211C213.18 340.721 213.773 340.977 214.492 340.977C215.003 340.977 215.435 340.872 215.789 340.664C216.143 340.456 216.453 340.18 216.719 339.836L217.602 340.523C216.893 341.612 215.831 342.156 214.414 342.156ZM214.234 334.578C213.651 334.578 213.161 334.792 212.766 335.219C212.37 335.641 212.125 336.234 212.031 337H216.266V336.891C216.224 336.156 216.026 335.589 215.672 335.188C215.318 334.781 214.839 334.578 214.234 334.578ZM221.352 331.5V333.547H222.93V334.664H221.352V339.906C221.352 340.245 221.422 340.5 221.562 340.672C221.703 340.839 221.943 340.922 222.281 340.922C222.448 340.922 222.677 340.891 222.969 340.828V342C222.589 342.104 222.219 342.156 221.859 342.156C221.214 342.156 220.727 341.961 220.398 341.57C220.07 341.18 219.906 340.625 219.906 339.906V334.664H218.367V333.547H219.906V331.5H221.352Z" fill="black"/>
</g>
<defs>
<clipPath id="clip0_117:18065">
<rect width="435" height="876" fill="white"/>
</clipPath>
</defs>
</svg>
