<svg width="435" height="876" viewBox="0 0 435 876" fill="none" xmlns="http://www.w3.org/2000/svg">
<g clip-path="url(#clip0_117:18093)">
<path d="M435.19 219.166H432.283L432.261 63.9799C432.261 28.8175 403.485 0.0212205 368.3 0.0212205L66.8054 0C31.6201 0 2.82246 28.7751 2.84369 63.9587V132.353H0V162.422H2.84369V195.823H0V255.983H2.84369V276.461H0V336.621H2.86491L2.90735 802.221C2.90735 837.384 31.6837 866.18 66.8691 866.18L368.363 866.201C403.549 866.201 432.346 837.426 432.325 802.243L432.283 315.422H435.19V219.166V219.166Z" fill="#BCBCBC"/>
<path d="M369.131 863.188L66.1277 863.167C33.0219 863.167 5.9218 836.068 5.9218 802.964L5.83691 63.2161C5.83691 30.0908 32.937 3.01343 66.0428 3.01343L369.046 3.03465C402.152 3.03465 429.252 30.1333 429.252 63.2373L429.337 802.986C429.337 836.111 402.258 863.188 369.131 863.188Z" fill="#DBDBDB"/>
<path d="M404.949 70.2824C404.949 46.0697 385.129 26.271 360.915 26.2497H312.679C310.642 26.2497 308.987 27.9049 308.987 29.9421C308.987 44.0962 297.4 55.6826 283.246 55.6826H139.09C124.935 55.6826 113.349 44.0962 113.349 29.9421V29.9209C113.349 27.8837 111.693 26.2285 109.656 26.2285H74.0682C49.8548 26.2285 30.0342 46.0485 30.0342 70.2611L30.0978 794.179C30.0978 818.391 49.9185 838.19 74.1319 838.211L361 838.233C385.214 838.233 405.034 818.413 405.034 794.2L404.949 70.2824Z" fill="white"/>
<path d="M237.651 39.1945H198.349C196.505 39.1945 195 37.6534 195 35.765C195 33.8766 196.505 32.3354 198.349 32.3354H237.651C239.495 32.3354 241 33.8766 241 35.765C241 37.6534 239.495 39.1945 237.651 39.1945Z" fill="white"/>
<path d="M261.5 38.2148C262.881 38.2148 264 37.118 264 35.7651C264 34.4122 262.881 33.3154 261.5 33.3154C260.119 33.3154 259 34.4122 259 35.7651C259 37.118 260.119 38.2148 261.5 38.2148Z" fill="white"/>
<path d="M261.5 40.1745C263.985 40.1745 266 38.2004 266 35.7651C266 33.3299 263.985 31.3557 261.5 31.3557C259.015 31.3557 257 33.3299 257 35.7651C257 38.2004 259.015 40.1745 261.5 40.1745Z" stroke="white" stroke-width="0.924666" stroke-miterlimit="10"/>
<rect x="50" y="195" width="334" height="285" rx="20" fill="#C4C4C4"/>
<rect x="49" y="755" width="56" height="56" rx="28" fill="#C4C4C4"/>
<rect x="119" y="755" width="56" height="56" rx="28" fill="#C4C4C4"/>
<rect x="189" y="755" width="56" height="56" rx="28" fill="#C4C4C4"/>
<rect x="259" y="755" width="56" height="56" rx="28" fill="#C4C4C4"/>
<rect x="329" y="755" width="56" height="56" rx="28" fill="#C4C4C4"/>
<path d="M281.177 830.926H152.823C151.274 830.926 150 829.6 150 827.986C150 826.373 151.274 825.047 152.823 825.047H281.177C282.726 825.047 284 826.373 284 827.986C283.979 829.6 282.726 830.926 281.177 830.926Z" fill="#BFBFBF"/>
<rect x="329" y="46" width="56" height="56" rx="28" fill="#C4C4C4"/>
<path d="M357.5 61L357.5 87M344 73.5H371" stroke="black" stroke-width="2"/>
<rect x="51" y="500" width="334" height="65" rx="20" fill="#C4C4C4"/>
<rect x="51" y="580" width="334" height="65" rx="20" fill="#C4C4C4"/>
<rect x="51" y="660" width="334" height="65" rx="20" fill="#C4C4C4"/>
<path d="M81.6875 339.391C81.5469 340.594 81.1016 341.523 80.3516 342.18C79.6068 342.831 78.6146 343.156 77.375 343.156C76.0312 343.156 74.9531 342.674 74.1406 341.711C73.3333 340.747 72.9297 339.458 72.9297 337.844V336.75C72.9297 335.693 73.1172 334.763 73.4922 333.961C73.8724 333.159 74.4089 332.544 75.1016 332.117C75.7943 331.685 76.5964 331.469 77.5078 331.469C78.7161 331.469 79.6849 331.807 80.4141 332.484C81.1432 333.156 81.5677 334.089 81.6875 335.281H80.1797C80.0495 334.375 79.7656 333.719 79.3281 333.312C78.8958 332.906 78.2891 332.703 77.5078 332.703C76.5495 332.703 75.7969 333.057 75.25 333.766C74.7083 334.474 74.4375 335.482 74.4375 336.789V337.891C74.4375 339.125 74.6953 340.107 75.2109 340.836C75.7266 341.565 76.4479 341.93 77.375 341.93C78.2083 341.93 78.8464 341.742 79.2891 341.367C79.737 340.987 80.0339 340.328 80.1797 339.391H81.6875ZM88.7344 343C88.651 342.833 88.5833 342.536 88.5312 342.109C87.8594 342.807 87.0573 343.156 86.125 343.156C85.2917 343.156 84.6068 342.922 84.0703 342.453C83.5391 341.979 83.2734 341.38 83.2734 340.656C83.2734 339.776 83.6068 339.094 84.2734 338.609C84.9453 338.12 85.888 337.875 87.1016 337.875H88.5078V337.211C88.5078 336.706 88.3568 336.305 88.0547 336.008C87.7526 335.706 87.3073 335.555 86.7188 335.555C86.2031 335.555 85.7708 335.685 85.4219 335.945C85.0729 336.206 84.8984 336.521 84.8984 336.891H83.4453C83.4453 336.469 83.5938 336.062 83.8906 335.672C84.1927 335.276 84.599 334.964 85.1094 334.734C85.625 334.505 86.1901 334.391 86.8047 334.391C87.7786 334.391 88.5417 334.635 89.0938 335.125C89.6458 335.609 89.9323 336.279 89.9531 337.133V341.023C89.9531 341.799 90.0521 342.417 90.25 342.875V343H88.7344ZM86.3359 341.898C86.7891 341.898 87.2188 341.781 87.625 341.547C88.0312 341.312 88.3255 341.008 88.5078 340.633V338.898H87.375C85.6042 338.898 84.7188 339.417 84.7188 340.453C84.7188 340.906 84.8698 341.26 85.1719 341.516C85.474 341.771 85.862 341.898 86.3359 341.898ZM93.7891 343H92.3438V331H93.7891V343ZM99.6172 343.156C98.4714 343.156 97.5391 342.781 96.8203 342.031C96.1016 341.276 95.7422 340.268 95.7422 339.008V338.742C95.7422 337.904 95.901 337.156 96.2188 336.5C96.5417 335.839 96.9896 335.323 97.5625 334.953C98.1406 334.578 98.7656 334.391 99.4375 334.391C100.536 334.391 101.391 334.753 102 335.477C102.609 336.201 102.914 337.237 102.914 338.586V339.188H97.1875C97.2083 340.021 97.4505 340.695 97.9141 341.211C98.3828 341.721 98.9766 341.977 99.6953 341.977C100.206 341.977 100.638 341.872 100.992 341.664C101.346 341.456 101.656 341.18 101.922 340.836L102.805 341.523C102.096 342.612 101.034 343.156 99.6172 343.156ZM99.4375 335.578C98.8542 335.578 98.3646 335.792 97.9688 336.219C97.5729 336.641 97.3281 337.234 97.2344 338H101.469V337.891C101.427 337.156 101.229 336.589 100.875 336.188C100.521 335.781 100.042 335.578 99.4375 335.578ZM105.961 334.547L106.008 335.609C106.654 334.797 107.497 334.391 108.539 334.391C110.326 334.391 111.227 335.398 111.242 337.414V343H109.797V337.406C109.792 336.797 109.651 336.346 109.375 336.055C109.104 335.763 108.68 335.617 108.102 335.617C107.633 335.617 107.221 335.742 106.867 335.992C106.513 336.242 106.237 336.57 106.039 336.977V343H104.594V334.547H105.961ZM113.07 338.703C113.07 337.406 113.378 336.365 113.992 335.578C114.607 334.786 115.411 334.391 116.406 334.391C117.396 334.391 118.18 334.729 118.758 335.406V331H120.203V343H118.875L118.805 342.094C118.227 342.802 117.422 343.156 116.391 343.156C115.411 343.156 114.612 342.755 113.992 341.953C113.378 341.151 113.07 340.104 113.07 338.812V338.703ZM114.516 338.867C114.516 339.826 114.714 340.576 115.109 341.117C115.505 341.659 116.052 341.93 116.75 341.93C117.667 341.93 118.336 341.518 118.758 340.695V336.812C118.326 336.016 117.661 335.617 116.766 335.617C116.057 335.617 115.505 335.891 115.109 336.438C114.714 336.984 114.516 337.794 114.516 338.867ZM127.672 343C127.589 342.833 127.521 342.536 127.469 342.109C126.797 342.807 125.995 343.156 125.062 343.156C124.229 343.156 123.544 342.922 123.008 342.453C122.477 341.979 122.211 341.38 122.211 340.656C122.211 339.776 122.544 339.094 123.211 338.609C123.883 338.12 124.826 337.875 126.039 337.875H127.445V337.211C127.445 336.706 127.294 336.305 126.992 336.008C126.69 335.706 126.245 335.555 125.656 335.555C125.141 335.555 124.708 335.685 124.359 335.945C124.01 336.206 123.836 336.521 123.836 336.891H122.383C122.383 336.469 122.531 336.062 122.828 335.672C123.13 335.276 123.536 334.964 124.047 334.734C124.562 334.505 125.128 334.391 125.742 334.391C126.716 334.391 127.479 334.635 128.031 335.125C128.583 335.609 128.87 336.279 128.891 337.133V341.023C128.891 341.799 128.99 342.417 129.188 342.875V343H127.672ZM125.273 341.898C125.727 341.898 126.156 341.781 126.562 341.547C126.969 341.312 127.263 341.008 127.445 340.633V338.898H126.312C124.542 338.898 123.656 339.417 123.656 340.453C123.656 340.906 123.807 341.26 124.109 341.516C124.411 341.771 124.799 341.898 125.273 341.898ZM135.242 335.844C135.023 335.807 134.786 335.789 134.531 335.789C133.583 335.789 132.94 336.193 132.602 337V343H131.156V334.547H132.562L132.586 335.523C133.06 334.768 133.732 334.391 134.602 334.391C134.883 334.391 135.096 334.427 135.242 334.5V335.844Z" fill="black"/>
<path d="M74.9297 538H73.4297V526.625H74.9297V538ZM78.8203 529.547L78.8672 530.609C79.513 529.797 80.3568 529.391 81.3984 529.391C83.1849 529.391 84.0859 530.398 84.1016 532.414V538H82.6562V532.406C82.651 531.797 82.5104 531.346 82.2344 531.055C81.9635 530.763 81.5391 530.617 80.9609 530.617C80.4922 530.617 80.0807 530.742 79.7266 530.992C79.3724 531.242 79.0964 531.57 78.8984 531.977V538H77.4531V529.547H78.8203ZM89.6719 536.977C90.1875 536.977 90.638 536.82 91.0234 536.508C91.4089 536.195 91.6224 535.805 91.6641 535.336H93.0312C93.0052 535.82 92.8385 536.281 92.5312 536.719C92.224 537.156 91.8125 537.505 91.2969 537.766C90.7865 538.026 90.2448 538.156 89.6719 538.156C88.5208 538.156 87.6042 537.773 86.9219 537.008C86.2448 536.237 85.9062 535.185 85.9062 533.852V533.609C85.9062 532.786 86.0573 532.055 86.3594 531.414C86.6615 530.773 87.0938 530.276 87.6562 529.922C88.224 529.568 88.8932 529.391 89.6641 529.391C90.612 529.391 91.3984 529.674 92.0234 530.242C92.6536 530.81 92.9896 531.547 93.0312 532.453H91.6641C91.6224 531.906 91.4141 531.458 91.0391 531.109C90.6693 530.755 90.2109 530.578 89.6641 530.578C88.9297 530.578 88.3594 530.844 87.9531 531.375C87.5521 531.901 87.3516 532.664 87.3516 533.664V533.938C87.3516 534.911 87.5521 535.661 87.9531 536.188C88.3542 536.714 88.9271 536.977 89.6719 536.977ZM94.2734 533.695C94.2734 532.867 94.4349 532.122 94.7578 531.461C95.0859 530.799 95.5391 530.289 96.1172 529.93C96.7005 529.57 97.3646 529.391 98.1094 529.391C99.2604 529.391 100.19 529.789 100.898 530.586C101.612 531.383 101.969 532.443 101.969 533.766V533.867C101.969 534.69 101.81 535.43 101.492 536.086C101.18 536.737 100.729 537.245 100.141 537.609C99.5573 537.974 98.8854 538.156 98.125 538.156C96.9792 538.156 96.0495 537.758 95.3359 536.961C94.6276 536.164 94.2734 535.109 94.2734 533.797V533.695ZM95.7266 533.867C95.7266 534.805 95.9427 535.557 96.375 536.125C96.8125 536.693 97.3958 536.977 98.125 536.977C98.8594 536.977 99.4427 536.69 99.875 536.117C100.307 535.539 100.523 534.732 100.523 533.695C100.523 532.768 100.302 532.018 99.8594 531.445C99.4219 530.867 98.8385 530.578 98.1094 530.578C97.3958 530.578 96.8203 530.862 96.3828 531.43C95.9453 531.997 95.7266 532.81 95.7266 533.867ZM105.141 529.547L105.18 530.484C105.799 529.755 106.635 529.391 107.688 529.391C108.87 529.391 109.674 529.844 110.102 530.75C110.383 530.344 110.747 530.016 111.195 529.766C111.648 529.516 112.182 529.391 112.797 529.391C114.651 529.391 115.594 530.372 115.625 532.336V538H114.18V532.422C114.18 531.818 114.042 531.367 113.766 531.07C113.49 530.768 113.026 530.617 112.375 530.617C111.839 530.617 111.393 530.779 111.039 531.102C110.685 531.419 110.479 531.849 110.422 532.391V538H108.969V532.461C108.969 531.232 108.367 530.617 107.164 530.617C106.216 530.617 105.568 531.021 105.219 531.828V538H103.773V529.547H105.141ZM121.32 538.156C120.174 538.156 119.242 537.781 118.523 537.031C117.805 536.276 117.445 535.268 117.445 534.008V533.742C117.445 532.904 117.604 532.156 117.922 531.5C118.245 530.839 118.693 530.323 119.266 529.953C119.844 529.578 120.469 529.391 121.141 529.391C122.24 529.391 123.094 529.753 123.703 530.477C124.312 531.201 124.617 532.237 124.617 533.586V534.188H118.891C118.911 535.021 119.154 535.695 119.617 536.211C120.086 536.721 120.68 536.977 121.398 536.977C121.909 536.977 122.341 536.872 122.695 536.664C123.049 536.456 123.359 536.18 123.625 535.836L124.508 536.523C123.799 537.612 122.737 538.156 121.32 538.156ZM121.141 530.578C120.557 530.578 120.068 530.792 119.672 531.219C119.276 531.641 119.031 532.234 118.938 533H123.172V532.891C123.13 532.156 122.932 531.589 122.578 531.188C122.224 530.781 121.745 530.578 121.141 530.578ZM131.836 538H130.391V529.547H131.836V538ZM130.273 527.305C130.273 527.07 130.344 526.872 130.484 526.711C130.63 526.549 130.844 526.469 131.125 526.469C131.406 526.469 131.62 526.549 131.766 526.711C131.911 526.872 131.984 527.07 131.984 527.305C131.984 527.539 131.911 527.734 131.766 527.891C131.62 528.047 131.406 528.125 131.125 528.125C130.844 528.125 130.63 528.047 130.484 527.891C130.344 527.734 130.273 527.539 130.273 527.305ZM135.523 529.547L135.57 530.609C136.216 529.797 137.06 529.391 138.102 529.391C139.888 529.391 140.789 530.398 140.805 532.414V538H139.359V532.406C139.354 531.797 139.214 531.346 138.938 531.055C138.667 530.763 138.242 530.617 137.664 530.617C137.195 530.617 136.784 530.742 136.43 530.992C136.076 531.242 135.799 531.57 135.602 531.977V538H134.156V529.547H135.523ZM143.695 538V530.664H142.359V529.547H143.695V528.68C143.695 527.773 143.938 527.073 144.422 526.578C144.906 526.083 145.591 525.836 146.477 525.836C146.81 525.836 147.141 525.88 147.469 525.969L147.391 527.141C147.146 527.094 146.885 527.07 146.609 527.07C146.141 527.07 145.779 527.208 145.523 527.484C145.268 527.755 145.141 528.146 145.141 528.656V529.547H146.945V530.664H145.141V538H143.695ZM148.164 533.695C148.164 532.867 148.326 532.122 148.648 531.461C148.977 530.799 149.43 530.289 150.008 529.93C150.591 529.57 151.255 529.391 152 529.391C153.151 529.391 154.081 529.789 154.789 530.586C155.503 531.383 155.859 532.443 155.859 533.766V533.867C155.859 534.69 155.701 535.43 155.383 536.086C155.07 536.737 154.62 537.245 154.031 537.609C153.448 537.974 152.776 538.156 152.016 538.156C150.87 538.156 149.94 537.758 149.227 536.961C148.518 536.164 148.164 535.109 148.164 533.797V533.695ZM149.617 533.867C149.617 534.805 149.833 535.557 150.266 536.125C150.703 536.693 151.286 536.977 152.016 536.977C152.75 536.977 153.333 536.69 153.766 536.117C154.198 535.539 154.414 534.732 154.414 533.695C154.414 532.768 154.193 532.018 153.75 531.445C153.312 530.867 152.729 530.578 152 530.578C151.286 530.578 150.711 530.862 150.273 531.43C149.836 531.997 149.617 532.81 149.617 533.867Z" fill="black"/>
<path d="M73.3203 618V606.625H77.0391C78.2734 606.625 79.2005 606.88 79.8203 607.391C80.4453 607.901 80.7578 608.656 80.7578 609.656C80.7578 610.188 80.6068 610.659 80.3047 611.07C80.0026 611.477 79.5911 611.792 79.0703 612.016C79.6849 612.188 80.1693 612.516 80.5234 613C80.8828 613.479 81.0625 614.052 81.0625 614.719C81.0625 615.74 80.7318 616.542 80.0703 617.125C79.4089 617.708 78.474 618 77.2656 618H73.3203ZM74.8203 612.68V616.773H77.2969C77.9948 616.773 78.5443 616.594 78.9453 616.234C79.3516 615.87 79.5547 615.37 79.5547 614.734C79.5547 613.365 78.8099 612.68 77.3203 612.68H74.8203ZM74.8203 611.477H77.0859C77.7422 611.477 78.2656 611.312 78.6562 610.984C79.0521 610.656 79.25 610.211 79.25 609.648C79.25 609.023 79.0677 608.57 78.7031 608.289C78.3385 608.003 77.7839 607.859 77.0391 607.859H74.8203V611.477ZM84.6328 618H83.1875V609.547H84.6328V618ZM83.0703 607.305C83.0703 607.07 83.1406 606.872 83.2812 606.711C83.4271 606.549 83.6406 606.469 83.9219 606.469C84.2031 606.469 84.4167 606.549 84.5625 606.711C84.7083 606.872 84.7812 607.07 84.7812 607.305C84.7812 607.539 84.7083 607.734 84.5625 607.891C84.4167 608.047 84.2031 608.125 83.9219 608.125C83.6406 608.125 83.4271 608.047 83.2812 607.891C83.1406 607.734 83.0703 607.539 83.0703 607.305ZM88.5234 618H87.0781V606H88.5234V618ZM92.4141 618H90.9688V606H92.4141V618ZM100.273 618H98.8281V609.547H100.273V618ZM98.7109 607.305C98.7109 607.07 98.7812 606.872 98.9219 606.711C99.0677 606.549 99.2812 606.469 99.5625 606.469C99.8438 606.469 100.057 606.549 100.203 606.711C100.349 606.872 100.422 607.07 100.422 607.305C100.422 607.539 100.349 607.734 100.203 607.891C100.057 608.047 99.8438 608.125 99.5625 608.125C99.2812 608.125 99.0677 608.047 98.9219 607.891C98.7812 607.734 98.7109 607.539 98.7109 607.305ZM103.961 609.547L104.008 610.609C104.654 609.797 105.497 609.391 106.539 609.391C108.326 609.391 109.227 610.398 109.242 612.414V618H107.797V612.406C107.792 611.797 107.651 611.346 107.375 611.055C107.104 610.763 106.68 610.617 106.102 610.617C105.633 610.617 105.221 610.742 104.867 610.992C104.513 611.242 104.237 611.57 104.039 611.977V618H102.594V609.547H103.961ZM112.133 618V610.664H110.797V609.547H112.133V608.68C112.133 607.773 112.375 607.073 112.859 606.578C113.344 606.083 114.029 605.836 114.914 605.836C115.247 605.836 115.578 605.88 115.906 605.969L115.828 607.141C115.583 607.094 115.323 607.07 115.047 607.07C114.578 607.07 114.216 607.208 113.961 607.484C113.706 607.755 113.578 608.146 113.578 608.656V609.547H115.383V610.664H113.578V618H112.133ZM116.602 613.695C116.602 612.867 116.763 612.122 117.086 611.461C117.414 610.799 117.867 610.289 118.445 609.93C119.029 609.57 119.693 609.391 120.438 609.391C121.589 609.391 122.518 609.789 123.227 610.586C123.94 611.383 124.297 612.443 124.297 613.766V613.867C124.297 614.69 124.138 615.43 123.82 616.086C123.508 616.737 123.057 617.245 122.469 617.609C121.885 617.974 121.214 618.156 120.453 618.156C119.307 618.156 118.378 617.758 117.664 616.961C116.956 616.164 116.602 615.109 116.602 613.797V613.695ZM118.055 613.867C118.055 614.805 118.271 615.557 118.703 616.125C119.141 616.693 119.724 616.977 120.453 616.977C121.188 616.977 121.771 616.69 122.203 616.117C122.635 615.539 122.852 614.732 122.852 613.695C122.852 612.768 122.63 612.018 122.188 611.445C121.75 610.867 121.167 610.578 120.438 610.578C119.724 610.578 119.148 610.862 118.711 611.43C118.273 611.997 118.055 612.81 118.055 613.867Z" fill="black"/>
<path d="M73.3203 698V686.625H77.0391C78.2734 686.625 79.2005 686.88 79.8203 687.391C80.4453 687.901 80.7578 688.656 80.7578 689.656C80.7578 690.188 80.6068 690.659 80.3047 691.07C80.0026 691.477 79.5911 691.792 79.0703 692.016C79.6849 692.188 80.1693 692.516 80.5234 693C80.8828 693.479 81.0625 694.052 81.0625 694.719C81.0625 695.74 80.7318 696.542 80.0703 697.125C79.4089 697.708 78.474 698 77.2656 698H73.3203ZM74.8203 692.68V696.773H77.2969C77.9948 696.773 78.5443 696.594 78.9453 696.234C79.3516 695.87 79.5547 695.37 79.5547 694.734C79.5547 693.365 78.8099 692.68 77.3203 692.68H74.8203ZM74.8203 691.477H77.0859C77.7422 691.477 78.2656 691.312 78.6562 690.984C79.0521 690.656 79.25 690.211 79.25 689.648C79.25 689.023 79.0677 688.57 78.7031 688.289C78.3385 688.003 77.7839 687.859 77.0391 687.859H74.8203V691.477ZM84.6328 698H83.1875V689.547H84.6328V698ZM83.0703 687.305C83.0703 687.07 83.1406 686.872 83.2812 686.711C83.4271 686.549 83.6406 686.469 83.9219 686.469C84.2031 686.469 84.4167 686.549 84.5625 686.711C84.7083 686.872 84.7812 687.07 84.7812 687.305C84.7812 687.539 84.7083 687.734 84.5625 687.891C84.4167 688.047 84.2031 688.125 83.9219 688.125C83.6406 688.125 83.4271 688.047 83.2812 687.891C83.1406 687.734 83.0703 687.539 83.0703 687.305ZM88.5234 698H87.0781V686H88.5234V698ZM92.4141 698H90.9688V686H92.4141V698ZM100.273 698H98.8281V689.547H100.273V698ZM98.7109 687.305C98.7109 687.07 98.7812 686.872 98.9219 686.711C99.0677 686.549 99.2812 686.469 99.5625 686.469C99.8438 686.469 100.057 686.549 100.203 686.711C100.349 686.872 100.422 687.07 100.422 687.305C100.422 687.539 100.349 687.734 100.203 687.891C100.057 688.047 99.8438 688.125 99.5625 688.125C99.2812 688.125 99.0677 688.047 98.9219 687.891C98.7812 687.734 98.7109 687.539 98.7109 687.305ZM103.961 689.547L104.008 690.609C104.654 689.797 105.497 689.391 106.539 689.391C108.326 689.391 109.227 690.398 109.242 692.414V698H107.797V692.406C107.792 691.797 107.651 691.346 107.375 691.055C107.104 690.763 106.68 690.617 106.102 690.617C105.633 690.617 105.221 690.742 104.867 690.992C104.513 691.242 104.237 691.57 104.039 691.977V698H102.594V689.547H103.961ZM112.133 698V690.664H110.797V689.547H112.133V688.68C112.133 687.773 112.375 687.073 112.859 686.578C113.344 686.083 114.029 685.836 114.914 685.836C115.247 685.836 115.578 685.88 115.906 685.969L115.828 687.141C115.583 687.094 115.323 687.07 115.047 687.07C114.578 687.07 114.216 687.208 113.961 687.484C113.706 687.755 113.578 688.146 113.578 688.656V689.547H115.383V690.664H113.578V698H112.133ZM116.602 693.695C116.602 692.867 116.763 692.122 117.086 691.461C117.414 690.799 117.867 690.289 118.445 689.93C119.029 689.57 119.693 689.391 120.438 689.391C121.589 689.391 122.518 689.789 123.227 690.586C123.94 691.383 124.297 692.443 124.297 693.766V693.867C124.297 694.69 124.138 695.43 123.82 696.086C123.508 696.737 123.057 697.245 122.469 697.609C121.885 697.974 121.214 698.156 120.453 698.156C119.307 698.156 118.378 697.758 117.664 696.961C116.956 696.164 116.602 695.109 116.602 693.797V693.695ZM118.055 693.867C118.055 694.805 118.271 695.557 118.703 696.125C119.141 696.693 119.724 696.977 120.453 696.977C121.188 696.977 121.771 696.69 122.203 696.117C122.635 695.539 122.852 694.732 122.852 693.695C122.852 692.768 122.63 692.018 122.188 691.445C121.75 690.867 121.167 690.578 120.438 690.578C119.724 690.578 119.148 690.862 118.711 691.43C118.273 691.997 118.055 692.81 118.055 693.867Z" fill="black"/>
<rect x="51" y="110" width="334" height="65" rx="20" fill="#C4C4C4"/>
<path d="M81.1797 137.859H77.5234V148H76.0312V137.859H72.3828V136.625H81.1797V137.859ZM81.4766 143.695C81.4766 142.867 81.638 142.122 81.9609 141.461C82.2891 140.799 82.7422 140.289 83.3203 139.93C83.9036 139.57 84.5677 139.391 85.3125 139.391C86.4635 139.391 87.3932 139.789 88.1016 140.586C88.8151 141.383 89.1719 142.443 89.1719 143.766V143.867C89.1719 144.69 89.013 145.43 88.6953 146.086C88.3828 146.737 87.9323 147.245 87.3438 147.609C86.7604 147.974 86.0885 148.156 85.3281 148.156C84.1823 148.156 83.2526 147.758 82.5391 146.961C81.8307 146.164 81.4766 145.109 81.4766 143.797V143.695ZM82.9297 143.867C82.9297 144.805 83.1458 145.557 83.5781 146.125C84.0156 146.693 84.599 146.977 85.3281 146.977C86.0625 146.977 86.6458 146.69 87.0781 146.117C87.5104 145.539 87.7266 144.732 87.7266 143.695C87.7266 142.768 87.5052 142.018 87.0625 141.445C86.625 140.867 86.0417 140.578 85.3125 140.578C84.599 140.578 84.0234 140.862 83.5859 141.43C83.1484 141.997 82.9297 142.81 82.9297 143.867ZM92.9453 137.5V139.547H94.5234V140.664H92.9453V145.906C92.9453 146.245 93.0156 146.5 93.1562 146.672C93.2969 146.839 93.5365 146.922 93.875 146.922C94.0417 146.922 94.2708 146.891 94.5625 146.828V148C94.1823 148.104 93.8125 148.156 93.4531 148.156C92.8073 148.156 92.3203 147.961 91.9922 147.57C91.6641 147.18 91.5 146.625 91.5 145.906V140.664H89.9609V139.547H91.5V137.5H92.9453ZM101.438 148C101.354 147.833 101.286 147.536 101.234 147.109C100.562 147.807 99.7604 148.156 98.8281 148.156C97.9948 148.156 97.3099 147.922 96.7734 147.453C96.2422 146.979 95.9766 146.38 95.9766 145.656C95.9766 144.776 96.3099 144.094 96.9766 143.609C97.6484 143.12 98.5911 142.875 99.8047 142.875H101.211V142.211C101.211 141.706 101.06 141.305 100.758 141.008C100.456 140.706 100.01 140.555 99.4219 140.555C98.9062 140.555 98.474 140.685 98.125 140.945C97.776 141.206 97.6016 141.521 97.6016 141.891H96.1484C96.1484 141.469 96.2969 141.062 96.5938 140.672C96.8958 140.276 97.3021 139.964 97.8125 139.734C98.3281 139.505 98.8932 139.391 99.5078 139.391C100.482 139.391 101.245 139.635 101.797 140.125C102.349 140.609 102.635 141.279 102.656 142.133V146.023C102.656 146.799 102.755 147.417 102.953 147.875V148H101.438ZM99.0391 146.898C99.4922 146.898 99.9219 146.781 100.328 146.547C100.734 146.312 101.029 146.008 101.211 145.633V143.898H100.078C98.3073 143.898 97.4219 144.417 97.4219 145.453C97.4219 145.906 97.5729 146.26 97.875 146.516C98.1771 146.771 98.5651 146.898 99.0391 146.898ZM106.492 148H105.047V136H106.492V148ZM119.938 143.867C119.938 145.159 119.641 146.198 119.047 146.984C118.453 147.766 117.656 148.156 116.656 148.156C115.589 148.156 114.763 147.779 114.18 147.023L114.109 148H112.781V136H114.227V140.477C114.81 139.753 115.615 139.391 116.641 139.391C117.667 139.391 118.471 139.779 119.055 140.555C119.643 141.331 119.938 142.393 119.938 143.742V143.867ZM118.492 143.703C118.492 142.719 118.302 141.958 117.922 141.422C117.542 140.885 116.995 140.617 116.281 140.617C115.328 140.617 114.643 141.06 114.227 141.945V145.602C114.669 146.487 115.359 146.93 116.297 146.93C116.99 146.93 117.529 146.661 117.914 146.125C118.299 145.589 118.492 144.781 118.492 143.703ZM123.336 148H121.891V139.547H123.336V148ZM121.773 137.305C121.773 137.07 121.844 136.872 121.984 136.711C122.13 136.549 122.344 136.469 122.625 136.469C122.906 136.469 123.12 136.549 123.266 136.711C123.411 136.872 123.484 137.07 123.484 137.305C123.484 137.539 123.411 137.734 123.266 137.891C123.12 138.047 122.906 138.125 122.625 138.125C122.344 138.125 122.13 138.047 121.984 137.891C121.844 137.734 121.773 137.539 121.773 137.305ZM127.227 148H125.781V136H127.227V148ZM131.117 148H129.672V136H131.117V148ZM137.023 143.695C137.023 142.867 137.185 142.122 137.508 141.461C137.836 140.799 138.289 140.289 138.867 139.93C139.451 139.57 140.115 139.391 140.859 139.391C142.01 139.391 142.94 139.789 143.648 140.586C144.362 141.383 144.719 142.443 144.719 143.766V143.867C144.719 144.69 144.56 145.43 144.242 146.086C143.93 146.737 143.479 147.245 142.891 147.609C142.307 147.974 141.635 148.156 140.875 148.156C139.729 148.156 138.799 147.758 138.086 146.961C137.378 146.164 137.023 145.109 137.023 143.797V143.695ZM138.477 143.867C138.477 144.805 138.693 145.557 139.125 146.125C139.562 146.693 140.146 146.977 140.875 146.977C141.609 146.977 142.193 146.69 142.625 146.117C143.057 145.539 143.273 144.732 143.273 143.695C143.273 142.768 143.052 142.018 142.609 141.445C142.172 140.867 141.589 140.578 140.859 140.578C140.146 140.578 139.57 140.862 139.133 141.43C138.695 141.997 138.477 142.81 138.477 143.867ZM149.195 146.039L151.289 139.547H152.766L149.734 148H148.633L145.57 139.547H147.047L149.195 146.039ZM157.555 148.156C156.409 148.156 155.477 147.781 154.758 147.031C154.039 146.276 153.68 145.268 153.68 144.008V143.742C153.68 142.904 153.839 142.156 154.156 141.5C154.479 140.839 154.927 140.323 155.5 139.953C156.078 139.578 156.703 139.391 157.375 139.391C158.474 139.391 159.328 139.753 159.938 140.477C160.547 141.201 160.852 142.237 160.852 143.586V144.188H155.125C155.146 145.021 155.388 145.695 155.852 146.211C156.32 146.721 156.914 146.977 157.633 146.977C158.143 146.977 158.576 146.872 158.93 146.664C159.284 146.456 159.594 146.18 159.859 145.836L160.742 146.523C160.034 147.612 158.971 148.156 157.555 148.156ZM157.375 140.578C156.792 140.578 156.302 140.792 155.906 141.219C155.51 141.641 155.266 142.234 155.172 143H159.406V142.891C159.365 142.156 159.167 141.589 158.812 141.188C158.458 140.781 157.979 140.578 157.375 140.578ZM166.617 140.844C166.398 140.807 166.161 140.789 165.906 140.789C164.958 140.789 164.315 141.193 163.977 142V148H162.531V139.547H163.938L163.961 140.523C164.435 139.768 165.107 139.391 165.977 139.391C166.258 139.391 166.471 139.427 166.617 139.5V140.844ZM170.883 146.039L172.977 139.547H174.453L171.422 148H170.32L167.258 139.547H168.734L170.883 146.039ZM177.414 148H175.969V139.547H177.414V148ZM175.852 137.305C175.852 137.07 175.922 136.872 176.062 136.711C176.208 136.549 176.422 136.469 176.703 136.469C176.984 136.469 177.198 136.549 177.344 136.711C177.49 136.872 177.562 137.07 177.562 137.305C177.562 137.539 177.49 137.734 177.344 137.891C177.198 138.047 176.984 138.125 176.703 138.125C176.422 138.125 176.208 138.047 176.062 137.891C175.922 137.734 175.852 137.539 175.852 137.305ZM183.242 148.156C182.096 148.156 181.164 147.781 180.445 147.031C179.727 146.276 179.367 145.268 179.367 144.008V143.742C179.367 142.904 179.526 142.156 179.844 141.5C180.167 140.839 180.615 140.323 181.188 139.953C181.766 139.578 182.391 139.391 183.062 139.391C184.161 139.391 185.016 139.753 185.625 140.477C186.234 141.201 186.539 142.237 186.539 143.586V144.188H180.812C180.833 145.021 181.076 145.695 181.539 146.211C182.008 146.721 182.602 146.977 183.32 146.977C183.831 146.977 184.263 146.872 184.617 146.664C184.971 146.456 185.281 146.18 185.547 145.836L186.43 146.523C185.721 147.612 184.659 148.156 183.242 148.156ZM183.062 140.578C182.479 140.578 181.99 140.792 181.594 141.219C181.198 141.641 180.953 142.234 180.859 143H185.094V142.891C185.052 142.156 184.854 141.589 184.5 141.188C184.146 140.781 183.667 140.578 183.062 140.578ZM195.703 146.008L197.328 139.547H198.773L196.312 148H195.141L193.086 141.594L191.086 148H189.914L187.461 139.547H188.898L190.562 145.875L192.531 139.547H193.695L195.703 146.008Z" fill="black"/>
</g>
<defs>
<clipPath id="clip0_117:18093">
<rect width="435" height="876" fill="white"/>
</clipPath>
</defs>
</svg>
