<svg width="435" height="876" viewBox="0 0 435 876" fill="none" xmlns="http://www.w3.org/2000/svg">
<g clip-path="url(#clip0_117:18161)">
<path d="M435.19 219.166H432.283L432.261 63.9799C432.261 28.8175 403.485 0.0212205 368.3 0.0212205L66.8054 0C31.6201 0 2.82246 28.7751 2.84369 63.9587V132.353H0V162.422H2.84369V195.823H0V255.983H2.84369V276.461H0V336.621H2.86491L2.90735 802.221C2.90735 837.384 31.6837 866.18 66.8691 866.18L368.363 866.201C403.549 866.201 432.346 837.426 432.325 802.243L432.283 315.422H435.19V219.166V219.166Z" fill="#BCBCBC"/>
<path d="M369.131 863.188L66.1277 863.167C33.0219 863.167 5.9218 836.068 5.9218 802.964L5.83691 63.2161C5.83691 30.0908 32.937 3.01343 66.0428 3.01343L369.046 3.03465C402.152 3.03465 429.252 30.1333 429.252 63.2373L429.337 802.986C429.337 836.111 402.258 863.188 369.131 863.188Z" fill="#DBDBDB"/>
<path d="M404.949 70.2824C404.949 46.0697 385.129 26.271 360.915 26.2497H312.679C310.642 26.2497 308.987 27.9049 308.987 29.9421C308.987 44.0962 297.4 55.6826 283.246 55.6826H139.09C124.935 55.6826 113.349 44.0962 113.349 29.9421V29.9209C113.349 27.8837 111.693 26.2285 109.656 26.2285H74.0682C49.8548 26.2285 30.0342 46.0485 30.0342 70.2611L30.0978 794.179C30.0978 818.391 49.9185 838.19 74.1319 838.211L361 838.233C385.214 838.233 405.034 818.413 405.034 794.2L404.949 70.2824Z" fill="white"/>
<path d="M237.651 39.1945H198.349C196.505 39.1945 195 37.6534 195 35.765C195 33.8766 196.505 32.3354 198.349 32.3354H237.651C239.495 32.3354 241 33.8766 241 35.765C241 37.6534 239.495 39.1945 237.651 39.1945Z" fill="white"/>
<path d="M261.5 38.2148C262.881 38.2148 264 37.118 264 35.7651C264 34.4122 262.881 33.3154 261.5 33.3154C260.119 33.3154 259 34.4122 259 35.7651C259 37.118 260.119 38.2148 261.5 38.2148Z" fill="white"/>
<path d="M261.5 40.1745C263.985 40.1745 266 38.2004 266 35.7651C266 33.3299 263.985 31.3557 261.5 31.3557C259.015 31.3557 257 33.3299 257 35.7651C257 38.2004 259.015 40.1745 261.5 40.1745Z" stroke="white" stroke-width="0.924666" stroke-miterlimit="10"/>
<rect x="49" y="755" width="56" height="56" rx="28" fill="#C4C4C4"/>
<rect x="119" y="755" width="56" height="56" rx="28" fill="#C4C4C4"/>
<rect x="189" y="755" width="56" height="56" rx="28" fill="#C4C4C4"/>
<rect x="259" y="755" width="56" height="56" rx="28" fill="#C4C4C4"/>
<rect x="329" y="755" width="56" height="56" rx="28" fill="#C4C4C4"/>
<path d="M281.177 830.926H152.823C151.274 830.926 150 829.6 150 827.986C150 826.373 151.274 825.047 152.823 825.047H281.177C282.726 825.047 284 826.373 284 827.986C283.979 829.6 282.726 830.926 281.177 830.926Z" fill="#BFBFBF"/>
<rect x="329" y="46" width="56" height="56" rx="28" fill="#C4C4C4"/>
<path d="M357.5 61L357.5 87M344 73.5H371" stroke="black" stroke-width="2"/>
<rect x="51" y="242" width="213" height="114" rx="20" fill="#C4C4C4"/>
<rect x="51" y="371" width="213" height="114" rx="20" fill="#C4C4C4"/>
<rect x="51" y="500" width="213" height="114" rx="20" fill="#C4C4C4"/>
<rect x="51" y="629" width="213" height="114" rx="20" fill="#C4C4C4"/>
<path d="M73.3203 305V293.625H76.5312C77.5208 293.625 78.3958 293.844 79.1562 294.281C79.9167 294.719 80.5026 295.341 80.9141 296.148C81.3307 296.956 81.5417 297.883 81.5469 298.93V299.656C81.5469 300.729 81.3385 301.669 80.9219 302.477C80.5104 303.284 79.9193 303.904 79.1484 304.336C78.3828 304.768 77.4896 304.99 76.4688 305H73.3203ZM74.8203 294.859V303.773H76.3984C77.5547 303.773 78.4531 303.414 79.0938 302.695C79.7396 301.977 80.0625 300.953 80.0625 299.625V298.961C80.0625 297.669 79.7578 296.667 79.1484 295.953C78.5443 295.234 77.6849 294.87 76.5703 294.859H74.8203ZM87.1016 305.156C85.9557 305.156 85.0234 304.781 84.3047 304.031C83.5859 303.276 83.2266 302.268 83.2266 301.008V300.742C83.2266 299.904 83.3854 299.156 83.7031 298.5C84.026 297.839 84.474 297.323 85.0469 296.953C85.625 296.578 86.25 296.391 86.9219 296.391C88.0208 296.391 88.875 296.753 89.4844 297.477C90.0938 298.201 90.3984 299.237 90.3984 300.586V301.188H84.6719C84.6927 302.021 84.9349 302.695 85.3984 303.211C85.8672 303.721 86.4609 303.977 87.1797 303.977C87.6901 303.977 88.1224 303.872 88.4766 303.664C88.8307 303.456 89.1406 303.18 89.4062 302.836L90.2891 303.523C89.5807 304.612 88.5182 305.156 87.1016 305.156ZM86.9219 297.578C86.3385 297.578 85.849 297.792 85.4531 298.219C85.0573 298.641 84.8125 299.234 84.7188 300H88.9531V299.891C88.9115 299.156 88.7135 298.589 88.3594 298.188C88.0052 297.781 87.526 297.578 86.9219 297.578ZM99.2344 300.867C99.2344 302.159 98.9375 303.198 98.3438 303.984C97.75 304.766 96.9531 305.156 95.9531 305.156C94.8854 305.156 94.0599 304.779 93.4766 304.023L93.4062 305H92.0781V293H93.5234V297.477C94.1068 296.753 94.9115 296.391 95.9375 296.391C96.9635 296.391 97.7682 296.779 98.3516 297.555C98.9401 298.331 99.2344 299.393 99.2344 300.742V300.867ZM97.7891 300.703C97.7891 299.719 97.599 298.958 97.2188 298.422C96.8385 297.885 96.2917 297.617 95.5781 297.617C94.625 297.617 93.9401 298.06 93.5234 298.945V302.602C93.9661 303.487 94.6562 303.93 95.5938 303.93C96.2865 303.93 96.8255 303.661 97.2109 303.125C97.5964 302.589 97.7891 301.781 97.7891 300.703ZM103.023 294.5V296.547H104.602V297.664H103.023V302.906C103.023 303.245 103.094 303.5 103.234 303.672C103.375 303.839 103.615 303.922 103.953 303.922C104.12 303.922 104.349 303.891 104.641 303.828V305C104.26 305.104 103.891 305.156 103.531 305.156C102.885 305.156 102.398 304.961 102.07 304.57C101.742 304.18 101.578 303.625 101.578 302.906V297.664H100.039V296.547H101.578V294.5H103.023Z" fill="black"/>
<path d="M73.3203 434V422.625H76.5312C77.5208 422.625 78.3958 422.844 79.1562 423.281C79.9167 423.719 80.5026 424.341 80.9141 425.148C81.3307 425.956 81.5417 426.883 81.5469 427.93V428.656C81.5469 429.729 81.3385 430.669 80.9219 431.477C80.5104 432.284 79.9193 432.904 79.1484 433.336C78.3828 433.768 77.4896 433.99 76.4688 434H73.3203ZM74.8203 423.859V432.773H76.3984C77.5547 432.773 78.4531 432.414 79.0938 431.695C79.7396 430.977 80.0625 429.953 80.0625 428.625V427.961C80.0625 426.669 79.7578 425.667 79.1484 424.953C78.5443 424.234 77.6849 423.87 76.5703 423.859H74.8203ZM87.1016 434.156C85.9557 434.156 85.0234 433.781 84.3047 433.031C83.5859 432.276 83.2266 431.268 83.2266 430.008V429.742C83.2266 428.904 83.3854 428.156 83.7031 427.5C84.026 426.839 84.474 426.323 85.0469 425.953C85.625 425.578 86.25 425.391 86.9219 425.391C88.0208 425.391 88.875 425.753 89.4844 426.477C90.0938 427.201 90.3984 428.237 90.3984 429.586V430.188H84.6719C84.6927 431.021 84.9349 431.695 85.3984 432.211C85.8672 432.721 86.4609 432.977 87.1797 432.977C87.6901 432.977 88.1224 432.872 88.4766 432.664C88.8307 432.456 89.1406 432.18 89.4062 431.836L90.2891 432.523C89.5807 433.612 88.5182 434.156 87.1016 434.156ZM86.9219 426.578C86.3385 426.578 85.849 426.792 85.4531 427.219C85.0573 427.641 84.8125 428.234 84.7188 429H88.9531V428.891C88.9115 428.156 88.7135 427.589 88.3594 427.188C88.0052 426.781 87.526 426.578 86.9219 426.578ZM99.2344 429.867C99.2344 431.159 98.9375 432.198 98.3438 432.984C97.75 433.766 96.9531 434.156 95.9531 434.156C94.8854 434.156 94.0599 433.779 93.4766 433.023L93.4062 434H92.0781V422H93.5234V426.477C94.1068 425.753 94.9115 425.391 95.9375 425.391C96.9635 425.391 97.7682 425.779 98.3516 426.555C98.9401 427.331 99.2344 428.393 99.2344 429.742V429.867ZM97.7891 429.703C97.7891 428.719 97.599 427.958 97.2188 427.422C96.8385 426.885 96.2917 426.617 95.5781 426.617C94.625 426.617 93.9401 427.06 93.5234 427.945V431.602C93.9661 432.487 94.6562 432.93 95.5938 432.93C96.2865 432.93 96.8255 432.661 97.2109 432.125C97.5964 431.589 97.7891 430.781 97.7891 429.703ZM103.023 423.5V425.547H104.602V426.664H103.023V431.906C103.023 432.245 103.094 432.5 103.234 432.672C103.375 432.839 103.615 432.922 103.953 432.922C104.12 432.922 104.349 432.891 104.641 432.828V434C104.26 434.104 103.891 434.156 103.531 434.156C102.885 434.156 102.398 433.961 102.07 433.57C101.742 433.18 101.578 432.625 101.578 431.906V426.664H100.039V425.547H101.578V423.5H103.023Z" fill="black"/>
<path d="M73.3203 563V551.625H76.5312C77.5208 551.625 78.3958 551.844 79.1562 552.281C79.9167 552.719 80.5026 553.341 80.9141 554.148C81.3307 554.956 81.5417 555.883 81.5469 556.93V557.656C81.5469 558.729 81.3385 559.669 80.9219 560.477C80.5104 561.284 79.9193 561.904 79.1484 562.336C78.3828 562.768 77.4896 562.99 76.4688 563H73.3203ZM74.8203 552.859V561.773H76.3984C77.5547 561.773 78.4531 561.414 79.0938 560.695C79.7396 559.977 80.0625 558.953 80.0625 557.625V556.961C80.0625 555.669 79.7578 554.667 79.1484 553.953C78.5443 553.234 77.6849 552.87 76.5703 552.859H74.8203ZM87.1016 563.156C85.9557 563.156 85.0234 562.781 84.3047 562.031C83.5859 561.276 83.2266 560.268 83.2266 559.008V558.742C83.2266 557.904 83.3854 557.156 83.7031 556.5C84.026 555.839 84.474 555.323 85.0469 554.953C85.625 554.578 86.25 554.391 86.9219 554.391C88.0208 554.391 88.875 554.753 89.4844 555.477C90.0938 556.201 90.3984 557.237 90.3984 558.586V559.188H84.6719C84.6927 560.021 84.9349 560.695 85.3984 561.211C85.8672 561.721 86.4609 561.977 87.1797 561.977C87.6901 561.977 88.1224 561.872 88.4766 561.664C88.8307 561.456 89.1406 561.18 89.4062 560.836L90.2891 561.523C89.5807 562.612 88.5182 563.156 87.1016 563.156ZM86.9219 555.578C86.3385 555.578 85.849 555.792 85.4531 556.219C85.0573 556.641 84.8125 557.234 84.7188 558H88.9531V557.891C88.9115 557.156 88.7135 556.589 88.3594 556.188C88.0052 555.781 87.526 555.578 86.9219 555.578ZM99.2344 558.867C99.2344 560.159 98.9375 561.198 98.3438 561.984C97.75 562.766 96.9531 563.156 95.9531 563.156C94.8854 563.156 94.0599 562.779 93.4766 562.023L93.4062 563H92.0781V551H93.5234V555.477C94.1068 554.753 94.9115 554.391 95.9375 554.391C96.9635 554.391 97.7682 554.779 98.3516 555.555C98.9401 556.331 99.2344 557.393 99.2344 558.742V558.867ZM97.7891 558.703C97.7891 557.719 97.599 556.958 97.2188 556.422C96.8385 555.885 96.2917 555.617 95.5781 555.617C94.625 555.617 93.9401 556.06 93.5234 556.945V560.602C93.9661 561.487 94.6562 561.93 95.5938 561.93C96.2865 561.93 96.8255 561.661 97.2109 561.125C97.5964 560.589 97.7891 559.781 97.7891 558.703ZM103.023 552.5V554.547H104.602V555.664H103.023V560.906C103.023 561.245 103.094 561.5 103.234 561.672C103.375 561.839 103.615 561.922 103.953 561.922C104.12 561.922 104.349 561.891 104.641 561.828V563C104.26 563.104 103.891 563.156 103.531 563.156C102.885 563.156 102.398 562.961 102.07 562.57C101.742 562.18 101.578 561.625 101.578 560.906V555.664H100.039V554.547H101.578V552.5H103.023Z" fill="black"/>
<path d="M73.3203 692V680.625H76.5312C77.5208 680.625 78.3958 680.844 79.1562 681.281C79.9167 681.719 80.5026 682.341 80.9141 683.148C81.3307 683.956 81.5417 684.883 81.5469 685.93V686.656C81.5469 687.729 81.3385 688.669 80.9219 689.477C80.5104 690.284 79.9193 690.904 79.1484 691.336C78.3828 691.768 77.4896 691.99 76.4688 692H73.3203ZM74.8203 681.859V690.773H76.3984C77.5547 690.773 78.4531 690.414 79.0938 689.695C79.7396 688.977 80.0625 687.953 80.0625 686.625V685.961C80.0625 684.669 79.7578 683.667 79.1484 682.953C78.5443 682.234 77.6849 681.87 76.5703 681.859H74.8203ZM87.1016 692.156C85.9557 692.156 85.0234 691.781 84.3047 691.031C83.5859 690.276 83.2266 689.268 83.2266 688.008V687.742C83.2266 686.904 83.3854 686.156 83.7031 685.5C84.026 684.839 84.474 684.323 85.0469 683.953C85.625 683.578 86.25 683.391 86.9219 683.391C88.0208 683.391 88.875 683.753 89.4844 684.477C90.0938 685.201 90.3984 686.237 90.3984 687.586V688.188H84.6719C84.6927 689.021 84.9349 689.695 85.3984 690.211C85.8672 690.721 86.4609 690.977 87.1797 690.977C87.6901 690.977 88.1224 690.872 88.4766 690.664C88.8307 690.456 89.1406 690.18 89.4062 689.836L90.2891 690.523C89.5807 691.612 88.5182 692.156 87.1016 692.156ZM86.9219 684.578C86.3385 684.578 85.849 684.792 85.4531 685.219C85.0573 685.641 84.8125 686.234 84.7188 687H88.9531V686.891C88.9115 686.156 88.7135 685.589 88.3594 685.188C88.0052 684.781 87.526 684.578 86.9219 684.578ZM99.2344 687.867C99.2344 689.159 98.9375 690.198 98.3438 690.984C97.75 691.766 96.9531 692.156 95.9531 692.156C94.8854 692.156 94.0599 691.779 93.4766 691.023L93.4062 692H92.0781V680H93.5234V684.477C94.1068 683.753 94.9115 683.391 95.9375 683.391C96.9635 683.391 97.7682 683.779 98.3516 684.555C98.9401 685.331 99.2344 686.393 99.2344 687.742V687.867ZM97.7891 687.703C97.7891 686.719 97.599 685.958 97.2188 685.422C96.8385 684.885 96.2917 684.617 95.5781 684.617C94.625 684.617 93.9401 685.06 93.5234 685.945V689.602C93.9661 690.487 94.6562 690.93 95.5938 690.93C96.2865 690.93 96.8255 690.661 97.2109 690.125C97.5964 689.589 97.7891 688.781 97.7891 687.703ZM103.023 681.5V683.547H104.602V684.664H103.023V689.906C103.023 690.245 103.094 690.5 103.234 690.672C103.375 690.839 103.615 690.922 103.953 690.922C104.12 690.922 104.349 690.891 104.641 690.828V692C104.26 692.104 103.891 692.156 103.531 692.156C102.885 692.156 102.398 691.961 102.07 691.57C101.742 691.18 101.578 690.625 101.578 689.906V684.664H100.039V683.547H101.578V681.5H103.023Z" fill="black"/>
<rect x="51" y="110" width="334" height="112" rx="20" fill="#C4C4C4"/>
<path d="M81.1797 161.859H77.5234V172H76.0312V161.859H72.3828V160.625H81.1797V161.859ZM81.4766 167.695C81.4766 166.867 81.638 166.122 81.9609 165.461C82.2891 164.799 82.7422 164.289 83.3203 163.93C83.9036 163.57 84.5677 163.391 85.3125 163.391C86.4635 163.391 87.3932 163.789 88.1016 164.586C88.8151 165.383 89.1719 166.443 89.1719 167.766V167.867C89.1719 168.69 89.013 169.43 88.6953 170.086C88.3828 170.737 87.9323 171.245 87.3438 171.609C86.7604 171.974 86.0885 172.156 85.3281 172.156C84.1823 172.156 83.2526 171.758 82.5391 170.961C81.8307 170.164 81.4766 169.109 81.4766 167.797V167.695ZM82.9297 167.867C82.9297 168.805 83.1458 169.557 83.5781 170.125C84.0156 170.693 84.599 170.977 85.3281 170.977C86.0625 170.977 86.6458 170.69 87.0781 170.117C87.5104 169.539 87.7266 168.732 87.7266 167.695C87.7266 166.768 87.5052 166.018 87.0625 165.445C86.625 164.867 86.0417 164.578 85.3125 164.578C84.599 164.578 84.0234 164.862 83.5859 165.43C83.1484 165.997 82.9297 166.81 82.9297 167.867ZM92.9453 161.5V163.547H94.5234V164.664H92.9453V169.906C92.9453 170.245 93.0156 170.5 93.1562 170.672C93.2969 170.839 93.5365 170.922 93.875 170.922C94.0417 170.922 94.2708 170.891 94.5625 170.828V172C94.1823 172.104 93.8125 172.156 93.4531 172.156C92.8073 172.156 92.3203 171.961 91.9922 171.57C91.6641 171.18 91.5 170.625 91.5 169.906V164.664H89.9609V163.547H91.5V161.5H92.9453ZM101.438 172C101.354 171.833 101.286 171.536 101.234 171.109C100.562 171.807 99.7604 172.156 98.8281 172.156C97.9948 172.156 97.3099 171.922 96.7734 171.453C96.2422 170.979 95.9766 170.38 95.9766 169.656C95.9766 168.776 96.3099 168.094 96.9766 167.609C97.6484 167.12 98.5911 166.875 99.8047 166.875H101.211V166.211C101.211 165.706 101.06 165.305 100.758 165.008C100.456 164.706 100.01 164.555 99.4219 164.555C98.9062 164.555 98.474 164.685 98.125 164.945C97.776 165.206 97.6016 165.521 97.6016 165.891H96.1484C96.1484 165.469 96.2969 165.062 96.5938 164.672C96.8958 164.276 97.3021 163.964 97.8125 163.734C98.3281 163.505 98.8932 163.391 99.5078 163.391C100.482 163.391 101.245 163.635 101.797 164.125C102.349 164.609 102.635 165.279 102.656 166.133V170.023C102.656 170.799 102.755 171.417 102.953 171.875V172H101.438ZM99.0391 170.898C99.4922 170.898 99.9219 170.781 100.328 170.547C100.734 170.312 101.029 170.008 101.211 169.633V167.898H100.078C98.3073 167.898 97.4219 168.417 97.4219 169.453C97.4219 169.906 97.5729 170.26 97.875 170.516C98.1771 170.771 98.5651 170.898 99.0391 170.898ZM106.492 172H105.047V160H106.492V172ZM112.43 167.703C112.43 166.406 112.737 165.365 113.352 164.578C113.966 163.786 114.771 163.391 115.766 163.391C116.755 163.391 117.539 163.729 118.117 164.406V160H119.562V172H118.234L118.164 171.094C117.586 171.802 116.781 172.156 115.75 172.156C114.771 172.156 113.971 171.755 113.352 170.953C112.737 170.151 112.43 169.104 112.43 167.812V167.703ZM113.875 167.867C113.875 168.826 114.073 169.576 114.469 170.117C114.865 170.659 115.411 170.93 116.109 170.93C117.026 170.93 117.695 170.518 118.117 169.695V165.812C117.685 165.016 117.021 164.617 116.125 164.617C115.417 164.617 114.865 164.891 114.469 165.438C114.073 165.984 113.875 166.794 113.875 167.867ZM125.32 172.156C124.174 172.156 123.242 171.781 122.523 171.031C121.805 170.276 121.445 169.268 121.445 168.008V167.742C121.445 166.904 121.604 166.156 121.922 165.5C122.245 164.839 122.693 164.323 123.266 163.953C123.844 163.578 124.469 163.391 125.141 163.391C126.24 163.391 127.094 163.753 127.703 164.477C128.312 165.201 128.617 166.237 128.617 167.586V168.188H122.891C122.911 169.021 123.154 169.695 123.617 170.211C124.086 170.721 124.68 170.977 125.398 170.977C125.909 170.977 126.341 170.872 126.695 170.664C127.049 170.456 127.359 170.18 127.625 169.836L128.508 170.523C127.799 171.612 126.737 172.156 125.32 172.156ZM125.141 164.578C124.557 164.578 124.068 164.792 123.672 165.219C123.276 165.641 123.031 166.234 122.938 167H127.172V166.891C127.13 166.156 126.932 165.589 126.578 165.188C126.224 164.781 125.745 164.578 125.141 164.578ZM137.453 167.867C137.453 169.159 137.156 170.198 136.562 170.984C135.969 171.766 135.172 172.156 134.172 172.156C133.104 172.156 132.279 171.779 131.695 171.023L131.625 172H130.297V160H131.742V164.477C132.326 163.753 133.13 163.391 134.156 163.391C135.182 163.391 135.987 163.779 136.57 164.555C137.159 165.331 137.453 166.393 137.453 167.742V167.867ZM136.008 167.703C136.008 166.719 135.818 165.958 135.438 165.422C135.057 164.885 134.51 164.617 133.797 164.617C132.844 164.617 132.159 165.06 131.742 165.945V169.602C132.185 170.487 132.875 170.93 133.812 170.93C134.505 170.93 135.044 170.661 135.43 170.125C135.815 169.589 136.008 168.781 136.008 167.703ZM141.242 161.5V163.547H142.82V164.664H141.242V169.906C141.242 170.245 141.312 170.5 141.453 170.672C141.594 170.839 141.833 170.922 142.172 170.922C142.339 170.922 142.568 170.891 142.859 170.828V172C142.479 172.104 142.109 172.156 141.75 172.156C141.104 172.156 140.617 171.961 140.289 171.57C139.961 171.18 139.797 170.625 139.797 169.906V164.664H138.258V163.547H139.797V161.5H141.242ZM148.102 167.695C148.102 166.867 148.263 166.122 148.586 165.461C148.914 164.799 149.367 164.289 149.945 163.93C150.529 163.57 151.193 163.391 151.938 163.391C153.089 163.391 154.018 163.789 154.727 164.586C155.44 165.383 155.797 166.443 155.797 167.766V167.867C155.797 168.69 155.638 169.43 155.32 170.086C155.008 170.737 154.557 171.245 153.969 171.609C153.385 171.974 152.714 172.156 151.953 172.156C150.807 172.156 149.878 171.758 149.164 170.961C148.456 170.164 148.102 169.109 148.102 167.797V167.695ZM149.555 167.867C149.555 168.805 149.771 169.557 150.203 170.125C150.641 170.693 151.224 170.977 151.953 170.977C152.688 170.977 153.271 170.69 153.703 170.117C154.135 169.539 154.352 168.732 154.352 167.695C154.352 166.768 154.13 166.018 153.688 165.445C153.25 164.867 152.667 164.578 151.938 164.578C151.224 164.578 150.648 164.862 150.211 165.43C149.773 165.997 149.555 166.81 149.555 167.867ZM160.273 170.039L162.367 163.547H163.844L160.812 172H159.711L156.648 163.547H158.125L160.273 170.039ZM168.633 172.156C167.487 172.156 166.555 171.781 165.836 171.031C165.117 170.276 164.758 169.268 164.758 168.008V167.742C164.758 166.904 164.917 166.156 165.234 165.5C165.557 164.839 166.005 164.323 166.578 163.953C167.156 163.578 167.781 163.391 168.453 163.391C169.552 163.391 170.406 163.753 171.016 164.477C171.625 165.201 171.93 166.237 171.93 167.586V168.188H166.203C166.224 169.021 166.466 169.695 166.93 170.211C167.398 170.721 167.992 170.977 168.711 170.977C169.221 170.977 169.654 170.872 170.008 170.664C170.362 170.456 170.672 170.18 170.938 169.836L171.82 170.523C171.112 171.612 170.049 172.156 168.633 172.156ZM168.453 164.578C167.87 164.578 167.38 164.792 166.984 165.219C166.589 165.641 166.344 166.234 166.25 167H170.484V166.891C170.443 166.156 170.245 165.589 169.891 165.188C169.536 164.781 169.057 164.578 168.453 164.578ZM177.695 164.844C177.477 164.807 177.24 164.789 176.984 164.789C176.036 164.789 175.393 165.193 175.055 166V172H173.609V163.547H175.016L175.039 164.523C175.513 163.768 176.185 163.391 177.055 163.391C177.336 163.391 177.549 163.427 177.695 163.5V164.844ZM181.961 170.039L184.055 163.547H185.531L182.5 172H181.398L178.336 163.547H179.812L181.961 170.039ZM188.492 172H187.047V163.547H188.492V172ZM186.93 161.305C186.93 161.07 187 160.872 187.141 160.711C187.286 160.549 187.5 160.469 187.781 160.469C188.062 160.469 188.276 160.549 188.422 160.711C188.568 160.872 188.641 161.07 188.641 161.305C188.641 161.539 188.568 161.734 188.422 161.891C188.276 162.047 188.062 162.125 187.781 162.125C187.5 162.125 187.286 162.047 187.141 161.891C187 161.734 186.93 161.539 186.93 161.305ZM194.32 172.156C193.174 172.156 192.242 171.781 191.523 171.031C190.805 170.276 190.445 169.268 190.445 168.008V167.742C190.445 166.904 190.604 166.156 190.922 165.5C191.245 164.839 191.693 164.323 192.266 163.953C192.844 163.578 193.469 163.391 194.141 163.391C195.24 163.391 196.094 163.753 196.703 164.477C197.312 165.201 197.617 166.237 197.617 167.586V168.188H191.891C191.911 169.021 192.154 169.695 192.617 170.211C193.086 170.721 193.68 170.977 194.398 170.977C194.909 170.977 195.341 170.872 195.695 170.664C196.049 170.456 196.359 170.18 196.625 169.836L197.508 170.523C196.799 171.612 195.737 172.156 194.32 172.156ZM194.141 164.578C193.557 164.578 193.068 164.792 192.672 165.219C192.276 165.641 192.031 166.234 191.938 167H196.172V166.891C196.13 166.156 195.932 165.589 195.578 165.188C195.224 164.781 194.745 164.578 194.141 164.578ZM206.781 170.008L208.406 163.547H209.852L207.391 172H206.219L204.164 165.594L202.164 172H200.992L198.539 163.547H199.977L201.641 169.875L203.609 163.547H204.773L206.781 170.008Z" fill="black"/>
<rect x="266" y="242" width="119" height="114" rx="20" fill="#C4C4C4"/>
<rect x="266" y="371" width="119" height="114" rx="20" fill="#C4C4C4"/>
<rect x="266" y="500" width="119" height="114" rx="20" fill="#C4C4C4"/>
<rect x="266" y="629" width="119" height="114" rx="20" fill="#C4C4C4"/>
<path d="M288.82 281.547V286H287.32V274.625H291.516C292.76 274.625 293.734 274.943 294.438 275.578C295.146 276.214 295.5 277.055 295.5 278.102C295.5 279.206 295.154 280.057 294.461 280.656C293.773 281.25 292.786 281.547 291.5 281.547H288.82ZM288.82 280.32H291.516C292.318 280.32 292.932 280.133 293.359 279.758C293.786 279.378 294 278.831 294 278.117C294 277.44 293.786 276.898 293.359 276.492C292.932 276.086 292.346 275.875 291.602 275.859H288.82V280.32ZM302.312 286C302.229 285.833 302.161 285.536 302.109 285.109C301.438 285.807 300.635 286.156 299.703 286.156C298.87 286.156 298.185 285.922 297.648 285.453C297.117 284.979 296.852 284.38 296.852 283.656C296.852 282.776 297.185 282.094 297.852 281.609C298.523 281.12 299.466 280.875 300.68 280.875H302.086V280.211C302.086 279.706 301.935 279.305 301.633 279.008C301.331 278.706 300.885 278.555 300.297 278.555C299.781 278.555 299.349 278.685 299 278.945C298.651 279.206 298.477 279.521 298.477 279.891H297.023C297.023 279.469 297.172 279.062 297.469 278.672C297.771 278.276 298.177 277.964 298.688 277.734C299.203 277.505 299.768 277.391 300.383 277.391C301.357 277.391 302.12 277.635 302.672 278.125C303.224 278.609 303.51 279.279 303.531 280.133V284.023C303.531 284.799 303.63 285.417 303.828 285.875V286H302.312ZM299.914 284.898C300.367 284.898 300.797 284.781 301.203 284.547C301.609 284.312 301.904 284.008 302.086 283.633V281.898H300.953C299.182 281.898 298.297 282.417 298.297 283.453C298.297 283.906 298.448 284.26 298.75 284.516C299.052 284.771 299.44 284.898 299.914 284.898ZM308.438 283.883L310.406 277.547H311.953L308.555 287.305C308.029 288.711 307.193 289.414 306.047 289.414L305.773 289.391L305.234 289.289V288.117L305.625 288.148C306.115 288.148 306.495 288.049 306.766 287.852C307.042 287.654 307.268 287.292 307.445 286.766L307.766 285.906L304.75 277.547H306.328L308.438 283.883ZM314.609 277.547L314.648 278.484C315.268 277.755 316.104 277.391 317.156 277.391C318.339 277.391 319.143 277.844 319.57 278.75C319.852 278.344 320.216 278.016 320.664 277.766C321.117 277.516 321.651 277.391 322.266 277.391C324.12 277.391 325.062 278.372 325.094 280.336V286H323.648V280.422C323.648 279.818 323.51 279.367 323.234 279.07C322.958 278.768 322.495 278.617 321.844 278.617C321.307 278.617 320.862 278.779 320.508 279.102C320.154 279.419 319.948 279.849 319.891 280.391V286H318.438V280.461C318.438 279.232 317.836 278.617 316.633 278.617C315.685 278.617 315.036 279.021 314.688 279.828V286H313.242V277.547H314.609ZM330.789 286.156C329.643 286.156 328.711 285.781 327.992 285.031C327.273 284.276 326.914 283.268 326.914 282.008V281.742C326.914 280.904 327.073 280.156 327.391 279.5C327.714 278.839 328.161 278.323 328.734 277.953C329.312 277.578 329.938 277.391 330.609 277.391C331.708 277.391 332.562 277.753 333.172 278.477C333.781 279.201 334.086 280.237 334.086 281.586V282.188H328.359C328.38 283.021 328.622 283.695 329.086 284.211C329.555 284.721 330.148 284.977 330.867 284.977C331.378 284.977 331.81 284.872 332.164 284.664C332.518 284.456 332.828 284.18 333.094 283.836L333.977 284.523C333.268 285.612 332.206 286.156 330.789 286.156ZM330.609 278.578C330.026 278.578 329.536 278.792 329.141 279.219C328.745 279.641 328.5 280.234 328.406 281H332.641V280.891C332.599 280.156 332.401 279.589 332.047 279.188C331.693 278.781 331.214 278.578 330.609 278.578ZM337.133 277.547L337.18 278.609C337.826 277.797 338.669 277.391 339.711 277.391C341.497 277.391 342.398 278.398 342.414 280.414V286H340.969V280.406C340.964 279.797 340.823 279.346 340.547 279.055C340.276 278.763 339.852 278.617 339.273 278.617C338.805 278.617 338.393 278.742 338.039 278.992C337.685 279.242 337.409 279.57 337.211 279.977V286H335.766V277.547H337.133ZM346.555 275.5V277.547H348.133V278.664H346.555V283.906C346.555 284.245 346.625 284.5 346.766 284.672C346.906 284.839 347.146 284.922 347.484 284.922C347.651 284.922 347.88 284.891 348.172 284.828V286C347.792 286.104 347.422 286.156 347.062 286.156C346.417 286.156 345.93 285.961 345.602 285.57C345.273 285.18 345.109 284.625 345.109 283.906V278.664H343.57V277.547H345.109V275.5H346.555ZM290.484 303.977C291 303.977 291.451 303.82 291.836 303.508C292.221 303.195 292.435 302.805 292.477 302.336H293.844C293.818 302.82 293.651 303.281 293.344 303.719C293.036 304.156 292.625 304.505 292.109 304.766C291.599 305.026 291.057 305.156 290.484 305.156C289.333 305.156 288.417 304.773 287.734 304.008C287.057 303.237 286.719 302.185 286.719 300.852V300.609C286.719 299.786 286.87 299.055 287.172 298.414C287.474 297.773 287.906 297.276 288.469 296.922C289.036 296.568 289.706 296.391 290.477 296.391C291.424 296.391 292.211 296.674 292.836 297.242C293.466 297.81 293.802 298.547 293.844 299.453H292.477C292.435 298.906 292.227 298.458 291.852 298.109C291.482 297.755 291.023 297.578 290.477 297.578C289.742 297.578 289.172 297.844 288.766 298.375C288.365 298.901 288.164 299.664 288.164 300.664V300.938C288.164 301.911 288.365 302.661 288.766 303.188C289.167 303.714 289.74 303.977 290.484 303.977ZM296.914 297.57C297.555 296.784 298.388 296.391 299.414 296.391C301.201 296.391 302.102 297.398 302.117 299.414V305H300.672V299.406C300.667 298.797 300.526 298.346 300.25 298.055C299.979 297.763 299.555 297.617 298.977 297.617C298.508 297.617 298.096 297.742 297.742 297.992C297.388 298.242 297.112 298.57 296.914 298.977V305H295.469V293H296.914V297.57ZM309.5 305C309.417 304.833 309.349 304.536 309.297 304.109C308.625 304.807 307.823 305.156 306.891 305.156C306.057 305.156 305.372 304.922 304.836 304.453C304.305 303.979 304.039 303.38 304.039 302.656C304.039 301.776 304.372 301.094 305.039 300.609C305.711 300.12 306.654 299.875 307.867 299.875H309.273V299.211C309.273 298.706 309.122 298.305 308.82 298.008C308.518 297.706 308.073 297.555 307.484 297.555C306.969 297.555 306.536 297.685 306.188 297.945C305.839 298.206 305.664 298.521 305.664 298.891H304.211C304.211 298.469 304.359 298.062 304.656 297.672C304.958 297.276 305.365 296.964 305.875 296.734C306.391 296.505 306.956 296.391 307.57 296.391C308.544 296.391 309.307 296.635 309.859 297.125C310.411 297.609 310.698 298.279 310.719 299.133V303.023C310.719 303.799 310.818 304.417 311.016 304.875V305H309.5ZM307.102 303.898C307.555 303.898 307.984 303.781 308.391 303.547C308.797 303.312 309.091 303.008 309.273 302.633V300.898H308.141C306.37 300.898 305.484 301.417 305.484 302.453C305.484 302.906 305.635 303.26 305.938 303.516C306.24 303.771 306.628 303.898 307.102 303.898ZM314.352 296.547L314.398 297.609C315.044 296.797 315.888 296.391 316.93 296.391C318.716 296.391 319.617 297.398 319.633 299.414V305H318.188V299.406C318.182 298.797 318.042 298.346 317.766 298.055C317.495 297.763 317.07 297.617 316.492 297.617C316.023 297.617 315.612 297.742 315.258 297.992C314.904 298.242 314.628 298.57 314.43 298.977V305H312.984V296.547H314.352ZM321.469 300.703C321.469 299.385 321.773 298.339 322.383 297.562C322.992 296.781 323.799 296.391 324.805 296.391C325.836 296.391 326.641 296.755 327.219 297.484L327.289 296.547H328.609V304.797C328.609 305.891 328.284 306.753 327.633 307.383C326.987 308.013 326.117 308.328 325.023 308.328C324.414 308.328 323.818 308.198 323.234 307.938C322.651 307.677 322.206 307.32 321.898 306.867L322.648 306C323.268 306.766 324.026 307.148 324.922 307.148C325.625 307.148 326.172 306.951 326.562 306.555C326.958 306.159 327.156 305.602 327.156 304.883V304.156C326.578 304.823 325.789 305.156 324.789 305.156C323.799 305.156 322.997 304.758 322.383 303.961C321.773 303.164 321.469 302.078 321.469 300.703ZM322.922 300.867C322.922 301.82 323.117 302.57 323.508 303.117C323.898 303.659 324.445 303.93 325.148 303.93C326.06 303.93 326.729 303.516 327.156 302.688V298.828C326.714 298.021 326.049 297.617 325.164 297.617C324.461 297.617 323.911 297.891 323.516 298.438C323.12 298.984 322.922 299.794 322.922 300.867ZM334.305 305.156C333.159 305.156 332.227 304.781 331.508 304.031C330.789 303.276 330.43 302.268 330.43 301.008V300.742C330.43 299.904 330.589 299.156 330.906 298.5C331.229 297.839 331.677 297.323 332.25 296.953C332.828 296.578 333.453 296.391 334.125 296.391C335.224 296.391 336.078 296.753 336.688 297.477C337.297 298.201 337.602 299.237 337.602 300.586V301.188H331.875C331.896 302.021 332.138 302.695 332.602 303.211C333.07 303.721 333.664 303.977 334.383 303.977C334.893 303.977 335.326 303.872 335.68 303.664C336.034 303.456 336.344 303.18 336.609 302.836L337.492 303.523C336.784 304.612 335.721 305.156 334.305 305.156ZM334.125 297.578C333.542 297.578 333.052 297.792 332.656 298.219C332.26 298.641 332.016 299.234 331.922 300H336.156V299.891C336.115 299.156 335.917 298.589 335.562 298.188C335.208 297.781 334.729 297.578 334.125 297.578ZM290.602 324.156C289.456 324.156 288.523 323.781 287.805 323.031C287.086 322.276 286.727 321.268 286.727 320.008V319.742C286.727 318.904 286.885 318.156 287.203 317.5C287.526 316.839 287.974 316.323 288.547 315.953C289.125 315.578 289.75 315.391 290.422 315.391C291.521 315.391 292.375 315.753 292.984 316.477C293.594 317.201 293.898 318.237 293.898 319.586V320.188H288.172C288.193 321.021 288.435 321.695 288.898 322.211C289.367 322.721 289.961 322.977 290.68 322.977C291.19 322.977 291.622 322.872 291.977 322.664C292.331 322.456 292.641 322.18 292.906 321.836L293.789 322.523C293.081 323.612 292.018 324.156 290.602 324.156ZM290.422 316.578C289.839 316.578 289.349 316.792 288.953 317.219C288.557 317.641 288.312 318.234 288.219 319H292.453V318.891C292.411 318.156 292.214 317.589 291.859 317.188C291.505 316.781 291.026 316.578 290.422 316.578ZM300.5 321.758C300.5 321.367 300.352 321.065 300.055 320.852C299.763 320.633 299.25 320.445 298.516 320.289C297.786 320.133 297.206 319.945 296.773 319.727C296.346 319.508 296.029 319.247 295.82 318.945C295.617 318.643 295.516 318.284 295.516 317.867C295.516 317.174 295.807 316.589 296.391 316.109C296.979 315.63 297.729 315.391 298.641 315.391C299.599 315.391 300.375 315.638 300.969 316.133C301.568 316.628 301.867 317.26 301.867 318.031H300.414C300.414 317.635 300.245 317.294 299.906 317.008C299.573 316.721 299.151 316.578 298.641 316.578C298.115 316.578 297.703 316.693 297.406 316.922C297.109 317.151 296.961 317.451 296.961 317.82C296.961 318.169 297.099 318.432 297.375 318.609C297.651 318.786 298.148 318.956 298.867 319.117C299.591 319.279 300.177 319.471 300.625 319.695C301.073 319.919 301.404 320.19 301.617 320.508C301.836 320.82 301.945 321.203 301.945 321.656C301.945 322.411 301.643 323.018 301.039 323.477C300.435 323.93 299.651 324.156 298.688 324.156C298.01 324.156 297.411 324.036 296.891 323.797C296.37 323.557 295.961 323.224 295.664 322.797C295.372 322.365 295.227 321.898 295.227 321.398H296.672C296.698 321.883 296.891 322.268 297.25 322.555C297.615 322.836 298.094 322.977 298.688 322.977C299.234 322.977 299.672 322.867 300 322.648C300.333 322.424 300.5 322.128 300.5 321.758ZM305.789 313.5V315.547H307.367V316.664H305.789V321.906C305.789 322.245 305.859 322.5 306 322.672C306.141 322.839 306.38 322.922 306.719 322.922C306.885 322.922 307.115 322.891 307.406 322.828V324C307.026 324.104 306.656 324.156 306.297 324.156C305.651 324.156 305.164 323.961 304.836 323.57C304.508 323.18 304.344 322.625 304.344 321.906V316.664H302.805V315.547H304.344V313.5H305.789ZM310.633 324H309.188V315.547H310.633V324ZM309.07 313.305C309.07 313.07 309.141 312.872 309.281 312.711C309.427 312.549 309.641 312.469 309.922 312.469C310.203 312.469 310.417 312.549 310.562 312.711C310.708 312.872 310.781 313.07 310.781 313.305C310.781 313.539 310.708 313.734 310.562 313.891C310.417 314.047 310.203 314.125 309.922 314.125C309.641 314.125 309.427 314.047 309.281 313.891C309.141 313.734 309.07 313.539 309.07 313.305ZM314.312 315.547L314.352 316.484C314.971 315.755 315.807 315.391 316.859 315.391C318.042 315.391 318.846 315.844 319.273 316.75C319.555 316.344 319.919 316.016 320.367 315.766C320.82 315.516 321.354 315.391 321.969 315.391C323.823 315.391 324.766 316.372 324.797 318.336V324H323.352V318.422C323.352 317.818 323.214 317.367 322.938 317.07C322.661 316.768 322.198 316.617 321.547 316.617C321.01 316.617 320.565 316.779 320.211 317.102C319.857 317.419 319.651 317.849 319.594 318.391V324H318.141V318.461C318.141 317.232 317.539 316.617 316.336 316.617C315.388 316.617 314.74 317.021 314.391 317.828V324H312.945V315.547H314.312ZM332.203 324C332.12 323.833 332.052 323.536 332 323.109C331.328 323.807 330.526 324.156 329.594 324.156C328.76 324.156 328.076 323.922 327.539 323.453C327.008 322.979 326.742 322.38 326.742 321.656C326.742 320.776 327.076 320.094 327.742 319.609C328.414 319.12 329.357 318.875 330.57 318.875H331.977V318.211C331.977 317.706 331.826 317.305 331.523 317.008C331.221 316.706 330.776 316.555 330.188 316.555C329.672 316.555 329.24 316.685 328.891 316.945C328.542 317.206 328.367 317.521 328.367 317.891H326.914C326.914 317.469 327.062 317.062 327.359 316.672C327.661 316.276 328.068 315.964 328.578 315.734C329.094 315.505 329.659 315.391 330.273 315.391C331.247 315.391 332.01 315.635 332.562 316.125C333.115 316.609 333.401 317.279 333.422 318.133V322.023C333.422 322.799 333.521 323.417 333.719 323.875V324H332.203ZM329.805 322.898C330.258 322.898 330.688 322.781 331.094 322.547C331.5 322.312 331.794 322.008 331.977 321.633V319.898H330.844C329.073 319.898 328.188 320.417 328.188 321.453C328.188 321.906 328.339 322.26 328.641 322.516C328.943 322.771 329.331 322.898 329.805 322.898ZM337.648 313.5V315.547H339.227V316.664H337.648V321.906C337.648 322.245 337.719 322.5 337.859 322.672C338 322.839 338.24 322.922 338.578 322.922C338.745 322.922 338.974 322.891 339.266 322.828V324C338.885 324.104 338.516 324.156 338.156 324.156C337.51 324.156 337.023 323.961 336.695 323.57C336.367 323.18 336.203 322.625 336.203 321.906V316.664H334.664V315.547H336.203V313.5H337.648ZM344.43 324.156C343.284 324.156 342.352 323.781 341.633 323.031C340.914 322.276 340.555 321.268 340.555 320.008V319.742C340.555 318.904 340.714 318.156 341.031 317.5C341.354 316.839 341.802 316.323 342.375 315.953C342.953 315.578 343.578 315.391 344.25 315.391C345.349 315.391 346.203 315.753 346.812 316.477C347.422 317.201 347.727 318.237 347.727 319.586V320.188H342C342.021 321.021 342.263 321.695 342.727 322.211C343.195 322.721 343.789 322.977 344.508 322.977C345.018 322.977 345.451 322.872 345.805 322.664C346.159 322.456 346.469 322.18 346.734 321.836L347.617 322.523C346.909 323.612 345.846 324.156 344.43 324.156ZM344.25 316.578C343.667 316.578 343.177 316.792 342.781 317.219C342.385 317.641 342.141 318.234 342.047 319H346.281V318.891C346.24 318.156 346.042 317.589 345.688 317.188C345.333 316.781 344.854 316.578 344.25 316.578Z" fill="black"/>
<path d="M288.82 410.547V415H287.32V403.625H291.516C292.76 403.625 293.734 403.943 294.438 404.578C295.146 405.214 295.5 406.055 295.5 407.102C295.5 408.206 295.154 409.057 294.461 409.656C293.773 410.25 292.786 410.547 291.5 410.547H288.82ZM288.82 409.32H291.516C292.318 409.32 292.932 409.133 293.359 408.758C293.786 408.378 294 407.831 294 407.117C294 406.44 293.786 405.898 293.359 405.492C292.932 405.086 292.346 404.875 291.602 404.859H288.82V409.32ZM302.312 415C302.229 414.833 302.161 414.536 302.109 414.109C301.438 414.807 300.635 415.156 299.703 415.156C298.87 415.156 298.185 414.922 297.648 414.453C297.117 413.979 296.852 413.38 296.852 412.656C296.852 411.776 297.185 411.094 297.852 410.609C298.523 410.12 299.466 409.875 300.68 409.875H302.086V409.211C302.086 408.706 301.935 408.305 301.633 408.008C301.331 407.706 300.885 407.555 300.297 407.555C299.781 407.555 299.349 407.685 299 407.945C298.651 408.206 298.477 408.521 298.477 408.891H297.023C297.023 408.469 297.172 408.062 297.469 407.672C297.771 407.276 298.177 406.964 298.688 406.734C299.203 406.505 299.768 406.391 300.383 406.391C301.357 406.391 302.12 406.635 302.672 407.125C303.224 407.609 303.51 408.279 303.531 409.133V413.023C303.531 413.799 303.63 414.417 303.828 414.875V415H302.312ZM299.914 413.898C300.367 413.898 300.797 413.781 301.203 413.547C301.609 413.312 301.904 413.008 302.086 412.633V410.898H300.953C299.182 410.898 298.297 411.417 298.297 412.453C298.297 412.906 298.448 413.26 298.75 413.516C299.052 413.771 299.44 413.898 299.914 413.898ZM308.438 412.883L310.406 406.547H311.953L308.555 416.305C308.029 417.711 307.193 418.414 306.047 418.414L305.773 418.391L305.234 418.289V417.117L305.625 417.148C306.115 417.148 306.495 417.049 306.766 416.852C307.042 416.654 307.268 416.292 307.445 415.766L307.766 414.906L304.75 406.547H306.328L308.438 412.883ZM314.609 406.547L314.648 407.484C315.268 406.755 316.104 406.391 317.156 406.391C318.339 406.391 319.143 406.844 319.57 407.75C319.852 407.344 320.216 407.016 320.664 406.766C321.117 406.516 321.651 406.391 322.266 406.391C324.12 406.391 325.062 407.372 325.094 409.336V415H323.648V409.422C323.648 408.818 323.51 408.367 323.234 408.07C322.958 407.768 322.495 407.617 321.844 407.617C321.307 407.617 320.862 407.779 320.508 408.102C320.154 408.419 319.948 408.849 319.891 409.391V415H318.438V409.461C318.438 408.232 317.836 407.617 316.633 407.617C315.685 407.617 315.036 408.021 314.688 408.828V415H313.242V406.547H314.609ZM330.789 415.156C329.643 415.156 328.711 414.781 327.992 414.031C327.273 413.276 326.914 412.268 326.914 411.008V410.742C326.914 409.904 327.073 409.156 327.391 408.5C327.714 407.839 328.161 407.323 328.734 406.953C329.312 406.578 329.938 406.391 330.609 406.391C331.708 406.391 332.562 406.753 333.172 407.477C333.781 408.201 334.086 409.237 334.086 410.586V411.188H328.359C328.38 412.021 328.622 412.695 329.086 413.211C329.555 413.721 330.148 413.977 330.867 413.977C331.378 413.977 331.81 413.872 332.164 413.664C332.518 413.456 332.828 413.18 333.094 412.836L333.977 413.523C333.268 414.612 332.206 415.156 330.789 415.156ZM330.609 407.578C330.026 407.578 329.536 407.792 329.141 408.219C328.745 408.641 328.5 409.234 328.406 410H332.641V409.891C332.599 409.156 332.401 408.589 332.047 408.188C331.693 407.781 331.214 407.578 330.609 407.578ZM337.133 406.547L337.18 407.609C337.826 406.797 338.669 406.391 339.711 406.391C341.497 406.391 342.398 407.398 342.414 409.414V415H340.969V409.406C340.964 408.797 340.823 408.346 340.547 408.055C340.276 407.763 339.852 407.617 339.273 407.617C338.805 407.617 338.393 407.742 338.039 407.992C337.685 408.242 337.409 408.57 337.211 408.977V415H335.766V406.547H337.133ZM346.555 404.5V406.547H348.133V407.664H346.555V412.906C346.555 413.245 346.625 413.5 346.766 413.672C346.906 413.839 347.146 413.922 347.484 413.922C347.651 413.922 347.88 413.891 348.172 413.828V415C347.792 415.104 347.422 415.156 347.062 415.156C346.417 415.156 345.93 414.961 345.602 414.57C345.273 414.18 345.109 413.625 345.109 412.906V407.664H343.57V406.547H345.109V404.5H346.555ZM290.484 432.977C291 432.977 291.451 432.82 291.836 432.508C292.221 432.195 292.435 431.805 292.477 431.336H293.844C293.818 431.82 293.651 432.281 293.344 432.719C293.036 433.156 292.625 433.505 292.109 433.766C291.599 434.026 291.057 434.156 290.484 434.156C289.333 434.156 288.417 433.773 287.734 433.008C287.057 432.237 286.719 431.185 286.719 429.852V429.609C286.719 428.786 286.87 428.055 287.172 427.414C287.474 426.773 287.906 426.276 288.469 425.922C289.036 425.568 289.706 425.391 290.477 425.391C291.424 425.391 292.211 425.674 292.836 426.242C293.466 426.81 293.802 427.547 293.844 428.453H292.477C292.435 427.906 292.227 427.458 291.852 427.109C291.482 426.755 291.023 426.578 290.477 426.578C289.742 426.578 289.172 426.844 288.766 427.375C288.365 427.901 288.164 428.664 288.164 429.664V429.938C288.164 430.911 288.365 431.661 288.766 432.188C289.167 432.714 289.74 432.977 290.484 432.977ZM296.914 426.57C297.555 425.784 298.388 425.391 299.414 425.391C301.201 425.391 302.102 426.398 302.117 428.414V434H300.672V428.406C300.667 427.797 300.526 427.346 300.25 427.055C299.979 426.763 299.555 426.617 298.977 426.617C298.508 426.617 298.096 426.742 297.742 426.992C297.388 427.242 297.112 427.57 296.914 427.977V434H295.469V422H296.914V426.57ZM309.5 434C309.417 433.833 309.349 433.536 309.297 433.109C308.625 433.807 307.823 434.156 306.891 434.156C306.057 434.156 305.372 433.922 304.836 433.453C304.305 432.979 304.039 432.38 304.039 431.656C304.039 430.776 304.372 430.094 305.039 429.609C305.711 429.12 306.654 428.875 307.867 428.875H309.273V428.211C309.273 427.706 309.122 427.305 308.82 427.008C308.518 426.706 308.073 426.555 307.484 426.555C306.969 426.555 306.536 426.685 306.188 426.945C305.839 427.206 305.664 427.521 305.664 427.891H304.211C304.211 427.469 304.359 427.062 304.656 426.672C304.958 426.276 305.365 425.964 305.875 425.734C306.391 425.505 306.956 425.391 307.57 425.391C308.544 425.391 309.307 425.635 309.859 426.125C310.411 426.609 310.698 427.279 310.719 428.133V432.023C310.719 432.799 310.818 433.417 311.016 433.875V434H309.5ZM307.102 432.898C307.555 432.898 307.984 432.781 308.391 432.547C308.797 432.312 309.091 432.008 309.273 431.633V429.898H308.141C306.37 429.898 305.484 430.417 305.484 431.453C305.484 431.906 305.635 432.26 305.938 432.516C306.24 432.771 306.628 432.898 307.102 432.898ZM314.352 425.547L314.398 426.609C315.044 425.797 315.888 425.391 316.93 425.391C318.716 425.391 319.617 426.398 319.633 428.414V434H318.188V428.406C318.182 427.797 318.042 427.346 317.766 427.055C317.495 426.763 317.07 426.617 316.492 426.617C316.023 426.617 315.612 426.742 315.258 426.992C314.904 427.242 314.628 427.57 314.43 427.977V434H312.984V425.547H314.352ZM321.469 429.703C321.469 428.385 321.773 427.339 322.383 426.562C322.992 425.781 323.799 425.391 324.805 425.391C325.836 425.391 326.641 425.755 327.219 426.484L327.289 425.547H328.609V433.797C328.609 434.891 328.284 435.753 327.633 436.383C326.987 437.013 326.117 437.328 325.023 437.328C324.414 437.328 323.818 437.198 323.234 436.938C322.651 436.677 322.206 436.32 321.898 435.867L322.648 435C323.268 435.766 324.026 436.148 324.922 436.148C325.625 436.148 326.172 435.951 326.562 435.555C326.958 435.159 327.156 434.602 327.156 433.883V433.156C326.578 433.823 325.789 434.156 324.789 434.156C323.799 434.156 322.997 433.758 322.383 432.961C321.773 432.164 321.469 431.078 321.469 429.703ZM322.922 429.867C322.922 430.82 323.117 431.57 323.508 432.117C323.898 432.659 324.445 432.93 325.148 432.93C326.06 432.93 326.729 432.516 327.156 431.688V427.828C326.714 427.021 326.049 426.617 325.164 426.617C324.461 426.617 323.911 426.891 323.516 427.438C323.12 427.984 322.922 428.794 322.922 429.867ZM334.305 434.156C333.159 434.156 332.227 433.781 331.508 433.031C330.789 432.276 330.43 431.268 330.43 430.008V429.742C330.43 428.904 330.589 428.156 330.906 427.5C331.229 426.839 331.677 426.323 332.25 425.953C332.828 425.578 333.453 425.391 334.125 425.391C335.224 425.391 336.078 425.753 336.688 426.477C337.297 427.201 337.602 428.237 337.602 429.586V430.188H331.875C331.896 431.021 332.138 431.695 332.602 432.211C333.07 432.721 333.664 432.977 334.383 432.977C334.893 432.977 335.326 432.872 335.68 432.664C336.034 432.456 336.344 432.18 336.609 431.836L337.492 432.523C336.784 433.612 335.721 434.156 334.305 434.156ZM334.125 426.578C333.542 426.578 333.052 426.792 332.656 427.219C332.26 427.641 332.016 428.234 331.922 429H336.156V428.891C336.115 428.156 335.917 427.589 335.562 427.188C335.208 426.781 334.729 426.578 334.125 426.578ZM290.602 453.156C289.456 453.156 288.523 452.781 287.805 452.031C287.086 451.276 286.727 450.268 286.727 449.008V448.742C286.727 447.904 286.885 447.156 287.203 446.5C287.526 445.839 287.974 445.323 288.547 444.953C289.125 444.578 289.75 444.391 290.422 444.391C291.521 444.391 292.375 444.753 292.984 445.477C293.594 446.201 293.898 447.237 293.898 448.586V449.188H288.172C288.193 450.021 288.435 450.695 288.898 451.211C289.367 451.721 289.961 451.977 290.68 451.977C291.19 451.977 291.622 451.872 291.977 451.664C292.331 451.456 292.641 451.18 292.906 450.836L293.789 451.523C293.081 452.612 292.018 453.156 290.602 453.156ZM290.422 445.578C289.839 445.578 289.349 445.792 288.953 446.219C288.557 446.641 288.312 447.234 288.219 448H292.453V447.891C292.411 447.156 292.214 446.589 291.859 446.188C291.505 445.781 291.026 445.578 290.422 445.578ZM300.5 450.758C300.5 450.367 300.352 450.065 300.055 449.852C299.763 449.633 299.25 449.445 298.516 449.289C297.786 449.133 297.206 448.945 296.773 448.727C296.346 448.508 296.029 448.247 295.82 447.945C295.617 447.643 295.516 447.284 295.516 446.867C295.516 446.174 295.807 445.589 296.391 445.109C296.979 444.63 297.729 444.391 298.641 444.391C299.599 444.391 300.375 444.638 300.969 445.133C301.568 445.628 301.867 446.26 301.867 447.031H300.414C300.414 446.635 300.245 446.294 299.906 446.008C299.573 445.721 299.151 445.578 298.641 445.578C298.115 445.578 297.703 445.693 297.406 445.922C297.109 446.151 296.961 446.451 296.961 446.82C296.961 447.169 297.099 447.432 297.375 447.609C297.651 447.786 298.148 447.956 298.867 448.117C299.591 448.279 300.177 448.471 300.625 448.695C301.073 448.919 301.404 449.19 301.617 449.508C301.836 449.82 301.945 450.203 301.945 450.656C301.945 451.411 301.643 452.018 301.039 452.477C300.435 452.93 299.651 453.156 298.688 453.156C298.01 453.156 297.411 453.036 296.891 452.797C296.37 452.557 295.961 452.224 295.664 451.797C295.372 451.365 295.227 450.898 295.227 450.398H296.672C296.698 450.883 296.891 451.268 297.25 451.555C297.615 451.836 298.094 451.977 298.688 451.977C299.234 451.977 299.672 451.867 300 451.648C300.333 451.424 300.5 451.128 300.5 450.758ZM305.789 442.5V444.547H307.367V445.664H305.789V450.906C305.789 451.245 305.859 451.5 306 451.672C306.141 451.839 306.38 451.922 306.719 451.922C306.885 451.922 307.115 451.891 307.406 451.828V453C307.026 453.104 306.656 453.156 306.297 453.156C305.651 453.156 305.164 452.961 304.836 452.57C304.508 452.18 304.344 451.625 304.344 450.906V445.664H302.805V444.547H304.344V442.5H305.789ZM310.633 453H309.188V444.547H310.633V453ZM309.07 442.305C309.07 442.07 309.141 441.872 309.281 441.711C309.427 441.549 309.641 441.469 309.922 441.469C310.203 441.469 310.417 441.549 310.562 441.711C310.708 441.872 310.781 442.07 310.781 442.305C310.781 442.539 310.708 442.734 310.562 442.891C310.417 443.047 310.203 443.125 309.922 443.125C309.641 443.125 309.427 443.047 309.281 442.891C309.141 442.734 309.07 442.539 309.07 442.305ZM314.312 444.547L314.352 445.484C314.971 444.755 315.807 444.391 316.859 444.391C318.042 444.391 318.846 444.844 319.273 445.75C319.555 445.344 319.919 445.016 320.367 444.766C320.82 444.516 321.354 444.391 321.969 444.391C323.823 444.391 324.766 445.372 324.797 447.336V453H323.352V447.422C323.352 446.818 323.214 446.367 322.938 446.07C322.661 445.768 322.198 445.617 321.547 445.617C321.01 445.617 320.565 445.779 320.211 446.102C319.857 446.419 319.651 446.849 319.594 447.391V453H318.141V447.461C318.141 446.232 317.539 445.617 316.336 445.617C315.388 445.617 314.74 446.021 314.391 446.828V453H312.945V444.547H314.312ZM332.203 453C332.12 452.833 332.052 452.536 332 452.109C331.328 452.807 330.526 453.156 329.594 453.156C328.76 453.156 328.076 452.922 327.539 452.453C327.008 451.979 326.742 451.38 326.742 450.656C326.742 449.776 327.076 449.094 327.742 448.609C328.414 448.12 329.357 447.875 330.57 447.875H331.977V447.211C331.977 446.706 331.826 446.305 331.523 446.008C331.221 445.706 330.776 445.555 330.188 445.555C329.672 445.555 329.24 445.685 328.891 445.945C328.542 446.206 328.367 446.521 328.367 446.891H326.914C326.914 446.469 327.062 446.062 327.359 445.672C327.661 445.276 328.068 444.964 328.578 444.734C329.094 444.505 329.659 444.391 330.273 444.391C331.247 444.391 332.01 444.635 332.562 445.125C333.115 445.609 333.401 446.279 333.422 447.133V451.023C333.422 451.799 333.521 452.417 333.719 452.875V453H332.203ZM329.805 451.898C330.258 451.898 330.688 451.781 331.094 451.547C331.5 451.312 331.794 451.008 331.977 450.633V448.898H330.844C329.073 448.898 328.188 449.417 328.188 450.453C328.188 450.906 328.339 451.26 328.641 451.516C328.943 451.771 329.331 451.898 329.805 451.898ZM337.648 442.5V444.547H339.227V445.664H337.648V450.906C337.648 451.245 337.719 451.5 337.859 451.672C338 451.839 338.24 451.922 338.578 451.922C338.745 451.922 338.974 451.891 339.266 451.828V453C338.885 453.104 338.516 453.156 338.156 453.156C337.51 453.156 337.023 452.961 336.695 452.57C336.367 452.18 336.203 451.625 336.203 450.906V445.664H334.664V444.547H336.203V442.5H337.648ZM344.43 453.156C343.284 453.156 342.352 452.781 341.633 452.031C340.914 451.276 340.555 450.268 340.555 449.008V448.742C340.555 447.904 340.714 447.156 341.031 446.5C341.354 445.839 341.802 445.323 342.375 444.953C342.953 444.578 343.578 444.391 344.25 444.391C345.349 444.391 346.203 444.753 346.812 445.477C347.422 446.201 347.727 447.237 347.727 448.586V449.188H342C342.021 450.021 342.263 450.695 342.727 451.211C343.195 451.721 343.789 451.977 344.508 451.977C345.018 451.977 345.451 451.872 345.805 451.664C346.159 451.456 346.469 451.18 346.734 450.836L347.617 451.523C346.909 452.612 345.846 453.156 344.43 453.156ZM344.25 445.578C343.667 445.578 343.177 445.792 342.781 446.219C342.385 446.641 342.141 447.234 342.047 448H346.281V447.891C346.24 447.156 346.042 446.589 345.688 446.188C345.333 445.781 344.854 445.578 344.25 445.578Z" fill="black"/>
<path d="M288.82 539.547V544H287.32V532.625H291.516C292.76 532.625 293.734 532.943 294.438 533.578C295.146 534.214 295.5 535.055 295.5 536.102C295.5 537.206 295.154 538.057 294.461 538.656C293.773 539.25 292.786 539.547 291.5 539.547H288.82ZM288.82 538.32H291.516C292.318 538.32 292.932 538.133 293.359 537.758C293.786 537.378 294 536.831 294 536.117C294 535.44 293.786 534.898 293.359 534.492C292.932 534.086 292.346 533.875 291.602 533.859H288.82V538.32ZM302.312 544C302.229 543.833 302.161 543.536 302.109 543.109C301.438 543.807 300.635 544.156 299.703 544.156C298.87 544.156 298.185 543.922 297.648 543.453C297.117 542.979 296.852 542.38 296.852 541.656C296.852 540.776 297.185 540.094 297.852 539.609C298.523 539.12 299.466 538.875 300.68 538.875H302.086V538.211C302.086 537.706 301.935 537.305 301.633 537.008C301.331 536.706 300.885 536.555 300.297 536.555C299.781 536.555 299.349 536.685 299 536.945C298.651 537.206 298.477 537.521 298.477 537.891H297.023C297.023 537.469 297.172 537.062 297.469 536.672C297.771 536.276 298.177 535.964 298.688 535.734C299.203 535.505 299.768 535.391 300.383 535.391C301.357 535.391 302.12 535.635 302.672 536.125C303.224 536.609 303.51 537.279 303.531 538.133V542.023C303.531 542.799 303.63 543.417 303.828 543.875V544H302.312ZM299.914 542.898C300.367 542.898 300.797 542.781 301.203 542.547C301.609 542.312 301.904 542.008 302.086 541.633V539.898H300.953C299.182 539.898 298.297 540.417 298.297 541.453C298.297 541.906 298.448 542.26 298.75 542.516C299.052 542.771 299.44 542.898 299.914 542.898ZM308.438 541.883L310.406 535.547H311.953L308.555 545.305C308.029 546.711 307.193 547.414 306.047 547.414L305.773 547.391L305.234 547.289V546.117L305.625 546.148C306.115 546.148 306.495 546.049 306.766 545.852C307.042 545.654 307.268 545.292 307.445 544.766L307.766 543.906L304.75 535.547H306.328L308.438 541.883ZM314.609 535.547L314.648 536.484C315.268 535.755 316.104 535.391 317.156 535.391C318.339 535.391 319.143 535.844 319.57 536.75C319.852 536.344 320.216 536.016 320.664 535.766C321.117 535.516 321.651 535.391 322.266 535.391C324.12 535.391 325.062 536.372 325.094 538.336V544H323.648V538.422C323.648 537.818 323.51 537.367 323.234 537.07C322.958 536.768 322.495 536.617 321.844 536.617C321.307 536.617 320.862 536.779 320.508 537.102C320.154 537.419 319.948 537.849 319.891 538.391V544H318.438V538.461C318.438 537.232 317.836 536.617 316.633 536.617C315.685 536.617 315.036 537.021 314.688 537.828V544H313.242V535.547H314.609ZM330.789 544.156C329.643 544.156 328.711 543.781 327.992 543.031C327.273 542.276 326.914 541.268 326.914 540.008V539.742C326.914 538.904 327.073 538.156 327.391 537.5C327.714 536.839 328.161 536.323 328.734 535.953C329.312 535.578 329.938 535.391 330.609 535.391C331.708 535.391 332.562 535.753 333.172 536.477C333.781 537.201 334.086 538.237 334.086 539.586V540.188H328.359C328.38 541.021 328.622 541.695 329.086 542.211C329.555 542.721 330.148 542.977 330.867 542.977C331.378 542.977 331.81 542.872 332.164 542.664C332.518 542.456 332.828 542.18 333.094 541.836L333.977 542.523C333.268 543.612 332.206 544.156 330.789 544.156ZM330.609 536.578C330.026 536.578 329.536 536.792 329.141 537.219C328.745 537.641 328.5 538.234 328.406 539H332.641V538.891C332.599 538.156 332.401 537.589 332.047 537.188C331.693 536.781 331.214 536.578 330.609 536.578ZM337.133 535.547L337.18 536.609C337.826 535.797 338.669 535.391 339.711 535.391C341.497 535.391 342.398 536.398 342.414 538.414V544H340.969V538.406C340.964 537.797 340.823 537.346 340.547 537.055C340.276 536.763 339.852 536.617 339.273 536.617C338.805 536.617 338.393 536.742 338.039 536.992C337.685 537.242 337.409 537.57 337.211 537.977V544H335.766V535.547H337.133ZM346.555 533.5V535.547H348.133V536.664H346.555V541.906C346.555 542.245 346.625 542.5 346.766 542.672C346.906 542.839 347.146 542.922 347.484 542.922C347.651 542.922 347.88 542.891 348.172 542.828V544C347.792 544.104 347.422 544.156 347.062 544.156C346.417 544.156 345.93 543.961 345.602 543.57C345.273 543.18 345.109 542.625 345.109 541.906V536.664H343.57V535.547H345.109V533.5H346.555ZM290.484 561.977C291 561.977 291.451 561.82 291.836 561.508C292.221 561.195 292.435 560.805 292.477 560.336H293.844C293.818 560.82 293.651 561.281 293.344 561.719C293.036 562.156 292.625 562.505 292.109 562.766C291.599 563.026 291.057 563.156 290.484 563.156C289.333 563.156 288.417 562.773 287.734 562.008C287.057 561.237 286.719 560.185 286.719 558.852V558.609C286.719 557.786 286.87 557.055 287.172 556.414C287.474 555.773 287.906 555.276 288.469 554.922C289.036 554.568 289.706 554.391 290.477 554.391C291.424 554.391 292.211 554.674 292.836 555.242C293.466 555.81 293.802 556.547 293.844 557.453H292.477C292.435 556.906 292.227 556.458 291.852 556.109C291.482 555.755 291.023 555.578 290.477 555.578C289.742 555.578 289.172 555.844 288.766 556.375C288.365 556.901 288.164 557.664 288.164 558.664V558.938C288.164 559.911 288.365 560.661 288.766 561.188C289.167 561.714 289.74 561.977 290.484 561.977ZM296.914 555.57C297.555 554.784 298.388 554.391 299.414 554.391C301.201 554.391 302.102 555.398 302.117 557.414V563H300.672V557.406C300.667 556.797 300.526 556.346 300.25 556.055C299.979 555.763 299.555 555.617 298.977 555.617C298.508 555.617 298.096 555.742 297.742 555.992C297.388 556.242 297.112 556.57 296.914 556.977V563H295.469V551H296.914V555.57ZM309.5 563C309.417 562.833 309.349 562.536 309.297 562.109C308.625 562.807 307.823 563.156 306.891 563.156C306.057 563.156 305.372 562.922 304.836 562.453C304.305 561.979 304.039 561.38 304.039 560.656C304.039 559.776 304.372 559.094 305.039 558.609C305.711 558.12 306.654 557.875 307.867 557.875H309.273V557.211C309.273 556.706 309.122 556.305 308.82 556.008C308.518 555.706 308.073 555.555 307.484 555.555C306.969 555.555 306.536 555.685 306.188 555.945C305.839 556.206 305.664 556.521 305.664 556.891H304.211C304.211 556.469 304.359 556.062 304.656 555.672C304.958 555.276 305.365 554.964 305.875 554.734C306.391 554.505 306.956 554.391 307.57 554.391C308.544 554.391 309.307 554.635 309.859 555.125C310.411 555.609 310.698 556.279 310.719 557.133V561.023C310.719 561.799 310.818 562.417 311.016 562.875V563H309.5ZM307.102 561.898C307.555 561.898 307.984 561.781 308.391 561.547C308.797 561.312 309.091 561.008 309.273 560.633V558.898H308.141C306.37 558.898 305.484 559.417 305.484 560.453C305.484 560.906 305.635 561.26 305.938 561.516C306.24 561.771 306.628 561.898 307.102 561.898ZM314.352 554.547L314.398 555.609C315.044 554.797 315.888 554.391 316.93 554.391C318.716 554.391 319.617 555.398 319.633 557.414V563H318.188V557.406C318.182 556.797 318.042 556.346 317.766 556.055C317.495 555.763 317.07 555.617 316.492 555.617C316.023 555.617 315.612 555.742 315.258 555.992C314.904 556.242 314.628 556.57 314.43 556.977V563H312.984V554.547H314.352ZM321.469 558.703C321.469 557.385 321.773 556.339 322.383 555.562C322.992 554.781 323.799 554.391 324.805 554.391C325.836 554.391 326.641 554.755 327.219 555.484L327.289 554.547H328.609V562.797C328.609 563.891 328.284 564.753 327.633 565.383C326.987 566.013 326.117 566.328 325.023 566.328C324.414 566.328 323.818 566.198 323.234 565.938C322.651 565.677 322.206 565.32 321.898 564.867L322.648 564C323.268 564.766 324.026 565.148 324.922 565.148C325.625 565.148 326.172 564.951 326.562 564.555C326.958 564.159 327.156 563.602 327.156 562.883V562.156C326.578 562.823 325.789 563.156 324.789 563.156C323.799 563.156 322.997 562.758 322.383 561.961C321.773 561.164 321.469 560.078 321.469 558.703ZM322.922 558.867C322.922 559.82 323.117 560.57 323.508 561.117C323.898 561.659 324.445 561.93 325.148 561.93C326.06 561.93 326.729 561.516 327.156 560.688V556.828C326.714 556.021 326.049 555.617 325.164 555.617C324.461 555.617 323.911 555.891 323.516 556.438C323.12 556.984 322.922 557.794 322.922 558.867ZM334.305 563.156C333.159 563.156 332.227 562.781 331.508 562.031C330.789 561.276 330.43 560.268 330.43 559.008V558.742C330.43 557.904 330.589 557.156 330.906 556.5C331.229 555.839 331.677 555.323 332.25 554.953C332.828 554.578 333.453 554.391 334.125 554.391C335.224 554.391 336.078 554.753 336.688 555.477C337.297 556.201 337.602 557.237 337.602 558.586V559.188H331.875C331.896 560.021 332.138 560.695 332.602 561.211C333.07 561.721 333.664 561.977 334.383 561.977C334.893 561.977 335.326 561.872 335.68 561.664C336.034 561.456 336.344 561.18 336.609 560.836L337.492 561.523C336.784 562.612 335.721 563.156 334.305 563.156ZM334.125 555.578C333.542 555.578 333.052 555.792 332.656 556.219C332.26 556.641 332.016 557.234 331.922 558H336.156V557.891C336.115 557.156 335.917 556.589 335.562 556.188C335.208 555.781 334.729 555.578 334.125 555.578ZM290.602 582.156C289.456 582.156 288.523 581.781 287.805 581.031C287.086 580.276 286.727 579.268 286.727 578.008V577.742C286.727 576.904 286.885 576.156 287.203 575.5C287.526 574.839 287.974 574.323 288.547 573.953C289.125 573.578 289.75 573.391 290.422 573.391C291.521 573.391 292.375 573.753 292.984 574.477C293.594 575.201 293.898 576.237 293.898 577.586V578.188H288.172C288.193 579.021 288.435 579.695 288.898 580.211C289.367 580.721 289.961 580.977 290.68 580.977C291.19 580.977 291.622 580.872 291.977 580.664C292.331 580.456 292.641 580.18 292.906 579.836L293.789 580.523C293.081 581.612 292.018 582.156 290.602 582.156ZM290.422 574.578C289.839 574.578 289.349 574.792 288.953 575.219C288.557 575.641 288.312 576.234 288.219 577H292.453V576.891C292.411 576.156 292.214 575.589 291.859 575.188C291.505 574.781 291.026 574.578 290.422 574.578ZM300.5 579.758C300.5 579.367 300.352 579.065 300.055 578.852C299.763 578.633 299.25 578.445 298.516 578.289C297.786 578.133 297.206 577.945 296.773 577.727C296.346 577.508 296.029 577.247 295.82 576.945C295.617 576.643 295.516 576.284 295.516 575.867C295.516 575.174 295.807 574.589 296.391 574.109C296.979 573.63 297.729 573.391 298.641 573.391C299.599 573.391 300.375 573.638 300.969 574.133C301.568 574.628 301.867 575.26 301.867 576.031H300.414C300.414 575.635 300.245 575.294 299.906 575.008C299.573 574.721 299.151 574.578 298.641 574.578C298.115 574.578 297.703 574.693 297.406 574.922C297.109 575.151 296.961 575.451 296.961 575.82C296.961 576.169 297.099 576.432 297.375 576.609C297.651 576.786 298.148 576.956 298.867 577.117C299.591 577.279 300.177 577.471 300.625 577.695C301.073 577.919 301.404 578.19 301.617 578.508C301.836 578.82 301.945 579.203 301.945 579.656C301.945 580.411 301.643 581.018 301.039 581.477C300.435 581.93 299.651 582.156 298.688 582.156C298.01 582.156 297.411 582.036 296.891 581.797C296.37 581.557 295.961 581.224 295.664 580.797C295.372 580.365 295.227 579.898 295.227 579.398H296.672C296.698 579.883 296.891 580.268 297.25 580.555C297.615 580.836 298.094 580.977 298.688 580.977C299.234 580.977 299.672 580.867 300 580.648C300.333 580.424 300.5 580.128 300.5 579.758ZM305.789 571.5V573.547H307.367V574.664H305.789V579.906C305.789 580.245 305.859 580.5 306 580.672C306.141 580.839 306.38 580.922 306.719 580.922C306.885 580.922 307.115 580.891 307.406 580.828V582C307.026 582.104 306.656 582.156 306.297 582.156C305.651 582.156 305.164 581.961 304.836 581.57C304.508 581.18 304.344 580.625 304.344 579.906V574.664H302.805V573.547H304.344V571.5H305.789ZM310.633 582H309.188V573.547H310.633V582ZM309.07 571.305C309.07 571.07 309.141 570.872 309.281 570.711C309.427 570.549 309.641 570.469 309.922 570.469C310.203 570.469 310.417 570.549 310.562 570.711C310.708 570.872 310.781 571.07 310.781 571.305C310.781 571.539 310.708 571.734 310.562 571.891C310.417 572.047 310.203 572.125 309.922 572.125C309.641 572.125 309.427 572.047 309.281 571.891C309.141 571.734 309.07 571.539 309.07 571.305ZM314.312 573.547L314.352 574.484C314.971 573.755 315.807 573.391 316.859 573.391C318.042 573.391 318.846 573.844 319.273 574.75C319.555 574.344 319.919 574.016 320.367 573.766C320.82 573.516 321.354 573.391 321.969 573.391C323.823 573.391 324.766 574.372 324.797 576.336V582H323.352V576.422C323.352 575.818 323.214 575.367 322.938 575.07C322.661 574.768 322.198 574.617 321.547 574.617C321.01 574.617 320.565 574.779 320.211 575.102C319.857 575.419 319.651 575.849 319.594 576.391V582H318.141V576.461C318.141 575.232 317.539 574.617 316.336 574.617C315.388 574.617 314.74 575.021 314.391 575.828V582H312.945V573.547H314.312ZM332.203 582C332.12 581.833 332.052 581.536 332 581.109C331.328 581.807 330.526 582.156 329.594 582.156C328.76 582.156 328.076 581.922 327.539 581.453C327.008 580.979 326.742 580.38 326.742 579.656C326.742 578.776 327.076 578.094 327.742 577.609C328.414 577.12 329.357 576.875 330.57 576.875H331.977V576.211C331.977 575.706 331.826 575.305 331.523 575.008C331.221 574.706 330.776 574.555 330.188 574.555C329.672 574.555 329.24 574.685 328.891 574.945C328.542 575.206 328.367 575.521 328.367 575.891H326.914C326.914 575.469 327.062 575.062 327.359 574.672C327.661 574.276 328.068 573.964 328.578 573.734C329.094 573.505 329.659 573.391 330.273 573.391C331.247 573.391 332.01 573.635 332.562 574.125C333.115 574.609 333.401 575.279 333.422 576.133V580.023C333.422 580.799 333.521 581.417 333.719 581.875V582H332.203ZM329.805 580.898C330.258 580.898 330.688 580.781 331.094 580.547C331.5 580.312 331.794 580.008 331.977 579.633V577.898H330.844C329.073 577.898 328.188 578.417 328.188 579.453C328.188 579.906 328.339 580.26 328.641 580.516C328.943 580.771 329.331 580.898 329.805 580.898ZM337.648 571.5V573.547H339.227V574.664H337.648V579.906C337.648 580.245 337.719 580.5 337.859 580.672C338 580.839 338.24 580.922 338.578 580.922C338.745 580.922 338.974 580.891 339.266 580.828V582C338.885 582.104 338.516 582.156 338.156 582.156C337.51 582.156 337.023 581.961 336.695 581.57C336.367 581.18 336.203 580.625 336.203 579.906V574.664H334.664V573.547H336.203V571.5H337.648ZM344.43 582.156C343.284 582.156 342.352 581.781 341.633 581.031C340.914 580.276 340.555 579.268 340.555 578.008V577.742C340.555 576.904 340.714 576.156 341.031 575.5C341.354 574.839 341.802 574.323 342.375 573.953C342.953 573.578 343.578 573.391 344.25 573.391C345.349 573.391 346.203 573.753 346.812 574.477C347.422 575.201 347.727 576.237 347.727 577.586V578.188H342C342.021 579.021 342.263 579.695 342.727 580.211C343.195 580.721 343.789 580.977 344.508 580.977C345.018 580.977 345.451 580.872 345.805 580.664C346.159 580.456 346.469 580.18 346.734 579.836L347.617 580.523C346.909 581.612 345.846 582.156 344.43 582.156ZM344.25 574.578C343.667 574.578 343.177 574.792 342.781 575.219C342.385 575.641 342.141 576.234 342.047 577H346.281V576.891C346.24 576.156 346.042 575.589 345.688 575.188C345.333 574.781 344.854 574.578 344.25 574.578Z" fill="black"/>
<path d="M288.82 668.547V673H287.32V661.625H291.516C292.76 661.625 293.734 661.943 294.438 662.578C295.146 663.214 295.5 664.055 295.5 665.102C295.5 666.206 295.154 667.057 294.461 667.656C293.773 668.25 292.786 668.547 291.5 668.547H288.82ZM288.82 667.32H291.516C292.318 667.32 292.932 667.133 293.359 666.758C293.786 666.378 294 665.831 294 665.117C294 664.44 293.786 663.898 293.359 663.492C292.932 663.086 292.346 662.875 291.602 662.859H288.82V667.32ZM302.312 673C302.229 672.833 302.161 672.536 302.109 672.109C301.438 672.807 300.635 673.156 299.703 673.156C298.87 673.156 298.185 672.922 297.648 672.453C297.117 671.979 296.852 671.38 296.852 670.656C296.852 669.776 297.185 669.094 297.852 668.609C298.523 668.12 299.466 667.875 300.68 667.875H302.086V667.211C302.086 666.706 301.935 666.305 301.633 666.008C301.331 665.706 300.885 665.555 300.297 665.555C299.781 665.555 299.349 665.685 299 665.945C298.651 666.206 298.477 666.521 298.477 666.891H297.023C297.023 666.469 297.172 666.062 297.469 665.672C297.771 665.276 298.177 664.964 298.688 664.734C299.203 664.505 299.768 664.391 300.383 664.391C301.357 664.391 302.12 664.635 302.672 665.125C303.224 665.609 303.51 666.279 303.531 667.133V671.023C303.531 671.799 303.63 672.417 303.828 672.875V673H302.312ZM299.914 671.898C300.367 671.898 300.797 671.781 301.203 671.547C301.609 671.312 301.904 671.008 302.086 670.633V668.898H300.953C299.182 668.898 298.297 669.417 298.297 670.453C298.297 670.906 298.448 671.26 298.75 671.516C299.052 671.771 299.44 671.898 299.914 671.898ZM308.438 670.883L310.406 664.547H311.953L308.555 674.305C308.029 675.711 307.193 676.414 306.047 676.414L305.773 676.391L305.234 676.289V675.117L305.625 675.148C306.115 675.148 306.495 675.049 306.766 674.852C307.042 674.654 307.268 674.292 307.445 673.766L307.766 672.906L304.75 664.547H306.328L308.438 670.883ZM314.609 664.547L314.648 665.484C315.268 664.755 316.104 664.391 317.156 664.391C318.339 664.391 319.143 664.844 319.57 665.75C319.852 665.344 320.216 665.016 320.664 664.766C321.117 664.516 321.651 664.391 322.266 664.391C324.12 664.391 325.062 665.372 325.094 667.336V673H323.648V667.422C323.648 666.818 323.51 666.367 323.234 666.07C322.958 665.768 322.495 665.617 321.844 665.617C321.307 665.617 320.862 665.779 320.508 666.102C320.154 666.419 319.948 666.849 319.891 667.391V673H318.438V667.461C318.438 666.232 317.836 665.617 316.633 665.617C315.685 665.617 315.036 666.021 314.688 666.828V673H313.242V664.547H314.609ZM330.789 673.156C329.643 673.156 328.711 672.781 327.992 672.031C327.273 671.276 326.914 670.268 326.914 669.008V668.742C326.914 667.904 327.073 667.156 327.391 666.5C327.714 665.839 328.161 665.323 328.734 664.953C329.312 664.578 329.938 664.391 330.609 664.391C331.708 664.391 332.562 664.753 333.172 665.477C333.781 666.201 334.086 667.237 334.086 668.586V669.188H328.359C328.38 670.021 328.622 670.695 329.086 671.211C329.555 671.721 330.148 671.977 330.867 671.977C331.378 671.977 331.81 671.872 332.164 671.664C332.518 671.456 332.828 671.18 333.094 670.836L333.977 671.523C333.268 672.612 332.206 673.156 330.789 673.156ZM330.609 665.578C330.026 665.578 329.536 665.792 329.141 666.219C328.745 666.641 328.5 667.234 328.406 668H332.641V667.891C332.599 667.156 332.401 666.589 332.047 666.188C331.693 665.781 331.214 665.578 330.609 665.578ZM337.133 664.547L337.18 665.609C337.826 664.797 338.669 664.391 339.711 664.391C341.497 664.391 342.398 665.398 342.414 667.414V673H340.969V667.406C340.964 666.797 340.823 666.346 340.547 666.055C340.276 665.763 339.852 665.617 339.273 665.617C338.805 665.617 338.393 665.742 338.039 665.992C337.685 666.242 337.409 666.57 337.211 666.977V673H335.766V664.547H337.133ZM346.555 662.5V664.547H348.133V665.664H346.555V670.906C346.555 671.245 346.625 671.5 346.766 671.672C346.906 671.839 347.146 671.922 347.484 671.922C347.651 671.922 347.88 671.891 348.172 671.828V673C347.792 673.104 347.422 673.156 347.062 673.156C346.417 673.156 345.93 672.961 345.602 672.57C345.273 672.18 345.109 671.625 345.109 670.906V665.664H343.57V664.547H345.109V662.5H346.555ZM290.484 690.977C291 690.977 291.451 690.82 291.836 690.508C292.221 690.195 292.435 689.805 292.477 689.336H293.844C293.818 689.82 293.651 690.281 293.344 690.719C293.036 691.156 292.625 691.505 292.109 691.766C291.599 692.026 291.057 692.156 290.484 692.156C289.333 692.156 288.417 691.773 287.734 691.008C287.057 690.237 286.719 689.185 286.719 687.852V687.609C286.719 686.786 286.87 686.055 287.172 685.414C287.474 684.773 287.906 684.276 288.469 683.922C289.036 683.568 289.706 683.391 290.477 683.391C291.424 683.391 292.211 683.674 292.836 684.242C293.466 684.81 293.802 685.547 293.844 686.453H292.477C292.435 685.906 292.227 685.458 291.852 685.109C291.482 684.755 291.023 684.578 290.477 684.578C289.742 684.578 289.172 684.844 288.766 685.375C288.365 685.901 288.164 686.664 288.164 687.664V687.938C288.164 688.911 288.365 689.661 288.766 690.188C289.167 690.714 289.74 690.977 290.484 690.977ZM296.914 684.57C297.555 683.784 298.388 683.391 299.414 683.391C301.201 683.391 302.102 684.398 302.117 686.414V692H300.672V686.406C300.667 685.797 300.526 685.346 300.25 685.055C299.979 684.763 299.555 684.617 298.977 684.617C298.508 684.617 298.096 684.742 297.742 684.992C297.388 685.242 297.112 685.57 296.914 685.977V692H295.469V680H296.914V684.57ZM309.5 692C309.417 691.833 309.349 691.536 309.297 691.109C308.625 691.807 307.823 692.156 306.891 692.156C306.057 692.156 305.372 691.922 304.836 691.453C304.305 690.979 304.039 690.38 304.039 689.656C304.039 688.776 304.372 688.094 305.039 687.609C305.711 687.12 306.654 686.875 307.867 686.875H309.273V686.211C309.273 685.706 309.122 685.305 308.82 685.008C308.518 684.706 308.073 684.555 307.484 684.555C306.969 684.555 306.536 684.685 306.188 684.945C305.839 685.206 305.664 685.521 305.664 685.891H304.211C304.211 685.469 304.359 685.062 304.656 684.672C304.958 684.276 305.365 683.964 305.875 683.734C306.391 683.505 306.956 683.391 307.57 683.391C308.544 683.391 309.307 683.635 309.859 684.125C310.411 684.609 310.698 685.279 310.719 686.133V690.023C310.719 690.799 310.818 691.417 311.016 691.875V692H309.5ZM307.102 690.898C307.555 690.898 307.984 690.781 308.391 690.547C308.797 690.312 309.091 690.008 309.273 689.633V687.898H308.141C306.37 687.898 305.484 688.417 305.484 689.453C305.484 689.906 305.635 690.26 305.938 690.516C306.24 690.771 306.628 690.898 307.102 690.898ZM314.352 683.547L314.398 684.609C315.044 683.797 315.888 683.391 316.93 683.391C318.716 683.391 319.617 684.398 319.633 686.414V692H318.188V686.406C318.182 685.797 318.042 685.346 317.766 685.055C317.495 684.763 317.07 684.617 316.492 684.617C316.023 684.617 315.612 684.742 315.258 684.992C314.904 685.242 314.628 685.57 314.43 685.977V692H312.984V683.547H314.352ZM321.469 687.703C321.469 686.385 321.773 685.339 322.383 684.562C322.992 683.781 323.799 683.391 324.805 683.391C325.836 683.391 326.641 683.755 327.219 684.484L327.289 683.547H328.609V691.797C328.609 692.891 328.284 693.753 327.633 694.383C326.987 695.013 326.117 695.328 325.023 695.328C324.414 695.328 323.818 695.198 323.234 694.938C322.651 694.677 322.206 694.32 321.898 693.867L322.648 693C323.268 693.766 324.026 694.148 324.922 694.148C325.625 694.148 326.172 693.951 326.562 693.555C326.958 693.159 327.156 692.602 327.156 691.883V691.156C326.578 691.823 325.789 692.156 324.789 692.156C323.799 692.156 322.997 691.758 322.383 690.961C321.773 690.164 321.469 689.078 321.469 687.703ZM322.922 687.867C322.922 688.82 323.117 689.57 323.508 690.117C323.898 690.659 324.445 690.93 325.148 690.93C326.06 690.93 326.729 690.516 327.156 689.688V685.828C326.714 685.021 326.049 684.617 325.164 684.617C324.461 684.617 323.911 684.891 323.516 685.438C323.12 685.984 322.922 686.794 322.922 687.867ZM334.305 692.156C333.159 692.156 332.227 691.781 331.508 691.031C330.789 690.276 330.43 689.268 330.43 688.008V687.742C330.43 686.904 330.589 686.156 330.906 685.5C331.229 684.839 331.677 684.323 332.25 683.953C332.828 683.578 333.453 683.391 334.125 683.391C335.224 683.391 336.078 683.753 336.688 684.477C337.297 685.201 337.602 686.237 337.602 687.586V688.188H331.875C331.896 689.021 332.138 689.695 332.602 690.211C333.07 690.721 333.664 690.977 334.383 690.977C334.893 690.977 335.326 690.872 335.68 690.664C336.034 690.456 336.344 690.18 336.609 689.836L337.492 690.523C336.784 691.612 335.721 692.156 334.305 692.156ZM334.125 684.578C333.542 684.578 333.052 684.792 332.656 685.219C332.26 685.641 332.016 686.234 331.922 687H336.156V686.891C336.115 686.156 335.917 685.589 335.562 685.188C335.208 684.781 334.729 684.578 334.125 684.578ZM290.602 711.156C289.456 711.156 288.523 710.781 287.805 710.031C287.086 709.276 286.727 708.268 286.727 707.008V706.742C286.727 705.904 286.885 705.156 287.203 704.5C287.526 703.839 287.974 703.323 288.547 702.953C289.125 702.578 289.75 702.391 290.422 702.391C291.521 702.391 292.375 702.753 292.984 703.477C293.594 704.201 293.898 705.237 293.898 706.586V707.188H288.172C288.193 708.021 288.435 708.695 288.898 709.211C289.367 709.721 289.961 709.977 290.68 709.977C291.19 709.977 291.622 709.872 291.977 709.664C292.331 709.456 292.641 709.18 292.906 708.836L293.789 709.523C293.081 710.612 292.018 711.156 290.602 711.156ZM290.422 703.578C289.839 703.578 289.349 703.792 288.953 704.219C288.557 704.641 288.312 705.234 288.219 706H292.453V705.891C292.411 705.156 292.214 704.589 291.859 704.188C291.505 703.781 291.026 703.578 290.422 703.578ZM300.5 708.758C300.5 708.367 300.352 708.065 300.055 707.852C299.763 707.633 299.25 707.445 298.516 707.289C297.786 707.133 297.206 706.945 296.773 706.727C296.346 706.508 296.029 706.247 295.82 705.945C295.617 705.643 295.516 705.284 295.516 704.867C295.516 704.174 295.807 703.589 296.391 703.109C296.979 702.63 297.729 702.391 298.641 702.391C299.599 702.391 300.375 702.638 300.969 703.133C301.568 703.628 301.867 704.26 301.867 705.031H300.414C300.414 704.635 300.245 704.294 299.906 704.008C299.573 703.721 299.151 703.578 298.641 703.578C298.115 703.578 297.703 703.693 297.406 703.922C297.109 704.151 296.961 704.451 296.961 704.82C296.961 705.169 297.099 705.432 297.375 705.609C297.651 705.786 298.148 705.956 298.867 706.117C299.591 706.279 300.177 706.471 300.625 706.695C301.073 706.919 301.404 707.19 301.617 707.508C301.836 707.82 301.945 708.203 301.945 708.656C301.945 709.411 301.643 710.018 301.039 710.477C300.435 710.93 299.651 711.156 298.688 711.156C298.01 711.156 297.411 711.036 296.891 710.797C296.37 710.557 295.961 710.224 295.664 709.797C295.372 709.365 295.227 708.898 295.227 708.398H296.672C296.698 708.883 296.891 709.268 297.25 709.555C297.615 709.836 298.094 709.977 298.688 709.977C299.234 709.977 299.672 709.867 300 709.648C300.333 709.424 300.5 709.128 300.5 708.758ZM305.789 700.5V702.547H307.367V703.664H305.789V708.906C305.789 709.245 305.859 709.5 306 709.672C306.141 709.839 306.38 709.922 306.719 709.922C306.885 709.922 307.115 709.891 307.406 709.828V711C307.026 711.104 306.656 711.156 306.297 711.156C305.651 711.156 305.164 710.961 304.836 710.57C304.508 710.18 304.344 709.625 304.344 708.906V703.664H302.805V702.547H304.344V700.5H305.789ZM310.633 711H309.188V702.547H310.633V711ZM309.07 700.305C309.07 700.07 309.141 699.872 309.281 699.711C309.427 699.549 309.641 699.469 309.922 699.469C310.203 699.469 310.417 699.549 310.562 699.711C310.708 699.872 310.781 700.07 310.781 700.305C310.781 700.539 310.708 700.734 310.562 700.891C310.417 701.047 310.203 701.125 309.922 701.125C309.641 701.125 309.427 701.047 309.281 700.891C309.141 700.734 309.07 700.539 309.07 700.305ZM314.312 702.547L314.352 703.484C314.971 702.755 315.807 702.391 316.859 702.391C318.042 702.391 318.846 702.844 319.273 703.75C319.555 703.344 319.919 703.016 320.367 702.766C320.82 702.516 321.354 702.391 321.969 702.391C323.823 702.391 324.766 703.372 324.797 705.336V711H323.352V705.422C323.352 704.818 323.214 704.367 322.938 704.07C322.661 703.768 322.198 703.617 321.547 703.617C321.01 703.617 320.565 703.779 320.211 704.102C319.857 704.419 319.651 704.849 319.594 705.391V711H318.141V705.461C318.141 704.232 317.539 703.617 316.336 703.617C315.388 703.617 314.74 704.021 314.391 704.828V711H312.945V702.547H314.312ZM332.203 711C332.12 710.833 332.052 710.536 332 710.109C331.328 710.807 330.526 711.156 329.594 711.156C328.76 711.156 328.076 710.922 327.539 710.453C327.008 709.979 326.742 709.38 326.742 708.656C326.742 707.776 327.076 707.094 327.742 706.609C328.414 706.12 329.357 705.875 330.57 705.875H331.977V705.211C331.977 704.706 331.826 704.305 331.523 704.008C331.221 703.706 330.776 703.555 330.188 703.555C329.672 703.555 329.24 703.685 328.891 703.945C328.542 704.206 328.367 704.521 328.367 704.891H326.914C326.914 704.469 327.062 704.062 327.359 703.672C327.661 703.276 328.068 702.964 328.578 702.734C329.094 702.505 329.659 702.391 330.273 702.391C331.247 702.391 332.01 702.635 332.562 703.125C333.115 703.609 333.401 704.279 333.422 705.133V709.023C333.422 709.799 333.521 710.417 333.719 710.875V711H332.203ZM329.805 709.898C330.258 709.898 330.688 709.781 331.094 709.547C331.5 709.312 331.794 709.008 331.977 708.633V706.898H330.844C329.073 706.898 328.188 707.417 328.188 708.453C328.188 708.906 328.339 709.26 328.641 709.516C328.943 709.771 329.331 709.898 329.805 709.898ZM337.648 700.5V702.547H339.227V703.664H337.648V708.906C337.648 709.245 337.719 709.5 337.859 709.672C338 709.839 338.24 709.922 338.578 709.922C338.745 709.922 338.974 709.891 339.266 709.828V711C338.885 711.104 338.516 711.156 338.156 711.156C337.51 711.156 337.023 710.961 336.695 710.57C336.367 710.18 336.203 709.625 336.203 708.906V703.664H334.664V702.547H336.203V700.5H337.648ZM344.43 711.156C343.284 711.156 342.352 710.781 341.633 710.031C340.914 709.276 340.555 708.268 340.555 707.008V706.742C340.555 705.904 340.714 705.156 341.031 704.5C341.354 703.839 341.802 703.323 342.375 702.953C342.953 702.578 343.578 702.391 344.25 702.391C345.349 702.391 346.203 702.753 346.812 703.477C347.422 704.201 347.727 705.237 347.727 706.586V707.188H342C342.021 708.021 342.263 708.695 342.727 709.211C343.195 709.721 343.789 709.977 344.508 709.977C345.018 709.977 345.451 709.872 345.805 709.664C346.159 709.456 346.469 709.18 346.734 708.836L347.617 709.523C346.909 710.612 345.846 711.156 344.43 711.156ZM344.25 703.578C343.667 703.578 343.177 703.792 342.781 704.219C342.385 704.641 342.141 705.234 342.047 706H346.281V705.891C346.24 705.156 346.042 704.589 345.688 704.188C345.333 703.781 344.854 703.578 344.25 703.578Z" fill="black"/>
</g>
<defs>
<clipPath id="clip0_117:18161">
<rect width="435" height="876" fill="white"/>
</clipPath>
</defs>
</svg>
