<svg width="435" height="876" viewBox="0 0 435 876" fill="none" xmlns="http://www.w3.org/2000/svg">
<g clip-path="url(#clip0_117:18035)">
<path d="M435.19 219.166H432.283L432.261 63.9799C432.261 28.8175 403.485 0.0212205 368.3 0.0212205L66.8054 0C31.6201 0 2.82246 28.7751 2.84369 63.9587V132.353H0V162.422H2.84369V195.823H0V255.983H2.84369V276.461H0V336.621H2.86491L2.90735 802.221C2.90735 837.384 31.6837 866.18 66.8691 866.18L368.363 866.201C403.549 866.201 432.346 837.426 432.325 802.243L432.283 315.422H435.19V219.166V219.166Z" fill="#BCBCBC"/>
<path d="M369.131 863.188L66.1277 863.167C33.0219 863.167 5.9218 836.068 5.9218 802.964L5.83691 63.2161C5.83691 30.0908 32.937 3.01343 66.0428 3.01343L369.046 3.03465C402.152 3.03465 429.252 30.1333 429.252 63.2373L429.337 802.986C429.337 836.111 402.258 863.188 369.131 863.188Z" fill="#DBDBDB"/>
<path d="M404.949 70.2824C404.949 46.0697 385.129 26.271 360.915 26.2497H312.679C310.642 26.2497 308.987 27.9049 308.987 29.9421C308.987 44.0962 297.4 55.6826 283.246 55.6826H139.09C124.935 55.6826 113.349 44.0962 113.349 29.9421V29.9209C113.349 27.8837 111.693 26.2285 109.656 26.2285H74.0682C49.8548 26.2285 30.0342 46.0485 30.0342 70.2611L30.0978 794.179C30.0978 818.391 49.9185 838.19 74.1319 838.211L361 838.233C385.214 838.233 405.034 818.413 405.034 794.2L404.949 70.2824Z" fill="white"/>
<path d="M281.177 830.926H152.823C151.274 830.926 150 829.6 150 827.986C150 826.373 151.274 825.047 152.823 825.047H281.177C282.726 825.047 284 826.373 284 827.986C283.979 829.6 282.726 830.926 281.177 830.926Z" fill="#BFBFBF"/>
<path d="M237.651 39.1945H198.349C196.505 39.1945 195 37.6534 195 35.765C195 33.8766 196.505 32.3354 198.349 32.3354H237.651C239.495 32.3354 241 33.8766 241 35.765C241 37.6534 239.495 39.1945 237.651 39.1945Z" fill="white"/>
<path d="M261.5 38.2148C262.881 38.2148 264 37.118 264 35.7651C264 34.4122 262.881 33.3154 261.5 33.3154C260.119 33.3154 259 34.4122 259 35.7651C259 37.118 260.119 38.2148 261.5 38.2148Z" fill="white"/>
<path d="M261.5 40.1745C263.985 40.1745 266 38.2004 266 35.7651C266 33.3299 263.985 31.3557 261.5 31.3557C259.015 31.3557 257 33.3299 257 35.7651C257 38.2004 259.015 40.1745 261.5 40.1745Z" stroke="white" stroke-width="0.924666" stroke-miterlimit="10"/>
<rect x="50" y="117" width="334" height="88" rx="20" fill="#C4C4C4"/>
<rect x="50" y="220" width="334" height="65" rx="20" fill="#C4C4C4"/>
<rect x="50" y="300" width="334" height="65" rx="20" fill="#C4C4C4"/>
<rect x="50" y="380" width="334" height="65" rx="20" fill="#C4C4C4"/>
<rect x="50" y="460" width="334" height="65" rx="20" fill="#C4C4C4"/>
<rect x="49" y="755" width="56" height="56" rx="28" fill="#C4C4C4"/>
<rect x="119" y="755" width="56" height="56" rx="28" fill="#C4C4C4"/>
<rect x="189" y="755" width="56" height="56" rx="28" fill="#C4C4C4"/>
<rect x="259" y="755" width="56" height="56" rx="28" fill="#C4C4C4"/>
<rect x="329" y="755" width="56" height="56" rx="28" fill="#C4C4C4"/>
<rect x="329" y="46" width="56" height="56" rx="28" fill="#C4C4C4"/>
<rect x="50" y="545" width="334" height="194" rx="20" fill="#C4C4C4"/>
<path d="M87.0703 160.68C87.0703 161.794 86.8828 162.768 86.5078 163.602C86.1328 164.43 85.6016 165.062 84.9141 165.5C84.2266 165.938 83.4245 166.156 82.5078 166.156C81.612 166.156 80.8177 165.938 80.125 165.5C79.4323 165.057 78.8932 164.43 78.5078 163.617C78.1276 162.799 77.9323 161.854 77.9219 160.781V159.961C77.9219 158.867 78.112 157.901 78.4922 157.062C78.8724 156.224 79.4089 155.583 80.1016 155.141C80.7995 154.693 81.5964 154.469 82.4922 154.469C83.4036 154.469 84.2057 154.69 84.8984 155.133C85.5964 155.57 86.1328 156.208 86.5078 157.047C86.8828 157.88 87.0703 158.852 87.0703 159.961V160.68ZM85.5781 159.945C85.5781 158.596 85.3073 157.562 84.7656 156.844C84.224 156.12 83.4661 155.758 82.4922 155.758C81.5443 155.758 80.7969 156.12 80.25 156.844C79.7083 157.562 79.4297 158.562 79.4141 159.844V160.68C79.4141 161.987 79.6875 163.016 80.2344 163.766C80.7865 164.51 81.5443 164.883 82.5078 164.883C83.4766 164.883 84.2266 164.531 84.7578 163.828C85.2891 163.12 85.5625 162.107 85.5781 160.789V159.945ZM91.8828 164.039L93.9766 157.547H95.4531L92.4219 166H91.3203L88.2578 157.547H89.7344L91.8828 164.039ZM100.242 166.156C99.0964 166.156 98.1641 165.781 97.4453 165.031C96.7266 164.276 96.3672 163.268 96.3672 162.008V161.742C96.3672 160.904 96.526 160.156 96.8438 159.5C97.1667 158.839 97.6146 158.323 98.1875 157.953C98.7656 157.578 99.3906 157.391 100.062 157.391C101.161 157.391 102.016 157.753 102.625 158.477C103.234 159.201 103.539 160.237 103.539 161.586V162.188H97.8125C97.8333 163.021 98.0755 163.695 98.5391 164.211C99.0078 164.721 99.6016 164.977 100.32 164.977C100.831 164.977 101.263 164.872 101.617 164.664C101.971 164.456 102.281 164.18 102.547 163.836L103.43 164.523C102.721 165.612 101.659 166.156 100.242 166.156ZM100.062 158.578C99.4792 158.578 98.9896 158.792 98.5938 159.219C98.1979 159.641 97.9531 160.234 97.8594 161H102.094V160.891C102.052 160.156 101.854 159.589 101.5 159.188C101.146 158.781 100.667 158.578 100.062 158.578ZM109.305 158.844C109.086 158.807 108.849 158.789 108.594 158.789C107.646 158.789 107.003 159.193 106.664 160V166H105.219V157.547H106.625L106.648 158.523C107.122 157.768 107.794 157.391 108.664 157.391C108.945 157.391 109.159 157.427 109.305 157.5V158.844ZM113.57 164.039L115.664 157.547H117.141L114.109 166H113.008L109.945 157.547H111.422L113.57 164.039ZM120.102 166H118.656V157.547H120.102V166ZM118.539 155.305C118.539 155.07 118.609 154.872 118.75 154.711C118.896 154.549 119.109 154.469 119.391 154.469C119.672 154.469 119.885 154.549 120.031 154.711C120.177 154.872 120.25 155.07 120.25 155.305C120.25 155.539 120.177 155.734 120.031 155.891C119.885 156.047 119.672 156.125 119.391 156.125C119.109 156.125 118.896 156.047 118.75 155.891C118.609 155.734 118.539 155.539 118.539 155.305ZM125.93 166.156C124.784 166.156 123.852 165.781 123.133 165.031C122.414 164.276 122.055 163.268 122.055 162.008V161.742C122.055 160.904 122.214 160.156 122.531 159.5C122.854 158.839 123.302 158.323 123.875 157.953C124.453 157.578 125.078 157.391 125.75 157.391C126.849 157.391 127.703 157.753 128.312 158.477C128.922 159.201 129.227 160.237 129.227 161.586V162.188H123.5C123.521 163.021 123.763 163.695 124.227 164.211C124.695 164.721 125.289 164.977 126.008 164.977C126.518 164.977 126.951 164.872 127.305 164.664C127.659 164.456 127.969 164.18 128.234 163.836L129.117 164.523C128.409 165.612 127.346 166.156 125.93 166.156ZM125.75 158.578C125.167 158.578 124.677 158.792 124.281 159.219C123.885 159.641 123.641 160.234 123.547 161H127.781V160.891C127.74 160.156 127.542 159.589 127.188 159.188C126.833 158.781 126.354 158.578 125.75 158.578ZM138.391 164.008L140.016 157.547H141.461L139 166H137.828L135.773 159.594L133.773 166H132.602L130.148 157.547H131.586L133.25 163.875L135.219 157.547H136.383L138.391 164.008Z" fill="black"/>
<path d="M74.3203 258V246.625H78.0391C79.2734 246.625 80.2005 246.88 80.8203 247.391C81.4453 247.901 81.7578 248.656 81.7578 249.656C81.7578 250.188 81.6068 250.659 81.3047 251.07C81.0026 251.477 80.5911 251.792 80.0703 252.016C80.6849 252.188 81.1693 252.516 81.5234 253C81.8828 253.479 82.0625 254.052 82.0625 254.719C82.0625 255.74 81.7318 256.542 81.0703 257.125C80.4089 257.708 79.474 258 78.2656 258H74.3203ZM75.8203 252.68V256.773H78.2969C78.9948 256.773 79.5443 256.594 79.9453 256.234C80.3516 255.87 80.5547 255.37 80.5547 254.734C80.5547 253.365 79.8099 252.68 78.3203 252.68H75.8203ZM75.8203 251.477H78.0859C78.7422 251.477 79.2656 251.312 79.6562 250.984C80.0521 250.656 80.25 250.211 80.25 249.648C80.25 249.023 80.0677 248.57 79.7031 248.289C79.3385 248.003 78.7839 247.859 78.0391 247.859H75.8203V251.477ZM85.6328 258H84.1875V249.547H85.6328V258ZM84.0703 247.305C84.0703 247.07 84.1406 246.872 84.2812 246.711C84.4271 246.549 84.6406 246.469 84.9219 246.469C85.2031 246.469 85.4167 246.549 85.5625 246.711C85.7083 246.872 85.7812 247.07 85.7812 247.305C85.7812 247.539 85.7083 247.734 85.5625 247.891C85.4167 248.047 85.2031 248.125 84.9219 248.125C84.6406 248.125 84.4271 248.047 84.2812 247.891C84.1406 247.734 84.0703 247.539 84.0703 247.305ZM89.5234 258H88.0781V246H89.5234V258ZM93.4141 258H91.9688V246H93.4141V258ZM100.656 255.758C100.656 255.367 100.508 255.065 100.211 254.852C99.9193 254.633 99.4062 254.445 98.6719 254.289C97.9427 254.133 97.362 253.945 96.9297 253.727C96.5026 253.508 96.1849 253.247 95.9766 252.945C95.7734 252.643 95.6719 252.284 95.6719 251.867C95.6719 251.174 95.9635 250.589 96.5469 250.109C97.1354 249.63 97.8854 249.391 98.7969 249.391C99.7552 249.391 100.531 249.638 101.125 250.133C101.724 250.628 102.023 251.26 102.023 252.031H100.57C100.57 251.635 100.401 251.294 100.062 251.008C99.7292 250.721 99.3073 250.578 98.7969 250.578C98.2708 250.578 97.8594 250.693 97.5625 250.922C97.2656 251.151 97.1172 251.451 97.1172 251.82C97.1172 252.169 97.2552 252.432 97.5312 252.609C97.8073 252.786 98.3047 252.956 99.0234 253.117C99.7474 253.279 100.333 253.471 100.781 253.695C101.229 253.919 101.56 254.19 101.773 254.508C101.992 254.82 102.102 255.203 102.102 255.656C102.102 256.411 101.799 257.018 101.195 257.477C100.591 257.93 99.8073 258.156 98.8438 258.156C98.1667 258.156 97.5677 258.036 97.0469 257.797C96.526 257.557 96.1172 257.224 95.8203 256.797C95.5286 256.365 95.3828 255.898 95.3828 255.398H96.8281C96.8542 255.883 97.0469 256.268 97.4062 256.555C97.7708 256.836 98.25 256.977 98.8438 256.977C99.3906 256.977 99.8281 256.867 100.156 256.648C100.49 256.424 100.656 256.128 100.656 255.758Z" fill="black"/>
<path d="M74.3203 338V326.625H77.5312C78.5208 326.625 79.3958 326.844 80.1562 327.281C80.9167 327.719 81.5026 328.341 81.9141 329.148C82.3307 329.956 82.5417 330.883 82.5469 331.93V332.656C82.5469 333.729 82.3385 334.669 81.9219 335.477C81.5104 336.284 80.9193 336.904 80.1484 337.336C79.3828 337.768 78.4896 337.99 77.4688 338H74.3203ZM75.8203 327.859V336.773H77.3984C78.5547 336.773 79.4531 336.414 80.0938 335.695C80.7396 334.977 81.0625 333.953 81.0625 332.625V331.961C81.0625 330.669 80.7578 329.667 80.1484 328.953C79.5443 328.234 78.6849 327.87 77.5703 327.859H75.8203ZM88.1016 338.156C86.9557 338.156 86.0234 337.781 85.3047 337.031C84.5859 336.276 84.2266 335.268 84.2266 334.008V333.742C84.2266 332.904 84.3854 332.156 84.7031 331.5C85.026 330.839 85.474 330.323 86.0469 329.953C86.625 329.578 87.25 329.391 87.9219 329.391C89.0208 329.391 89.875 329.753 90.4844 330.477C91.0938 331.201 91.3984 332.237 91.3984 333.586V334.188H85.6719C85.6927 335.021 85.9349 335.695 86.3984 336.211C86.8672 336.721 87.4609 336.977 88.1797 336.977C88.6901 336.977 89.1224 336.872 89.4766 336.664C89.8307 336.456 90.1406 336.18 90.4062 335.836L91.2891 336.523C90.5807 337.612 89.5182 338.156 88.1016 338.156ZM87.9219 330.578C87.3385 330.578 86.849 330.792 86.4531 331.219C86.0573 331.641 85.8125 332.234 85.7188 333H89.9531V332.891C89.9115 332.156 89.7135 331.589 89.3594 331.188C89.0052 330.781 88.526 330.578 87.9219 330.578ZM100.234 333.867C100.234 335.159 99.9375 336.198 99.3438 336.984C98.75 337.766 97.9531 338.156 96.9531 338.156C95.8854 338.156 95.0599 337.779 94.4766 337.023L94.4062 338H93.0781V326H94.5234V330.477C95.1068 329.753 95.9115 329.391 96.9375 329.391C97.9635 329.391 98.7682 329.779 99.3516 330.555C99.9401 331.331 100.234 332.393 100.234 333.742V333.867ZM98.7891 333.703C98.7891 332.719 98.599 331.958 98.2188 331.422C97.8385 330.885 97.2917 330.617 96.5781 330.617C95.625 330.617 94.9401 331.06 94.5234 331.945V335.602C94.9661 336.487 95.6562 336.93 96.5938 336.93C97.2865 336.93 97.8255 336.661 98.2109 336.125C98.5964 335.589 98.7891 334.781 98.7891 333.703ZM104.023 327.5V329.547H105.602V330.664H104.023V335.906C104.023 336.245 104.094 336.5 104.234 336.672C104.375 336.839 104.615 336.922 104.953 336.922C105.12 336.922 105.349 336.891 105.641 336.828V338C105.26 338.104 104.891 338.156 104.531 338.156C103.885 338.156 103.398 337.961 103.07 337.57C102.742 337.18 102.578 336.625 102.578 335.906V330.664H101.039V329.547H102.578V327.5H104.023Z" fill="black"/>
<path d="M77.6719 412.93C76.3854 412.56 75.4479 412.107 74.8594 411.57C74.276 411.029 73.9844 410.362 73.9844 409.57C73.9844 408.674 74.3411 407.935 75.0547 407.352C75.7734 406.763 76.7057 406.469 77.8516 406.469C78.6328 406.469 79.3281 406.62 79.9375 406.922C80.5521 407.224 81.026 407.641 81.3594 408.172C81.6979 408.703 81.8672 409.284 81.8672 409.914H80.3594C80.3594 409.227 80.1406 408.688 79.7031 408.297C79.2656 407.901 78.6484 407.703 77.8516 407.703C77.112 407.703 76.5339 407.867 76.1172 408.195C75.7057 408.518 75.5 408.969 75.5 409.547C75.5 410.01 75.6953 410.404 76.0859 410.727C76.4818 411.044 77.151 411.336 78.0938 411.602C79.0417 411.867 79.7812 412.161 80.3125 412.484C80.849 412.802 81.2448 413.174 81.5 413.602C81.7604 414.029 81.8906 414.531 81.8906 415.109C81.8906 416.031 81.5312 416.771 80.8125 417.328C80.0938 417.88 79.1328 418.156 77.9297 418.156C77.1484 418.156 76.4193 418.008 75.7422 417.711C75.0651 417.409 74.5417 416.997 74.1719 416.477C73.8073 415.956 73.625 415.365 73.625 414.703H75.1328C75.1328 415.391 75.3854 415.935 75.8906 416.336C76.401 416.732 77.0807 416.93 77.9297 416.93C78.7214 416.93 79.3281 416.768 79.75 416.445C80.1719 416.122 80.3828 415.682 80.3828 415.125C80.3828 414.568 80.1875 414.138 79.7969 413.836C79.4062 413.529 78.6979 413.227 77.6719 412.93ZM88.8125 418C88.7292 417.833 88.6615 417.536 88.6094 417.109C87.9375 417.807 87.1354 418.156 86.2031 418.156C85.3698 418.156 84.6849 417.922 84.1484 417.453C83.6172 416.979 83.3516 416.38 83.3516 415.656C83.3516 414.776 83.6849 414.094 84.3516 413.609C85.0234 413.12 85.9661 412.875 87.1797 412.875H88.5859V412.211C88.5859 411.706 88.4349 411.305 88.1328 411.008C87.8307 410.706 87.3854 410.555 86.7969 410.555C86.2812 410.555 85.849 410.685 85.5 410.945C85.151 411.206 84.9766 411.521 84.9766 411.891H83.5234C83.5234 411.469 83.6719 411.062 83.9688 410.672C84.2708 410.276 84.6771 409.964 85.1875 409.734C85.7031 409.505 86.2682 409.391 86.8828 409.391C87.8568 409.391 88.6198 409.635 89.1719 410.125C89.724 410.609 90.0104 411.279 90.0312 412.133V416.023C90.0312 416.799 90.1302 417.417 90.3281 417.875V418H88.8125ZM86.4141 416.898C86.8672 416.898 87.2969 416.781 87.7031 416.547C88.1094 416.312 88.4036 416.008 88.5859 415.633V413.898H87.4531C85.6823 413.898 84.7969 414.417 84.7969 415.453C84.7969 415.906 84.9479 416.26 85.25 416.516C85.5521 416.771 85.9401 416.898 86.4141 416.898ZM94.9609 416.039L97.0547 409.547H98.5312L95.5 418H94.3984L91.3359 409.547H92.8125L94.9609 416.039ZM101.492 418H100.047V409.547H101.492V418ZM99.9297 407.305C99.9297 407.07 100 406.872 100.141 406.711C100.286 406.549 100.5 406.469 100.781 406.469C101.062 406.469 101.276 406.549 101.422 406.711C101.568 406.872 101.641 407.07 101.641 407.305C101.641 407.539 101.568 407.734 101.422 407.891C101.276 408.047 101.062 408.125 100.781 408.125C100.5 408.125 100.286 408.047 100.141 407.891C100 407.734 99.9297 407.539 99.9297 407.305ZM105.18 409.547L105.227 410.609C105.872 409.797 106.716 409.391 107.758 409.391C109.544 409.391 110.445 410.398 110.461 412.414V418H109.016V412.406C109.01 411.797 108.87 411.346 108.594 411.055C108.323 410.763 107.898 410.617 107.32 410.617C106.852 410.617 106.44 410.742 106.086 410.992C105.732 411.242 105.456 411.57 105.258 411.977V418H103.812V409.547H105.18ZM112.297 413.703C112.297 412.385 112.602 411.339 113.211 410.562C113.82 409.781 114.628 409.391 115.633 409.391C116.664 409.391 117.469 409.755 118.047 410.484L118.117 409.547H119.438V417.797C119.438 418.891 119.112 419.753 118.461 420.383C117.815 421.013 116.945 421.328 115.852 421.328C115.242 421.328 114.646 421.198 114.062 420.938C113.479 420.677 113.034 420.32 112.727 419.867L113.477 419C114.096 419.766 114.854 420.148 115.75 420.148C116.453 420.148 117 419.951 117.391 419.555C117.786 419.159 117.984 418.602 117.984 417.883V417.156C117.406 417.823 116.617 418.156 115.617 418.156C114.628 418.156 113.826 417.758 113.211 416.961C112.602 416.164 112.297 415.078 112.297 413.703ZM113.75 413.867C113.75 414.82 113.945 415.57 114.336 416.117C114.727 416.659 115.273 416.93 115.977 416.93C116.888 416.93 117.557 416.516 117.984 415.688V411.828C117.542 411.021 116.878 410.617 115.992 410.617C115.289 410.617 114.74 410.891 114.344 411.438C113.948 411.984 113.75 412.794 113.75 413.867ZM126.547 415.758C126.547 415.367 126.398 415.065 126.102 414.852C125.81 414.633 125.297 414.445 124.562 414.289C123.833 414.133 123.253 413.945 122.82 413.727C122.393 413.508 122.076 413.247 121.867 412.945C121.664 412.643 121.562 412.284 121.562 411.867C121.562 411.174 121.854 410.589 122.438 410.109C123.026 409.63 123.776 409.391 124.688 409.391C125.646 409.391 126.422 409.638 127.016 410.133C127.615 410.628 127.914 411.26 127.914 412.031H126.461C126.461 411.635 126.292 411.294 125.953 411.008C125.62 410.721 125.198 410.578 124.688 410.578C124.161 410.578 123.75 410.693 123.453 410.922C123.156 411.151 123.008 411.451 123.008 411.82C123.008 412.169 123.146 412.432 123.422 412.609C123.698 412.786 124.195 412.956 124.914 413.117C125.638 413.279 126.224 413.471 126.672 413.695C127.12 413.919 127.451 414.19 127.664 414.508C127.883 414.82 127.992 415.203 127.992 415.656C127.992 416.411 127.69 417.018 127.086 417.477C126.482 417.93 125.698 418.156 124.734 418.156C124.057 418.156 123.458 418.036 122.938 417.797C122.417 417.557 122.008 417.224 121.711 416.797C121.419 416.365 121.273 415.898 121.273 415.398H122.719C122.745 415.883 122.938 416.268 123.297 416.555C123.661 416.836 124.141 416.977 124.734 416.977C125.281 416.977 125.719 416.867 126.047 416.648C126.38 416.424 126.547 416.128 126.547 415.758Z" fill="black"/>
<path d="M75.9297 498H74.4297V486.625H75.9297V498ZM79.8203 489.547L79.8672 490.609C80.513 489.797 81.3568 489.391 82.3984 489.391C84.1849 489.391 85.0859 490.398 85.1016 492.414V498H83.6562V492.406C83.651 491.797 83.5104 491.346 83.2344 491.055C82.9635 490.763 82.5391 490.617 81.9609 490.617C81.4922 490.617 81.0807 490.742 80.7266 490.992C80.3724 491.242 80.0964 491.57 79.8984 491.977V498H78.4531V489.547H79.8203ZM90.6719 496.977C91.1875 496.977 91.638 496.82 92.0234 496.508C92.4089 496.195 92.6224 495.805 92.6641 495.336H94.0312C94.0052 495.82 93.8385 496.281 93.5312 496.719C93.224 497.156 92.8125 497.505 92.2969 497.766C91.7865 498.026 91.2448 498.156 90.6719 498.156C89.5208 498.156 88.6042 497.773 87.9219 497.008C87.2448 496.237 86.9062 495.185 86.9062 493.852V493.609C86.9062 492.786 87.0573 492.055 87.3594 491.414C87.6615 490.773 88.0938 490.276 88.6562 489.922C89.224 489.568 89.8932 489.391 90.6641 489.391C91.612 489.391 92.3984 489.674 93.0234 490.242C93.6536 490.81 93.9896 491.547 94.0312 492.453H92.6641C92.6224 491.906 92.4141 491.458 92.0391 491.109C91.6693 490.755 91.2109 490.578 90.6641 490.578C89.9297 490.578 89.3594 490.844 88.9531 491.375C88.5521 491.901 88.3516 492.664 88.3516 493.664V493.938C88.3516 494.911 88.5521 495.661 88.9531 496.188C89.3542 496.714 89.9271 496.977 90.6719 496.977ZM95.2734 493.695C95.2734 492.867 95.4349 492.122 95.7578 491.461C96.0859 490.799 96.5391 490.289 97.1172 489.93C97.7005 489.57 98.3646 489.391 99.1094 489.391C100.26 489.391 101.19 489.789 101.898 490.586C102.612 491.383 102.969 492.443 102.969 493.766V493.867C102.969 494.69 102.81 495.43 102.492 496.086C102.18 496.737 101.729 497.245 101.141 497.609C100.557 497.974 99.8854 498.156 99.125 498.156C97.9792 498.156 97.0495 497.758 96.3359 496.961C95.6276 496.164 95.2734 495.109 95.2734 493.797V493.695ZM96.7266 493.867C96.7266 494.805 96.9427 495.557 97.375 496.125C97.8125 496.693 98.3958 496.977 99.125 496.977C99.8594 496.977 100.443 496.69 100.875 496.117C101.307 495.539 101.523 494.732 101.523 493.695C101.523 492.768 101.302 492.018 100.859 491.445C100.422 490.867 99.8385 490.578 99.1094 490.578C98.3958 490.578 97.8203 490.862 97.3828 491.43C96.9453 491.997 96.7266 492.81 96.7266 493.867ZM106.141 489.547L106.18 490.484C106.799 489.755 107.635 489.391 108.688 489.391C109.87 489.391 110.674 489.844 111.102 490.75C111.383 490.344 111.747 490.016 112.195 489.766C112.648 489.516 113.182 489.391 113.797 489.391C115.651 489.391 116.594 490.372 116.625 492.336V498H115.18V492.422C115.18 491.818 115.042 491.367 114.766 491.07C114.49 490.768 114.026 490.617 113.375 490.617C112.839 490.617 112.393 490.779 112.039 491.102C111.685 491.419 111.479 491.849 111.422 492.391V498H109.969V492.461C109.969 491.232 109.367 490.617 108.164 490.617C107.216 490.617 106.568 491.021 106.219 491.828V498H104.773V489.547H106.141ZM122.32 498.156C121.174 498.156 120.242 497.781 119.523 497.031C118.805 496.276 118.445 495.268 118.445 494.008V493.742C118.445 492.904 118.604 492.156 118.922 491.5C119.245 490.839 119.693 490.323 120.266 489.953C120.844 489.578 121.469 489.391 122.141 489.391C123.24 489.391 124.094 489.753 124.703 490.477C125.312 491.201 125.617 492.237 125.617 493.586V494.188H119.891C119.911 495.021 120.154 495.695 120.617 496.211C121.086 496.721 121.68 496.977 122.398 496.977C122.909 496.977 123.341 496.872 123.695 496.664C124.049 496.456 124.359 496.18 124.625 495.836L125.508 496.523C124.799 497.612 123.737 498.156 122.32 498.156ZM122.141 490.578C121.557 490.578 121.068 490.792 120.672 491.219C120.276 491.641 120.031 492.234 119.938 493H124.172V492.891C124.13 492.156 123.932 491.589 123.578 491.188C123.224 490.781 122.745 490.578 122.141 490.578Z" fill="black"/>
<path d="M82.1797 637.859H78.5234V648H77.0312V637.859H73.3828V636.625H82.1797V637.859ZM87.1328 640.844C86.9141 640.807 86.6771 640.789 86.4219 640.789C85.474 640.789 84.8307 641.193 84.4922 642V648H83.0469V639.547H84.4531L84.4766 640.523C84.9505 639.768 85.6224 639.391 86.4922 639.391C86.7734 639.391 86.987 639.427 87.1328 639.5V640.844ZM93.375 648C93.2917 647.833 93.224 647.536 93.1719 647.109C92.5 647.807 91.6979 648.156 90.7656 648.156C89.9323 648.156 89.2474 647.922 88.7109 647.453C88.1797 646.979 87.9141 646.38 87.9141 645.656C87.9141 644.776 88.2474 644.094 88.9141 643.609C89.5859 643.12 90.5286 642.875 91.7422 642.875H93.1484V642.211C93.1484 641.706 92.9974 641.305 92.6953 641.008C92.3932 640.706 91.9479 640.555 91.3594 640.555C90.8438 640.555 90.4115 640.685 90.0625 640.945C89.7135 641.206 89.5391 641.521 89.5391 641.891H88.0859C88.0859 641.469 88.2344 641.062 88.5312 640.672C88.8333 640.276 89.2396 639.964 89.75 639.734C90.2656 639.505 90.8307 639.391 91.4453 639.391C92.4193 639.391 93.1823 639.635 93.7344 640.125C94.2865 640.609 94.5729 641.279 94.5938 642.133V646.023C94.5938 646.799 94.6927 647.417 94.8906 647.875V648H93.375ZM90.9766 646.898C91.4297 646.898 91.8594 646.781 92.2656 646.547C92.6719 646.312 92.9661 646.008 93.1484 645.633V643.898H92.0156C90.2448 643.898 89.3594 644.417 89.3594 645.453C89.3594 645.906 89.5104 646.26 89.8125 646.516C90.1146 646.771 90.5026 646.898 90.9766 646.898ZM98.2266 639.547L98.2734 640.609C98.9193 639.797 99.763 639.391 100.805 639.391C102.591 639.391 103.492 640.398 103.508 642.414V648H102.062V642.406C102.057 641.797 101.917 641.346 101.641 641.055C101.37 640.763 100.945 640.617 100.367 640.617C99.8984 640.617 99.487 640.742 99.1328 640.992C98.7786 641.242 98.5026 641.57 98.3047 641.977V648H96.8594V639.547H98.2266ZM110.609 645.758C110.609 645.367 110.461 645.065 110.164 644.852C109.872 644.633 109.359 644.445 108.625 644.289C107.896 644.133 107.315 643.945 106.883 643.727C106.456 643.508 106.138 643.247 105.93 642.945C105.727 642.643 105.625 642.284 105.625 641.867C105.625 641.174 105.917 640.589 106.5 640.109C107.089 639.63 107.839 639.391 108.75 639.391C109.708 639.391 110.484 639.638 111.078 640.133C111.677 640.628 111.977 641.26 111.977 642.031H110.523C110.523 641.635 110.354 641.294 110.016 641.008C109.682 640.721 109.26 640.578 108.75 640.578C108.224 640.578 107.812 640.693 107.516 640.922C107.219 641.151 107.07 641.451 107.07 641.82C107.07 642.169 107.208 642.432 107.484 642.609C107.76 642.786 108.258 642.956 108.977 643.117C109.701 643.279 110.286 643.471 110.734 643.695C111.182 643.919 111.513 644.19 111.727 644.508C111.945 644.82 112.055 645.203 112.055 645.656C112.055 646.411 111.753 647.018 111.148 647.477C110.544 647.93 109.76 648.156 108.797 648.156C108.12 648.156 107.521 648.036 107 647.797C106.479 647.557 106.07 647.224 105.773 646.797C105.482 646.365 105.336 645.898 105.336 645.398H106.781C106.807 645.883 107 646.268 107.359 646.555C107.724 646.836 108.203 646.977 108.797 646.977C109.344 646.977 109.781 646.867 110.109 646.648C110.443 646.424 110.609 646.128 110.609 645.758ZM119.156 648C119.073 647.833 119.005 647.536 118.953 647.109C118.281 647.807 117.479 648.156 116.547 648.156C115.714 648.156 115.029 647.922 114.492 647.453C113.961 646.979 113.695 646.38 113.695 645.656C113.695 644.776 114.029 644.094 114.695 643.609C115.367 643.12 116.31 642.875 117.523 642.875H118.93V642.211C118.93 641.706 118.779 641.305 118.477 641.008C118.174 640.706 117.729 640.555 117.141 640.555C116.625 640.555 116.193 640.685 115.844 640.945C115.495 641.206 115.32 641.521 115.32 641.891H113.867C113.867 641.469 114.016 641.062 114.312 640.672C114.615 640.276 115.021 639.964 115.531 639.734C116.047 639.505 116.612 639.391 117.227 639.391C118.201 639.391 118.964 639.635 119.516 640.125C120.068 640.609 120.354 641.279 120.375 642.133V646.023C120.375 646.799 120.474 647.417 120.672 647.875V648H119.156ZM116.758 646.898C117.211 646.898 117.641 646.781 118.047 646.547C118.453 646.312 118.747 646.008 118.93 645.633V643.898H117.797C116.026 643.898 115.141 644.417 115.141 645.453C115.141 645.906 115.292 646.26 115.594 646.516C115.896 646.771 116.284 646.898 116.758 646.898ZM126.031 646.977C126.547 646.977 126.997 646.82 127.383 646.508C127.768 646.195 127.982 645.805 128.023 645.336H129.391C129.365 645.82 129.198 646.281 128.891 646.719C128.583 647.156 128.172 647.505 127.656 647.766C127.146 648.026 126.604 648.156 126.031 648.156C124.88 648.156 123.964 647.773 123.281 647.008C122.604 646.237 122.266 645.185 122.266 643.852V643.609C122.266 642.786 122.417 642.055 122.719 641.414C123.021 640.773 123.453 640.276 124.016 639.922C124.583 639.568 125.253 639.391 126.023 639.391C126.971 639.391 127.758 639.674 128.383 640.242C129.013 640.81 129.349 641.547 129.391 642.453H128.023C127.982 641.906 127.773 641.458 127.398 641.109C127.029 640.755 126.57 640.578 126.023 640.578C125.289 640.578 124.719 640.844 124.312 641.375C123.911 641.901 123.711 642.664 123.711 643.664V643.938C123.711 644.911 123.911 645.661 124.312 646.188C124.714 646.714 125.286 646.977 126.031 646.977ZM132.977 637.5V639.547H134.555V640.664H132.977V645.906C132.977 646.245 133.047 646.5 133.188 646.672C133.328 646.839 133.568 646.922 133.906 646.922C134.073 646.922 134.302 646.891 134.594 646.828V648C134.214 648.104 133.844 648.156 133.484 648.156C132.839 648.156 132.352 647.961 132.023 647.57C131.695 647.18 131.531 646.625 131.531 645.906V640.664H129.992V639.547H131.531V637.5H132.977ZM137.82 648H136.375V639.547H137.82V648ZM136.258 637.305C136.258 637.07 136.328 636.872 136.469 636.711C136.615 636.549 136.828 636.469 137.109 636.469C137.391 636.469 137.604 636.549 137.75 636.711C137.896 636.872 137.969 637.07 137.969 637.305C137.969 637.539 137.896 637.734 137.75 637.891C137.604 638.047 137.391 638.125 137.109 638.125C136.828 638.125 136.615 638.047 136.469 637.891C136.328 637.734 136.258 637.539 136.258 637.305ZM139.758 643.695C139.758 642.867 139.919 642.122 140.242 641.461C140.57 640.799 141.023 640.289 141.602 639.93C142.185 639.57 142.849 639.391 143.594 639.391C144.745 639.391 145.674 639.789 146.383 640.586C147.096 641.383 147.453 642.443 147.453 643.766V643.867C147.453 644.69 147.294 645.43 146.977 646.086C146.664 646.737 146.214 647.245 145.625 647.609C145.042 647.974 144.37 648.156 143.609 648.156C142.464 648.156 141.534 647.758 140.82 646.961C140.112 646.164 139.758 645.109 139.758 643.797V643.695ZM141.211 643.867C141.211 644.805 141.427 645.557 141.859 646.125C142.297 646.693 142.88 646.977 143.609 646.977C144.344 646.977 144.927 646.69 145.359 646.117C145.792 645.539 146.008 644.732 146.008 643.695C146.008 642.768 145.786 642.018 145.344 641.445C144.906 640.867 144.323 640.578 143.594 640.578C142.88 640.578 142.305 640.862 141.867 641.43C141.43 641.997 141.211 642.81 141.211 643.867ZM150.633 639.547L150.68 640.609C151.326 639.797 152.169 639.391 153.211 639.391C154.997 639.391 155.898 640.398 155.914 642.414V648H154.469V642.406C154.464 641.797 154.323 641.346 154.047 641.055C153.776 640.763 153.352 640.617 152.773 640.617C152.305 640.617 151.893 640.742 151.539 640.992C151.185 641.242 150.909 641.57 150.711 641.977V648H149.266V639.547H150.633ZM163.016 645.758C163.016 645.367 162.867 645.065 162.57 644.852C162.279 644.633 161.766 644.445 161.031 644.289C160.302 644.133 159.721 643.945 159.289 643.727C158.862 643.508 158.544 643.247 158.336 642.945C158.133 642.643 158.031 642.284 158.031 641.867C158.031 641.174 158.323 640.589 158.906 640.109C159.495 639.63 160.245 639.391 161.156 639.391C162.115 639.391 162.891 639.638 163.484 640.133C164.083 640.628 164.383 641.26 164.383 642.031H162.93C162.93 641.635 162.76 641.294 162.422 641.008C162.089 640.721 161.667 640.578 161.156 640.578C160.63 640.578 160.219 640.693 159.922 640.922C159.625 641.151 159.477 641.451 159.477 641.82C159.477 642.169 159.615 642.432 159.891 642.609C160.167 642.786 160.664 642.956 161.383 643.117C162.107 643.279 162.693 643.471 163.141 643.695C163.589 643.919 163.919 644.19 164.133 644.508C164.352 644.82 164.461 645.203 164.461 645.656C164.461 646.411 164.159 647.018 163.555 647.477C162.951 647.93 162.167 648.156 161.203 648.156C160.526 648.156 159.927 648.036 159.406 647.797C158.885 647.557 158.477 647.224 158.18 646.797C157.888 646.365 157.742 645.898 157.742 645.398H159.188C159.214 645.883 159.406 646.268 159.766 646.555C160.13 646.836 160.609 646.977 161.203 646.977C161.75 646.977 162.188 646.867 162.516 646.648C162.849 646.424 163.016 646.128 163.016 645.758Z" fill="black"/>
<path d="M357.5 61L357.5 87M344 73.5H371" stroke="black" stroke-width="2"/>
</g>
<defs>
<clipPath id="clip0_117:18035">
<rect width="435" height="876" fill="white"/>
</clipPath>
</defs>
</svg>
