<svg width="435" height="876" viewBox="0 0 435 876" fill="none" xmlns="http://www.w3.org/2000/svg">
<g clip-path="url(#clip0_117:18121)">
<path d="M435.19 219.166H432.283L432.261 63.9799C432.261 28.8175 403.485 0.0212205 368.3 0.0212205L66.8054 0C31.6201 0 2.82246 28.7751 2.84369 63.9587V132.353H0V162.422H2.84369V195.823H0V255.983H2.84369V276.461H0V336.621H2.86491L2.90735 802.221C2.90735 837.384 31.6837 866.18 66.8691 866.18L368.363 866.201C403.549 866.201 432.346 837.426 432.325 802.243L432.283 315.422H435.19V219.166V219.166Z" fill="#BCBCBC"/>
<path d="M369.131 863.188L66.1277 863.167C33.0219 863.167 5.9218 836.068 5.9218 802.964L5.83691 63.2161C5.83691 30.0908 32.937 3.01343 66.0428 3.01343L369.046 3.03465C402.152 3.03465 429.252 30.1333 429.252 63.2373L429.337 802.986C429.337 836.111 402.258 863.188 369.131 863.188Z" fill="#DBDBDB"/>
<path d="M404.949 70.2824C404.949 46.0697 385.129 26.271 360.915 26.2497H312.679C310.642 26.2497 308.987 27.9049 308.987 29.9421C308.987 44.0962 297.4 55.6826 283.246 55.6826H139.09C124.935 55.6826 113.349 44.0962 113.349 29.9421V29.9209C113.349 27.8837 111.693 26.2285 109.656 26.2285H74.0682C49.8548 26.2285 30.0342 46.0485 30.0342 70.2611L30.0978 794.179C30.0978 818.391 49.9185 838.19 74.1319 838.211L361 838.233C385.214 838.233 405.034 818.413 405.034 794.2L404.949 70.2824Z" fill="white"/>
<path d="M237.651 39.1945H198.349C196.505 39.1945 195 37.6534 195 35.765C195 33.8766 196.505 32.3354 198.349 32.3354H237.651C239.495 32.3354 241 33.8766 241 35.765C241 37.6534 239.495 39.1945 237.651 39.1945Z" fill="white"/>
<path d="M261.5 38.2148C262.881 38.2148 264 37.118 264 35.7651C264 34.4122 262.881 33.3154 261.5 33.3154C260.119 33.3154 259 34.4122 259 35.7651C259 37.118 260.119 38.2148 261.5 38.2148Z" fill="white"/>
<path d="M261.5 40.1745C263.985 40.1745 266 38.2004 266 35.7651C266 33.3299 263.985 31.3557 261.5 31.3557C259.015 31.3557 257 33.3299 257 35.7651C257 38.2004 259.015 40.1745 261.5 40.1745Z" stroke="white" stroke-width="0.924666" stroke-miterlimit="10"/>
<rect x="50" y="205" width="216" height="86" rx="20" fill="#C4C4C4"/>
<rect x="49" y="755" width="56" height="56" rx="28" fill="#C4C4C4"/>
<rect x="119" y="755" width="56" height="56" rx="28" fill="#C4C4C4"/>
<rect x="189" y="755" width="56" height="56" rx="28" fill="#C4C4C4"/>
<rect x="259" y="755" width="56" height="56" rx="28" fill="#C4C4C4"/>
<rect x="329" y="755" width="56" height="56" rx="28" fill="#C4C4C4"/>
<path d="M281.177 830.926H152.823C151.274 830.926 150 829.6 150 827.986C150 826.373 151.274 825.047 152.823 825.047H281.177C282.726 825.047 284 826.373 284 827.986C283.979 829.6 282.726 830.926 281.177 830.926Z" fill="#BFBFBF"/>
<rect x="329" y="46" width="56" height="56" rx="28" fill="#C4C4C4"/>
<path d="M357.5 61L357.5 87M344 73.5H371" stroke="black" stroke-width="2"/>
<path d="M71.6719 248.93C70.3854 248.56 69.4479 248.107 68.8594 247.57C68.276 247.029 67.9844 246.362 67.9844 245.57C67.9844 244.674 68.3411 243.935 69.0547 243.352C69.7734 242.763 70.7057 242.469 71.8516 242.469C72.6328 242.469 73.3281 242.62 73.9375 242.922C74.5521 243.224 75.026 243.641 75.3594 244.172C75.6979 244.703 75.8672 245.284 75.8672 245.914H74.3594C74.3594 245.227 74.1406 244.688 73.7031 244.297C73.2656 243.901 72.6484 243.703 71.8516 243.703C71.112 243.703 70.5339 243.867 70.1172 244.195C69.7057 244.518 69.5 244.969 69.5 245.547C69.5 246.01 69.6953 246.404 70.0859 246.727C70.4818 247.044 71.151 247.336 72.0938 247.602C73.0417 247.867 73.7812 248.161 74.3125 248.484C74.849 248.802 75.2448 249.174 75.5 249.602C75.7604 250.029 75.8906 250.531 75.8906 251.109C75.8906 252.031 75.5312 252.771 74.8125 253.328C74.0938 253.88 73.1328 254.156 71.9297 254.156C71.1484 254.156 70.4193 254.008 69.7422 253.711C69.0651 253.409 68.5417 252.997 68.1719 252.477C67.8073 251.956 67.625 251.365 67.625 250.703H69.1328C69.1328 251.391 69.3854 251.935 69.8906 252.336C70.401 252.732 71.0807 252.93 71.9297 252.93C72.7214 252.93 73.3281 252.768 73.75 252.445C74.1719 252.122 74.3828 251.682 74.3828 251.125C74.3828 250.568 74.1875 250.138 73.7969 249.836C73.4062 249.529 72.6979 249.227 71.6719 248.93ZM82.8125 254C82.7292 253.833 82.6615 253.536 82.6094 253.109C81.9375 253.807 81.1354 254.156 80.2031 254.156C79.3698 254.156 78.6849 253.922 78.1484 253.453C77.6172 252.979 77.3516 252.38 77.3516 251.656C77.3516 250.776 77.6849 250.094 78.3516 249.609C79.0234 249.12 79.9661 248.875 81.1797 248.875H82.5859V248.211C82.5859 247.706 82.4349 247.305 82.1328 247.008C81.8307 246.706 81.3854 246.555 80.7969 246.555C80.2812 246.555 79.849 246.685 79.5 246.945C79.151 247.206 78.9766 247.521 78.9766 247.891H77.5234C77.5234 247.469 77.6719 247.062 77.9688 246.672C78.2708 246.276 78.6771 245.964 79.1875 245.734C79.7031 245.505 80.2682 245.391 80.8828 245.391C81.8568 245.391 82.6198 245.635 83.1719 246.125C83.724 246.609 84.0104 247.279 84.0312 248.133V252.023C84.0312 252.799 84.1302 253.417 84.3281 253.875V254H82.8125ZM80.4141 252.898C80.8672 252.898 81.2969 252.781 81.7031 252.547C82.1094 252.312 82.4036 252.008 82.5859 251.633V249.898H81.4531C79.6823 249.898 78.7969 250.417 78.7969 251.453C78.7969 251.906 78.9479 252.26 79.25 252.516C79.5521 252.771 79.9401 252.898 80.4141 252.898ZM88.9609 252.039L91.0547 245.547H92.5312L89.5 254H88.3984L85.3359 245.547H86.8125L88.9609 252.039ZM95.4922 254H94.0469V245.547H95.4922V254ZM93.9297 243.305C93.9297 243.07 94 242.872 94.1406 242.711C94.2865 242.549 94.5 242.469 94.7812 242.469C95.0625 242.469 95.276 242.549 95.4219 242.711C95.5677 242.872 95.6406 243.07 95.6406 243.305C95.6406 243.539 95.5677 243.734 95.4219 243.891C95.276 244.047 95.0625 244.125 94.7812 244.125C94.5 244.125 94.2865 244.047 94.1406 243.891C94 243.734 93.9297 243.539 93.9297 243.305ZM99.1797 245.547L99.2266 246.609C99.8724 245.797 100.716 245.391 101.758 245.391C103.544 245.391 104.445 246.398 104.461 248.414V254H103.016V248.406C103.01 247.797 102.87 247.346 102.594 247.055C102.323 246.763 101.898 246.617 101.32 246.617C100.852 246.617 100.44 246.742 100.086 246.992C99.7318 247.242 99.4557 247.57 99.2578 247.977V254H97.8125V245.547H99.1797ZM106.297 249.703C106.297 248.385 106.602 247.339 107.211 246.562C107.82 245.781 108.628 245.391 109.633 245.391C110.664 245.391 111.469 245.755 112.047 246.484L112.117 245.547H113.438V253.797C113.438 254.891 113.112 255.753 112.461 256.383C111.815 257.013 110.945 257.328 109.852 257.328C109.242 257.328 108.646 257.198 108.062 256.938C107.479 256.677 107.034 256.32 106.727 255.867L107.477 255C108.096 255.766 108.854 256.148 109.75 256.148C110.453 256.148 111 255.951 111.391 255.555C111.786 255.159 111.984 254.602 111.984 253.883V253.156C111.406 253.823 110.617 254.156 109.617 254.156C108.628 254.156 107.826 253.758 107.211 252.961C106.602 252.164 106.297 251.078 106.297 249.703ZM107.75 249.867C107.75 250.82 107.945 251.57 108.336 252.117C108.727 252.659 109.273 252.93 109.977 252.93C110.888 252.93 111.557 252.516 111.984 251.688V247.828C111.542 247.021 110.878 246.617 109.992 246.617C109.289 246.617 108.74 246.891 108.344 247.438C107.948 247.984 107.75 248.794 107.75 249.867ZM120.547 251.758C120.547 251.367 120.398 251.065 120.102 250.852C119.81 250.633 119.297 250.445 118.562 250.289C117.833 250.133 117.253 249.945 116.82 249.727C116.393 249.508 116.076 249.247 115.867 248.945C115.664 248.643 115.562 248.284 115.562 247.867C115.562 247.174 115.854 246.589 116.438 246.109C117.026 245.63 117.776 245.391 118.688 245.391C119.646 245.391 120.422 245.638 121.016 246.133C121.615 246.628 121.914 247.26 121.914 248.031H120.461C120.461 247.635 120.292 247.294 119.953 247.008C119.62 246.721 119.198 246.578 118.688 246.578C118.161 246.578 117.75 246.693 117.453 246.922C117.156 247.151 117.008 247.451 117.008 247.82C117.008 248.169 117.146 248.432 117.422 248.609C117.698 248.786 118.195 248.956 118.914 249.117C119.638 249.279 120.224 249.471 120.672 249.695C121.12 249.919 121.451 250.19 121.664 250.508C121.883 250.82 121.992 251.203 121.992 251.656C121.992 252.411 121.69 253.018 121.086 253.477C120.482 253.93 119.698 254.156 118.734 254.156C118.057 254.156 117.458 254.036 116.938 253.797C116.417 253.557 116.008 253.224 115.711 252.797C115.419 252.365 115.273 251.898 115.273 251.398H116.719C116.745 251.883 116.938 252.268 117.297 252.555C117.661 252.836 118.141 252.977 118.734 252.977C119.281 252.977 119.719 252.867 120.047 252.648C120.38 252.424 120.547 252.128 120.547 251.758ZM127.5 249.703C127.5 248.385 127.805 247.339 128.414 246.562C129.023 245.781 129.831 245.391 130.836 245.391C131.867 245.391 132.672 245.755 133.25 246.484L133.32 245.547H134.641V253.797C134.641 254.891 134.315 255.753 133.664 256.383C133.018 257.013 132.148 257.328 131.055 257.328C130.445 257.328 129.849 257.198 129.266 256.938C128.682 256.677 128.237 256.32 127.93 255.867L128.68 255C129.299 255.766 130.057 256.148 130.953 256.148C131.656 256.148 132.203 255.951 132.594 255.555C132.99 255.159 133.188 254.602 133.188 253.883V253.156C132.609 253.823 131.82 254.156 130.82 254.156C129.831 254.156 129.029 253.758 128.414 252.961C127.805 252.164 127.5 251.078 127.5 249.703ZM128.953 249.867C128.953 250.82 129.148 251.57 129.539 252.117C129.93 252.659 130.477 252.93 131.18 252.93C132.091 252.93 132.76 252.516 133.188 251.688V247.828C132.745 247.021 132.081 246.617 131.195 246.617C130.492 246.617 129.943 246.891 129.547 247.438C129.151 247.984 128.953 248.794 128.953 249.867ZM136.445 249.695C136.445 248.867 136.607 248.122 136.93 247.461C137.258 246.799 137.711 246.289 138.289 245.93C138.872 245.57 139.536 245.391 140.281 245.391C141.432 245.391 142.362 245.789 143.07 246.586C143.784 247.383 144.141 248.443 144.141 249.766V249.867C144.141 250.69 143.982 251.43 143.664 252.086C143.352 252.737 142.901 253.245 142.312 253.609C141.729 253.974 141.057 254.156 140.297 254.156C139.151 254.156 138.221 253.758 137.508 252.961C136.799 252.164 136.445 251.109 136.445 249.797V249.695ZM137.898 249.867C137.898 250.805 138.115 251.557 138.547 252.125C138.984 252.693 139.568 252.977 140.297 252.977C141.031 252.977 141.615 252.69 142.047 252.117C142.479 251.539 142.695 250.732 142.695 249.695C142.695 248.768 142.474 248.018 142.031 247.445C141.594 246.867 141.01 246.578 140.281 246.578C139.568 246.578 138.992 246.862 138.555 247.43C138.117 247.997 137.898 248.81 137.898 249.867ZM151.172 254C151.089 253.833 151.021 253.536 150.969 253.109C150.297 253.807 149.495 254.156 148.562 254.156C147.729 254.156 147.044 253.922 146.508 253.453C145.977 252.979 145.711 252.38 145.711 251.656C145.711 250.776 146.044 250.094 146.711 249.609C147.383 249.12 148.326 248.875 149.539 248.875H150.945V248.211C150.945 247.706 150.794 247.305 150.492 247.008C150.19 246.706 149.745 246.555 149.156 246.555C148.641 246.555 148.208 246.685 147.859 246.945C147.51 247.206 147.336 247.521 147.336 247.891H145.883C145.883 247.469 146.031 247.062 146.328 246.672C146.63 246.276 147.036 245.964 147.547 245.734C148.062 245.505 148.628 245.391 149.242 245.391C150.216 245.391 150.979 245.635 151.531 246.125C152.083 246.609 152.37 247.279 152.391 248.133V252.023C152.391 252.799 152.49 253.417 152.688 253.875V254H151.172ZM148.773 252.898C149.227 252.898 149.656 252.781 150.062 252.547C150.469 252.312 150.763 252.008 150.945 251.633V249.898H149.812C148.042 249.898 147.156 250.417 147.156 251.453C147.156 251.906 147.307 252.26 147.609 252.516C147.911 252.771 148.299 252.898 148.773 252.898ZM156.227 254H154.781V242H156.227V254Z" fill="black"/>
<rect x="51" y="418" width="334" height="65" rx="20" fill="#C4C4C4"/>
<path d="M75.2578 444.625L78.9766 453.906L82.6953 444.625H84.6406V456H83.1406V451.57L83.2812 446.789L79.5469 456H78.3984L74.6719 446.812L74.8203 451.57V456H73.3203V444.625H75.2578ZM86.6797 451.695C86.6797 450.867 86.8411 450.122 87.1641 449.461C87.4922 448.799 87.9453 448.289 88.5234 447.93C89.1068 447.57 89.7708 447.391 90.5156 447.391C91.6667 447.391 92.5964 447.789 93.3047 448.586C94.0182 449.383 94.375 450.443 94.375 451.766V451.867C94.375 452.69 94.2161 453.43 93.8984 454.086C93.5859 454.737 93.1354 455.245 92.5469 455.609C91.9635 455.974 91.2917 456.156 90.5312 456.156C89.3854 456.156 88.4557 455.758 87.7422 454.961C87.0339 454.164 86.6797 453.109 86.6797 451.797V451.695ZM88.1328 451.867C88.1328 452.805 88.349 453.557 88.7812 454.125C89.2188 454.693 89.8021 454.977 90.5312 454.977C91.2656 454.977 91.849 454.69 92.2812 454.117C92.7135 453.539 92.9297 452.732 92.9297 451.695C92.9297 450.768 92.7083 450.018 92.2656 449.445C91.8281 448.867 91.2448 448.578 90.5156 448.578C89.8021 448.578 89.2266 448.862 88.7891 449.43C88.3516 449.997 88.1328 450.81 88.1328 451.867ZM97.5547 447.547L97.6016 448.609C98.2474 447.797 99.0911 447.391 100.133 447.391C101.919 447.391 102.82 448.398 102.836 450.414V456H101.391V450.406C101.385 449.797 101.245 449.346 100.969 449.055C100.698 448.763 100.273 448.617 99.6953 448.617C99.2266 448.617 98.8151 448.742 98.4609 448.992C98.1068 449.242 97.8307 449.57 97.6328 449.977V456H96.1875V447.547H97.5547ZM108.523 456.156C107.378 456.156 106.445 455.781 105.727 455.031C105.008 454.276 104.648 453.268 104.648 452.008V451.742C104.648 450.904 104.807 450.156 105.125 449.5C105.448 448.839 105.896 448.323 106.469 447.953C107.047 447.578 107.672 447.391 108.344 447.391C109.443 447.391 110.297 447.753 110.906 448.477C111.516 449.201 111.82 450.237 111.82 451.586V452.188H106.094C106.115 453.021 106.357 453.695 106.82 454.211C107.289 454.721 107.883 454.977 108.602 454.977C109.112 454.977 109.544 454.872 109.898 454.664C110.253 454.456 110.562 454.18 110.828 453.836L111.711 454.523C111.003 455.612 109.94 456.156 108.523 456.156ZM108.344 448.578C107.76 448.578 107.271 448.792 106.875 449.219C106.479 449.641 106.234 450.234 106.141 451H110.375V450.891C110.333 450.156 110.135 449.589 109.781 449.188C109.427 448.781 108.948 448.578 108.344 448.578ZM116.156 453.883L118.125 447.547H119.672L116.273 457.305C115.747 458.711 114.911 459.414 113.766 459.414L113.492 459.391L112.953 459.289V458.117L113.344 458.148C113.833 458.148 114.214 458.049 114.484 457.852C114.76 457.654 114.987 457.292 115.164 456.766L115.484 455.906L112.469 447.547H114.047L116.156 453.883ZM130.156 456C130.073 455.833 130.005 455.536 129.953 455.109C129.281 455.807 128.479 456.156 127.547 456.156C126.714 456.156 126.029 455.922 125.492 455.453C124.961 454.979 124.695 454.38 124.695 453.656C124.695 452.776 125.029 452.094 125.695 451.609C126.367 451.12 127.31 450.875 128.523 450.875H129.93V450.211C129.93 449.706 129.779 449.305 129.477 449.008C129.174 448.706 128.729 448.555 128.141 448.555C127.625 448.555 127.193 448.685 126.844 448.945C126.495 449.206 126.32 449.521 126.32 449.891H124.867C124.867 449.469 125.016 449.062 125.312 448.672C125.615 448.276 126.021 447.964 126.531 447.734C127.047 447.505 127.612 447.391 128.227 447.391C129.201 447.391 129.964 447.635 130.516 448.125C131.068 448.609 131.354 449.279 131.375 450.133V454.023C131.375 454.799 131.474 455.417 131.672 455.875V456H130.156ZM127.758 454.898C128.211 454.898 128.641 454.781 129.047 454.547C129.453 454.312 129.747 454.008 129.93 453.633V451.898H128.797C127.026 451.898 126.141 452.417 126.141 453.453C126.141 453.906 126.292 454.26 126.594 454.516C126.896 454.771 127.284 454.898 127.758 454.898ZM133.289 451.703C133.289 450.406 133.596 449.365 134.211 448.578C134.826 447.786 135.63 447.391 136.625 447.391C137.615 447.391 138.398 447.729 138.977 448.406V444H140.422V456H139.094L139.023 455.094C138.445 455.802 137.641 456.156 136.609 456.156C135.63 456.156 134.831 455.755 134.211 454.953C133.596 454.151 133.289 453.104 133.289 451.812V451.703ZM134.734 451.867C134.734 452.826 134.932 453.576 135.328 454.117C135.724 454.659 136.271 454.93 136.969 454.93C137.885 454.93 138.555 454.518 138.977 453.695V449.812C138.544 449.016 137.88 448.617 136.984 448.617C136.276 448.617 135.724 448.891 135.328 449.438C134.932 449.984 134.734 450.794 134.734 451.867ZM142.32 451.703C142.32 450.406 142.628 449.365 143.242 448.578C143.857 447.786 144.661 447.391 145.656 447.391C146.646 447.391 147.43 447.729 148.008 448.406V444H149.453V456H148.125L148.055 455.094C147.477 455.802 146.672 456.156 145.641 456.156C144.661 456.156 143.862 455.755 143.242 454.953C142.628 454.151 142.32 453.104 142.32 451.812V451.703ZM143.766 451.867C143.766 452.826 143.964 453.576 144.359 454.117C144.755 454.659 145.302 454.93 146 454.93C146.917 454.93 147.586 454.518 148.008 453.695V449.812C147.576 449.016 146.911 448.617 146.016 448.617C145.307 448.617 144.755 448.891 144.359 449.438C143.964 449.984 143.766 450.794 143.766 451.867ZM155.211 456.156C154.065 456.156 153.133 455.781 152.414 455.031C151.695 454.276 151.336 453.268 151.336 452.008V451.742C151.336 450.904 151.495 450.156 151.812 449.5C152.135 448.839 152.583 448.323 153.156 447.953C153.734 447.578 154.359 447.391 155.031 447.391C156.13 447.391 156.984 447.753 157.594 448.477C158.203 449.201 158.508 450.237 158.508 451.586V452.188H152.781C152.802 453.021 153.044 453.695 153.508 454.211C153.977 454.721 154.57 454.977 155.289 454.977C155.799 454.977 156.232 454.872 156.586 454.664C156.94 454.456 157.25 454.18 157.516 453.836L158.398 454.523C157.69 455.612 156.628 456.156 155.211 456.156ZM155.031 448.578C154.448 448.578 153.958 448.792 153.562 449.219C153.167 449.641 152.922 450.234 152.828 451H157.062V450.891C157.021 450.156 156.823 449.589 156.469 449.188C156.115 448.781 155.635 448.578 155.031 448.578ZM159.836 451.703C159.836 450.406 160.143 449.365 160.758 448.578C161.372 447.786 162.177 447.391 163.172 447.391C164.161 447.391 164.945 447.729 165.523 448.406V444H166.969V456H165.641L165.57 455.094C164.992 455.802 164.188 456.156 163.156 456.156C162.177 456.156 161.378 455.755 160.758 454.953C160.143 454.151 159.836 453.104 159.836 451.812V451.703ZM161.281 451.867C161.281 452.826 161.479 453.576 161.875 454.117C162.271 454.659 162.818 454.93 163.516 454.93C164.432 454.93 165.102 454.518 165.523 453.695V449.812C165.091 449.016 164.427 448.617 163.531 448.617C162.823 448.617 162.271 448.891 161.875 449.438C161.479 449.984 161.281 450.794 161.281 451.867Z" fill="black"/>
<rect x="51" y="493" width="334" height="65" rx="20" fill="#C4C4C4"/>
<path d="M75.2578 519.625L78.9766 528.906L82.6953 519.625H84.6406V531H83.1406V526.57L83.2812 521.789L79.5469 531H78.3984L74.6719 521.812L74.8203 526.57V531H73.3203V519.625H75.2578ZM86.6797 526.695C86.6797 525.867 86.8411 525.122 87.1641 524.461C87.4922 523.799 87.9453 523.289 88.5234 522.93C89.1068 522.57 89.7708 522.391 90.5156 522.391C91.6667 522.391 92.5964 522.789 93.3047 523.586C94.0182 524.383 94.375 525.443 94.375 526.766V526.867C94.375 527.69 94.2161 528.43 93.8984 529.086C93.5859 529.737 93.1354 530.245 92.5469 530.609C91.9635 530.974 91.2917 531.156 90.5312 531.156C89.3854 531.156 88.4557 530.758 87.7422 529.961C87.0339 529.164 86.6797 528.109 86.6797 526.797V526.695ZM88.1328 526.867C88.1328 527.805 88.349 528.557 88.7812 529.125C89.2188 529.693 89.8021 529.977 90.5312 529.977C91.2656 529.977 91.849 529.69 92.2812 529.117C92.7135 528.539 92.9297 527.732 92.9297 526.695C92.9297 525.768 92.7083 525.018 92.2656 524.445C91.8281 523.867 91.2448 523.578 90.5156 523.578C89.8021 523.578 89.2266 523.862 88.7891 524.43C88.3516 524.997 88.1328 525.81 88.1328 526.867ZM97.5547 522.547L97.6016 523.609C98.2474 522.797 99.0911 522.391 100.133 522.391C101.919 522.391 102.82 523.398 102.836 525.414V531H101.391V525.406C101.385 524.797 101.245 524.346 100.969 524.055C100.698 523.763 100.273 523.617 99.6953 523.617C99.2266 523.617 98.8151 523.742 98.4609 523.992C98.1068 524.242 97.8307 524.57 97.6328 524.977V531H96.1875V522.547H97.5547ZM108.523 531.156C107.378 531.156 106.445 530.781 105.727 530.031C105.008 529.276 104.648 528.268 104.648 527.008V526.742C104.648 525.904 104.807 525.156 105.125 524.5C105.448 523.839 105.896 523.323 106.469 522.953C107.047 522.578 107.672 522.391 108.344 522.391C109.443 522.391 110.297 522.753 110.906 523.477C111.516 524.201 111.82 525.237 111.82 526.586V527.188H106.094C106.115 528.021 106.357 528.695 106.82 529.211C107.289 529.721 107.883 529.977 108.602 529.977C109.112 529.977 109.544 529.872 109.898 529.664C110.253 529.456 110.562 529.18 110.828 528.836L111.711 529.523C111.003 530.612 109.94 531.156 108.523 531.156ZM108.344 523.578C107.76 523.578 107.271 523.792 106.875 524.219C106.479 524.641 106.234 525.234 106.141 526H110.375V525.891C110.333 525.156 110.135 524.589 109.781 524.188C109.427 523.781 108.948 523.578 108.344 523.578ZM116.156 528.883L118.125 522.547H119.672L116.273 532.305C115.747 533.711 114.911 534.414 113.766 534.414L113.492 534.391L112.953 534.289V533.117L113.344 533.148C113.833 533.148 114.214 533.049 114.484 532.852C114.76 532.654 114.987 532.292 115.164 531.766L115.484 530.906L112.469 522.547H114.047L116.156 528.883ZM130.156 530.164C129.594 530.826 128.768 531.156 127.68 531.156C126.779 531.156 126.091 530.896 125.617 530.375C125.148 529.849 124.911 529.073 124.906 528.047V522.547H126.352V528.008C126.352 529.289 126.872 529.93 127.914 529.93C129.018 529.93 129.753 529.518 130.117 528.695V522.547H131.562V531H130.188L130.156 530.164ZM138.688 528.758C138.688 528.367 138.539 528.065 138.242 527.852C137.951 527.633 137.438 527.445 136.703 527.289C135.974 527.133 135.393 526.945 134.961 526.727C134.534 526.508 134.216 526.247 134.008 525.945C133.805 525.643 133.703 525.284 133.703 524.867C133.703 524.174 133.995 523.589 134.578 523.109C135.167 522.63 135.917 522.391 136.828 522.391C137.786 522.391 138.562 522.638 139.156 523.133C139.755 523.628 140.055 524.26 140.055 525.031H138.602C138.602 524.635 138.432 524.294 138.094 524.008C137.76 523.721 137.339 523.578 136.828 523.578C136.302 523.578 135.891 523.693 135.594 523.922C135.297 524.151 135.148 524.451 135.148 524.82C135.148 525.169 135.286 525.432 135.562 525.609C135.839 525.786 136.336 525.956 137.055 526.117C137.779 526.279 138.365 526.471 138.812 526.695C139.26 526.919 139.591 527.19 139.805 527.508C140.023 527.82 140.133 528.203 140.133 528.656C140.133 529.411 139.831 530.018 139.227 530.477C138.622 530.93 137.839 531.156 136.875 531.156C136.198 531.156 135.599 531.036 135.078 530.797C134.557 530.557 134.148 530.224 133.852 529.797C133.56 529.365 133.414 528.898 133.414 528.398H134.859C134.885 528.883 135.078 529.268 135.438 529.555C135.802 529.836 136.281 529.977 136.875 529.977C137.422 529.977 137.859 529.867 138.188 529.648C138.521 529.424 138.688 529.128 138.688 528.758ZM145.523 531.156C144.378 531.156 143.445 530.781 142.727 530.031C142.008 529.276 141.648 528.268 141.648 527.008V526.742C141.648 525.904 141.807 525.156 142.125 524.5C142.448 523.839 142.896 523.323 143.469 522.953C144.047 522.578 144.672 522.391 145.344 522.391C146.443 522.391 147.297 522.753 147.906 523.477C148.516 524.201 148.82 525.237 148.82 526.586V527.188H143.094C143.115 528.021 143.357 528.695 143.82 529.211C144.289 529.721 144.883 529.977 145.602 529.977C146.112 529.977 146.544 529.872 146.898 529.664C147.253 529.456 147.562 529.18 147.828 528.836L148.711 529.523C148.003 530.612 146.94 531.156 145.523 531.156ZM145.344 523.578C144.76 523.578 144.271 523.792 143.875 524.219C143.479 524.641 143.234 525.234 143.141 526H147.375V525.891C147.333 525.156 147.135 524.589 146.781 524.188C146.427 523.781 145.948 523.578 145.344 523.578ZM150.148 526.703C150.148 525.406 150.456 524.365 151.07 523.578C151.685 522.786 152.49 522.391 153.484 522.391C154.474 522.391 155.258 522.729 155.836 523.406V519H157.281V531H155.953L155.883 530.094C155.305 530.802 154.5 531.156 153.469 531.156C152.49 531.156 151.69 530.755 151.07 529.953C150.456 529.151 150.148 528.104 150.148 526.812V526.703ZM151.594 526.867C151.594 527.826 151.792 528.576 152.188 529.117C152.583 529.659 153.13 529.93 153.828 529.93C154.745 529.93 155.414 529.518 155.836 528.695V524.812C155.404 524.016 154.74 523.617 153.844 523.617C153.135 523.617 152.583 523.891 152.188 524.438C151.792 524.984 151.594 525.794 151.594 526.867Z" fill="black"/>
<rect x="51" y="568" width="334" height="65" rx="20" fill="#C4C4C4"/>
<path d="M75.2578 594.625L78.9766 603.906L82.6953 594.625H84.6406V606H83.1406V601.57L83.2812 596.789L79.5469 606H78.3984L74.6719 596.812L74.8203 601.57V606H73.3203V594.625H75.2578ZM86.6797 601.695C86.6797 600.867 86.8411 600.122 87.1641 599.461C87.4922 598.799 87.9453 598.289 88.5234 597.93C89.1068 597.57 89.7708 597.391 90.5156 597.391C91.6667 597.391 92.5964 597.789 93.3047 598.586C94.0182 599.383 94.375 600.443 94.375 601.766V601.867C94.375 602.69 94.2161 603.43 93.8984 604.086C93.5859 604.737 93.1354 605.245 92.5469 605.609C91.9635 605.974 91.2917 606.156 90.5312 606.156C89.3854 606.156 88.4557 605.758 87.7422 604.961C87.0339 604.164 86.6797 603.109 86.6797 601.797V601.695ZM88.1328 601.867C88.1328 602.805 88.349 603.557 88.7812 604.125C89.2188 604.693 89.8021 604.977 90.5312 604.977C91.2656 604.977 91.849 604.69 92.2812 604.117C92.7135 603.539 92.9297 602.732 92.9297 601.695C92.9297 600.768 92.7083 600.018 92.2656 599.445C91.8281 598.867 91.2448 598.578 90.5156 598.578C89.8021 598.578 89.2266 598.862 88.7891 599.43C88.3516 599.997 88.1328 600.81 88.1328 601.867ZM97.5547 597.547L97.6016 598.609C98.2474 597.797 99.0911 597.391 100.133 597.391C101.919 597.391 102.82 598.398 102.836 600.414V606H101.391V600.406C101.385 599.797 101.245 599.346 100.969 599.055C100.698 598.763 100.273 598.617 99.6953 598.617C99.2266 598.617 98.8151 598.742 98.4609 598.992C98.1068 599.242 97.8307 599.57 97.6328 599.977V606H96.1875V597.547H97.5547ZM108.523 606.156C107.378 606.156 106.445 605.781 105.727 605.031C105.008 604.276 104.648 603.268 104.648 602.008V601.742C104.648 600.904 104.807 600.156 105.125 599.5C105.448 598.839 105.896 598.323 106.469 597.953C107.047 597.578 107.672 597.391 108.344 597.391C109.443 597.391 110.297 597.753 110.906 598.477C111.516 599.201 111.82 600.237 111.82 601.586V602.188H106.094C106.115 603.021 106.357 603.695 106.82 604.211C107.289 604.721 107.883 604.977 108.602 604.977C109.112 604.977 109.544 604.872 109.898 604.664C110.253 604.456 110.562 604.18 110.828 603.836L111.711 604.523C111.003 605.612 109.94 606.156 108.523 606.156ZM108.344 598.578C107.76 598.578 107.271 598.792 106.875 599.219C106.479 599.641 106.234 600.234 106.141 601H110.375V600.891C110.333 600.156 110.135 599.589 109.781 599.188C109.427 598.781 108.948 598.578 108.344 598.578ZM116.156 603.883L118.125 597.547H119.672L116.273 607.305C115.747 608.711 114.911 609.414 113.766 609.414L113.492 609.391L112.953 609.289V608.117L113.344 608.148C113.833 608.148 114.214 608.049 114.484 607.852C114.76 607.654 114.987 607.292 115.164 606.766L115.484 605.906L112.469 597.547H114.047L116.156 603.883ZM130.156 606C130.073 605.833 130.005 605.536 129.953 605.109C129.281 605.807 128.479 606.156 127.547 606.156C126.714 606.156 126.029 605.922 125.492 605.453C124.961 604.979 124.695 604.38 124.695 603.656C124.695 602.776 125.029 602.094 125.695 601.609C126.367 601.12 127.31 600.875 128.523 600.875H129.93V600.211C129.93 599.706 129.779 599.305 129.477 599.008C129.174 598.706 128.729 598.555 128.141 598.555C127.625 598.555 127.193 598.685 126.844 598.945C126.495 599.206 126.32 599.521 126.32 599.891H124.867C124.867 599.469 125.016 599.062 125.312 598.672C125.615 598.276 126.021 597.964 126.531 597.734C127.047 597.505 127.612 597.391 128.227 597.391C129.201 597.391 129.964 597.635 130.516 598.125C131.068 598.609 131.354 599.279 131.375 600.133V604.023C131.375 604.799 131.474 605.417 131.672 605.875V606H130.156ZM127.758 604.898C128.211 604.898 128.641 604.781 129.047 604.547C129.453 604.312 129.747 604.008 129.93 603.633V601.898H128.797C127.026 601.898 126.141 602.417 126.141 603.453C126.141 603.906 126.292 604.26 126.594 604.516C126.896 604.771 127.284 604.898 127.758 604.898ZM133.289 601.703C133.289 600.406 133.596 599.365 134.211 598.578C134.826 597.786 135.63 597.391 136.625 597.391C137.615 597.391 138.398 597.729 138.977 598.406V594H140.422V606H139.094L139.023 605.094C138.445 605.802 137.641 606.156 136.609 606.156C135.63 606.156 134.831 605.755 134.211 604.953C133.596 604.151 133.289 603.104 133.289 601.812V601.703ZM134.734 601.867C134.734 602.826 134.932 603.576 135.328 604.117C135.724 604.659 136.271 604.93 136.969 604.93C137.885 604.93 138.555 604.518 138.977 603.695V599.812C138.544 599.016 137.88 598.617 136.984 598.617C136.276 598.617 135.724 598.891 135.328 599.438C134.932 599.984 134.734 600.794 134.734 601.867ZM142.32 601.703C142.32 600.406 142.628 599.365 143.242 598.578C143.857 597.786 144.661 597.391 145.656 597.391C146.646 597.391 147.43 597.729 148.008 598.406V594H149.453V606H148.125L148.055 605.094C147.477 605.802 146.672 606.156 145.641 606.156C144.661 606.156 143.862 605.755 143.242 604.953C142.628 604.151 142.32 603.104 142.32 601.812V601.703ZM143.766 601.867C143.766 602.826 143.964 603.576 144.359 604.117C144.755 604.659 145.302 604.93 146 604.93C146.917 604.93 147.586 604.518 148.008 603.695V599.812C147.576 599.016 146.911 598.617 146.016 598.617C145.307 598.617 144.755 598.891 144.359 599.438C143.964 599.984 143.766 600.794 143.766 601.867ZM155.211 606.156C154.065 606.156 153.133 605.781 152.414 605.031C151.695 604.276 151.336 603.268 151.336 602.008V601.742C151.336 600.904 151.495 600.156 151.812 599.5C152.135 598.839 152.583 598.323 153.156 597.953C153.734 597.578 154.359 597.391 155.031 597.391C156.13 597.391 156.984 597.753 157.594 598.477C158.203 599.201 158.508 600.237 158.508 601.586V602.188H152.781C152.802 603.021 153.044 603.695 153.508 604.211C153.977 604.721 154.57 604.977 155.289 604.977C155.799 604.977 156.232 604.872 156.586 604.664C156.94 604.456 157.25 604.18 157.516 603.836L158.398 604.523C157.69 605.612 156.628 606.156 155.211 606.156ZM155.031 598.578C154.448 598.578 153.958 598.792 153.562 599.219C153.167 599.641 152.922 600.234 152.828 601H157.062V600.891C157.021 600.156 156.823 599.589 156.469 599.188C156.115 598.781 155.635 598.578 155.031 598.578ZM159.836 601.703C159.836 600.406 160.143 599.365 160.758 598.578C161.372 597.786 162.177 597.391 163.172 597.391C164.161 597.391 164.945 597.729 165.523 598.406V594H166.969V606H165.641L165.57 605.094C164.992 605.802 164.188 606.156 163.156 606.156C162.177 606.156 161.378 605.755 160.758 604.953C160.143 604.151 159.836 603.104 159.836 601.812V601.703ZM161.281 601.867C161.281 602.826 161.479 603.576 161.875 604.117C162.271 604.659 162.818 604.93 163.516 604.93C164.432 604.93 165.102 604.518 165.523 603.695V599.812C165.091 599.016 164.427 598.617 163.531 598.617C162.823 598.617 162.271 598.891 161.875 599.438C161.479 599.984 161.281 600.794 161.281 601.867Z" fill="black"/>
<rect x="51" y="643" width="334" height="65" rx="20" fill="#C4C4C4"/>
<path d="M75.2578 669.625L78.9766 678.906L82.6953 669.625H84.6406V681H83.1406V676.57L83.2812 671.789L79.5469 681H78.3984L74.6719 671.812L74.8203 676.57V681H73.3203V669.625H75.2578ZM86.6797 676.695C86.6797 675.867 86.8411 675.122 87.1641 674.461C87.4922 673.799 87.9453 673.289 88.5234 672.93C89.1068 672.57 89.7708 672.391 90.5156 672.391C91.6667 672.391 92.5964 672.789 93.3047 673.586C94.0182 674.383 94.375 675.443 94.375 676.766V676.867C94.375 677.69 94.2161 678.43 93.8984 679.086C93.5859 679.737 93.1354 680.245 92.5469 680.609C91.9635 680.974 91.2917 681.156 90.5312 681.156C89.3854 681.156 88.4557 680.758 87.7422 679.961C87.0339 679.164 86.6797 678.109 86.6797 676.797V676.695ZM88.1328 676.867C88.1328 677.805 88.349 678.557 88.7812 679.125C89.2188 679.693 89.8021 679.977 90.5312 679.977C91.2656 679.977 91.849 679.69 92.2812 679.117C92.7135 678.539 92.9297 677.732 92.9297 676.695C92.9297 675.768 92.7083 675.018 92.2656 674.445C91.8281 673.867 91.2448 673.578 90.5156 673.578C89.8021 673.578 89.2266 673.862 88.7891 674.43C88.3516 674.997 88.1328 675.81 88.1328 676.867ZM97.5547 672.547L97.6016 673.609C98.2474 672.797 99.0911 672.391 100.133 672.391C101.919 672.391 102.82 673.398 102.836 675.414V681H101.391V675.406C101.385 674.797 101.245 674.346 100.969 674.055C100.698 673.763 100.273 673.617 99.6953 673.617C99.2266 673.617 98.8151 673.742 98.4609 673.992C98.1068 674.242 97.8307 674.57 97.6328 674.977V681H96.1875V672.547H97.5547ZM108.523 681.156C107.378 681.156 106.445 680.781 105.727 680.031C105.008 679.276 104.648 678.268 104.648 677.008V676.742C104.648 675.904 104.807 675.156 105.125 674.5C105.448 673.839 105.896 673.323 106.469 672.953C107.047 672.578 107.672 672.391 108.344 672.391C109.443 672.391 110.297 672.753 110.906 673.477C111.516 674.201 111.82 675.237 111.82 676.586V677.188H106.094C106.115 678.021 106.357 678.695 106.82 679.211C107.289 679.721 107.883 679.977 108.602 679.977C109.112 679.977 109.544 679.872 109.898 679.664C110.253 679.456 110.562 679.18 110.828 678.836L111.711 679.523C111.003 680.612 109.94 681.156 108.523 681.156ZM108.344 673.578C107.76 673.578 107.271 673.792 106.875 674.219C106.479 674.641 106.234 675.234 106.141 676H110.375V675.891C110.333 675.156 110.135 674.589 109.781 674.188C109.427 673.781 108.948 673.578 108.344 673.578ZM116.156 678.883L118.125 672.547H119.672L116.273 682.305C115.747 683.711 114.911 684.414 113.766 684.414L113.492 684.391L112.953 684.289V683.117L113.344 683.148C113.833 683.148 114.214 683.049 114.484 682.852C114.76 682.654 114.987 682.292 115.164 681.766L115.484 680.906L112.469 672.547H114.047L116.156 678.883ZM130.156 681C130.073 680.833 130.005 680.536 129.953 680.109C129.281 680.807 128.479 681.156 127.547 681.156C126.714 681.156 126.029 680.922 125.492 680.453C124.961 679.979 124.695 679.38 124.695 678.656C124.695 677.776 125.029 677.094 125.695 676.609C126.367 676.12 127.31 675.875 128.523 675.875H129.93V675.211C129.93 674.706 129.779 674.305 129.477 674.008C129.174 673.706 128.729 673.555 128.141 673.555C127.625 673.555 127.193 673.685 126.844 673.945C126.495 674.206 126.32 674.521 126.32 674.891H124.867C124.867 674.469 125.016 674.062 125.312 673.672C125.615 673.276 126.021 672.964 126.531 672.734C127.047 672.505 127.612 672.391 128.227 672.391C129.201 672.391 129.964 672.635 130.516 673.125C131.068 673.609 131.354 674.279 131.375 675.133V679.023C131.375 679.799 131.474 680.417 131.672 680.875V681H130.156ZM127.758 679.898C128.211 679.898 128.641 679.781 129.047 679.547C129.453 679.312 129.747 679.008 129.93 678.633V676.898H128.797C127.026 676.898 126.141 677.417 126.141 678.453C126.141 678.906 126.292 679.26 126.594 679.516C126.896 679.771 127.284 679.898 127.758 679.898ZM133.289 676.703C133.289 675.406 133.596 674.365 134.211 673.578C134.826 672.786 135.63 672.391 136.625 672.391C137.615 672.391 138.398 672.729 138.977 673.406V669H140.422V681H139.094L139.023 680.094C138.445 680.802 137.641 681.156 136.609 681.156C135.63 681.156 134.831 680.755 134.211 679.953C133.596 679.151 133.289 678.104 133.289 676.812V676.703ZM134.734 676.867C134.734 677.826 134.932 678.576 135.328 679.117C135.724 679.659 136.271 679.93 136.969 679.93C137.885 679.93 138.555 679.518 138.977 678.695V674.812C138.544 674.016 137.88 673.617 136.984 673.617C136.276 673.617 135.724 673.891 135.328 674.438C134.932 674.984 134.734 675.794 134.734 676.867ZM142.32 676.703C142.32 675.406 142.628 674.365 143.242 673.578C143.857 672.786 144.661 672.391 145.656 672.391C146.646 672.391 147.43 672.729 148.008 673.406V669H149.453V681H148.125L148.055 680.094C147.477 680.802 146.672 681.156 145.641 681.156C144.661 681.156 143.862 680.755 143.242 679.953C142.628 679.151 142.32 678.104 142.32 676.812V676.703ZM143.766 676.867C143.766 677.826 143.964 678.576 144.359 679.117C144.755 679.659 145.302 679.93 146 679.93C146.917 679.93 147.586 679.518 148.008 678.695V674.812C147.576 674.016 146.911 673.617 146.016 673.617C145.307 673.617 144.755 673.891 144.359 674.438C143.964 674.984 143.766 675.794 143.766 676.867ZM155.211 681.156C154.065 681.156 153.133 680.781 152.414 680.031C151.695 679.276 151.336 678.268 151.336 677.008V676.742C151.336 675.904 151.495 675.156 151.812 674.5C152.135 673.839 152.583 673.323 153.156 672.953C153.734 672.578 154.359 672.391 155.031 672.391C156.13 672.391 156.984 672.753 157.594 673.477C158.203 674.201 158.508 675.237 158.508 676.586V677.188H152.781C152.802 678.021 153.044 678.695 153.508 679.211C153.977 679.721 154.57 679.977 155.289 679.977C155.799 679.977 156.232 679.872 156.586 679.664C156.94 679.456 157.25 679.18 157.516 678.836L158.398 679.523C157.69 680.612 156.628 681.156 155.211 681.156ZM155.031 673.578C154.448 673.578 153.958 673.792 153.562 674.219C153.167 674.641 152.922 675.234 152.828 676H157.062V675.891C157.021 675.156 156.823 674.589 156.469 674.188C156.115 673.781 155.635 673.578 155.031 673.578ZM159.836 676.703C159.836 675.406 160.143 674.365 160.758 673.578C161.372 672.786 162.177 672.391 163.172 672.391C164.161 672.391 164.945 672.729 165.523 673.406V669H166.969V681H165.641L165.57 680.094C164.992 680.802 164.188 681.156 163.156 681.156C162.177 681.156 161.378 680.755 160.758 679.953C160.143 679.151 159.836 678.104 159.836 676.812V676.703ZM161.281 676.867C161.281 677.826 161.479 678.576 161.875 679.117C162.271 679.659 162.818 679.93 163.516 679.93C164.432 679.93 165.102 679.518 165.523 678.695V674.812C165.091 674.016 164.427 673.617 163.531 673.617C162.823 673.617 162.271 673.891 161.875 674.438C161.479 674.984 161.281 675.794 161.281 676.867Z" fill="black"/>
<rect x="51" y="110" width="334" height="65" rx="20" fill="#C4C4C4"/>
<path d="M76.6719 142.93C75.3854 142.56 74.4479 142.107 73.8594 141.57C73.276 141.029 72.9844 140.362 72.9844 139.57C72.9844 138.674 73.3411 137.935 74.0547 137.352C74.7734 136.763 75.7057 136.469 76.8516 136.469C77.6328 136.469 78.3281 136.62 78.9375 136.922C79.5521 137.224 80.026 137.641 80.3594 138.172C80.6979 138.703 80.8672 139.284 80.8672 139.914H79.3594C79.3594 139.227 79.1406 138.688 78.7031 138.297C78.2656 137.901 77.6484 137.703 76.8516 137.703C76.112 137.703 75.5339 137.867 75.1172 138.195C74.7057 138.518 74.5 138.969 74.5 139.547C74.5 140.01 74.6953 140.404 75.0859 140.727C75.4818 141.044 76.151 141.336 77.0938 141.602C78.0417 141.867 78.7812 142.161 79.3125 142.484C79.849 142.802 80.2448 143.174 80.5 143.602C80.7604 144.029 80.8906 144.531 80.8906 145.109C80.8906 146.031 80.5312 146.771 79.8125 147.328C79.0938 147.88 78.1328 148.156 76.9297 148.156C76.1484 148.156 75.4193 148.008 74.7422 147.711C74.0651 147.409 73.5417 146.997 73.1719 146.477C72.8073 145.956 72.625 145.365 72.625 144.703H74.1328C74.1328 145.391 74.3854 145.935 74.8906 146.336C75.401 146.732 76.0807 146.93 76.9297 146.93C77.7214 146.93 78.3281 146.768 78.75 146.445C79.1719 146.122 79.3828 145.682 79.3828 145.125C79.3828 144.568 79.1875 144.138 78.7969 143.836C78.4062 143.529 77.6979 143.227 76.6719 142.93ZM87.8125 148C87.7292 147.833 87.6615 147.536 87.6094 147.109C86.9375 147.807 86.1354 148.156 85.2031 148.156C84.3698 148.156 83.6849 147.922 83.1484 147.453C82.6172 146.979 82.3516 146.38 82.3516 145.656C82.3516 144.776 82.6849 144.094 83.3516 143.609C84.0234 143.12 84.9661 142.875 86.1797 142.875H87.5859V142.211C87.5859 141.706 87.4349 141.305 87.1328 141.008C86.8307 140.706 86.3854 140.555 85.7969 140.555C85.2812 140.555 84.849 140.685 84.5 140.945C84.151 141.206 83.9766 141.521 83.9766 141.891H82.5234C82.5234 141.469 82.6719 141.062 82.9688 140.672C83.2708 140.276 83.6771 139.964 84.1875 139.734C84.7031 139.505 85.2682 139.391 85.8828 139.391C86.8568 139.391 87.6198 139.635 88.1719 140.125C88.724 140.609 89.0104 141.279 89.0312 142.133V146.023C89.0312 146.799 89.1302 147.417 89.3281 147.875V148H87.8125ZM85.4141 146.898C85.8672 146.898 86.2969 146.781 86.7031 146.547C87.1094 146.312 87.4036 146.008 87.5859 145.633V143.898H86.4531C84.6823 143.898 83.7969 144.417 83.7969 145.453C83.7969 145.906 83.9479 146.26 84.25 146.516C84.5521 146.771 84.9401 146.898 85.4141 146.898ZM93.9609 146.039L96.0547 139.547H97.5312L94.5 148H93.3984L90.3359 139.547H91.8125L93.9609 146.039ZM100.492 148H99.0469V139.547H100.492V148ZM98.9297 137.305C98.9297 137.07 99 136.872 99.1406 136.711C99.2865 136.549 99.5 136.469 99.7812 136.469C100.062 136.469 100.276 136.549 100.422 136.711C100.568 136.872 100.641 137.07 100.641 137.305C100.641 137.539 100.568 137.734 100.422 137.891C100.276 138.047 100.062 138.125 99.7812 138.125C99.5 138.125 99.2865 138.047 99.1406 137.891C99 137.734 98.9297 137.539 98.9297 137.305ZM104.18 139.547L104.227 140.609C104.872 139.797 105.716 139.391 106.758 139.391C108.544 139.391 109.445 140.398 109.461 142.414V148H108.016V142.406C108.01 141.797 107.87 141.346 107.594 141.055C107.323 140.763 106.898 140.617 106.32 140.617C105.852 140.617 105.44 140.742 105.086 140.992C104.732 141.242 104.456 141.57 104.258 141.977V148H102.812V139.547H104.18ZM111.297 143.703C111.297 142.385 111.602 141.339 112.211 140.562C112.82 139.781 113.628 139.391 114.633 139.391C115.664 139.391 116.469 139.755 117.047 140.484L117.117 139.547H118.438V147.797C118.438 148.891 118.112 149.753 117.461 150.383C116.815 151.013 115.945 151.328 114.852 151.328C114.242 151.328 113.646 151.198 113.062 150.938C112.479 150.677 112.034 150.32 111.727 149.867L112.477 149C113.096 149.766 113.854 150.148 114.75 150.148C115.453 150.148 116 149.951 116.391 149.555C116.786 149.159 116.984 148.602 116.984 147.883V147.156C116.406 147.823 115.617 148.156 114.617 148.156C113.628 148.156 112.826 147.758 112.211 146.961C111.602 146.164 111.297 145.078 111.297 143.703ZM112.75 143.867C112.75 144.82 112.945 145.57 113.336 146.117C113.727 146.659 114.273 146.93 114.977 146.93C115.888 146.93 116.557 146.516 116.984 145.688V141.828C116.542 141.021 115.878 140.617 114.992 140.617C114.289 140.617 113.74 140.891 113.344 141.438C112.948 141.984 112.75 142.794 112.75 143.867ZM125.547 145.758C125.547 145.367 125.398 145.065 125.102 144.852C124.81 144.633 124.297 144.445 123.562 144.289C122.833 144.133 122.253 143.945 121.82 143.727C121.393 143.508 121.076 143.247 120.867 142.945C120.664 142.643 120.562 142.284 120.562 141.867C120.562 141.174 120.854 140.589 121.438 140.109C122.026 139.63 122.776 139.391 123.688 139.391C124.646 139.391 125.422 139.638 126.016 140.133C126.615 140.628 126.914 141.26 126.914 142.031H125.461C125.461 141.635 125.292 141.294 124.953 141.008C124.62 140.721 124.198 140.578 123.688 140.578C123.161 140.578 122.75 140.693 122.453 140.922C122.156 141.151 122.008 141.451 122.008 141.82C122.008 142.169 122.146 142.432 122.422 142.609C122.698 142.786 123.195 142.956 123.914 143.117C124.638 143.279 125.224 143.471 125.672 143.695C126.12 143.919 126.451 144.19 126.664 144.508C126.883 144.82 126.992 145.203 126.992 145.656C126.992 146.411 126.69 147.018 126.086 147.477C125.482 147.93 124.698 148.156 123.734 148.156C123.057 148.156 122.458 148.036 121.938 147.797C121.417 147.557 121.008 147.224 120.711 146.797C120.419 146.365 120.273 145.898 120.273 145.398H121.719C121.745 145.883 121.938 146.268 122.297 146.555C122.661 146.836 123.141 146.977 123.734 146.977C124.281 146.977 124.719 146.867 125.047 146.648C125.38 146.424 125.547 146.128 125.547 145.758ZM132.5 143.703C132.5 142.385 132.805 141.339 133.414 140.562C134.023 139.781 134.831 139.391 135.836 139.391C136.867 139.391 137.672 139.755 138.25 140.484L138.32 139.547H139.641V147.797C139.641 148.891 139.315 149.753 138.664 150.383C138.018 151.013 137.148 151.328 136.055 151.328C135.445 151.328 134.849 151.198 134.266 150.938C133.682 150.677 133.237 150.32 132.93 149.867L133.68 149C134.299 149.766 135.057 150.148 135.953 150.148C136.656 150.148 137.203 149.951 137.594 149.555C137.99 149.159 138.188 148.602 138.188 147.883V147.156C137.609 147.823 136.82 148.156 135.82 148.156C134.831 148.156 134.029 147.758 133.414 146.961C132.805 146.164 132.5 145.078 132.5 143.703ZM133.953 143.867C133.953 144.82 134.148 145.57 134.539 146.117C134.93 146.659 135.477 146.93 136.18 146.93C137.091 146.93 137.76 146.516 138.188 145.688V141.828C137.745 141.021 137.081 140.617 136.195 140.617C135.492 140.617 134.943 140.891 134.547 141.438C134.151 141.984 133.953 142.794 133.953 143.867ZM141.445 143.695C141.445 142.867 141.607 142.122 141.93 141.461C142.258 140.799 142.711 140.289 143.289 139.93C143.872 139.57 144.536 139.391 145.281 139.391C146.432 139.391 147.362 139.789 148.07 140.586C148.784 141.383 149.141 142.443 149.141 143.766V143.867C149.141 144.69 148.982 145.43 148.664 146.086C148.352 146.737 147.901 147.245 147.312 147.609C146.729 147.974 146.057 148.156 145.297 148.156C144.151 148.156 143.221 147.758 142.508 146.961C141.799 146.164 141.445 145.109 141.445 143.797V143.695ZM142.898 143.867C142.898 144.805 143.115 145.557 143.547 146.125C143.984 146.693 144.568 146.977 145.297 146.977C146.031 146.977 146.615 146.69 147.047 146.117C147.479 145.539 147.695 144.732 147.695 143.695C147.695 142.768 147.474 142.018 147.031 141.445C146.594 140.867 146.01 140.578 145.281 140.578C144.568 140.578 143.992 140.862 143.555 141.43C143.117 141.997 142.898 142.81 142.898 143.867ZM156.172 148C156.089 147.833 156.021 147.536 155.969 147.109C155.297 147.807 154.495 148.156 153.562 148.156C152.729 148.156 152.044 147.922 151.508 147.453C150.977 146.979 150.711 146.38 150.711 145.656C150.711 144.776 151.044 144.094 151.711 143.609C152.383 143.12 153.326 142.875 154.539 142.875H155.945V142.211C155.945 141.706 155.794 141.305 155.492 141.008C155.19 140.706 154.745 140.555 154.156 140.555C153.641 140.555 153.208 140.685 152.859 140.945C152.51 141.206 152.336 141.521 152.336 141.891H150.883C150.883 141.469 151.031 141.062 151.328 140.672C151.63 140.276 152.036 139.964 152.547 139.734C153.062 139.505 153.628 139.391 154.242 139.391C155.216 139.391 155.979 139.635 156.531 140.125C157.083 140.609 157.37 141.279 157.391 142.133V146.023C157.391 146.799 157.49 147.417 157.688 147.875V148H156.172ZM153.773 146.898C154.227 146.898 154.656 146.781 155.062 146.547C155.469 146.312 155.763 146.008 155.945 145.633V143.898H154.812C153.042 143.898 152.156 144.417 152.156 145.453C152.156 145.906 152.307 146.26 152.609 146.516C152.911 146.771 153.299 146.898 153.773 146.898ZM161.227 148H159.781V136H161.227V148Z" fill="black"/>
<rect x="270" y="205" width="115" height="86" rx="20" fill="#C4C4C4"/>
<path d="M292.82 229.547V234H291.32V222.625H295.516C296.76 222.625 297.734 222.943 298.438 223.578C299.146 224.214 299.5 225.055 299.5 226.102C299.5 227.206 299.154 228.057 298.461 228.656C297.773 229.25 296.786 229.547 295.5 229.547H292.82ZM292.82 228.32H295.516C296.318 228.32 296.932 228.133 297.359 227.758C297.786 227.378 298 226.831 298 226.117C298 225.44 297.786 224.898 297.359 224.492C296.932 224.086 296.346 223.875 295.602 223.859H292.82V228.32ZM306.312 234C306.229 233.833 306.161 233.536 306.109 233.109C305.438 233.807 304.635 234.156 303.703 234.156C302.87 234.156 302.185 233.922 301.648 233.453C301.117 232.979 300.852 232.38 300.852 231.656C300.852 230.776 301.185 230.094 301.852 229.609C302.523 229.12 303.466 228.875 304.68 228.875H306.086V228.211C306.086 227.706 305.935 227.305 305.633 227.008C305.331 226.706 304.885 226.555 304.297 226.555C303.781 226.555 303.349 226.685 303 226.945C302.651 227.206 302.477 227.521 302.477 227.891H301.023C301.023 227.469 301.172 227.062 301.469 226.672C301.771 226.276 302.177 225.964 302.688 225.734C303.203 225.505 303.768 225.391 304.383 225.391C305.357 225.391 306.12 225.635 306.672 226.125C307.224 226.609 307.51 227.279 307.531 228.133V232.023C307.531 232.799 307.63 233.417 307.828 233.875V234H306.312ZM303.914 232.898C304.367 232.898 304.797 232.781 305.203 232.547C305.609 232.312 305.904 232.008 306.086 231.633V229.898H304.953C303.182 229.898 302.297 230.417 302.297 231.453C302.297 231.906 302.448 232.26 302.75 232.516C303.052 232.771 303.44 232.898 303.914 232.898ZM312.438 231.883L314.406 225.547H315.953L312.555 235.305C312.029 236.711 311.193 237.414 310.047 237.414L309.773 237.391L309.234 237.289V236.117L309.625 236.148C310.115 236.148 310.495 236.049 310.766 235.852C311.042 235.654 311.268 235.292 311.445 234.766L311.766 233.906L308.75 225.547H310.328L312.438 231.883ZM318.609 225.547L318.648 226.484C319.268 225.755 320.104 225.391 321.156 225.391C322.339 225.391 323.143 225.844 323.57 226.75C323.852 226.344 324.216 226.016 324.664 225.766C325.117 225.516 325.651 225.391 326.266 225.391C328.12 225.391 329.062 226.372 329.094 228.336V234H327.648V228.422C327.648 227.818 327.51 227.367 327.234 227.07C326.958 226.768 326.495 226.617 325.844 226.617C325.307 226.617 324.862 226.779 324.508 227.102C324.154 227.419 323.948 227.849 323.891 228.391V234H322.438V228.461C322.438 227.232 321.836 226.617 320.633 226.617C319.685 226.617 319.036 227.021 318.688 227.828V234H317.242V225.547H318.609ZM334.789 234.156C333.643 234.156 332.711 233.781 331.992 233.031C331.273 232.276 330.914 231.268 330.914 230.008V229.742C330.914 228.904 331.073 228.156 331.391 227.5C331.714 226.839 332.161 226.323 332.734 225.953C333.312 225.578 333.938 225.391 334.609 225.391C335.708 225.391 336.562 225.753 337.172 226.477C337.781 227.201 338.086 228.237 338.086 229.586V230.188H332.359C332.38 231.021 332.622 231.695 333.086 232.211C333.555 232.721 334.148 232.977 334.867 232.977C335.378 232.977 335.81 232.872 336.164 232.664C336.518 232.456 336.828 232.18 337.094 231.836L337.977 232.523C337.268 233.612 336.206 234.156 334.789 234.156ZM334.609 226.578C334.026 226.578 333.536 226.792 333.141 227.219C332.745 227.641 332.5 228.234 332.406 229H336.641V228.891C336.599 228.156 336.401 227.589 336.047 227.188C335.693 226.781 335.214 226.578 334.609 226.578ZM341.133 225.547L341.18 226.609C341.826 225.797 342.669 225.391 343.711 225.391C345.497 225.391 346.398 226.398 346.414 228.414V234H344.969V228.406C344.964 227.797 344.823 227.346 344.547 227.055C344.276 226.763 343.852 226.617 343.273 226.617C342.805 226.617 342.393 226.742 342.039 226.992C341.685 227.242 341.409 227.57 341.211 227.977V234H339.766V225.547H341.133ZM350.555 223.5V225.547H352.133V226.664H350.555V231.906C350.555 232.245 350.625 232.5 350.766 232.672C350.906 232.839 351.146 232.922 351.484 232.922C351.651 232.922 351.88 232.891 352.172 232.828V234C351.792 234.104 351.422 234.156 351.062 234.156C350.417 234.156 349.93 233.961 349.602 233.57C349.273 233.18 349.109 232.625 349.109 231.906V226.664H347.57V225.547H349.109V223.5H350.555ZM294.484 251.977C295 251.977 295.451 251.82 295.836 251.508C296.221 251.195 296.435 250.805 296.477 250.336H297.844C297.818 250.82 297.651 251.281 297.344 251.719C297.036 252.156 296.625 252.505 296.109 252.766C295.599 253.026 295.057 253.156 294.484 253.156C293.333 253.156 292.417 252.773 291.734 252.008C291.057 251.237 290.719 250.185 290.719 248.852V248.609C290.719 247.786 290.87 247.055 291.172 246.414C291.474 245.773 291.906 245.276 292.469 244.922C293.036 244.568 293.706 244.391 294.477 244.391C295.424 244.391 296.211 244.674 296.836 245.242C297.466 245.81 297.802 246.547 297.844 247.453H296.477C296.435 246.906 296.227 246.458 295.852 246.109C295.482 245.755 295.023 245.578 294.477 245.578C293.742 245.578 293.172 245.844 292.766 246.375C292.365 246.901 292.164 247.664 292.164 248.664V248.938C292.164 249.911 292.365 250.661 292.766 251.188C293.167 251.714 293.74 251.977 294.484 251.977ZM300.914 245.57C301.555 244.784 302.388 244.391 303.414 244.391C305.201 244.391 306.102 245.398 306.117 247.414V253H304.672V247.406C304.667 246.797 304.526 246.346 304.25 246.055C303.979 245.763 303.555 245.617 302.977 245.617C302.508 245.617 302.096 245.742 301.742 245.992C301.388 246.242 301.112 246.57 300.914 246.977V253H299.469V241H300.914V245.57ZM313.5 253C313.417 252.833 313.349 252.536 313.297 252.109C312.625 252.807 311.823 253.156 310.891 253.156C310.057 253.156 309.372 252.922 308.836 252.453C308.305 251.979 308.039 251.38 308.039 250.656C308.039 249.776 308.372 249.094 309.039 248.609C309.711 248.12 310.654 247.875 311.867 247.875H313.273V247.211C313.273 246.706 313.122 246.305 312.82 246.008C312.518 245.706 312.073 245.555 311.484 245.555C310.969 245.555 310.536 245.685 310.188 245.945C309.839 246.206 309.664 246.521 309.664 246.891H308.211C308.211 246.469 308.359 246.062 308.656 245.672C308.958 245.276 309.365 244.964 309.875 244.734C310.391 244.505 310.956 244.391 311.57 244.391C312.544 244.391 313.307 244.635 313.859 245.125C314.411 245.609 314.698 246.279 314.719 247.133V251.023C314.719 251.799 314.818 252.417 315.016 252.875V253H313.5ZM311.102 251.898C311.555 251.898 311.984 251.781 312.391 251.547C312.797 251.312 313.091 251.008 313.273 250.633V248.898H312.141C310.37 248.898 309.484 249.417 309.484 250.453C309.484 250.906 309.635 251.26 309.938 251.516C310.24 251.771 310.628 251.898 311.102 251.898ZM318.352 244.547L318.398 245.609C319.044 244.797 319.888 244.391 320.93 244.391C322.716 244.391 323.617 245.398 323.633 247.414V253H322.188V247.406C322.182 246.797 322.042 246.346 321.766 246.055C321.495 245.763 321.07 245.617 320.492 245.617C320.023 245.617 319.612 245.742 319.258 245.992C318.904 246.242 318.628 246.57 318.43 246.977V253H316.984V244.547H318.352ZM325.469 248.703C325.469 247.385 325.773 246.339 326.383 245.562C326.992 244.781 327.799 244.391 328.805 244.391C329.836 244.391 330.641 244.755 331.219 245.484L331.289 244.547H332.609V252.797C332.609 253.891 332.284 254.753 331.633 255.383C330.987 256.013 330.117 256.328 329.023 256.328C328.414 256.328 327.818 256.198 327.234 255.938C326.651 255.677 326.206 255.32 325.898 254.867L326.648 254C327.268 254.766 328.026 255.148 328.922 255.148C329.625 255.148 330.172 254.951 330.562 254.555C330.958 254.159 331.156 253.602 331.156 252.883V252.156C330.578 252.823 329.789 253.156 328.789 253.156C327.799 253.156 326.997 252.758 326.383 251.961C325.773 251.164 325.469 250.078 325.469 248.703ZM326.922 248.867C326.922 249.82 327.117 250.57 327.508 251.117C327.898 251.659 328.445 251.93 329.148 251.93C330.06 251.93 330.729 251.516 331.156 250.688V246.828C330.714 246.021 330.049 245.617 329.164 245.617C328.461 245.617 327.911 245.891 327.516 246.438C327.12 246.984 326.922 247.794 326.922 248.867ZM338.305 253.156C337.159 253.156 336.227 252.781 335.508 252.031C334.789 251.276 334.43 250.268 334.43 249.008V248.742C334.43 247.904 334.589 247.156 334.906 246.5C335.229 245.839 335.677 245.323 336.25 244.953C336.828 244.578 337.453 244.391 338.125 244.391C339.224 244.391 340.078 244.753 340.688 245.477C341.297 246.201 341.602 247.237 341.602 248.586V249.188H335.875C335.896 250.021 336.138 250.695 336.602 251.211C337.07 251.721 337.664 251.977 338.383 251.977C338.893 251.977 339.326 251.872 339.68 251.664C340.034 251.456 340.344 251.18 340.609 250.836L341.492 251.523C340.784 252.612 339.721 253.156 338.305 253.156ZM338.125 245.578C337.542 245.578 337.052 245.792 336.656 246.219C336.26 246.641 336.016 247.234 335.922 248H340.156V247.891C340.115 247.156 339.917 246.589 339.562 246.188C339.208 245.781 338.729 245.578 338.125 245.578ZM294.602 272.156C293.456 272.156 292.523 271.781 291.805 271.031C291.086 270.276 290.727 269.268 290.727 268.008V267.742C290.727 266.904 290.885 266.156 291.203 265.5C291.526 264.839 291.974 264.323 292.547 263.953C293.125 263.578 293.75 263.391 294.422 263.391C295.521 263.391 296.375 263.753 296.984 264.477C297.594 265.201 297.898 266.237 297.898 267.586V268.188H292.172C292.193 269.021 292.435 269.695 292.898 270.211C293.367 270.721 293.961 270.977 294.68 270.977C295.19 270.977 295.622 270.872 295.977 270.664C296.331 270.456 296.641 270.18 296.906 269.836L297.789 270.523C297.081 271.612 296.018 272.156 294.602 272.156ZM294.422 264.578C293.839 264.578 293.349 264.792 292.953 265.219C292.557 265.641 292.312 266.234 292.219 267H296.453V266.891C296.411 266.156 296.214 265.589 295.859 265.188C295.505 264.781 295.026 264.578 294.422 264.578ZM304.5 269.758C304.5 269.367 304.352 269.065 304.055 268.852C303.763 268.633 303.25 268.445 302.516 268.289C301.786 268.133 301.206 267.945 300.773 267.727C300.346 267.508 300.029 267.247 299.82 266.945C299.617 266.643 299.516 266.284 299.516 265.867C299.516 265.174 299.807 264.589 300.391 264.109C300.979 263.63 301.729 263.391 302.641 263.391C303.599 263.391 304.375 263.638 304.969 264.133C305.568 264.628 305.867 265.26 305.867 266.031H304.414C304.414 265.635 304.245 265.294 303.906 265.008C303.573 264.721 303.151 264.578 302.641 264.578C302.115 264.578 301.703 264.693 301.406 264.922C301.109 265.151 300.961 265.451 300.961 265.82C300.961 266.169 301.099 266.432 301.375 266.609C301.651 266.786 302.148 266.956 302.867 267.117C303.591 267.279 304.177 267.471 304.625 267.695C305.073 267.919 305.404 268.19 305.617 268.508C305.836 268.82 305.945 269.203 305.945 269.656C305.945 270.411 305.643 271.018 305.039 271.477C304.435 271.93 303.651 272.156 302.688 272.156C302.01 272.156 301.411 272.036 300.891 271.797C300.37 271.557 299.961 271.224 299.664 270.797C299.372 270.365 299.227 269.898 299.227 269.398H300.672C300.698 269.883 300.891 270.268 301.25 270.555C301.615 270.836 302.094 270.977 302.688 270.977C303.234 270.977 303.672 270.867 304 270.648C304.333 270.424 304.5 270.128 304.5 269.758ZM309.789 261.5V263.547H311.367V264.664H309.789V269.906C309.789 270.245 309.859 270.5 310 270.672C310.141 270.839 310.38 270.922 310.719 270.922C310.885 270.922 311.115 270.891 311.406 270.828V272C311.026 272.104 310.656 272.156 310.297 272.156C309.651 272.156 309.164 271.961 308.836 271.57C308.508 271.18 308.344 270.625 308.344 269.906V264.664H306.805V263.547H308.344V261.5H309.789ZM314.633 272H313.188V263.547H314.633V272ZM313.07 261.305C313.07 261.07 313.141 260.872 313.281 260.711C313.427 260.549 313.641 260.469 313.922 260.469C314.203 260.469 314.417 260.549 314.562 260.711C314.708 260.872 314.781 261.07 314.781 261.305C314.781 261.539 314.708 261.734 314.562 261.891C314.417 262.047 314.203 262.125 313.922 262.125C313.641 262.125 313.427 262.047 313.281 261.891C313.141 261.734 313.07 261.539 313.07 261.305ZM318.312 263.547L318.352 264.484C318.971 263.755 319.807 263.391 320.859 263.391C322.042 263.391 322.846 263.844 323.273 264.75C323.555 264.344 323.919 264.016 324.367 263.766C324.82 263.516 325.354 263.391 325.969 263.391C327.823 263.391 328.766 264.372 328.797 266.336V272H327.352V266.422C327.352 265.818 327.214 265.367 326.938 265.07C326.661 264.768 326.198 264.617 325.547 264.617C325.01 264.617 324.565 264.779 324.211 265.102C323.857 265.419 323.651 265.849 323.594 266.391V272H322.141V266.461C322.141 265.232 321.539 264.617 320.336 264.617C319.388 264.617 318.74 265.021 318.391 265.828V272H316.945V263.547H318.312ZM336.203 272C336.12 271.833 336.052 271.536 336 271.109C335.328 271.807 334.526 272.156 333.594 272.156C332.76 272.156 332.076 271.922 331.539 271.453C331.008 270.979 330.742 270.38 330.742 269.656C330.742 268.776 331.076 268.094 331.742 267.609C332.414 267.12 333.357 266.875 334.57 266.875H335.977V266.211C335.977 265.706 335.826 265.305 335.523 265.008C335.221 264.706 334.776 264.555 334.188 264.555C333.672 264.555 333.24 264.685 332.891 264.945C332.542 265.206 332.367 265.521 332.367 265.891H330.914C330.914 265.469 331.062 265.062 331.359 264.672C331.661 264.276 332.068 263.964 332.578 263.734C333.094 263.505 333.659 263.391 334.273 263.391C335.247 263.391 336.01 263.635 336.562 264.125C337.115 264.609 337.401 265.279 337.422 266.133V270.023C337.422 270.799 337.521 271.417 337.719 271.875V272H336.203ZM333.805 270.898C334.258 270.898 334.688 270.781 335.094 270.547C335.5 270.312 335.794 270.008 335.977 269.633V267.898H334.844C333.073 267.898 332.188 268.417 332.188 269.453C332.188 269.906 332.339 270.26 332.641 270.516C332.943 270.771 333.331 270.898 333.805 270.898ZM341.648 261.5V263.547H343.227V264.664H341.648V269.906C341.648 270.245 341.719 270.5 341.859 270.672C342 270.839 342.24 270.922 342.578 270.922C342.745 270.922 342.974 270.891 343.266 270.828V272C342.885 272.104 342.516 272.156 342.156 272.156C341.51 272.156 341.023 271.961 340.695 271.57C340.367 271.18 340.203 270.625 340.203 269.906V264.664H338.664V263.547H340.203V261.5H341.648ZM348.43 272.156C347.284 272.156 346.352 271.781 345.633 271.031C344.914 270.276 344.555 269.268 344.555 268.008V267.742C344.555 266.904 344.714 266.156 345.031 265.5C345.354 264.839 345.802 264.323 346.375 263.953C346.953 263.578 347.578 263.391 348.25 263.391C349.349 263.391 350.203 263.753 350.812 264.477C351.422 265.201 351.727 266.237 351.727 267.586V268.188H346C346.021 269.021 346.263 269.695 346.727 270.211C347.195 270.721 347.789 270.977 348.508 270.977C349.018 270.977 349.451 270.872 349.805 270.664C350.159 270.456 350.469 270.18 350.734 269.836L351.617 270.523C350.909 271.612 349.846 272.156 348.43 272.156ZM348.25 264.578C347.667 264.578 347.177 264.792 346.781 265.219C346.385 265.641 346.141 266.234 346.047 267H350.281V266.891C350.24 266.156 350.042 265.589 349.688 265.188C349.333 264.781 348.854 264.578 348.25 264.578Z" fill="black"/>
<rect x="50" y="304" width="216" height="86" rx="20" fill="#C4C4C4"/>
<path d="M71.6719 347.93C70.3854 347.56 69.4479 347.107 68.8594 346.57C68.276 346.029 67.9844 345.362 67.9844 344.57C67.9844 343.674 68.3411 342.935 69.0547 342.352C69.7734 341.763 70.7057 341.469 71.8516 341.469C72.6328 341.469 73.3281 341.62 73.9375 341.922C74.5521 342.224 75.026 342.641 75.3594 343.172C75.6979 343.703 75.8672 344.284 75.8672 344.914H74.3594C74.3594 344.227 74.1406 343.688 73.7031 343.297C73.2656 342.901 72.6484 342.703 71.8516 342.703C71.112 342.703 70.5339 342.867 70.1172 343.195C69.7057 343.518 69.5 343.969 69.5 344.547C69.5 345.01 69.6953 345.404 70.0859 345.727C70.4818 346.044 71.151 346.336 72.0938 346.602C73.0417 346.867 73.7812 347.161 74.3125 347.484C74.849 347.802 75.2448 348.174 75.5 348.602C75.7604 349.029 75.8906 349.531 75.8906 350.109C75.8906 351.031 75.5312 351.771 74.8125 352.328C74.0938 352.88 73.1328 353.156 71.9297 353.156C71.1484 353.156 70.4193 353.008 69.7422 352.711C69.0651 352.409 68.5417 351.997 68.1719 351.477C67.8073 350.956 67.625 350.365 67.625 349.703H69.1328C69.1328 350.391 69.3854 350.935 69.8906 351.336C70.401 351.732 71.0807 351.93 71.9297 351.93C72.7214 351.93 73.3281 351.768 73.75 351.445C74.1719 351.122 74.3828 350.682 74.3828 350.125C74.3828 349.568 74.1875 349.138 73.7969 348.836C73.4062 348.529 72.6979 348.227 71.6719 347.93ZM82.8125 353C82.7292 352.833 82.6615 352.536 82.6094 352.109C81.9375 352.807 81.1354 353.156 80.2031 353.156C79.3698 353.156 78.6849 352.922 78.1484 352.453C77.6172 351.979 77.3516 351.38 77.3516 350.656C77.3516 349.776 77.6849 349.094 78.3516 348.609C79.0234 348.12 79.9661 347.875 81.1797 347.875H82.5859V347.211C82.5859 346.706 82.4349 346.305 82.1328 346.008C81.8307 345.706 81.3854 345.555 80.7969 345.555C80.2812 345.555 79.849 345.685 79.5 345.945C79.151 346.206 78.9766 346.521 78.9766 346.891H77.5234C77.5234 346.469 77.6719 346.062 77.9688 345.672C78.2708 345.276 78.6771 344.964 79.1875 344.734C79.7031 344.505 80.2682 344.391 80.8828 344.391C81.8568 344.391 82.6198 344.635 83.1719 345.125C83.724 345.609 84.0104 346.279 84.0312 347.133V351.023C84.0312 351.799 84.1302 352.417 84.3281 352.875V353H82.8125ZM80.4141 351.898C80.8672 351.898 81.2969 351.781 81.7031 351.547C82.1094 351.312 82.4036 351.008 82.5859 350.633V348.898H81.4531C79.6823 348.898 78.7969 349.417 78.7969 350.453C78.7969 350.906 78.9479 351.26 79.25 351.516C79.5521 351.771 79.9401 351.898 80.4141 351.898ZM88.9609 351.039L91.0547 344.547H92.5312L89.5 353H88.3984L85.3359 344.547H86.8125L88.9609 351.039ZM95.4922 353H94.0469V344.547H95.4922V353ZM93.9297 342.305C93.9297 342.07 94 341.872 94.1406 341.711C94.2865 341.549 94.5 341.469 94.7812 341.469C95.0625 341.469 95.276 341.549 95.4219 341.711C95.5677 341.872 95.6406 342.07 95.6406 342.305C95.6406 342.539 95.5677 342.734 95.4219 342.891C95.276 343.047 95.0625 343.125 94.7812 343.125C94.5 343.125 94.2865 343.047 94.1406 342.891C94 342.734 93.9297 342.539 93.9297 342.305ZM99.1797 344.547L99.2266 345.609C99.8724 344.797 100.716 344.391 101.758 344.391C103.544 344.391 104.445 345.398 104.461 347.414V353H103.016V347.406C103.01 346.797 102.87 346.346 102.594 346.055C102.323 345.763 101.898 345.617 101.32 345.617C100.852 345.617 100.44 345.742 100.086 345.992C99.7318 346.242 99.4557 346.57 99.2578 346.977V353H97.8125V344.547H99.1797ZM106.297 348.703C106.297 347.385 106.602 346.339 107.211 345.562C107.82 344.781 108.628 344.391 109.633 344.391C110.664 344.391 111.469 344.755 112.047 345.484L112.117 344.547H113.438V352.797C113.438 353.891 113.112 354.753 112.461 355.383C111.815 356.013 110.945 356.328 109.852 356.328C109.242 356.328 108.646 356.198 108.062 355.938C107.479 355.677 107.034 355.32 106.727 354.867L107.477 354C108.096 354.766 108.854 355.148 109.75 355.148C110.453 355.148 111 354.951 111.391 354.555C111.786 354.159 111.984 353.602 111.984 352.883V352.156C111.406 352.823 110.617 353.156 109.617 353.156C108.628 353.156 107.826 352.758 107.211 351.961C106.602 351.164 106.297 350.078 106.297 348.703ZM107.75 348.867C107.75 349.82 107.945 350.57 108.336 351.117C108.727 351.659 109.273 351.93 109.977 351.93C110.888 351.93 111.557 351.516 111.984 350.688V346.828C111.542 346.021 110.878 345.617 109.992 345.617C109.289 345.617 108.74 345.891 108.344 346.438C107.948 346.984 107.75 347.794 107.75 348.867ZM120.547 350.758C120.547 350.367 120.398 350.065 120.102 349.852C119.81 349.633 119.297 349.445 118.562 349.289C117.833 349.133 117.253 348.945 116.82 348.727C116.393 348.508 116.076 348.247 115.867 347.945C115.664 347.643 115.562 347.284 115.562 346.867C115.562 346.174 115.854 345.589 116.438 345.109C117.026 344.63 117.776 344.391 118.688 344.391C119.646 344.391 120.422 344.638 121.016 345.133C121.615 345.628 121.914 346.26 121.914 347.031H120.461C120.461 346.635 120.292 346.294 119.953 346.008C119.62 345.721 119.198 345.578 118.688 345.578C118.161 345.578 117.75 345.693 117.453 345.922C117.156 346.151 117.008 346.451 117.008 346.82C117.008 347.169 117.146 347.432 117.422 347.609C117.698 347.786 118.195 347.956 118.914 348.117C119.638 348.279 120.224 348.471 120.672 348.695C121.12 348.919 121.451 349.19 121.664 349.508C121.883 349.82 121.992 350.203 121.992 350.656C121.992 351.411 121.69 352.018 121.086 352.477C120.482 352.93 119.698 353.156 118.734 353.156C118.057 353.156 117.458 353.036 116.938 352.797C116.417 352.557 116.008 352.224 115.711 351.797C115.419 351.365 115.273 350.898 115.273 350.398H116.719C116.745 350.883 116.938 351.268 117.297 351.555C117.661 351.836 118.141 351.977 118.734 351.977C119.281 351.977 119.719 351.867 120.047 351.648C120.38 351.424 120.547 351.128 120.547 350.758ZM127.5 348.703C127.5 347.385 127.805 346.339 128.414 345.562C129.023 344.781 129.831 344.391 130.836 344.391C131.867 344.391 132.672 344.755 133.25 345.484L133.32 344.547H134.641V352.797C134.641 353.891 134.315 354.753 133.664 355.383C133.018 356.013 132.148 356.328 131.055 356.328C130.445 356.328 129.849 356.198 129.266 355.938C128.682 355.677 128.237 355.32 127.93 354.867L128.68 354C129.299 354.766 130.057 355.148 130.953 355.148C131.656 355.148 132.203 354.951 132.594 354.555C132.99 354.159 133.188 353.602 133.188 352.883V352.156C132.609 352.823 131.82 353.156 130.82 353.156C129.831 353.156 129.029 352.758 128.414 351.961C127.805 351.164 127.5 350.078 127.5 348.703ZM128.953 348.867C128.953 349.82 129.148 350.57 129.539 351.117C129.93 351.659 130.477 351.93 131.18 351.93C132.091 351.93 132.76 351.516 133.188 350.688V346.828C132.745 346.021 132.081 345.617 131.195 345.617C130.492 345.617 129.943 345.891 129.547 346.438C129.151 346.984 128.953 347.794 128.953 348.867ZM136.445 348.695C136.445 347.867 136.607 347.122 136.93 346.461C137.258 345.799 137.711 345.289 138.289 344.93C138.872 344.57 139.536 344.391 140.281 344.391C141.432 344.391 142.362 344.789 143.07 345.586C143.784 346.383 144.141 347.443 144.141 348.766V348.867C144.141 349.69 143.982 350.43 143.664 351.086C143.352 351.737 142.901 352.245 142.312 352.609C141.729 352.974 141.057 353.156 140.297 353.156C139.151 353.156 138.221 352.758 137.508 351.961C136.799 351.164 136.445 350.109 136.445 348.797V348.695ZM137.898 348.867C137.898 349.805 138.115 350.557 138.547 351.125C138.984 351.693 139.568 351.977 140.297 351.977C141.031 351.977 141.615 351.69 142.047 351.117C142.479 350.539 142.695 349.732 142.695 348.695C142.695 347.768 142.474 347.018 142.031 346.445C141.594 345.867 141.01 345.578 140.281 345.578C139.568 345.578 138.992 345.862 138.555 346.43C138.117 346.997 137.898 347.81 137.898 348.867ZM151.172 353C151.089 352.833 151.021 352.536 150.969 352.109C150.297 352.807 149.495 353.156 148.562 353.156C147.729 353.156 147.044 352.922 146.508 352.453C145.977 351.979 145.711 351.38 145.711 350.656C145.711 349.776 146.044 349.094 146.711 348.609C147.383 348.12 148.326 347.875 149.539 347.875H150.945V347.211C150.945 346.706 150.794 346.305 150.492 346.008C150.19 345.706 149.745 345.555 149.156 345.555C148.641 345.555 148.208 345.685 147.859 345.945C147.51 346.206 147.336 346.521 147.336 346.891H145.883C145.883 346.469 146.031 346.062 146.328 345.672C146.63 345.276 147.036 344.964 147.547 344.734C148.062 344.505 148.628 344.391 149.242 344.391C150.216 344.391 150.979 344.635 151.531 345.125C152.083 345.609 152.37 346.279 152.391 347.133V351.023C152.391 351.799 152.49 352.417 152.688 352.875V353H151.172ZM148.773 351.898C149.227 351.898 149.656 351.781 150.062 351.547C150.469 351.312 150.763 351.008 150.945 350.633V348.898H149.812C148.042 348.898 147.156 349.417 147.156 350.453C147.156 350.906 147.307 351.26 147.609 351.516C147.911 351.771 148.299 351.898 148.773 351.898ZM156.227 353H154.781V341H156.227V353Z" fill="black"/>
<rect x="270" y="304" width="115" height="86" rx="20" fill="#C4C4C4"/>
<path d="M292.82 328.547V333H291.32V321.625H295.516C296.76 321.625 297.734 321.943 298.438 322.578C299.146 323.214 299.5 324.055 299.5 325.102C299.5 326.206 299.154 327.057 298.461 327.656C297.773 328.25 296.786 328.547 295.5 328.547H292.82ZM292.82 327.32H295.516C296.318 327.32 296.932 327.133 297.359 326.758C297.786 326.378 298 325.831 298 325.117C298 324.44 297.786 323.898 297.359 323.492C296.932 323.086 296.346 322.875 295.602 322.859H292.82V327.32ZM306.312 333C306.229 332.833 306.161 332.536 306.109 332.109C305.438 332.807 304.635 333.156 303.703 333.156C302.87 333.156 302.185 332.922 301.648 332.453C301.117 331.979 300.852 331.38 300.852 330.656C300.852 329.776 301.185 329.094 301.852 328.609C302.523 328.12 303.466 327.875 304.68 327.875H306.086V327.211C306.086 326.706 305.935 326.305 305.633 326.008C305.331 325.706 304.885 325.555 304.297 325.555C303.781 325.555 303.349 325.685 303 325.945C302.651 326.206 302.477 326.521 302.477 326.891H301.023C301.023 326.469 301.172 326.062 301.469 325.672C301.771 325.276 302.177 324.964 302.688 324.734C303.203 324.505 303.768 324.391 304.383 324.391C305.357 324.391 306.12 324.635 306.672 325.125C307.224 325.609 307.51 326.279 307.531 327.133V331.023C307.531 331.799 307.63 332.417 307.828 332.875V333H306.312ZM303.914 331.898C304.367 331.898 304.797 331.781 305.203 331.547C305.609 331.312 305.904 331.008 306.086 330.633V328.898H304.953C303.182 328.898 302.297 329.417 302.297 330.453C302.297 330.906 302.448 331.26 302.75 331.516C303.052 331.771 303.44 331.898 303.914 331.898ZM312.438 330.883L314.406 324.547H315.953L312.555 334.305C312.029 335.711 311.193 336.414 310.047 336.414L309.773 336.391L309.234 336.289V335.117L309.625 335.148C310.115 335.148 310.495 335.049 310.766 334.852C311.042 334.654 311.268 334.292 311.445 333.766L311.766 332.906L308.75 324.547H310.328L312.438 330.883ZM318.609 324.547L318.648 325.484C319.268 324.755 320.104 324.391 321.156 324.391C322.339 324.391 323.143 324.844 323.57 325.75C323.852 325.344 324.216 325.016 324.664 324.766C325.117 324.516 325.651 324.391 326.266 324.391C328.12 324.391 329.062 325.372 329.094 327.336V333H327.648V327.422C327.648 326.818 327.51 326.367 327.234 326.07C326.958 325.768 326.495 325.617 325.844 325.617C325.307 325.617 324.862 325.779 324.508 326.102C324.154 326.419 323.948 326.849 323.891 327.391V333H322.438V327.461C322.438 326.232 321.836 325.617 320.633 325.617C319.685 325.617 319.036 326.021 318.688 326.828V333H317.242V324.547H318.609ZM334.789 333.156C333.643 333.156 332.711 332.781 331.992 332.031C331.273 331.276 330.914 330.268 330.914 329.008V328.742C330.914 327.904 331.073 327.156 331.391 326.5C331.714 325.839 332.161 325.323 332.734 324.953C333.312 324.578 333.938 324.391 334.609 324.391C335.708 324.391 336.562 324.753 337.172 325.477C337.781 326.201 338.086 327.237 338.086 328.586V329.188H332.359C332.38 330.021 332.622 330.695 333.086 331.211C333.555 331.721 334.148 331.977 334.867 331.977C335.378 331.977 335.81 331.872 336.164 331.664C336.518 331.456 336.828 331.18 337.094 330.836L337.977 331.523C337.268 332.612 336.206 333.156 334.789 333.156ZM334.609 325.578C334.026 325.578 333.536 325.792 333.141 326.219C332.745 326.641 332.5 327.234 332.406 328H336.641V327.891C336.599 327.156 336.401 326.589 336.047 326.188C335.693 325.781 335.214 325.578 334.609 325.578ZM341.133 324.547L341.18 325.609C341.826 324.797 342.669 324.391 343.711 324.391C345.497 324.391 346.398 325.398 346.414 327.414V333H344.969V327.406C344.964 326.797 344.823 326.346 344.547 326.055C344.276 325.763 343.852 325.617 343.273 325.617C342.805 325.617 342.393 325.742 342.039 325.992C341.685 326.242 341.409 326.57 341.211 326.977V333H339.766V324.547H341.133ZM350.555 322.5V324.547H352.133V325.664H350.555V330.906C350.555 331.245 350.625 331.5 350.766 331.672C350.906 331.839 351.146 331.922 351.484 331.922C351.651 331.922 351.88 331.891 352.172 331.828V333C351.792 333.104 351.422 333.156 351.062 333.156C350.417 333.156 349.93 332.961 349.602 332.57C349.273 332.18 349.109 331.625 349.109 330.906V325.664H347.57V324.547H349.109V322.5H350.555ZM294.484 350.977C295 350.977 295.451 350.82 295.836 350.508C296.221 350.195 296.435 349.805 296.477 349.336H297.844C297.818 349.82 297.651 350.281 297.344 350.719C297.036 351.156 296.625 351.505 296.109 351.766C295.599 352.026 295.057 352.156 294.484 352.156C293.333 352.156 292.417 351.773 291.734 351.008C291.057 350.237 290.719 349.185 290.719 347.852V347.609C290.719 346.786 290.87 346.055 291.172 345.414C291.474 344.773 291.906 344.276 292.469 343.922C293.036 343.568 293.706 343.391 294.477 343.391C295.424 343.391 296.211 343.674 296.836 344.242C297.466 344.81 297.802 345.547 297.844 346.453H296.477C296.435 345.906 296.227 345.458 295.852 345.109C295.482 344.755 295.023 344.578 294.477 344.578C293.742 344.578 293.172 344.844 292.766 345.375C292.365 345.901 292.164 346.664 292.164 347.664V347.938C292.164 348.911 292.365 349.661 292.766 350.188C293.167 350.714 293.74 350.977 294.484 350.977ZM300.914 344.57C301.555 343.784 302.388 343.391 303.414 343.391C305.201 343.391 306.102 344.398 306.117 346.414V352H304.672V346.406C304.667 345.797 304.526 345.346 304.25 345.055C303.979 344.763 303.555 344.617 302.977 344.617C302.508 344.617 302.096 344.742 301.742 344.992C301.388 345.242 301.112 345.57 300.914 345.977V352H299.469V340H300.914V344.57ZM313.5 352C313.417 351.833 313.349 351.536 313.297 351.109C312.625 351.807 311.823 352.156 310.891 352.156C310.057 352.156 309.372 351.922 308.836 351.453C308.305 350.979 308.039 350.38 308.039 349.656C308.039 348.776 308.372 348.094 309.039 347.609C309.711 347.12 310.654 346.875 311.867 346.875H313.273V346.211C313.273 345.706 313.122 345.305 312.82 345.008C312.518 344.706 312.073 344.555 311.484 344.555C310.969 344.555 310.536 344.685 310.188 344.945C309.839 345.206 309.664 345.521 309.664 345.891H308.211C308.211 345.469 308.359 345.062 308.656 344.672C308.958 344.276 309.365 343.964 309.875 343.734C310.391 343.505 310.956 343.391 311.57 343.391C312.544 343.391 313.307 343.635 313.859 344.125C314.411 344.609 314.698 345.279 314.719 346.133V350.023C314.719 350.799 314.818 351.417 315.016 351.875V352H313.5ZM311.102 350.898C311.555 350.898 311.984 350.781 312.391 350.547C312.797 350.312 313.091 350.008 313.273 349.633V347.898H312.141C310.37 347.898 309.484 348.417 309.484 349.453C309.484 349.906 309.635 350.26 309.938 350.516C310.24 350.771 310.628 350.898 311.102 350.898ZM318.352 343.547L318.398 344.609C319.044 343.797 319.888 343.391 320.93 343.391C322.716 343.391 323.617 344.398 323.633 346.414V352H322.188V346.406C322.182 345.797 322.042 345.346 321.766 345.055C321.495 344.763 321.07 344.617 320.492 344.617C320.023 344.617 319.612 344.742 319.258 344.992C318.904 345.242 318.628 345.57 318.43 345.977V352H316.984V343.547H318.352ZM325.469 347.703C325.469 346.385 325.773 345.339 326.383 344.562C326.992 343.781 327.799 343.391 328.805 343.391C329.836 343.391 330.641 343.755 331.219 344.484L331.289 343.547H332.609V351.797C332.609 352.891 332.284 353.753 331.633 354.383C330.987 355.013 330.117 355.328 329.023 355.328C328.414 355.328 327.818 355.198 327.234 354.938C326.651 354.677 326.206 354.32 325.898 353.867L326.648 353C327.268 353.766 328.026 354.148 328.922 354.148C329.625 354.148 330.172 353.951 330.562 353.555C330.958 353.159 331.156 352.602 331.156 351.883V351.156C330.578 351.823 329.789 352.156 328.789 352.156C327.799 352.156 326.997 351.758 326.383 350.961C325.773 350.164 325.469 349.078 325.469 347.703ZM326.922 347.867C326.922 348.82 327.117 349.57 327.508 350.117C327.898 350.659 328.445 350.93 329.148 350.93C330.06 350.93 330.729 350.516 331.156 349.688V345.828C330.714 345.021 330.049 344.617 329.164 344.617C328.461 344.617 327.911 344.891 327.516 345.438C327.12 345.984 326.922 346.794 326.922 347.867ZM338.305 352.156C337.159 352.156 336.227 351.781 335.508 351.031C334.789 350.276 334.43 349.268 334.43 348.008V347.742C334.43 346.904 334.589 346.156 334.906 345.5C335.229 344.839 335.677 344.323 336.25 343.953C336.828 343.578 337.453 343.391 338.125 343.391C339.224 343.391 340.078 343.753 340.688 344.477C341.297 345.201 341.602 346.237 341.602 347.586V348.188H335.875C335.896 349.021 336.138 349.695 336.602 350.211C337.07 350.721 337.664 350.977 338.383 350.977C338.893 350.977 339.326 350.872 339.68 350.664C340.034 350.456 340.344 350.18 340.609 349.836L341.492 350.523C340.784 351.612 339.721 352.156 338.305 352.156ZM338.125 344.578C337.542 344.578 337.052 344.792 336.656 345.219C336.26 345.641 336.016 346.234 335.922 347H340.156V346.891C340.115 346.156 339.917 345.589 339.562 345.188C339.208 344.781 338.729 344.578 338.125 344.578ZM294.602 371.156C293.456 371.156 292.523 370.781 291.805 370.031C291.086 369.276 290.727 368.268 290.727 367.008V366.742C290.727 365.904 290.885 365.156 291.203 364.5C291.526 363.839 291.974 363.323 292.547 362.953C293.125 362.578 293.75 362.391 294.422 362.391C295.521 362.391 296.375 362.753 296.984 363.477C297.594 364.201 297.898 365.237 297.898 366.586V367.188H292.172C292.193 368.021 292.435 368.695 292.898 369.211C293.367 369.721 293.961 369.977 294.68 369.977C295.19 369.977 295.622 369.872 295.977 369.664C296.331 369.456 296.641 369.18 296.906 368.836L297.789 369.523C297.081 370.612 296.018 371.156 294.602 371.156ZM294.422 363.578C293.839 363.578 293.349 363.792 292.953 364.219C292.557 364.641 292.312 365.234 292.219 366H296.453V365.891C296.411 365.156 296.214 364.589 295.859 364.188C295.505 363.781 295.026 363.578 294.422 363.578ZM304.5 368.758C304.5 368.367 304.352 368.065 304.055 367.852C303.763 367.633 303.25 367.445 302.516 367.289C301.786 367.133 301.206 366.945 300.773 366.727C300.346 366.508 300.029 366.247 299.82 365.945C299.617 365.643 299.516 365.284 299.516 364.867C299.516 364.174 299.807 363.589 300.391 363.109C300.979 362.63 301.729 362.391 302.641 362.391C303.599 362.391 304.375 362.638 304.969 363.133C305.568 363.628 305.867 364.26 305.867 365.031H304.414C304.414 364.635 304.245 364.294 303.906 364.008C303.573 363.721 303.151 363.578 302.641 363.578C302.115 363.578 301.703 363.693 301.406 363.922C301.109 364.151 300.961 364.451 300.961 364.82C300.961 365.169 301.099 365.432 301.375 365.609C301.651 365.786 302.148 365.956 302.867 366.117C303.591 366.279 304.177 366.471 304.625 366.695C305.073 366.919 305.404 367.19 305.617 367.508C305.836 367.82 305.945 368.203 305.945 368.656C305.945 369.411 305.643 370.018 305.039 370.477C304.435 370.93 303.651 371.156 302.688 371.156C302.01 371.156 301.411 371.036 300.891 370.797C300.37 370.557 299.961 370.224 299.664 369.797C299.372 369.365 299.227 368.898 299.227 368.398H300.672C300.698 368.883 300.891 369.268 301.25 369.555C301.615 369.836 302.094 369.977 302.688 369.977C303.234 369.977 303.672 369.867 304 369.648C304.333 369.424 304.5 369.128 304.5 368.758ZM309.789 360.5V362.547H311.367V363.664H309.789V368.906C309.789 369.245 309.859 369.5 310 369.672C310.141 369.839 310.38 369.922 310.719 369.922C310.885 369.922 311.115 369.891 311.406 369.828V371C311.026 371.104 310.656 371.156 310.297 371.156C309.651 371.156 309.164 370.961 308.836 370.57C308.508 370.18 308.344 369.625 308.344 368.906V363.664H306.805V362.547H308.344V360.5H309.789ZM314.633 371H313.188V362.547H314.633V371ZM313.07 360.305C313.07 360.07 313.141 359.872 313.281 359.711C313.427 359.549 313.641 359.469 313.922 359.469C314.203 359.469 314.417 359.549 314.562 359.711C314.708 359.872 314.781 360.07 314.781 360.305C314.781 360.539 314.708 360.734 314.562 360.891C314.417 361.047 314.203 361.125 313.922 361.125C313.641 361.125 313.427 361.047 313.281 360.891C313.141 360.734 313.07 360.539 313.07 360.305ZM318.312 362.547L318.352 363.484C318.971 362.755 319.807 362.391 320.859 362.391C322.042 362.391 322.846 362.844 323.273 363.75C323.555 363.344 323.919 363.016 324.367 362.766C324.82 362.516 325.354 362.391 325.969 362.391C327.823 362.391 328.766 363.372 328.797 365.336V371H327.352V365.422C327.352 364.818 327.214 364.367 326.938 364.07C326.661 363.768 326.198 363.617 325.547 363.617C325.01 363.617 324.565 363.779 324.211 364.102C323.857 364.419 323.651 364.849 323.594 365.391V371H322.141V365.461C322.141 364.232 321.539 363.617 320.336 363.617C319.388 363.617 318.74 364.021 318.391 364.828V371H316.945V362.547H318.312ZM336.203 371C336.12 370.833 336.052 370.536 336 370.109C335.328 370.807 334.526 371.156 333.594 371.156C332.76 371.156 332.076 370.922 331.539 370.453C331.008 369.979 330.742 369.38 330.742 368.656C330.742 367.776 331.076 367.094 331.742 366.609C332.414 366.12 333.357 365.875 334.57 365.875H335.977V365.211C335.977 364.706 335.826 364.305 335.523 364.008C335.221 363.706 334.776 363.555 334.188 363.555C333.672 363.555 333.24 363.685 332.891 363.945C332.542 364.206 332.367 364.521 332.367 364.891H330.914C330.914 364.469 331.062 364.062 331.359 363.672C331.661 363.276 332.068 362.964 332.578 362.734C333.094 362.505 333.659 362.391 334.273 362.391C335.247 362.391 336.01 362.635 336.562 363.125C337.115 363.609 337.401 364.279 337.422 365.133V369.023C337.422 369.799 337.521 370.417 337.719 370.875V371H336.203ZM333.805 369.898C334.258 369.898 334.688 369.781 335.094 369.547C335.5 369.312 335.794 369.008 335.977 368.633V366.898H334.844C333.073 366.898 332.188 367.417 332.188 368.453C332.188 368.906 332.339 369.26 332.641 369.516C332.943 369.771 333.331 369.898 333.805 369.898ZM341.648 360.5V362.547H343.227V363.664H341.648V368.906C341.648 369.245 341.719 369.5 341.859 369.672C342 369.839 342.24 369.922 342.578 369.922C342.745 369.922 342.974 369.891 343.266 369.828V371C342.885 371.104 342.516 371.156 342.156 371.156C341.51 371.156 341.023 370.961 340.695 370.57C340.367 370.18 340.203 369.625 340.203 368.906V363.664H338.664V362.547H340.203V360.5H341.648ZM348.43 371.156C347.284 371.156 346.352 370.781 345.633 370.031C344.914 369.276 344.555 368.268 344.555 367.008V366.742C344.555 365.904 344.714 365.156 345.031 364.5C345.354 363.839 345.802 363.323 346.375 362.953C346.953 362.578 347.578 362.391 348.25 362.391C349.349 362.391 350.203 362.753 350.812 363.477C351.422 364.201 351.727 365.237 351.727 366.586V367.188H346C346.021 368.021 346.263 368.695 346.727 369.211C347.195 369.721 347.789 369.977 348.508 369.977C349.018 369.977 349.451 369.872 349.805 369.664C350.159 369.456 350.469 369.18 350.734 368.836L351.617 369.523C350.909 370.612 349.846 371.156 348.43 371.156ZM348.25 363.578C347.667 363.578 347.177 363.792 346.781 364.219C346.385 364.641 346.141 365.234 346.047 366H350.281V365.891C350.24 365.156 350.042 364.589 349.688 364.188C349.333 363.781 348.854 363.578 348.25 363.578Z" fill="black"/>
</g>
<defs>
<clipPath id="clip0_117:18121">
<rect width="435" height="876" fill="white"/>
</clipPath>
</defs>
</svg>
