<svg width="129" height="29" viewBox="0 0 129 29" fill="none" xmlns="http://www.w3.org/2000/svg">
<path d="M4.68 14.138C4.68 14.594 4.704 14.966 4.752 15.254C4.812 15.53 4.932 15.746 5.112 15.902C5.292 16.046 5.544 16.148 5.868 16.208C6.204 16.268 6.642 16.304 7.182 16.316V17H0.81V16.316C1.23 16.304 1.566 16.268 1.818 16.208C2.082 16.148 2.286 16.046 2.43 15.902C2.574 15.758 2.67 15.554 2.718 15.29C2.766 15.026 2.79 14.684 2.79 14.264V5.876C2.79 5.456 2.766 5.12 2.718 4.868C2.682 4.604 2.598 4.4 2.466 4.256C2.346 4.1 2.166 3.998 1.926 3.95C1.686 3.89 1.374 3.848 0.99 3.824V3.14H11.394L11.592 6.578H10.962C10.89 6.062 10.776 5.642 10.62 5.318C10.464 4.982 10.242 4.718 9.954 4.526C9.678 4.334 9.324 4.202 8.892 4.13C8.46 4.046 7.92 4.004 7.272 4.004H4.986C4.782 4.004 4.68 4.106 4.68 4.31V9.746C5.256 9.746 5.748 9.716 6.156 9.656C6.576 9.584 6.918 9.464 7.182 9.296C7.458 9.128 7.668 8.9 7.812 8.612C7.956 8.324 8.046 7.952 8.082 7.496H8.712V12.77H8.082C8.022 12.314 7.926 11.936 7.794 11.636C7.662 11.336 7.464 11.102 7.2 10.934C6.948 10.766 6.618 10.646 6.21 10.574C5.802 10.502 5.292 10.466 4.68 10.466V14.138ZM18.0502 11.672C17.3662 11.936 16.7842 12.194 16.3042 12.446C15.8362 12.698 15.4582 12.95 15.1702 13.202C14.8822 13.454 14.6722 13.706 14.5402 13.958C14.4202 14.21 14.3602 14.468 14.3602 14.732C14.3602 15.128 14.4922 15.452 14.7562 15.704C15.0202 15.956 15.3682 16.082 15.8002 16.082C16.1122 16.082 16.4002 16.004 16.6642 15.848C16.9402 15.692 17.1802 15.482 17.3842 15.218C17.5882 14.942 17.7502 14.624 17.8702 14.264C17.9902 13.892 18.0502 13.502 18.0502 13.094V11.672ZM18.0502 10.898V10.16C18.0502 8.696 17.4262 7.964 16.1782 7.964C15.9742 7.964 15.8002 7.982 15.6562 8.018C15.5122 8.054 15.3922 8.114 15.2962 8.198C15.2002 8.282 15.1102 8.402 15.0262 8.558C14.9542 8.714 14.8822 8.906 14.8102 9.134C14.6782 9.482 14.5462 9.716 14.4142 9.836C14.2942 9.944 14.1142 9.998 13.8742 9.998C13.2742 9.998 12.9742 9.698 12.9742 9.098C12.9742 8.522 13.2802 8.078 13.8922 7.766C14.5042 7.442 15.3742 7.28 16.5022 7.28C17.7022 7.28 18.5542 7.496 19.0582 7.928C19.5622 8.348 19.8142 9.068 19.8142 10.088V14.12C19.8142 15.488 20.0842 16.172 20.6242 16.172C20.7922 16.172 20.9542 16.154 21.1102 16.118C21.2662 16.07 21.3982 15.956 21.5062 15.776L21.7582 16.208C21.6142 16.484 21.3502 16.718 20.9662 16.91C20.5822 17.09 20.1802 17.18 19.7602 17.18C19.2322 17.18 18.8362 17.012 18.5722 16.676C18.3202 16.34 18.1942 15.866 18.1942 15.254H18.1042C17.7922 15.842 17.3602 16.31 16.8082 16.658C16.2562 16.994 15.6442 17.162 14.9722 17.162C14.2162 17.162 13.6222 16.97 13.1902 16.586C12.7582 16.202 12.5422 15.686 12.5422 15.038C12.5422 14.75 12.5902 14.474 12.6862 14.21C12.7942 13.946 12.9622 13.694 13.1902 13.454C13.4182 13.214 13.7182 12.98 14.0902 12.752C14.4622 12.512 14.9182 12.272 15.4582 12.032L18.0502 10.898ZM26.199 14.138C26.199 14.606 26.217 14.984 26.253 15.272C26.301 15.548 26.385 15.77 26.505 15.938C26.625 16.094 26.793 16.202 27.009 16.262C27.225 16.322 27.513 16.358 27.873 16.37V17H22.707V16.37C23.067 16.358 23.361 16.322 23.589 16.262C23.817 16.19 23.991 16.082 24.111 15.938C24.243 15.782 24.327 15.572 24.363 15.308C24.411 15.032 24.435 14.684 24.435 14.264V11.96C24.435 11.264 24.423 10.694 24.399 10.25C24.387 9.794 24.357 9.482 24.309 9.314C24.249 9.038 24.111 8.852 23.895 8.756C23.679 8.648 23.271 8.594 22.671 8.594V7.964L26.199 7.28V14.138ZM24.129 3.626C24.129 3.314 24.237 3.05 24.453 2.834C24.669 2.618 24.933 2.51 25.245 2.51C25.557 2.51 25.821 2.618 26.037 2.834C26.253 3.05 26.361 3.314 26.361 3.626C26.361 3.938 26.253 4.202 26.037 4.418C25.821 4.634 25.557 4.742 25.245 4.742C24.933 4.742 24.669 4.634 24.453 4.418C24.237 4.202 24.129 3.938 24.129 3.626ZM29.3098 8.594V7.928C29.9458 7.556 30.4438 7.184 30.8038 6.812C31.1638 6.44 31.4398 5.996 31.6318 5.48H32.1538V7.748H34.5658V8.594H32.1538V14.066C32.1538 14.486 32.1718 14.84 32.2078 15.128C32.2558 15.416 32.3278 15.65 32.4238 15.83C32.5198 15.998 32.6458 16.118 32.8018 16.19C32.9578 16.262 33.1558 16.298 33.3958 16.298C33.6958 16.298 33.9478 16.238 34.1518 16.118C34.3678 15.986 34.5778 15.77 34.7818 15.47L35.2318 15.812C35.0638 16.256 34.7698 16.598 34.3498 16.838C33.9418 17.066 33.4318 17.18 32.8198 17.18C32.0278 17.18 31.4218 16.994 31.0018 16.622C30.5938 16.238 30.3898 15.692 30.3898 14.984V8.594H29.3098ZM39.4965 14.138C39.4965 14.63 39.5085 15.02 39.5325 15.308C39.5565 15.596 39.6165 15.818 39.7125 15.974C39.8205 16.118 39.9705 16.214 40.1625 16.262C40.3545 16.31 40.6245 16.346 40.9725 16.37V17H36.1845V16.37C36.5325 16.346 36.8085 16.31 37.0125 16.262C37.2165 16.214 37.3725 16.118 37.4805 15.974C37.5885 15.83 37.6545 15.626 37.6785 15.362C37.7145 15.086 37.7325 14.72 37.7325 14.264V6.722C37.7325 6.014 37.7205 5.45 37.6965 5.03C37.6845 4.61 37.6545 4.292 37.6065 4.076C37.5825 3.932 37.5405 3.818 37.4805 3.734C37.4325 3.638 37.3545 3.566 37.2465 3.518C37.1385 3.458 36.9945 3.416 36.8145 3.392C36.6345 3.368 36.4125 3.356 36.1485 3.356V2.744L39.4605 2.06V8.918H39.5325C39.7125 8.678 39.9345 8.462 40.1985 8.27C40.4745 8.066 40.7685 7.892 41.0805 7.748C41.3925 7.604 41.7165 7.49 42.0525 7.406C42.4005 7.322 42.7365 7.28 43.0605 7.28C43.6125 7.28 44.1165 7.376 44.5725 7.568C45.0405 7.76 45.4005 8.018 45.6525 8.342C45.8565 8.618 46.0065 8.984 46.1025 9.44C46.1985 9.884 46.2465 10.49 46.2465 11.258V14.138C46.2465 14.63 46.2585 15.02 46.2825 15.308C46.3065 15.584 46.3665 15.8 46.4625 15.956C46.5705 16.112 46.7205 16.214 46.9125 16.262C47.1045 16.31 47.3745 16.346 47.7225 16.37V17H42.9525V16.37C43.2885 16.358 43.5585 16.328 43.7625 16.28C43.9665 16.22 44.1165 16.118 44.2125 15.974C44.3205 15.83 44.3865 15.626 44.4105 15.362C44.4465 15.086 44.4645 14.72 44.4645 14.264V11.996C44.4645 10.652 44.3085 9.698 43.9965 9.134C43.6845 8.558 43.1625 8.27 42.4305 8.27C41.8665 8.27 41.3505 8.414 40.8825 8.702C40.4265 8.99 40.0665 9.386 39.8025 9.89C39.7425 10.022 39.6885 10.148 39.6405 10.268C39.6045 10.376 39.5745 10.502 39.5505 10.646C39.5265 10.79 39.5085 10.958 39.4965 11.15C39.4965 11.33 39.4965 11.558 39.4965 11.834V14.138ZM61.737 17.18C60.717 17.18 59.799 17.018 58.983 16.694C58.167 16.37 57.471 15.914 56.895 15.326C56.319 14.726 55.875 14 55.563 13.148C55.263 12.296 55.113 11.348 55.113 10.304C55.113 9.212 55.281 8.216 55.617 7.316C55.953 6.416 56.421 5.642 57.021 4.994C57.633 4.346 58.359 3.848 59.199 3.5C60.051 3.14 60.987 2.96 62.007 2.96C62.727 2.96 63.405 3.062 64.041 3.266C64.677 3.47 65.367 3.8 66.111 4.256L66.489 3.14H67.119L66.885 7.28H66.021C66.021 6.692 65.907 6.188 65.679 5.768C65.463 5.336 65.175 4.982 64.815 4.706C64.455 4.43 64.041 4.226 63.573 4.094C63.117 3.962 62.649 3.896 62.169 3.896C61.437 3.896 60.783 4.04 60.207 4.328C59.631 4.616 59.145 5.03 58.749 5.57C58.353 6.11 58.047 6.77 57.831 7.55C57.627 8.33 57.525 9.212 57.525 10.196C57.525 12.128 57.927 13.616 58.731 14.66C59.535 15.692 60.699 16.208 62.223 16.208C62.799 16.208 63.315 16.142 63.771 16.01C64.227 15.866 64.611 15.68 64.923 15.452C65.247 15.212 65.487 14.942 65.643 14.642C65.811 14.33 65.895 14.006 65.895 13.67C65.895 12.974 65.751 12.506 65.463 12.266C65.187 12.014 64.731 11.888 64.095 11.888V11.204H69.207V11.888C68.919 11.888 68.679 11.912 68.487 11.96C68.295 12.008 68.139 12.098 68.019 12.23C67.911 12.35 67.833 12.512 67.785 12.716C67.749 12.92 67.731 13.178 67.731 13.49V15.506C67.503 15.506 67.293 15.518 67.101 15.542C66.921 15.554 66.729 15.596 66.525 15.668C66.321 15.728 66.093 15.818 65.841 15.938C65.601 16.046 65.313 16.196 64.977 16.388C64.557 16.628 64.071 16.82 63.519 16.964C62.979 17.108 62.385 17.18 61.737 17.18ZM76.3372 11.672C75.6532 11.936 75.0712 12.194 74.5912 12.446C74.1232 12.698 73.7452 12.95 73.4572 13.202C73.1692 13.454 72.9592 13.706 72.8272 13.958C72.7072 14.21 72.6472 14.468 72.6472 14.732C72.6472 15.128 72.7792 15.452 73.0432 15.704C73.3072 15.956 73.6552 16.082 74.0872 16.082C74.3992 16.082 74.6872 16.004 74.9512 15.848C75.2272 15.692 75.4672 15.482 75.6712 15.218C75.8752 14.942 76.0372 14.624 76.1572 14.264C76.2772 13.892 76.3372 13.502 76.3372 13.094V11.672ZM76.3372 10.898V10.16C76.3372 8.696 75.7132 7.964 74.4652 7.964C74.2612 7.964 74.0872 7.982 73.9432 8.018C73.7992 8.054 73.6792 8.114 73.5832 8.198C73.4872 8.282 73.3972 8.402 73.3132 8.558C73.2412 8.714 73.1692 8.906 73.0972 9.134C72.9652 9.482 72.8332 9.716 72.7012 9.836C72.5812 9.944 72.4012 9.998 72.1612 9.998C71.5612 9.998 71.2612 9.698 71.2612 9.098C71.2612 8.522 71.5672 8.078 72.1792 7.766C72.7912 7.442 73.6612 7.28 74.7892 7.28C75.9892 7.28 76.8412 7.496 77.3452 7.928C77.8492 8.348 78.1012 9.068 78.1012 10.088V14.12C78.1012 15.488 78.3712 16.172 78.9112 16.172C79.0792 16.172 79.2412 16.154 79.3972 16.118C79.5532 16.07 79.6852 15.956 79.7932 15.776L80.0452 16.208C79.9012 16.484 79.6372 16.718 79.2532 16.91C78.8692 17.09 78.4672 17.18 78.0472 17.18C77.5192 17.18 77.1232 17.012 76.8592 16.676C76.6072 16.34 76.4812 15.866 76.4812 15.254H76.3912C76.0792 15.842 75.6472 16.31 75.0952 16.658C74.5432 16.994 73.9312 17.162 73.2592 17.162C72.5032 17.162 71.9092 16.97 71.4772 16.586C71.0452 16.202 70.8292 15.686 70.8292 15.038C70.8292 14.75 70.8772 14.474 70.9732 14.21C71.0812 13.946 71.2492 13.694 71.4772 13.454C71.7052 13.214 72.0052 12.98 72.3772 12.752C72.7492 12.512 73.2052 12.272 73.7452 12.032L76.3372 10.898ZM84.378 14.138C84.378 14.63 84.39 15.02 84.414 15.308C84.438 15.596 84.498 15.818 84.594 15.974C84.702 16.118 84.852 16.214 85.044 16.262C85.236 16.31 85.506 16.346 85.854 16.37V17H81.066V16.37C81.414 16.358 81.69 16.328 81.894 16.28C82.098 16.22 82.254 16.118 82.362 15.974C82.47 15.83 82.536 15.626 82.56 15.362C82.596 15.086 82.614 14.72 82.614 14.264V12.158C82.614 11.342 82.602 10.706 82.578 10.25C82.566 9.794 82.506 9.458 82.398 9.242C82.302 9.026 82.146 8.9 81.93 8.864C81.714 8.816 81.414 8.792 81.03 8.792V8.162L84.18 7.478L84.432 9.71H84.504C84.66 9.35 84.852 9.02 85.08 8.72C85.32 8.42 85.578 8.168 85.854 7.964C86.13 7.748 86.418 7.58 86.718 7.46C87.018 7.34 87.324 7.28 87.636 7.28C88.02 7.28 88.32 7.376 88.536 7.568C88.764 7.748 88.878 7.994 88.878 8.306C88.878 8.594 88.788 8.822 88.608 8.99C88.428 9.146 88.17 9.224 87.834 9.224C87.642 9.224 87.48 9.2 87.348 9.152C87.216 9.104 87.096 9.056 86.988 9.008C86.892 8.948 86.796 8.894 86.7 8.846C86.616 8.798 86.52 8.774 86.412 8.774C86.088 8.774 85.764 8.984 85.44 9.404C85.116 9.812 84.864 10.334 84.684 10.97C84.588 11.318 84.51 11.714 84.45 12.158C84.402 12.59 84.378 13.046 84.378 13.526V14.138ZM93.0821 14.192C93.0821 14.648 93.1001 15.014 93.1361 15.29C93.1721 15.566 93.2441 15.782 93.3521 15.938C93.4721 16.094 93.6341 16.202 93.8381 16.262C94.0541 16.322 94.3361 16.358 94.6841 16.37V17H89.7161V16.37C90.0761 16.358 90.3641 16.322 90.5801 16.262C90.7961 16.19 90.9641 16.082 91.0841 15.938C91.2161 15.794 91.3001 15.596 91.3361 15.344C91.3841 15.08 91.4081 14.738 91.4081 14.318V6.56C91.4081 5.912 91.3961 5.372 91.3721 4.94C91.3601 4.496 91.3361 4.196 91.3001 4.04C91.2401 3.764 91.0961 3.578 90.8681 3.482C90.6521 3.386 90.2561 3.338 89.6801 3.338V2.726L93.0821 2.06V14.192ZM101.384 7.28C102.068 7.28 102.716 7.406 103.328 7.658C103.94 7.898 104.474 8.234 104.93 8.666C105.398 9.098 105.764 9.614 106.028 10.214C106.304 10.802 106.442 11.45 106.442 12.158C106.442 12.89 106.304 13.562 106.028 14.174C105.764 14.786 105.398 15.314 104.93 15.758C104.474 16.202 103.94 16.55 103.328 16.802C102.716 17.054 102.068 17.18 101.384 17.18C100.712 17.18 100.07 17.06 99.4576 16.82C98.8576 16.568 98.3296 16.22 97.8736 15.776C97.4176 15.332 97.0576 14.804 96.7936 14.192C96.5296 13.568 96.3976 12.89 96.3976 12.158C96.3976 11.45 96.5296 10.796 96.7936 10.196C97.0576 9.596 97.4176 9.08 97.8736 8.648C98.3296 8.216 98.8576 7.88 99.4576 7.64C100.07 7.4 100.712 7.28 101.384 7.28ZM101.384 8.144C100.94 8.144 100.532 8.24 100.16 8.432C99.7996 8.624 99.4876 8.9 99.2236 9.26C98.9716 9.608 98.7736 10.034 98.6296 10.538C98.4976 11.03 98.4316 11.576 98.4316 12.176C98.4316 12.8 98.4976 13.364 98.6296 13.868C98.7736 14.372 98.9716 14.804 99.2236 15.164C99.4876 15.512 99.7996 15.782 100.16 15.974C100.52 16.166 100.928 16.262 101.384 16.262C101.84 16.262 102.254 16.166 102.626 15.974C102.998 15.782 103.316 15.506 103.58 15.146C103.844 14.786 104.048 14.354 104.192 13.85C104.336 13.346 104.408 12.788 104.408 12.176C104.408 11.576 104.336 11.03 104.192 10.538C104.048 10.046 103.844 9.626 103.58 9.278C103.316 8.918 102.998 8.642 102.626 8.45C102.254 8.246 101.84 8.144 101.384 8.144ZM116.779 15.506C116.347 16.034 115.789 16.448 115.105 16.748C114.421 17.036 113.683 17.18 112.891 17.18C112.255 17.18 111.667 17.066 111.127 16.838C110.599 16.598 110.143 16.268 109.759 15.848C109.375 15.416 109.075 14.9 108.859 14.3C108.655 13.7 108.553 13.034 108.553 12.302C108.553 11.534 108.673 10.844 108.913 10.232C109.153 9.608 109.489 9.08 109.921 8.648C110.365 8.204 110.893 7.868 111.505 7.64C112.129 7.4 112.813 7.28 113.557 7.28C114.025 7.28 114.451 7.322 114.835 7.406C115.219 7.478 115.549 7.586 115.825 7.73C116.113 7.862 116.335 8.03 116.491 8.234C116.647 8.426 116.725 8.636 116.725 8.864C116.725 9.104 116.647 9.29 116.491 9.422C116.335 9.554 116.119 9.62 115.843 9.62C115.627 9.62 115.447 9.578 115.303 9.494C115.159 9.398 114.973 9.194 114.745 8.882C114.505 8.606 114.271 8.414 114.043 8.306C113.827 8.186 113.545 8.126 113.197 8.126C112.345 8.126 111.697 8.456 111.253 9.116C110.821 9.776 110.605 10.748 110.605 12.032C110.605 13.412 110.845 14.462 111.325 15.182C111.817 15.89 112.531 16.244 113.467 16.244C113.971 16.244 114.445 16.148 114.889 15.956C115.333 15.752 115.783 15.428 116.239 14.984L116.779 15.506ZM123.945 16.37C124.341 16.37 124.611 16.352 124.755 16.316C124.911 16.28 124.989 16.232 124.989 16.172C124.977 16.076 124.881 15.902 124.701 15.65C124.521 15.398 124.287 15.098 123.999 14.75L122.091 12.446L121.425 13.076V14.138C121.425 14.606 121.443 14.984 121.479 15.272C121.527 15.548 121.605 15.77 121.713 15.938C121.833 16.094 122.001 16.202 122.217 16.262C122.445 16.322 122.739 16.358 123.099 16.37V17H117.987V16.37C118.347 16.358 118.635 16.322 118.851 16.262C119.079 16.202 119.253 16.094 119.373 15.938C119.505 15.782 119.595 15.572 119.643 15.308C119.691 15.044 119.715 14.696 119.715 14.264V6.722C119.715 5.81 119.703 5.12 119.679 4.652C119.667 4.184 119.607 3.866 119.499 3.698C119.391 3.53 119.211 3.434 118.959 3.41C118.707 3.374 118.371 3.356 117.951 3.356V2.744L121.425 2.06V11.942L123.099 10.304C123.639 9.764 124.041 9.368 124.305 9.116C124.569 8.852 124.701 8.654 124.701 8.522C124.701 8.39 124.575 8.288 124.323 8.216C124.071 8.132 123.711 8.09 123.243 8.09V7.46H127.923V8.09C127.695 8.09 127.497 8.102 127.329 8.126C127.161 8.15 126.999 8.198 126.843 8.27C126.699 8.342 126.543 8.444 126.375 8.576C126.207 8.696 126.015 8.852 125.799 9.044L123.207 11.348L126.771 15.38C126.939 15.584 127.089 15.752 127.221 15.884C127.365 16.004 127.503 16.1 127.635 16.172C127.779 16.244 127.929 16.298 128.085 16.334C128.253 16.358 128.451 16.37 128.679 16.37V17H123.945V16.37Z" fill="black"/>
<path d="M25.95 27.08C25.0167 27.08 24.29 26.8133 23.77 26.28C23.25 25.7467 22.99 24.98 22.99 23.98V20H23.99V23.94C23.99 25.44 24.6467 26.19 25.96 26.19C26.6 26.19 27.09 26.0067 27.43 25.64C27.77 25.2667 27.94 24.7 27.94 23.94V20H28.91V23.98C28.91 24.9867 28.65 25.7567 28.13 26.29C27.61 26.8167 26.8833 27.08 25.95 27.08ZM35.2625 27L33.1625 24.11L31.0925 27H29.9425L32.5725 23.41L30.1025 20H31.2425L33.2025 22.69L35.1425 20H36.2325L33.7625 23.38L36.4125 27H35.2625ZM39.727 18.58H40.597L37.297 28H36.427L39.727 18.58ZM44.1727 27.08C43.2393 27.08 42.5127 26.8133 41.9927 26.28C41.4727 25.7467 41.2127 24.98 41.2127 23.98V20H42.2127V23.94C42.2127 25.44 42.8693 26.19 44.1827 26.19C44.8227 26.19 45.3127 26.0067 45.6527 25.64C45.9927 25.2667 46.1627 24.7 46.1627 23.94V20H47.1327V23.98C47.1327 24.9867 46.8727 25.7567 46.3527 26.29C45.8327 26.8167 45.106 27.08 44.1727 27.08ZM49.1828 20H50.1828V27H49.1828V20ZM54.9641 20H57.9141C58.6541 20 59.3107 20.1467 59.8841 20.44C60.4574 20.7333 60.9007 21.1467 61.2141 21.68C61.5341 22.2067 61.6941 22.8133 61.6941 23.5C61.6941 24.1867 61.5341 24.7967 61.2141 25.33C60.9007 25.8567 60.4574 26.2667 59.8841 26.56C59.3107 26.8533 58.6541 27 57.9141 27H54.9641V20ZM57.8541 26.13C58.4207 26.13 58.9174 26.02 59.3441 25.8C59.7774 25.58 60.1107 25.2733 60.3441 24.88C60.5774 24.48 60.6941 24.02 60.6941 23.5C60.6941 22.98 60.5774 22.5233 60.3441 22.13C60.1107 21.73 59.7774 21.42 59.3441 21.2C58.9174 20.98 58.4207 20.87 57.8541 20.87H55.9641V26.13H57.8541ZM68.3058 26.13V27H63.2258V20H68.1658V20.87H64.2258V23.02H67.7358V23.87H64.2258V26.13H68.3058ZM71.965 27.08C71.4383 27.08 70.9283 27 70.435 26.84C69.9483 26.6733 69.565 26.46 69.285 26.2L69.655 25.42C69.9217 25.66 70.2617 25.8567 70.675 26.01C71.095 26.1567 71.525 26.23 71.965 26.23C72.545 26.23 72.9783 26.1333 73.265 25.94C73.5517 25.74 73.695 25.4767 73.695 25.15C73.695 24.91 73.615 24.7167 73.455 24.57C73.3017 24.4167 73.1083 24.3 72.875 24.22C72.6483 24.14 72.325 24.05 71.905 23.95C71.3783 23.8233 70.9517 23.6967 70.625 23.57C70.305 23.4433 70.0283 23.25 69.795 22.99C69.5683 22.7233 69.455 22.3667 69.455 21.92C69.455 21.5467 69.5517 21.21 69.745 20.91C69.945 20.61 70.245 20.37 70.645 20.19C71.045 20.01 71.5417 19.92 72.135 19.92C72.5483 19.92 72.955 19.9733 73.355 20.08C73.755 20.1867 74.0983 20.34 74.385 20.54L74.055 21.34C73.7617 21.1533 73.4483 21.0133 73.115 20.92C72.7817 20.82 72.455 20.77 72.135 20.77C71.5683 20.77 71.1417 20.8733 70.855 21.08C70.575 21.2867 70.435 21.5533 70.435 21.88C70.435 22.12 70.515 22.3167 70.675 22.47C70.835 22.6167 71.0317 22.7333 71.265 22.82C71.505 22.9 71.8283 22.9867 72.235 23.08C72.7617 23.2067 73.185 23.3333 73.505 23.46C73.825 23.5867 74.0983 23.78 74.325 24.04C74.5583 24.3 74.675 24.65 74.675 25.09C74.675 25.4567 74.575 25.7933 74.375 26.1C74.175 26.4 73.8717 26.64 73.465 26.82C73.0583 26.9933 72.5583 27.08 71.965 27.08ZM76.1359 20H77.1359V27H76.1359V20ZM84.0816 23.46H85.0416V26.19C84.695 26.4767 84.2916 26.6967 83.8316 26.85C83.3716 27.0033 82.8916 27.08 82.3916 27.08C81.685 27.08 81.0483 26.9267 80.4816 26.62C79.915 26.3067 79.4683 25.88 79.1416 25.34C78.8216 24.7933 78.6616 24.18 78.6616 23.5C78.6616 22.82 78.8216 22.2067 79.1416 21.66C79.4683 21.1133 79.915 20.6867 80.4816 20.38C81.055 20.0733 81.6983 19.92 82.4116 19.92C82.9716 19.92 83.4783 20.0133 83.9316 20.2C84.3916 20.38 84.7816 20.6467 85.1016 21L84.4816 21.62C83.9216 21.08 83.245 20.81 82.4516 20.81C81.9183 20.81 81.4383 20.9267 81.0116 21.16C80.5916 21.3867 80.2616 21.7067 80.0216 22.12C79.7816 22.5267 79.6616 22.9867 79.6616 23.5C79.6616 24.0067 79.7816 24.4667 80.0216 24.88C80.2616 25.2867 80.5916 25.6067 81.0116 25.84C81.4383 26.0733 81.915 26.19 82.4416 26.19C83.0683 26.19 83.615 26.04 84.0816 25.74V23.46ZM92.9763 20V27H92.1562L87.9563 21.78V27H86.9563V20H87.7763L91.9763 25.22V20H92.9763ZM100.151 26.13V27H95.0715V20H100.011V20.87H96.0715V23.02H99.5815V23.87H96.0715V26.13H100.151ZM106.451 27L104.941 24.85C104.754 24.8633 104.607 24.87 104.501 24.87H102.771V27H101.771V20H104.501C105.407 20 106.121 20.2167 106.641 20.65C107.161 21.0833 107.421 21.68 107.421 22.44C107.421 22.98 107.287 23.44 107.021 23.82C106.754 24.2 106.374 24.4767 105.881 24.65L107.541 27H106.451ZM104.471 24.02C105.104 24.02 105.587 23.8833 105.921 23.61C106.254 23.3367 106.421 22.9467 106.421 22.44C106.421 21.9333 106.254 21.5467 105.921 21.28C105.587 21.0067 105.104 20.87 104.471 20.87H102.771V24.02H104.471Z" fill="black"/>
</svg>
