<svg width="159" height="116" viewBox="0 0 159 116" fill="none" xmlns="http://www.w3.org/2000/svg">
<path d="M19.68 94.5047C19.68 94.9607 19.704 95.3327 19.752 95.6207C19.812 95.8967 19.932 96.1127 20.112 96.2687C20.292 96.4127 20.544 96.5147 20.868 96.5747C21.204 96.6347 21.642 96.6707 22.182 96.6827V97.3667H15.81V96.6827C16.23 96.6707 16.566 96.6347 16.818 96.5747C17.082 96.5147 17.286 96.4127 17.43 96.2687C17.574 96.1247 17.67 95.9207 17.718 95.6567C17.766 95.3927 17.79 95.0507 17.79 94.6307V86.2427C17.79 85.8227 17.766 85.4867 17.718 85.2347C17.682 84.9707 17.598 84.7667 17.466 84.6227C17.346 84.4667 17.166 84.3647 16.926 84.3167C16.686 84.2567 16.374 84.2147 15.99 84.1907V83.5067H26.394L26.592 86.9447H25.962C25.89 86.4287 25.776 86.0087 25.62 85.6847C25.464 85.3487 25.242 85.0847 24.954 84.8927C24.678 84.7007 24.324 84.5687 23.892 84.4967C23.46 84.4127 22.92 84.3707 22.272 84.3707H19.986C19.782 84.3707 19.68 84.4727 19.68 84.6767V90.1127C20.256 90.1127 20.748 90.0827 21.156 90.0227C21.576 89.9507 21.918 89.8307 22.182 89.6627C22.458 89.4947 22.668 89.2667 22.812 88.9787C22.956 88.6907 23.046 88.3187 23.082 87.8627H23.712V93.1367H23.082C23.022 92.6807 22.926 92.3027 22.794 92.0027C22.662 91.7027 22.464 91.4687 22.2 91.3007C21.948 91.1327 21.618 91.0127 21.21 90.9407C20.802 90.8687 20.292 90.8327 19.68 90.8327V94.5047ZM33.0502 92.0387C32.3662 92.3027 31.7842 92.5607 31.3042 92.8127C30.8362 93.0647 30.4582 93.3167 30.1702 93.5687C29.8822 93.8207 29.6722 94.0727 29.5402 94.3247C29.4202 94.5767 29.3602 94.8347 29.3602 95.0987C29.3602 95.4947 29.4922 95.8187 29.7562 96.0707C30.0202 96.3227 30.3682 96.4487 30.8002 96.4487C31.1122 96.4487 31.4002 96.3707 31.6642 96.2147C31.9402 96.0587 32.1802 95.8487 32.3842 95.5847C32.5882 95.3087 32.7502 94.9907 32.8702 94.6307C32.9902 94.2587 33.0502 93.8687 33.0502 93.4607V92.0387ZM33.0502 91.2647V90.5267C33.0502 89.0627 32.4262 88.3307 31.1782 88.3307C30.9742 88.3307 30.8002 88.3487 30.6562 88.3847C30.5122 88.4207 30.3922 88.4807 30.2962 88.5647C30.2002 88.6487 30.1102 88.7687 30.0262 88.9247C29.9542 89.0807 29.8822 89.2727 29.8102 89.5007C29.6782 89.8487 29.5462 90.0827 29.4142 90.2027C29.2942 90.3107 29.1142 90.3647 28.8742 90.3647C28.2742 90.3647 27.9742 90.0647 27.9742 89.4647C27.9742 88.8887 28.2802 88.4447 28.8922 88.1327C29.5042 87.8087 30.3742 87.6467 31.5022 87.6467C32.7022 87.6467 33.5542 87.8627 34.0582 88.2947C34.5622 88.7147 34.8142 89.4347 34.8142 90.4547V94.4867C34.8142 95.8547 35.0842 96.5387 35.6242 96.5387C35.7922 96.5387 35.9542 96.5207 36.1102 96.4847C36.2662 96.4367 36.3982 96.3227 36.5062 96.1427L36.7582 96.5747C36.6142 96.8507 36.3502 97.0847 35.9662 97.2767C35.5822 97.4567 35.1802 97.5467 34.7602 97.5467C34.2322 97.5467 33.8362 97.3787 33.5722 97.0427C33.3202 96.7067 33.1942 96.2327 33.1942 95.6207H33.1042C32.7922 96.2087 32.3602 96.6767 31.8082 97.0247C31.2562 97.3607 30.6442 97.5287 29.9722 97.5287C29.2162 97.5287 28.6222 97.3367 28.1902 96.9527C27.7582 96.5687 27.5422 96.0527 27.5422 95.4047C27.5422 95.1167 27.5902 94.8407 27.6862 94.5767C27.7942 94.3127 27.9622 94.0607 28.1902 93.8207C28.4182 93.5807 28.7182 93.3467 29.0902 93.1187C29.4622 92.8787 29.9182 92.6387 30.4582 92.3987L33.0502 91.2647ZM41.199 94.5047C41.199 94.9727 41.217 95.3507 41.253 95.6387C41.301 95.9147 41.385 96.1367 41.505 96.3047C41.625 96.4607 41.793 96.5687 42.009 96.6287C42.225 96.6887 42.513 96.7247 42.873 96.7367V97.3667H37.707V96.7367C38.067 96.7247 38.361 96.6887 38.589 96.6287C38.817 96.5567 38.991 96.4487 39.111 96.3047C39.243 96.1487 39.327 95.9387 39.363 95.6747C39.411 95.3987 39.435 95.0507 39.435 94.6307V92.3267C39.435 91.6307 39.423 91.0607 39.399 90.6167C39.387 90.1607 39.357 89.8487 39.309 89.6807C39.249 89.4047 39.111 89.2187 38.895 89.1227C38.679 89.0147 38.271 88.9607 37.671 88.9607V88.3307L41.199 87.6467V94.5047ZM39.129 83.9927C39.129 83.6807 39.237 83.4167 39.453 83.2007C39.669 82.9847 39.933 82.8767 40.245 82.8767C40.557 82.8767 40.821 82.9847 41.037 83.2007C41.253 83.4167 41.361 83.6807 41.361 83.9927C41.361 84.3047 41.253 84.5687 41.037 84.7847C40.821 85.0007 40.557 85.1087 40.245 85.1087C39.933 85.1087 39.669 85.0007 39.453 84.7847C39.237 84.5687 39.129 84.3047 39.129 83.9927ZM44.3098 88.9607V88.2947C44.9458 87.9227 45.4438 87.5507 45.8038 87.1787C46.1638 86.8067 46.4398 86.3627 46.6318 85.8467H47.1538V88.1147H49.5658V88.9607H47.1538V94.4327C47.1538 94.8527 47.1718 95.2067 47.2078 95.4947C47.2558 95.7827 47.3278 96.0167 47.4238 96.1967C47.5198 96.3647 47.6458 96.4847 47.8018 96.5567C47.9578 96.6287 48.1558 96.6647 48.3958 96.6647C48.6958 96.6647 48.9478 96.6047 49.1518 96.4847C49.3678 96.3527 49.5778 96.1367 49.7818 95.8367L50.2318 96.1787C50.0638 96.6227 49.7698 96.9647 49.3498 97.2047C48.9418 97.4327 48.4318 97.5467 47.8198 97.5467C47.0278 97.5467 46.4218 97.3607 46.0018 96.9887C45.5938 96.6047 45.3898 96.0587 45.3898 95.3507V88.9607H44.3098ZM54.4965 94.5047C54.4965 94.9967 54.5085 95.3867 54.5325 95.6747C54.5565 95.9627 54.6165 96.1847 54.7125 96.3407C54.8205 96.4847 54.9705 96.5807 55.1625 96.6287C55.3545 96.6767 55.6245 96.7127 55.9725 96.7367V97.3667H51.1845V96.7367C51.5325 96.7127 51.8085 96.6767 52.0125 96.6287C52.2165 96.5807 52.3725 96.4847 52.4805 96.3407C52.5885 96.1967 52.6545 95.9927 52.6785 95.7287C52.7145 95.4527 52.7325 95.0867 52.7325 94.6307V87.0887C52.7325 86.3807 52.7205 85.8167 52.6965 85.3967C52.6845 84.9767 52.6545 84.6587 52.6065 84.4427C52.5825 84.2987 52.5405 84.1847 52.4805 84.1007C52.4325 84.0047 52.3545 83.9327 52.2465 83.8847C52.1385 83.8247 51.9945 83.7827 51.8145 83.7587C51.6345 83.7347 51.4125 83.7227 51.1485 83.7227V83.1107L54.4605 82.4267V89.2847H54.5325C54.7125 89.0447 54.9345 88.8287 55.1985 88.6367C55.4745 88.4327 55.7685 88.2587 56.0805 88.1147C56.3925 87.9707 56.7165 87.8567 57.0525 87.7727C57.4005 87.6887 57.7365 87.6467 58.0605 87.6467C58.6125 87.6467 59.1165 87.7427 59.5725 87.9347C60.0405 88.1267 60.4005 88.3847 60.6525 88.7087C60.8565 88.9847 61.0065 89.3507 61.1025 89.8067C61.1985 90.2507 61.2465 90.8567 61.2465 91.6247V94.5047C61.2465 94.9967 61.2585 95.3867 61.2825 95.6747C61.3065 95.9507 61.3665 96.1667 61.4625 96.3227C61.5705 96.4787 61.7205 96.5807 61.9125 96.6287C62.1045 96.6767 62.3745 96.7127 62.7225 96.7367V97.3667H57.9525V96.7367C58.2885 96.7247 58.5585 96.6947 58.7625 96.6467C58.9665 96.5867 59.1165 96.4847 59.2125 96.3407C59.3205 96.1967 59.3865 95.9927 59.4105 95.7287C59.4465 95.4527 59.4645 95.0867 59.4645 94.6307V92.3627C59.4645 91.0187 59.3085 90.0647 58.9965 89.5007C58.6845 88.9247 58.1625 88.6367 57.4305 88.6367C56.8665 88.6367 56.3505 88.7807 55.8825 89.0687C55.4265 89.3567 55.0665 89.7527 54.8025 90.2567C54.7425 90.3887 54.6885 90.5147 54.6405 90.6347C54.6045 90.7427 54.5745 90.8687 54.5505 91.0127C54.5265 91.1567 54.5085 91.3247 54.4965 91.5167C54.4965 91.6967 54.4965 91.9247 54.4965 92.2007V94.5047ZM76.737 97.5467C75.717 97.5467 74.799 97.3847 73.983 97.0607C73.167 96.7367 72.471 96.2807 71.895 95.6927C71.319 95.0927 70.875 94.3667 70.563 93.5147C70.263 92.6627 70.113 91.7147 70.113 90.6707C70.113 89.5787 70.281 88.5827 70.617 87.6827C70.953 86.7827 71.421 86.0087 72.021 85.3607C72.633 84.7127 73.359 84.2147 74.199 83.8667C75.051 83.5067 75.987 83.3267 77.007 83.3267C77.727 83.3267 78.405 83.4287 79.041 83.6327C79.677 83.8367 80.367 84.1667 81.111 84.6227L81.489 83.5067H82.119L81.885 87.6467H81.021C81.021 87.0587 80.907 86.5547 80.679 86.1347C80.463 85.7027 80.175 85.3487 79.815 85.0727C79.455 84.7967 79.041 84.5927 78.573 84.4607C78.117 84.3287 77.649 84.2627 77.169 84.2627C76.437 84.2627 75.783 84.4067 75.207 84.6947C74.631 84.9827 74.145 85.3967 73.749 85.9367C73.353 86.4767 73.047 87.1367 72.831 87.9167C72.627 88.6967 72.525 89.5787 72.525 90.5627C72.525 92.4947 72.927 93.9827 73.731 95.0267C74.535 96.0587 75.699 96.5747 77.223 96.5747C77.799 96.5747 78.315 96.5087 78.771 96.3767C79.227 96.2327 79.611 96.0467 79.923 95.8187C80.247 95.5787 80.487 95.3087 80.643 95.0087C80.811 94.6967 80.895 94.3727 80.895 94.0367C80.895 93.3407 80.751 92.8727 80.463 92.6327C80.187 92.3807 79.731 92.2547 79.095 92.2547V91.5707H84.207V92.2547C83.919 92.2547 83.679 92.2787 83.487 92.3267C83.295 92.3747 83.139 92.4647 83.019 92.5967C82.911 92.7167 82.833 92.8787 82.785 93.0827C82.749 93.2867 82.731 93.5447 82.731 93.8567V95.8727C82.503 95.8727 82.293 95.8847 82.101 95.9087C81.921 95.9207 81.729 95.9627 81.525 96.0347C81.321 96.0947 81.093 96.1847 80.841 96.3047C80.601 96.4127 80.313 96.5627 79.977 96.7547C79.557 96.9947 79.071 97.1867 78.519 97.3307C77.979 97.4747 77.385 97.5467 76.737 97.5467ZM91.3372 92.0387C90.6532 92.3027 90.0712 92.5607 89.5912 92.8127C89.1232 93.0647 88.7452 93.3167 88.4572 93.5687C88.1692 93.8207 87.9592 94.0727 87.8272 94.3247C87.7072 94.5767 87.6472 94.8347 87.6472 95.0987C87.6472 95.4947 87.7792 95.8187 88.0432 96.0707C88.3072 96.3227 88.6552 96.4487 89.0872 96.4487C89.3992 96.4487 89.6872 96.3707 89.9512 96.2147C90.2272 96.0587 90.4672 95.8487 90.6712 95.5847C90.8752 95.3087 91.0372 94.9907 91.1572 94.6307C91.2772 94.2587 91.3372 93.8687 91.3372 93.4607V92.0387ZM91.3372 91.2647V90.5267C91.3372 89.0627 90.7132 88.3307 89.4652 88.3307C89.2612 88.3307 89.0872 88.3487 88.9432 88.3847C88.7992 88.4207 88.6792 88.4807 88.5832 88.5647C88.4872 88.6487 88.3972 88.7687 88.3132 88.9247C88.2412 89.0807 88.1692 89.2727 88.0972 89.5007C87.9652 89.8487 87.8332 90.0827 87.7012 90.2027C87.5812 90.3107 87.4012 90.3647 87.1612 90.3647C86.5612 90.3647 86.2612 90.0647 86.2612 89.4647C86.2612 88.8887 86.5672 88.4447 87.1792 88.1327C87.7912 87.8087 88.6612 87.6467 89.7892 87.6467C90.9892 87.6467 91.8412 87.8627 92.3452 88.2947C92.8492 88.7147 93.1012 89.4347 93.1012 90.4547V94.4867C93.1012 95.8547 93.3712 96.5387 93.9112 96.5387C94.0792 96.5387 94.2412 96.5207 94.3972 96.4847C94.5532 96.4367 94.6852 96.3227 94.7932 96.1427L95.0452 96.5747C94.9012 96.8507 94.6372 97.0847 94.2532 97.2767C93.8692 97.4567 93.4672 97.5467 93.0472 97.5467C92.5192 97.5467 92.1232 97.3787 91.8592 97.0427C91.6072 96.7067 91.4812 96.2327 91.4812 95.6207H91.3912C91.0792 96.2087 90.6472 96.6767 90.0952 97.0247C89.5432 97.3607 88.9312 97.5287 88.2592 97.5287C87.5032 97.5287 86.9092 97.3367 86.4772 96.9527C86.0452 96.5687 85.8292 96.0527 85.8292 95.4047C85.8292 95.1167 85.8772 94.8407 85.9732 94.5767C86.0812 94.3127 86.2492 94.0607 86.4772 93.8207C86.7052 93.5807 87.0052 93.3467 87.3772 93.1187C87.7492 92.8787 88.2052 92.6387 88.7452 92.3987L91.3372 91.2647ZM99.378 94.5047C99.378 94.9967 99.39 95.3867 99.414 95.6747C99.438 95.9627 99.498 96.1847 99.594 96.3407C99.702 96.4847 99.852 96.5807 100.044 96.6287C100.236 96.6767 100.506 96.7127 100.854 96.7367V97.3667H96.066V96.7367C96.414 96.7247 96.69 96.6947 96.894 96.6467C97.098 96.5867 97.254 96.4847 97.362 96.3407C97.47 96.1967 97.536 95.9927 97.56 95.7287C97.596 95.4527 97.614 95.0867 97.614 94.6307V92.5247C97.614 91.7087 97.602 91.0727 97.578 90.6167C97.566 90.1607 97.506 89.8247 97.398 89.6087C97.302 89.3927 97.146 89.2667 96.93 89.2307C96.714 89.1827 96.414 89.1587 96.03 89.1587V88.5287L99.18 87.8447L99.432 90.0767H99.504C99.66 89.7167 99.852 89.3867 100.08 89.0867C100.32 88.7867 100.578 88.5347 100.854 88.3307C101.13 88.1147 101.418 87.9467 101.718 87.8267C102.018 87.7067 102.324 87.6467 102.636 87.6467C103.02 87.6467 103.32 87.7427 103.536 87.9347C103.764 88.1147 103.878 88.3607 103.878 88.6727C103.878 88.9607 103.788 89.1887 103.608 89.3567C103.428 89.5127 103.17 89.5907 102.834 89.5907C102.642 89.5907 102.48 89.5667 102.348 89.5187C102.216 89.4707 102.096 89.4227 101.988 89.3747C101.892 89.3147 101.796 89.2607 101.7 89.2127C101.616 89.1647 101.52 89.1407 101.412 89.1407C101.088 89.1407 100.764 89.3507 100.44 89.7707C100.116 90.1787 99.864 90.7007 99.684 91.3367C99.588 91.6847 99.51 92.0807 99.45 92.5247C99.402 92.9567 99.378 93.4127 99.378 93.8927V94.5047ZM108.082 94.5587C108.082 95.0147 108.1 95.3807 108.136 95.6567C108.172 95.9327 108.244 96.1487 108.352 96.3047C108.472 96.4607 108.634 96.5687 108.838 96.6287C109.054 96.6887 109.336 96.7247 109.684 96.7367V97.3667H104.716V96.7367C105.076 96.7247 105.364 96.6887 105.58 96.6287C105.796 96.5567 105.964 96.4487 106.084 96.3047C106.216 96.1607 106.3 95.9627 106.336 95.7107C106.384 95.4467 106.408 95.1047 106.408 94.6847V86.9267C106.408 86.2787 106.396 85.7387 106.372 85.3067C106.36 84.8627 106.336 84.5627 106.3 84.4067C106.24 84.1307 106.096 83.9447 105.868 83.8487C105.652 83.7527 105.256 83.7047 104.68 83.7047V83.0927L108.082 82.4267V94.5587ZM116.384 87.6467C117.068 87.6467 117.716 87.7727 118.328 88.0247C118.94 88.2647 119.474 88.6007 119.93 89.0327C120.398 89.4647 120.764 89.9807 121.028 90.5807C121.304 91.1687 121.442 91.8167 121.442 92.5247C121.442 93.2567 121.304 93.9287 121.028 94.5407C120.764 95.1527 120.398 95.6807 119.93 96.1247C119.474 96.5687 118.94 96.9167 118.328 97.1687C117.716 97.4207 117.068 97.5467 116.384 97.5467C115.712 97.5467 115.07 97.4267 114.458 97.1867C113.858 96.9347 113.33 96.5867 112.874 96.1427C112.418 95.6987 112.058 95.1707 111.794 94.5587C111.53 93.9347 111.398 93.2567 111.398 92.5247C111.398 91.8167 111.53 91.1627 111.794 90.5627C112.058 89.9627 112.418 89.4467 112.874 89.0147C113.33 88.5827 113.858 88.2467 114.458 88.0067C115.07 87.7667 115.712 87.6467 116.384 87.6467ZM116.384 88.5107C115.94 88.5107 115.532 88.6067 115.16 88.7987C114.8 88.9907 114.488 89.2667 114.224 89.6267C113.972 89.9747 113.774 90.4007 113.63 90.9047C113.498 91.3967 113.432 91.9427 113.432 92.5427C113.432 93.1667 113.498 93.7307 113.63 94.2347C113.774 94.7387 113.972 95.1707 114.224 95.5307C114.488 95.8787 114.8 96.1487 115.16 96.3407C115.52 96.5327 115.928 96.6287 116.384 96.6287C116.84 96.6287 117.254 96.5327 117.626 96.3407C117.998 96.1487 118.316 95.8727 118.58 95.5127C118.844 95.1527 119.048 94.7207 119.192 94.2167C119.336 93.7127 119.408 93.1547 119.408 92.5427C119.408 91.9427 119.336 91.3967 119.192 90.9047C119.048 90.4127 118.844 89.9927 118.58 89.6447C118.316 89.2847 117.998 89.0087 117.626 88.8167C117.254 88.6127 116.84 88.5107 116.384 88.5107ZM131.779 95.8727C131.347 96.4007 130.789 96.8147 130.105 97.1147C129.421 97.4027 128.683 97.5467 127.891 97.5467C127.255 97.5467 126.667 97.4327 126.127 97.2047C125.599 96.9647 125.143 96.6347 124.759 96.2147C124.375 95.7827 124.075 95.2667 123.859 94.6667C123.655 94.0667 123.553 93.4007 123.553 92.6687C123.553 91.9007 123.673 91.2107 123.913 90.5987C124.153 89.9747 124.489 89.4467 124.921 89.0147C125.365 88.5707 125.893 88.2347 126.505 88.0067C127.129 87.7667 127.813 87.6467 128.557 87.6467C129.025 87.6467 129.451 87.6887 129.835 87.7727C130.219 87.8447 130.549 87.9527 130.825 88.0967C131.113 88.2287 131.335 88.3967 131.491 88.6007C131.647 88.7927 131.725 89.0027 131.725 89.2307C131.725 89.4707 131.647 89.6567 131.491 89.7887C131.335 89.9207 131.119 89.9867 130.843 89.9867C130.627 89.9867 130.447 89.9447 130.303 89.8607C130.159 89.7647 129.973 89.5607 129.745 89.2487C129.505 88.9727 129.271 88.7807 129.043 88.6727C128.827 88.5527 128.545 88.4927 128.197 88.4927C127.345 88.4927 126.697 88.8227 126.253 89.4827C125.821 90.1427 125.605 91.1147 125.605 92.3987C125.605 93.7787 125.845 94.8287 126.325 95.5487C126.817 96.2567 127.531 96.6107 128.467 96.6107C128.971 96.6107 129.445 96.5147 129.889 96.3227C130.333 96.1187 130.783 95.7947 131.239 95.3507L131.779 95.8727ZM138.945 96.7367C139.341 96.7367 139.611 96.7187 139.755 96.6827C139.911 96.6467 139.989 96.5987 139.989 96.5387C139.977 96.4427 139.881 96.2687 139.701 96.0167C139.521 95.7647 139.287 95.4647 138.999 95.1167L137.091 92.8127L136.425 93.4427V94.5047C136.425 94.9727 136.443 95.3507 136.479 95.6387C136.527 95.9147 136.605 96.1367 136.713 96.3047C136.833 96.4607 137.001 96.5687 137.217 96.6287C137.445 96.6887 137.739 96.7247 138.099 96.7367V97.3667H132.987V96.7367C133.347 96.7247 133.635 96.6887 133.851 96.6287C134.079 96.5687 134.253 96.4607 134.373 96.3047C134.505 96.1487 134.595 95.9387 134.643 95.6747C134.691 95.4107 134.715 95.0627 134.715 94.6307V87.0887C134.715 86.1767 134.703 85.4867 134.679 85.0187C134.667 84.5507 134.607 84.2327 134.499 84.0647C134.391 83.8967 134.211 83.8007 133.959 83.7767C133.707 83.7407 133.371 83.7227 132.951 83.7227V83.1107L136.425 82.4267V92.3087L138.099 90.6707C138.639 90.1307 139.041 89.7347 139.305 89.4827C139.569 89.2187 139.701 89.0207 139.701 88.8887C139.701 88.7567 139.575 88.6547 139.323 88.5827C139.071 88.4987 138.711 88.4567 138.243 88.4567V87.8267H142.923V88.4567C142.695 88.4567 142.497 88.4687 142.329 88.4927C142.161 88.5167 141.999 88.5647 141.843 88.6367C141.699 88.7087 141.543 88.8107 141.375 88.9427C141.207 89.0627 141.015 89.2187 140.799 89.4107L138.207 91.7147L141.771 95.7467C141.939 95.9507 142.089 96.1187 142.221 96.2507C142.365 96.3707 142.503 96.4667 142.635 96.5387C142.779 96.6107 142.929 96.6647 143.085 96.7007C143.253 96.7247 143.451 96.7367 143.679 96.7367V97.3667H138.945V96.7367Z" fill="black"/>
<path d="M40.95 107.447C40.0167 107.447 39.29 107.18 38.77 106.647C38.25 106.113 37.99 105.347 37.99 104.347V100.367H38.99V104.307C38.99 105.807 39.6467 106.557 40.96 106.557C41.6 106.557 42.09 106.373 42.43 106.007C42.77 105.633 42.94 105.067 42.94 104.307V100.367H43.91V104.347C43.91 105.353 43.65 106.123 43.13 106.657C42.61 107.183 41.8833 107.447 40.95 107.447ZM50.2625 107.367L48.1625 104.477L46.0925 107.367H44.9425L47.5725 103.777L45.1025 100.367H46.2425L48.2025 103.057L50.1425 100.367H51.2325L48.7625 103.747L51.4125 107.367H50.2625ZM54.727 98.9467H55.597L52.297 108.367H51.427L54.727 98.9467ZM59.1727 107.447C58.2393 107.447 57.5127 107.18 56.9927 106.647C56.4727 106.113 56.2127 105.347 56.2127 104.347V100.367H57.2127V104.307C57.2127 105.807 57.8693 106.557 59.1827 106.557C59.8227 106.557 60.3127 106.373 60.6527 106.007C60.9927 105.633 61.1627 105.067 61.1627 104.307V100.367H62.1327V104.347C62.1327 105.353 61.8727 106.123 61.3527 106.657C60.8327 107.183 60.106 107.447 59.1727 107.447ZM64.1828 100.367H65.1828V107.367H64.1828V100.367ZM69.9641 100.367H72.9141C73.6541 100.367 74.3107 100.513 74.8841 100.807C75.4574 101.1 75.9007 101.513 76.2141 102.047C76.5341 102.573 76.6941 103.18 76.6941 103.867C76.6941 104.553 76.5341 105.163 76.2141 105.697C75.9007 106.223 75.4574 106.633 74.8841 106.927C74.3107 107.22 73.6541 107.367 72.9141 107.367H69.9641V100.367ZM72.8541 106.497C73.4207 106.497 73.9174 106.387 74.3441 106.167C74.7774 105.947 75.1107 105.64 75.3441 105.247C75.5774 104.847 75.6941 104.387 75.6941 103.867C75.6941 103.347 75.5774 102.89 75.3441 102.497C75.1107 102.097 74.7774 101.787 74.3441 101.567C73.9174 101.347 73.4207 101.237 72.8541 101.237H70.9641V106.497H72.8541ZM83.3058 106.497V107.367H78.2258V100.367H83.1658V101.237H79.2258V103.387H82.7358V104.237H79.2258V106.497H83.3058ZM86.965 107.447C86.4383 107.447 85.9283 107.367 85.435 107.207C84.9483 107.04 84.565 106.827 84.285 106.567L84.655 105.787C84.9217 106.027 85.2617 106.223 85.675 106.377C86.095 106.523 86.525 106.597 86.965 106.597C87.545 106.597 87.9783 106.5 88.265 106.307C88.5517 106.107 88.695 105.843 88.695 105.517C88.695 105.277 88.615 105.083 88.455 104.937C88.3017 104.783 88.1083 104.667 87.875 104.587C87.6483 104.507 87.325 104.417 86.905 104.317C86.3783 104.19 85.9517 104.063 85.625 103.937C85.305 103.81 85.0283 103.617 84.795 103.357C84.5683 103.09 84.455 102.733 84.455 102.287C84.455 101.913 84.5517 101.577 84.745 101.277C84.945 100.977 85.245 100.737 85.645 100.557C86.045 100.377 86.5417 100.287 87.135 100.287C87.5483 100.287 87.955 100.34 88.355 100.447C88.755 100.553 89.0983 100.707 89.385 100.907L89.055 101.707C88.7617 101.52 88.4483 101.38 88.115 101.287C87.7817 101.187 87.455 101.137 87.135 101.137C86.5683 101.137 86.1417 101.24 85.855 101.447C85.575 101.653 85.435 101.92 85.435 102.247C85.435 102.487 85.515 102.683 85.675 102.837C85.835 102.983 86.0317 103.1 86.265 103.187C86.505 103.267 86.8283 103.353 87.235 103.447C87.7617 103.573 88.185 103.7 88.505 103.827C88.825 103.953 89.0983 104.147 89.325 104.407C89.5583 104.667 89.675 105.017 89.675 105.457C89.675 105.823 89.575 106.16 89.375 106.467C89.175 106.767 88.8717 107.007 88.465 107.187C88.0583 107.36 87.5583 107.447 86.965 107.447ZM91.1359 100.367H92.1359V107.367H91.1359V100.367ZM99.0816 103.827H100.042V106.557C99.695 106.843 99.2916 107.063 98.8316 107.217C98.3716 107.37 97.8916 107.447 97.3916 107.447C96.685 107.447 96.0483 107.293 95.4816 106.987C94.915 106.673 94.4683 106.247 94.1416 105.707C93.8216 105.16 93.6616 104.547 93.6616 103.867C93.6616 103.187 93.8216 102.573 94.1416 102.027C94.4683 101.48 94.915 101.053 95.4816 100.747C96.055 100.44 96.6983 100.287 97.4116 100.287C97.9716 100.287 98.4783 100.38 98.9316 100.567C99.3916 100.747 99.7816 101.013 100.102 101.367L99.4816 101.987C98.9216 101.447 98.245 101.177 97.4516 101.177C96.9183 101.177 96.4383 101.293 96.0116 101.527C95.5916 101.753 95.2616 102.073 95.0216 102.487C94.7816 102.893 94.6616 103.353 94.6616 103.867C94.6616 104.373 94.7816 104.833 95.0216 105.247C95.2616 105.653 95.5916 105.973 96.0116 106.207C96.4383 106.44 96.915 106.557 97.4416 106.557C98.0683 106.557 98.615 106.407 99.0816 106.107V103.827ZM107.976 100.367V107.367H107.156L102.956 102.147V107.367H101.956V100.367H102.776L106.976 105.587V100.367H107.976ZM115.151 106.497V107.367H110.071V100.367H115.011V101.237H111.071V103.387H114.581V104.237H111.071V106.497H115.151ZM121.451 107.367L119.941 105.217C119.754 105.23 119.607 105.237 119.501 105.237H117.771V107.367H116.771V100.367H119.501C120.407 100.367 121.121 100.583 121.641 101.017C122.161 101.45 122.421 102.047 122.421 102.807C122.421 103.347 122.287 103.807 122.021 104.187C121.754 104.567 121.374 104.843 120.881 105.017L122.541 107.367H121.451ZM119.471 104.387C120.104 104.387 120.587 104.25 120.921 103.977C121.254 103.703 121.421 103.313 121.421 102.807C121.421 102.3 121.254 101.913 120.921 101.647C120.587 101.373 120.104 101.237 119.471 101.237H117.771V104.387H119.471Z" fill="black"/>
<path d="M63.6689 50.9944C63.2683 51.1588 63.0768 51.6169 63.2412 52.0175C63.4056 52.4182 63.8637 52.6097 64.2643 52.4453L63.6689 50.9944ZM80.5356 40.6051L81.1013 41.148L80.5356 40.6051ZM87.8148 11.525L88.4674 11.0903L88.4674 11.0903L87.8148 11.525ZM78.8652 10.3689L78.3729 9.75857L78.3729 9.75857L78.8652 10.3689ZM73.5119 20.6991L74.2777 20.8678L73.5119 20.6991ZM83.1699 73.6697L82.6132 73.1175L82.6132 73.1175L83.1699 73.6697ZM77.4852 51.7198L78.1026 52.2032L77.4852 51.7198ZM89.4093 49.6926L88.8378 50.2295L89.4093 49.6926ZM92.7369 48.9236L92.2266 48.3283L92.2025 48.3489L92.1802 48.3715L92.7369 48.9236ZM96.6885 48.9236L96.3589 49.6351L96.3589 49.6351L96.6885 48.9236ZM105.008 48.1C105.441 48.1 105.792 47.7489 105.792 47.3159C105.792 46.8828 105.441 46.5317 105.008 46.5317L105.008 48.1ZM64.2643 52.4453C66.3381 51.5943 70.0241 49.3111 73.4029 47.0117C76.7756 44.7164 79.9949 42.3009 81.1013 41.148L79.9698 40.0621C78.9965 41.0762 75.9186 43.4026 72.5205 45.7151C69.1285 48.0236 65.5698 50.2143 63.6689 50.9944L64.2643 52.4453ZM81.1013 41.148C83.3244 38.8317 84.8017 37.2745 85.9889 35.5537C87.1862 33.8181 88.0718 31.9424 89.1732 28.9959L87.7042 28.4468C86.622 31.3419 85.7895 33.0809 84.698 34.6631C83.5962 36.2602 82.2137 37.7241 79.9698 40.0621L81.1013 41.148ZM89.1732 28.9959C90.3061 25.9652 90.7752 22.4818 90.6496 19.2836C90.5246 16.1032 89.8068 13.1011 88.4674 11.0903L87.1622 11.9597C88.2772 13.6337 88.9632 16.309 89.0825 19.3452C89.2011 22.3636 88.7549 25.6359 87.7042 28.4468L89.1732 28.9959ZM88.4674 11.0903C87.6393 9.84706 86.0464 8.7854 84.2313 8.38646C82.3862 7.9809 80.2473 8.24655 78.3729 9.75857L79.3575 10.9792C80.8108 9.80691 82.4468 9.59994 83.8947 9.91818C85.3726 10.243 86.5906 11.1016 87.1622 11.9597L88.4674 11.0903ZM78.3729 9.75857C73.9654 13.314 73.3356 17.8557 72.7462 20.5303L74.2777 20.8678C74.8888 18.0949 75.4459 14.1346 79.3575 10.9792L78.3729 9.75857ZM72.7462 20.5303C72.0569 23.6579 71.0589 30.2005 70.9415 33.1603L72.5086 33.2225C72.621 30.3874 73.6 23.9428 74.2777 20.8678L72.7462 20.5303ZM70.9415 33.1603C70.8848 34.5899 70.4898 39.6166 70.0972 44.7317C69.7071 49.8154 69.3186 54.9955 69.2834 56.6665L70.8513 56.6995C70.8854 55.085 71.2683 49.968 71.6609 44.8517C72.0512 39.7667 72.4503 34.6904 72.5086 33.2225L70.9415 33.1603ZM69.2834 56.6665C69.25 58.2464 69.0057 61.4371 69.1816 64.6104C69.2701 66.207 69.4655 67.8395 69.8568 69.3124C70.246 70.7778 70.8446 72.1449 71.78 73.1542L72.9302 72.0881C72.238 71.3412 71.7282 70.2487 71.3725 68.9098C71.0188 67.5783 70.8327 66.0619 70.7475 64.5236C70.5759 61.4273 70.8153 58.4051 70.8513 56.6995L69.2834 56.6665ZM71.78 73.1542C73.4988 75.0088 75.5531 76.2058 77.6743 76.4648C79.8214 76.727 81.948 76.0154 83.7267 74.2219L82.6132 73.1175C81.155 74.5879 79.5018 75.1081 77.8644 74.9081C76.2012 74.705 74.4665 73.7457 72.9302 72.0881L71.78 73.1542ZM83.7267 74.2219C85.3849 72.5499 86.0165 70.3955 86.0402 68.1426C86.0638 65.9013 85.4889 63.5151 84.6849 61.2785C83.0764 56.8036 80.4812 52.7402 79.519 51.287L78.2114 52.1527C79.1578 53.5823 81.6666 57.5177 83.209 61.809C83.9806 63.9554 84.4929 66.1441 84.472 68.126C84.4512 70.0962 83.9066 71.8134 82.6132 73.1175L83.7267 74.2219ZM79.519 51.287C79.0511 50.5801 78.6297 49.8788 78.2088 49.1963C77.7938 48.5235 77.3784 47.8674 76.944 47.2972C76.0891 46.1748 75.0245 45.2028 73.5119 45.2028V46.7711C74.2591 46.7711 74.9169 47.2241 75.6965 48.2475C76.0793 48.7501 76.4592 49.3471 76.8739 50.0195C77.2826 50.6822 77.725 51.4182 78.2114 52.1527L79.519 51.287ZM73.5119 45.2028C71.4082 45.2028 68.6592 46.7751 68.6592 50.112L70.2275 50.112C70.2275 47.8566 72.0419 46.7711 73.5119 46.7711V45.2028ZM68.6592 50.112C68.6592 51.5564 68.852 52.9168 69.4023 53.9429C69.6835 54.4672 70.0669 54.9203 70.5777 55.2398C71.0911 55.5609 71.6896 55.7195 72.3551 55.7195V54.1513C71.946 54.1513 71.6432 54.0565 71.4093 53.9101C71.1726 53.7621 70.9624 53.5337 70.7843 53.2016C70.4161 52.515 70.2275 51.4638 70.2275 50.112L68.6592 50.112ZM72.3551 55.7195C74.8896 55.7195 76.5857 54.1407 78.1026 52.2032L76.8678 51.2364C75.4071 53.1021 74.1188 54.1513 72.3551 54.1513V55.7195ZM78.1026 52.2032C78.6337 51.5249 79.1016 50.8749 79.5095 50.3076C79.9235 49.7318 80.2641 49.2578 80.5605 48.8975C80.879 48.5104 81.0557 48.3717 81.1214 48.3412C81.1291 48.3376 81.0547 48.3726 80.9401 48.3434C80.8295 48.3153 80.7938 48.2557 80.8183 48.2871L82.0553 47.3232C81.8892 47.11 81.652 46.9062 81.3266 46.8235C80.9973 46.7397 80.6949 46.8097 80.4588 46.9197C80.037 47.1163 79.6635 47.5193 79.3494 47.9012C79.0132 48.3099 78.6389 48.832 78.2361 49.3921C77.8273 49.9608 77.3766 50.5866 76.8678 51.2364L78.1026 52.2032ZM80.8183 48.2871C80.9679 48.4792 81.1425 48.7971 81.4214 49.2691C81.6763 49.7003 81.9957 50.2161 82.3813 50.6555C82.7619 51.0891 83.2733 51.5259 83.9356 51.6841C84.639 51.8521 85.3593 51.6717 86.0565 51.1664L85.1362 49.8965C84.7242 50.1951 84.4653 50.1982 84.3 50.1587C84.0935 50.1094 83.8467 49.9476 83.56 49.6209C83.2783 49.3001 83.0215 48.8941 82.7715 48.4712C82.5457 48.089 82.2869 47.6204 82.0553 47.3232L80.8183 48.2871ZM86.0565 51.1664C86.6464 50.7388 87.0356 50.4374 87.4058 50.1752C87.7675 49.919 87.9759 49.8016 88.1166 49.7543C88.2084 49.7235 88.2323 49.7321 88.2772 49.7523C88.3732 49.7955 88.5419 49.9145 88.8378 50.2295L89.9808 49.1557C89.6528 48.8065 89.3102 48.4974 88.9209 48.3222C88.4805 48.1239 88.0451 48.1238 87.617 48.2677C87.2377 48.3952 86.8655 48.6361 86.4993 48.8954C86.1416 49.1488 85.6555 49.5201 85.1362 49.8965L86.0565 51.1664ZM88.8378 50.2295C89.6487 51.0926 90.7031 50.994 91.468 50.701C92.2256 50.4108 92.8985 49.8743 93.2937 49.4758L92.1802 48.3715C91.8821 48.672 91.3904 49.0513 90.907 49.2364C90.431 49.4188 90.1682 49.3551 89.9808 49.1557L88.8378 50.2295ZM93.2472 49.519C93.4443 49.3501 94.5451 48.7948 96.3589 49.6351L97.0182 48.2121C94.7279 47.1511 92.9539 47.7049 92.2266 48.3283L93.2472 49.519ZM96.3589 49.6351C97.1897 50.02 98.1896 50.0544 99.1343 49.9535C100.096 49.8508 101.097 49.5966 101.994 49.3131C102.895 49.0284 103.713 48.7067 104.311 48.4583C104.61 48.334 104.856 48.2271 105.026 48.1537C105.114 48.1159 105.175 48.0896 105.216 48.0728C105.238 48.064 105.244 48.0617 105.242 48.0626C105.241 48.0629 105.228 48.0676 105.208 48.0733C105.197 48.0761 105.178 48.0813 105.152 48.0862C105.133 48.09 105.078 48.1 105.008 48.1L105.008 46.5317C104.888 46.5317 104.793 46.5609 104.787 46.5625C104.757 46.5708 104.731 46.5796 104.716 46.585C104.684 46.5965 104.651 46.6098 104.623 46.6212C104.565 46.6447 104.489 46.6773 104.405 46.7137C104.232 46.7885 103.996 46.8907 103.709 47.0101C103.135 47.2488 102.363 47.5519 101.522 47.8177C100.677 48.0847 99.7851 48.3067 98.9677 48.3941C98.1338 48.4832 97.4699 48.4214 97.0182 48.2121L96.3589 49.6351Z" fill="black"/>
</svg>
